<?xml version="1.0" standalone="no"?>
<!DOCTYPE svg PUBLIC "-//W3C//DTD SVG 1.1//EN" "http://www.w3.org/Graphics/SVG/1.1/DTD/svg11.dtd" >
<svg xmlns="http://www.w3.org/2000/svg" xmlns:xlink="http://www.w3.org/1999/xlink" version="1.1">
<metadata>
Created by FontForge 20170731 at Tue Sep 29 19:07:44 2020
 By Aleksey,,,
Copyright 2012 Adobe Systems Incorporated. All rights reserved.
</metadata>
<defs>
<font id="Noteworthy-Bold" horiz-adv-x="1546" >
  <font-face 
    font-family="Noteworthy"
    font-weight="700"
    font-stretch="normal"
    units-per-em="2048"
    panose-1="0 0 0 0 0 0 0 0 0 0"
    ascent="1638"
    descent="-410"
    x-height="1085"
    cap-height="1731"
    bbox="-1019 -891 2949 2642"
    underline-thickness="51"
    underline-position="-416"
    unicode-range="U+0008-FE48"
  />
<missing-glyph horiz-adv-x="1280" 
d="M320 1889v-1728h640v1728h-640zM1121 0h-960v2048h960v-2048z" />
    <glyph glyph-name=".notdef" horiz-adv-x="1280" 
d="M320 1889v-1728h640v1728h-640zM1121 0h-960v2048h960v-2048z" />
    <glyph glyph-name=".null" horiz-adv-x="0" 
 />
    <glyph glyph-name="nonmarkingreturn" horiz-adv-x="682" 
 />
    <glyph glyph-name="NULL" horiz-adv-x="0" 
 />
    <glyph glyph-name="NULL" horiz-adv-x="0" 
 />
    <glyph glyph-name="uni0008" horiz-adv-x="0" 
 />
    <glyph glyph-name="uni0009" unicode="&#x9;" horiz-adv-x="427" 
 />
    <glyph glyph-name="CR" unicode="&#xd;" horiz-adv-x="427" 
 />
    <glyph glyph-name="uni001D" horiz-adv-x="0" 
 />
    <glyph glyph-name="space" unicode=" " horiz-adv-x="427" 
 />
    <glyph glyph-name="exclam" unicode="!" horiz-adv-x="688" 
d="M520 166q0 -194 -223 -194q-44 0 -156 48q-31 59 -31 108q0 148 182 148q72 0 136 -25q92 -35 92 -85zM594 1623q0 -17 -13 -38l-23 -36q-61 -157 -87 -371q-9 -64 -38 -384q0 -8 -6.5 -50.5t-6.5 -57.5q0 -62 28 -177q-17 -22 -51 -56q-29 -8 -62 -8q-54 0 -94 26
q-39 73 -39 184q0 120 46 349q49 232 49 350q0 28 -18 138q-15 74 -15 141q0 22 5 44q66 54 156 54q55 0 107 -26q62 -35 62 -82z" />
    <glyph glyph-name="quotedbl" unicode="&#x22;" horiz-adv-x="686" 
d="M269 1695q-16 -98 -16 -374q0 -81 -10 -100q-19 -33 -87 -33q-57 0 -84 56q-8 320 -8 353q0 151 123 151q26 0 82 -53zM594 1654q0 -7 -26 -62q-25 -53 -25 -112q0 -16 3.5 -81.5t3.5 -85.5q0 -125 -99 -125q-56 0 -85 56q-1 69 -2.5 141t-2 102.5t-0.5 38.5q0 44 28 120
q29 87 69 87q39 0 82 -23q54 -27 54 -56z" />
    <glyph glyph-name="numbersign" unicode="#" horiz-adv-x="1282" 
d="M617 663l69 499h-84h-72q-13 -185 -46 -507zM1165 1239q0 -125 -105 -125q-15 0 -72 17.5t-77 17.5q-42 -291 -66 -476h20q208 0 208 -110q0 -125 -105 -125q-16 0 -74 5t-75 5q-10 -109 -10 -279q0 -10 6.5 -35.5t6.5 -31.5q0 -47 -39.5 -82t-88.5 -35q-64 0 -98 61
q-33 52 -33 115q0 134 26 300h-64q-31 0 -62 -3q-38 -292 -38 -330q0 -154 -133 -154q-36 0 -69.5 38.5t-33.5 77.5q0 106 34 314q-39 -12 -54 -12q-47 0 -77 69q-28 59 -28 107q0 77 49 77v0v0v0v0v0v0v0h1v0v0h1v0v0h1v0h1v0h1v0h1h1v0h1v0h1h1v0h1h1h1h1v0h1h1h1h1h1h1h1
h1h1h1h1h1h1h1h1h1h1h1h1h1h1h1h1h1h1h1h1h1h1h1h1h1h1h1h1h1h1h1h1h1h1h1h1h1h1h1h1h1h1h1h1h1h1h1h1h1h1h1h1h1h1h1h1h1h1h1h1h1h1h1h1h1h1h1h1h1h1h1h1h1h1h1h1h1h1h1h1h1h1h1h1h1h1h1h1h1h1h1h1h1h1h1h1h1h1h1h1h1h1h1h1h1h1h1h1h1h1h1h1h1h9l38 466q-46 -18 -102 -18
q-27 0 -46 56q-15 42 -15 80q0 68 66 110l131 8q9 145 33 343q91 51 133 51q54 0 88.5 -33.5t34.5 -87.5q0 -25 -38 -145l-16 -116l151 5l46 341q95 61 121 61q57 0 102.5 -35t45.5 -87q0 -36 -33 -128q-40 -118 -44 -139h11q75 0 130 -33q72 -38 72 -105z" />
    <glyph glyph-name="dollar" unicode="$" horiz-adv-x="1341" 
d="M916 599q0 31 -33 38l-54 11v-126l57 5q30 5 30 72zM632 893v200l-64 -49q-28 -28 -28 -71q0 -15 7.5 -27t24.5 -22.5t27 -15.5t33 -15zM1219 1277q0 -59 -90 -94q-76 -26 -143 -26q-10 0 -47.5 4t-47.5 4q-18 0 -26 -3q-14 -120 -25 -315q185 -50 222 -59
q131 -50 131 -158q0 -115 -128 -182q-2 -2 -225 -77v-15q0 -124 7 -164q0 -4 6.5 -36.5t6.5 -42.5q0 -81 -13 -113q-21 -44 -89 -44h-64q-62 183 -67 387q-18 0 -31 -3h-28q-111 0 -292 52q-212 66 -212 153q0 51 54 85q48 28 102 28q48 0 105 -41l92 -69q54 -28 213 -33
q-10 29 -10 166q-159 57 -210 92q-110 73 -110 187q0 130 117 220q46 39 228 133v302q0 57 52 95t117 38q35 0 64 -23l54 -41v-53q0 -33 -28 -64q-17 -22 -21 -190q116 21 136 21q57 0 125 -31q75 -35 75 -90z" />
    <glyph glyph-name="percent" unicode="%" horiz-adv-x="1845" 
d="M543 1142l5 7q-178 20 -272 136q-5 -25 -5 -41q0 -258 133 -258q105 0 139 156zM1495 430q0 119 -38 172q-22 33 -85 61q-62 27 -84 54q-58 -50 -98 -149q-41 -101 -41 -176q0 -87 36 -156q43 -85 126 -85q87 0 141 100q43 86 43 179zM579 1326q-5 62 -41 126
q-42 81 -90 81q-49 0 -49 -74q0 -62 62 -97q44 -31 118 -36zM1436 1592q0 -18 -9 -34t-21 -27t-40 -36.5t-48 -45.5q-141 -170 -368 -637q-228 -474 -282 -694q31 -28 31 -57q0 -33 -26.5 -57t-63.5 -24q-48 0 -117 66q-3 51 -3 100q0 147 179 527l254 538l-167 -51
q-84 -346 -343 -346q-348 0 -348 397q0 205 79 340q96 169 285 169q143 0 243 -125q88 -110 100 -264q94 36 215 115q137 92 166 164q26 66 41 85q26 33 79 33q64 0 114 -39.5t50 -96.5zM1702 430q0 -190 -97 -317q-102 -133 -292 -133q-176 0 -276 115q-95 107 -95 289
q0 155 79 323q95 202 228 202q40 0 136 -39l13 -30l7 2q136 4 226 -141q71 -119 71 -271z" />
    <glyph glyph-name="ampersand" unicode="&#x26;" horiz-adv-x="1784" 
d="M860 202q-199 163 -374 369q-98 -106 -122 -143q-62 -89 -62 -175q0 -125 207 -125q62 0 180 23q125 29 171 51zM865 1416q0 59 -39.5 96t-101.5 37q-119 0 -207 -100q-89 -97 -89 -215q0 -85 28 -177q30 -111 84 -153q113 86 213 230q112 166 112 282zM1644 87
q0 -65 -80 -118q-75 -53 -143 -53q-47 0 -101 16.5t-81.5 29.5t-96 51.5t-80.5 45.5q-307 -120 -535 -120q-194 0 -317 79q-146 96 -146 279q0 104 108 248q56 71 189 208q-159 298 -159 473q0 226 138 364q137 141 364 141q167 0 269 -87q110 -95 110 -256
q0 -163 -154 -364q-79 -101 -281 -300q30 -50 212 -227q187 -182 220 -182q27 0 128 72q108 74 108 84q0 64 -167 64q-53 0 -125 -36q-90 35 -90 100q0 120 159 120q143 0 292 -38q212 -50 212 -141q0 -170 -322 -366q91 -69 166 -69q14 0 63 15.5t65 15.5q75 0 75 -49z" />
    <glyph glyph-name="quotesingle" unicode="'" horiz-adv-x="371" 
d="M292 1677q0 -7 -26 -62q-25 -53 -25 -110q0 -42 -11 -105q-7 -64 -7 -105v-64q-7 -18 -49 -18q-80 0 -110 54v13q0 102 20 256q27 199 80 215q17 5 18 5q39 0 74.5 -23.5t35.5 -55.5z" />
    <glyph glyph-name="parenleft" unicode="(" horiz-adv-x="588" 
d="M499 1710q0 -20 -26 -39.5t-48 -19.5q-3 0 -12 -10t-18.5 -22.5t-13.5 -15.5q-79 -123 -79 -533q0 -644 79 -865q11 -29 52 -115q38 -86 38 -103q0 -53 -42.5 -85.5t-100.5 -32.5q-84 0 -151 221q-113 371 -113 793q0 233 69 563q88 441 225 441q61 0 101 -53.5
t40 -123.5z" />
    <glyph glyph-name="parenright" unicode=")" horiz-adv-x="606" 
d="M517 842q0 -423 -136 -760q-62 -159 -143 -159q-48 0 -97 36t-49 79q0 14 7.5 27t15.5 22t31 31.5t38 37.5q105 152 105 522q0 286 -25 510q-42 356 -123 440q0 2 -46 36q-31 23 -31 41q0 63 41 107t102 44q40 0 69 -10q125 -137 190 -476q51 -274 51 -528z" />
    <glyph glyph-name="asterisk" unicode="*" horiz-adv-x="714" 
d="M786 1498v-8l-202 -123l120 -82q59 -41 59 -82q0 7 -3 -3q-1 -4 -4 -15l-3 -10q-5 -30 -5 -33q-10 -10 -36 -10q-99 0 -187 76l-5 -59q-4 -33 76 -138v-25q-77 -36 -81 -36q-45 0 -95 82v-3q-63 115 -92 156l-123 -112q-68 -59 -113 -59q-22 0 -77 23v51q0 4 169 169
q-44 53 -146 67q-85 12 -115 33q23 89 108 112q27 11 184 6l-8 20q-4 5 -11 18t-12 20q-3 4 -13 23t-20 29q-43 58 -43 76q0 32 35 65t67 33q43 0 100 -123l92 -190l310 203q35 0 54.5 -48.5t19.5 -102.5z" />
    <glyph glyph-name="plus" unicode="+" horiz-adv-x="1525" 
d="M1395 916q0 -163 -169 -163h-399v-302q0 -47 28 -154q-38 -56 -84 -56q-177 0 -177 158v354h-492q-38 64 -38 107q0 48 36.5 88t81.5 40q61 0 135 -10t136 -10h141v468q72 36 115 36q45 0 100 -33q59 -36 59 -72q0 -38 -21 -128q-20 -83 -20 -125v-146h343q61 0 164 25
q61 -34 61 -77z" />
    <glyph glyph-name="comma" unicode="," horiz-adv-x="450" 
d="M49 118q0 59 52.5 105t121.5 46q76 0 128.5 -67t52.5 -166q0 -108 -20.5 -178t-71.5 -132q-54 -70 -117 -115.5t-113 -45.5q-43 6 -60 32t9 63q126 69 161 174q37 100 -38 148q-38 25 -55.5 38t-33.5 39t-16 59z" />
    <glyph glyph-name="hyphen" unicode="-" horiz-adv-x="852" 
d="M753 717q-16 -5 -16 -18q0 -5 6.5 -20.5t6.5 -20.5q0 -28 -87 -28q-11 0 -48 6.5t-49 6.5q-74 0 -133 -3t-133 -3q-236 0 -236 87q0 75 67 75q14 0 60 -10.5t60 -10.5q41 0 161 5q123 5 164 5q158 0 177 -71z" />
    <glyph glyph-name="period" unicode="." horiz-adv-x="488" 
d="M435 102q0 -45 -77 -87q-75 -41 -128 -41q-51 0 -120 44q-64 41 -64 102q0 50 52 90.5t109 40.5q72 0 144 -41q84 -50 84 -108z" />
    <glyph glyph-name="slash" unicode="/" horiz-adv-x="1274" 
d="M1157 1772q-65 -108 -97 -180l-528 -1164q-120 -266 -145 -313q-117 -217 -223 -217q-40 0 -70 25t-30 62q0 20 9 38.5t32 48t28 36.5q167 229 310 591l246 619l74 167q38 82 56 171q-5 29 21 74t78.5 81t110.5 32q62 -5 128 -71z" />
    <glyph glyph-name="zero" unicode="0" horiz-adv-x="1617" 
d="M1257 919q0 241 -95 405q-116 197 -343 197q-73 0 -153 -46q-176 -103 -277 -315q-89 -198 -89 -415q0 -236 117 -384q130 -161 361 -161q242 0 374 251q105 202 105 468zM1485 906q0 -350 -185 -624q-211 -310 -545 -310q-319 0 -512 235q-179 218 -179 546
q0 284 159 563q177 307 435 376q88 26 210 26q277 0 458 -277q159 -244 159 -535z" />
    <glyph glyph-name="one" unicode="1" horiz-adv-x="640" 
d="M484 1587q0 -24 -31 -171q-77 -364 -77 -564v-501q0 -197 21 -226q43 -68 43 -79q0 -36 -28.5 -63t-65.5 -27q-50 0 -146 44q-31 68 -31 118v1060l-41 30v82q0 115 54 264q69 187 153 187q49 0 98 -54q51 -51 51 -100z" />
    <glyph glyph-name="two" unicode="2" horiz-adv-x="1530" 
d="M1400 161q0 -39 -26 -72t-61 -33q-24 0 -94 16q-61 15 -95 15q-404 0 -807 -123q-83 -23 -102 -23q-63 0 -107 38t-44 98q0 66 64 130q14 17 115 98q272 215 466 458q266 331 266 571q0 92 -67 151t-163 59q-103 0 -230 -85q-128 -87 -154 -184q-11 -41 -33 -174
q-31 -113 -108 -113q-35 0 -95 44q-53 41 -53 79q0 154 140 323q124 155 277 230q129 61 276 61q178 0 318 -128q141 -125 141 -307q0 -270 -272 -576q-96 -109 -484 -455q-41 -36 -66 -64l840 125q8 3 28 3q57 0 93.5 -49t36.5 -113z" />
    <glyph glyph-name="three" unicode="3" horiz-adv-x="1684" 
d="M1523 594q0 -168 -107 -302q-246 -310 -676 -310q-197 0 -351 41q-101 26 -205 108q-120 97 -120 186q0 43 39 78t84 35q75 0 110 -69q51 -107 82 -131q84 -69 281 -69q179 0 313 62q155 68 238 202q56 94 56 154q0 124 -148 207q-127 74 -256 74q-32 0 -190 -59
q-150 -56 -243 -56q-47 0 -90 20q-51 23 -51 67q0 65 63 118.5t196 60.5q186 12 220 28q72 28 192 159q105 120 105 230q0 141 -146 141q-88 0 -233 -64q-150 -66 -192 -123v-7q0 -1 1.5 -5t5 -13t6.5 -18q-27 -57 -108 -123q-90 -67 -146 -67q-46 0 -89.5 33t-43.5 72
q0 58 69 146q113 149 331 259q218 115 399 115q161 0 269 -84q118 -88 118 -249q0 -105 -70 -233q-69 -116 -156 -189q443 -101 443 -425z" />
    <glyph glyph-name="four" unicode="4" horiz-adv-x="1797" 
d="M1044 640l64 663q-156 -103 -432 -333q-333 -279 -333 -361q0 -23 36 -23l15 3zM1692 553l3 -95q0 -54 -57 -54q11 0 -3 3q-29 6 -109 13l-277 23l5 -179q4 -98 44 -174q23 -43 23 -59q0 -34 -38 -90q-43 -23 -85 -23q-39 0 -74 23q-97 0 -97 233q0 22 3.5 101t3.5 101
q0 7 4 28t4 26q-123 -5 -325 -33q-227 -28 -333 -28q-86 0 -197 66q-123 73 -123 154q0 97 159 240q42 37 123.5 103.5t114.5 94.5q240 195 548 478l117 139q64 74 157 74q60 0 106.5 -41.5t46.5 -96.5q0 -24 -20 -90l-28 -87q-6 -18 -72 -423q-44 -278 -44 -337
q32 10 123 10q224 0 297 -100z" />
    <glyph glyph-name="five" unicode="5" horiz-adv-x="1576" 
d="M1418 596q0 -278 -235 -471q-221 -176 -510 -176q-128 0 -217 18q-99 20 -231 92q-161 88 -161 156q0 105 133 105q78 0 207 -95q132 -94 228 -94q217 0 366 107q172 123 172 328q0 138 -105 220q-94 72 -238 72q-70 0 -195 -26q-130 -31 -176 -74q-78 -67 -118 -67
q-44 0 -138 51q1 16 17 81.5t16 87.5v128q0 31 -1.5 73t-1.5 53q0 331 90 522q43 23 87 23q69 0 108 -46q12 0 138 15q238 34 379 34q68 0 133 -31q77 -39 77 -102q0 -45 -57 -141h-53q-29 0 -54 10l-49 18q-28 10 -115 10q-66 0 -220 -13q-182 -12 -200 -30
q-38 -34 -38 -343q0 -89 2 -108q196 87 405 87q234 0 386 -118q169 -126 169 -356z" />
    <glyph glyph-name="six" unicode="6" horiz-adv-x="1566" 
d="M1180 620q0 161 -94.5 253t-256.5 92q-137 0 -273 -92q-135 -92 -198 -220q-3 -11 -43 -118q19 -180 110 -294q105 -128 276 -128q205 0 343 153q136 147 136 354zM1411 589q0 -286 -208 -474q-206 -189 -494 -189q-296 0 -476 199q-169 191 -169 495q0 279 159 558
q149 263 389 435q192 138 287 138q52 0 112 -49q62 -50 62 -99q0 -42 -28 -76.5t-65 -34.5q-44 0 -71 39q-127 -20 -320 -220q-192 -204 -192 -333v-18q225 195 425 195q259 0 425 -154q164 -152 164 -412z" />
    <glyph glyph-name="seven" unicode="7" horiz-adv-x="1377" 
d="M1293 1582q0 -46 -23 -77q-1 -1 -6.5 -8t-18 -21t-26.5 -30q-349 -372 -617 -1054q-62 -159 -62 -261q0 -23 44 -164q-23 -67 -80 -67q-82 0 -130 72q-49 65 -49 146q0 40 23 130q86 347 259 643l350 599q0 2 0.5 14t0 15.5t-3.5 11t-9.5 10.5t-17.5 3q-110 0 -338 -34
q-263 -39 -289 -76q-14 -22 -21 -116q-7 -81 -74 -138q-29 -8 -51 -8q-50 0 -89 32t-39 79q0 27 15 69l23 66q3 15 11 62.5t12.5 68t14 58.5t23 68.5t31.5 62.5q85 -5 123 -64q57 5 136 31q117 39 133 43q121 26 279 26q135 0 274 -41q192 -57 192 -151z" />
    <glyph glyph-name="eight" unicode="8" horiz-adv-x="1559" 
d="M1188 430q0 148 -192 248q-81 41 -325 110q-20 7 -44 11q-200 -124 -223 -144q-117 -95 -117 -222q0 -155 169 -231q124 -56 302 -56q158 0 281 59q149 76 149 225zM1108 1262q-101 163 -135 197q-80 80 -223 80q-147 0 -256 -72q-125 -83 -125 -223q0 -80 110 -148
q97 -64 181 -64q55 0 228 94q171 93 220 136zM1426 461q0 -184 -131 -320q-128 -132 -317 -167q-89 -18 -225 -18q-269 0 -456 103q-233 125 -233 374q0 271 302 455q-220 151 -220 348q0 228 194 369q173 131 410 131q147 0 282 -70t220 -191q27 15 36 15q47 0 77 -36.5
t30 -89.5q0 -129 -159 -253q-71 -58 -273 -159q463 -149 463 -491z" />
    <glyph glyph-name="nine" unicode="9" horiz-adv-x="1415" 
d="M1032 1068q0 186 -80 327q-96 177 -263 177q-172 0 -292 -182q-105 -160 -105 -343q0 -140 83.5 -231.5t218.5 -91.5q68 0 233 98q163 96 189 161q16 37 16 85zM1265 1078q0 -344 -172 -638q-78 -137 -212 -279q-173 -181 -279 -181q-55 0 -131 46q-87 49 -87 102
q0 38 29.5 66.5t67.5 28.5t82 -36q83 4 218 192q91 127 156 271q-186 -110 -346 -110q-241 0 -384 146t-143 384q0 298 161 484q168 202 459 202q270 0 432 -207q149 -191 149 -471z" />
    <glyph glyph-name="colon" unicode=":" horiz-adv-x="514" 
d="M422 929q0 -64 -59 -105t-135 -41q-151 0 -151 146q0 131 148 131q69 0 128 -31q69 -35 69 -100zM404 110q0 -52 -44 -95t-96 -43q-60 0 -131 51q-69 49 -69 110q0 48 46.5 93t94.5 45q75 0 137 -46.5t62 -114.5z" />
    <glyph glyph-name="semicolon" unicode=";" horiz-adv-x="540" 
d="M100 118q0 59 52.5 105t121.5 46q76 0 129 -67t53 -166q0 -108 -20.5 -178t-71.5 -132q-54 -70 -117.5 -115.5t-113.5 -45.5q-43 6 -60 32t9 63q126 69 161 174q37 100 -38 148q-38 25 -55.5 38t-33.5 39t-16 59zM443 929q0 -64 -59.5 -105t-135.5 -41q-151 0 -151 146
q0 131 149 131q69 0 128 -31q69 -35 69 -100z" />
    <glyph glyph-name="less" unicode="&#x3c;" horiz-adv-x="1093" 
d="M983 517q0 -34 -51 -74q-52 -36 -90 -36q-20 0 -366 182q-335 176 -376 212q-36 36 -36 64q0 50 54 80l681 399q156 -46 156 -143q0 -51 -545 -323q86 -42 540 -274q33 -59 33 -87z" />
    <glyph glyph-name="equal" unicode="=" horiz-adv-x="1185" 
d="M1070 584v-95q-746 -33 -804 -33q-202 0 -202 107l12 78q0 5 1 9q70 16 82 16q15 0 69 -5.5t69 -5.5q46 0 164 8t166 8q20 0 84 -4t80 -4q21 0 91 16.5t91 16.5q28 0 62.5 -40.5t34.5 -71.5zM1070 934q0 -13 -5 -43q-5 -38 -5 -44q-66 -15 -85 -15q-16 0 -74 23
q-53 21 -363 21q-124 0 -285 -44l-28 -8l-46 -10q-38 0 -76.5 40.5t-38.5 79.5v95q753 33 796 33q67 0 133 -30q77 -39 77 -98z" />
    <glyph glyph-name="greater" unicode="&#x3e;" horiz-adv-x="1093" 
d="M983 881q0 -47 -54 -77l-376 -225q-310 -187 -351 -187q-45 0 -80 40.5t-35 87.5q0 17 3 25q27 66 547 323q-202 99 -540 274q-33 63 -33 87q0 35 51 71q49 39 90 39q22 0 363 -182q346 -184 377 -212q38 -29 38 -64z" />
    <glyph glyph-name="question" unicode="?" horiz-adv-x="1487" 
d="M689 110q0 -39 -72 -77q-64 -36 -108 -36q-48 0 -105 39q-56 38 -56 87q0 44 45.5 79.5t95.5 35.5q61 0 128 -38q72 -38 72 -90zM1359 1270q0 -170 -199 -320q-53 -43 -369 -220q-200 -111 -200 -187q0 -16 29 -69q29 -54 25 -93v-17q-32 -8 -64 -8q-79 0 -159 61
q-87 65 -87 144q0 139 197 256q64 39 187.5 106t173.5 96q195 116 195 251q0 100 -79 156q-76 51 -174 51q-93 0 -256 -77q-157 -76 -231 -153q97 -23 97 -85q0 -48 -56 -89q-53 -41 -105 -41q-69 0 -143 64q-77 66 -77 128q0 101 174 245q156 128 271 167q180 66 282 66
q178 0 364 -125q204 -143 204 -307z" />
    <glyph glyph-name="at" unicode="@" horiz-adv-x="2255" 
d="M1490 927q10 -18 16.5 -41t8.5 -49.5t2.5 -45t-0.5 -45.5t-1 -34q0 -19 -4 -37t-22.5 -36.5t-50.5 -18.5q-64 0 -107 27.5t-37 76.5q30 259 -115 259q-80 0 -148.5 -70t-94.5 -214q-39 -190 -8 -303.5t131 -113.5q38 0 78.5 35.5t69.5 85t48.5 92t26.5 68.5l122 -18
q-3 -18 -24 -65.5t-60 -110t-85 -120t-106 -97t-116 -39.5q-79 0 -139 30t-94 81t-55 119t-21.5 144.5t7.5 157.5q15 121 57.5 222t100.5 165.5t125 99.5t134 35q89 0 205.5 -87t155.5 -153zM1280 632q14 45 48 61t116 16q39 0 54 -25q7 -11 7 -26q-26 -40 -51 -133
q-9 -33 -9 -76t10.5 -90.5t48.5 -80t99 -32.5q63 0 115 101t78.5 239.5t26.5 271.5q0 123 -52 239t-139 200.5t-205 136t-244 51.5q-69 0 -138 -13.5t-144.5 -46.5t-142.5 -83t-127.5 -128.5t-104.5 -176t-70 -232.5t-26 -293q0 -134 22 -243.5t58 -183.5t89 -129t106.5 -86
t119.5 -50t120 -24.5t115 -5.5q360 0 619 174q6 4 17.5 14.5t19.5 16t18 10t19 -0.5t16 -19q25 -47 32.5 -98t-10 -96.5t-60.5 -66.5q-207 -98 -316 -126t-268 -28q-118 0 -235 27t-229.5 80t-209 139t-169.5 196t-114.5 260.5t-41.5 323.5q0 155 32.5 296t89 249.5
t132 200.5t161 156.5t176.5 109.5t178.5 66t167.5 21q148 0 298 -47t277 -131t226.5 -192t156 -239.5t56.5 -263.5q0 -125 -23.5 -231.5t-64.5 -182.5t-94 -134t-115 -92.5t-125 -51.5t-126 -17q-143 0 -227.5 83.5t-84.5 197.5q0 58 8 102.5t33 135.5z" />
    <glyph glyph-name="A" unicode="A" 
d="M1057 550q-111 894 -202 894q-73 0 -251 -420q-122 -283 -202 -525q101 24 243 44q128 20 412 7zM1416 453q0 -121 -110 -125q11 -50 56 -159q-2 -55 -45.5 -91.5t-103.5 -36.5q-43 0 -107 28q-33 63 -33 159q0 16 2.5 66t2.5 64q0 -18 -85 -18q-143 0 -340 -12
q-278 -15 -307 -44q-24 -28 -31 -274q-33 -48 -85 -48t-110 43q-56 46 -56 97q0 6 5.5 22t17.5 51t23 71q4 11 60 206t106 339q162 464 309 702t262 238q224 0 343 -497q53 -217 100 -684q70 -16 85 -25q41 -22 41 -72z" />
    <glyph glyph-name="B" unicode="B" horiz-adv-x="1456" 
d="M1098 492q0 100 -248 130q-86 10 -338 10q-78 0 -138 -5q-3 -44 -3 -123v-158q0 -67 3 -93q130 -51 276 -51q139 0 282 77q166 89 166 213zM1044 1254q0 315 -227 315q-164 0 -305 -217q-131 -197 -131 -369v-164h139q270 0 384 80q140 99 140 355zM1331 476
q0 -84 -41 -156q-184 -315 -635 -315q-125 0 -271 33q-26 -79 -95 -79q-123 0 -123 102v36q0 24 -7 28q-3 2 -13 6t-14 6l-13 6.5t-13 7t-11 8t-10.5 9.5t-8 10.5t-7 13t-4 14.5t-1.5 17q0 77 77 89v5q0 105 2 151q3 64 3 154v18q-54 34 -54 77q0 50 49 84v784
q0 40 44.5 82.5t85.5 42.5q57 0 77 -15l51 -57l-20 -115q177 238 448 238q216 0 338 -156q112 -144 112 -361q0 -129 -53 -253q-53 -131 -144 -215q251 -82 251 -300z" />
    <glyph glyph-name="C" unicode="C" horiz-adv-x="1438" 
d="M1313 420q0 -54 -25 -118q-67 -172 -241 -266q-159 -87 -353 -87q-315 0 -484 238q-146 208 -146 535q0 270 84 509q96 272 280 425q149 121 296 121q219 0 331 -190q92 -154 92 -386q0 -107 -54 -264q-65 -195 -143 -195q-89 0 -136 113q33 24 72 59q51 59 51 220
q0 163 -33 269q-50 166 -169 166q-82 0 -179 -105q-82 -90 -126 -176q-125 -244 -125 -612q0 -533 399 -533q168 0 271 98q46 46 121 181q57 100 115 100q40 0 71 -31.5t31 -70.5z" />
    <glyph glyph-name="D" unicode="D" horiz-adv-x="1423" 
d="M1044 1073q0 522 -307 522q-123 0 -248 -128q-103 -108 -145 -237.5t-42 -297.5v-551q0 -240 202 -240q181 0 331 187q122 157 169 361q40 171 40 384zM1298 1062q0 -402 -184 -724q-219 -384 -592 -384q-134 0 -230 54q-53 -49 -105 -49q-32 0 -72 33q-51 147 -51 382
q0 272 10 614q13 445 13 615q0 4 -2.5 18.5t-2.5 19.5q0 45 33 73.5t80 28.5q66 0 115 -47t36 -106q131 192 371 192q294 0 448 -220q133 -189 133 -500z" />
    <glyph glyph-name="E" unicode="E" horiz-adv-x="1377" 
d="M1252 192q0 -45 -18 -77q-23 -43 -62 -43q-6 0 -29 3.5t-29 3.5q-108 0 -320 -66q-210 -67 -318 -67q-412 0 -412 625q0 501 26 778q2 17 2 41q0 12 -5 52t-5 50q0 119 128 139q183 32 394 74q255 49 387 49q75 0 130 -26q77 -35 77 -100q0 -95 -125 -95q-10 0 -47.5 4
t-47.5 4q-207 0 -566 -92q-1 0 -8 -0.5t-8.5 -1t-7.5 -1.5t-8 -2t-6.5 -2.5t-6.5 -4t-5.5 -6t-5.5 -7.5t-4.5 -9.5t-3.5 -11.5q-28 -128 -28 -481q0 -54 49 -54q71 0 192 33t192 33q76 0 171 -46q26 -78 26 -100q0 -64 -39 -69l-82 -10q-21 13 -56 13q-108 0 -215 -23
q-32 -6 -103 -21.5t-109 -22.5q-3 0 -11 -1t-11 -2t-8.5 -4t-8.5 -10t-5 -18q-5 -52 -5 -75q0 -193 8 -235q27 -149 140 -149q91 0 285 59q189 62 297 62q175 0 225 -90z" />
    <glyph glyph-name="F" unicode="F" horiz-adv-x="1280" 
d="M1198 1603q0 -93 -123 -93q-10 0 -47.5 4t-47.5 4q-108 0 -261 -38q-227 -54 -258 -59l-36 -249q-21 -140 -21 -250q0 -42 10 -63t31 -17l18 3q124 18 287 18q179 0 261 -113q0 -107 -79 -107q-10 0 -45 7.5t-45 7.5q-9 0 -40 1t-54 1h-95q-153 0 -215 -15
q-40 -7 -49 -25q-15 -27 -15 -162q0 -297 20 -325q39 -57 39 -74q0 -36 -41.5 -70.5t-79.5 -34.5q-90 0 -117 54q-54 96 -54 376q0 144 28 458q31 313 31 458q0 113 -18 113q-4 0 -17 -2.5t-17 -2.5q-30 0 -57 40t-27 78q0 42 49 61q13 8 82 26q-3 15 -3 36q0 87 87 87
q49 0 151 -80q404 69 561 69q80 0 133 -25q74 -35 74 -97z" />
    <glyph glyph-name="G" unicode="G" horiz-adv-x="1410" 
d="M1285 517q0 -227 -194 -397q-198 -174 -420 -174q-324 0 -482 254q-125 205 -125 555t151 640q181 351 502 351q157 0 276 -74q132 -85 162 -231q3 -13 5.5 -25t5 -21.5t4 -19t3 -16t3 -12.5t2 -10t1 -6.5t1.5 -3.5v-1q0 -338 -153 -338q-47 0 -85 31.5t-38 76.5
q0 28 25 74q28 51 28 77q0 144 -35 199q-47 75 -182 75q-138 0 -256 -172q-99 -147 -128 -299q-31 -170 -31 -308q0 -240 39 -348q62 -174 248 -228q57 -15 92 -15q99 0 195 77q83 63 138 161q29 57 33 136l-10 7q-179 0 -282 -43q-44 -22 -61 -33q-39 -18 -64 -18
q-61 0 -98.5 51.5t-37.5 122.5q0 56 59 92q47 23 241 49q189 23 258 23q210 0 210 -259z" />
    <glyph glyph-name="H" unicode="H" horiz-adv-x="1617" 
d="M1485 1577q0 -23 -36 -51t-41 -41q-68 -131 -61 -494l2 -100q3 2 18 2q37 0 72.5 -43t35.5 -85q0 -31 -49 -43l-77 -15l5 -244q4 -149 34 -233q20 -68 20 -84q0 -52 -38.5 -94t-89.5 -42q-98 0 -128 103l-23 179q-5 38 -5 136v104q0 100 -13 172q-146 -4 -353 -44
l-351 -66q10 -29 10 -277q0 -192 59 -256q8 -13 8 -25q0 -67 -103 -67q-92 0 -148 59q-34 34 -64 533q-46 9 -75.5 57t-29.5 104q0 10 5 18.5t10.5 13.5t18 10.5t19.5 8t23 7t21 6.5l11 120q7 69 7 118q0 451 49 573q42 100 141 100q64 0 116.5 -40.5t52.5 -97.5
q0 -27 -21 -77l-31 -71q-69 -215 -69 -512v-59q1 0 42 6t79 14q305 62 568 62q7 369 20 486q42 369 177 369q77 0 129.5 -59.5t52.5 -140.5z" />
    <glyph glyph-name="I" unicode="I" horiz-adv-x="519" 
d="M433 1595q0 -13 -23 -56q-14 -22 -21 -116q-54 -541 -54 -1006q0 -107 21 -181q25 -73 74 -162q3 -3 3 -15q0 -54 -126 -54h-23q-132 0 -159 210q-35 257 -35 699q0 221 2 315q5 235 5 320q0 58 62 112q61 54 120 54q47 0 100 -38q54 -39 54 -82z" />
    <glyph glyph-name="J" unicode="J" horiz-adv-x="1400" 
d="M1277 1585q0 -90 -102 -90q-15 0 -65 5t-66 5q-33 0 -33 -25q0 -61 3 -110q5 -82 5 -113q0 -1288 -487 -1288q-192 0 -355 205q-151 193 -151 392q0 67 30 148q39 100 92 100q87 0 128 -79q39 -66 39 -154q0 -20 -2.5 -84t-2.5 -80q0 -71 66 -148q69 -77 141 -77
q261 0 261 699q0 113 -20 522q-31 -8 -162 -74q-119 -62 -143 -62q-50 0 -84 42.5t-34 96.5q0 89 177 143l253 77q27 97 116 97q22 0 97 -43q10 1 60 12t68 11q63 0 117 -37.5t54 -90.5z" />
    <glyph glyph-name="K" unicode="K" horiz-adv-x="1538" 
d="M1472 205q0 -68 -84 -110q-71 -31 -146 -31q-355 0 -717 666q-215 -250 -215 -338q0 -232 59 -336l7 -71q-55 -64 -112 -64q-88 0 -144 133t-56 950q0 475 33 647q19 108 118 108q62 0 138 -49q77 -50 77 -105q0 -15 -4 -26t-12.5 -18.5t-14.5 -12t-18 -10t-15 -7.5
q-18 -18 -41 -356q-16 -281 -20 -399q686 944 865 944q30 0 64 -15l54 -74q33 -44 33 -82q0 -33 -24.5 -57.5t-57.5 -24.5q-19 0 -54 15l-7 8q-65 -8 -251 -233q-187 -226 -187 -294q0 -151 171 -425q180 -295 315 -295q9 0 67.5 22t83.5 22q95 0 95 -82z" />
    <glyph glyph-name="L" unicode="L" horiz-adv-x="1175" 
d="M1060 67q-275 -100 -584 -100q-242 0 -338 169q-74 131 -74 389q0 146 23 448q26 285 26 448q0 21 -5 89q-6 82 -6 93q0 17 6 69q49 61 125 61q71 0 110 -92q31 -76 31 -154q0 -180 -34 -517q-33 -327 -33 -514q0 -302 172 -302q73 0 220 51q143 54 220 54q72 0 110 -64
q31 -51 31 -128z" />
    <glyph glyph-name="M" unicode="M" horiz-adv-x="1789" 
d="M1649 1656q0 -36 -23 -59l-41 -46q-17 -30 -31 -133q-64 -506 -64 -1031q0 -289 102 -323v-69q-29 -64 -94 -64q-132 0 -198 228q-48 157 -48 338q0 380 20 645l-156 -602q-60 -227 -133 -346.5t-143 -119.5q-151 0 -267 274q-103 237 -263 835q-16 -184 -16 -356
q0 -362 21 -545q7 -46 28 -100q28 -68 28 -105q0 -85 -141 -85q-166 0 -166 448q0 172 20 543q21 389 21 540q0 14 -20.5 43.5t-20.5 43.5q0 144 256 144q58 0 141 -75q13 -140 25 -240q28 -238 121 -597q125 -478 217 -478q20 0 54 79q72 167 126 433l92 445q2 10 11.5 56
t16 75t19.5 77.5t27 93.5q45 146 225 146q57 0 149 -28q105 -35 105 -85z" />
    <glyph glyph-name="N" unicode="N" horiz-adv-x="1420" 
d="M1295 1677q0 -22 -23 -72l-33 -69q-74 -236 -74 -381l-8 -735q0 -109 -51 -231q-65 -148 -159 -148q-140 0 -279 235q-101 174 -202 482q-21 67 -60 200t-60 199q-54 -433 -54 -584q0 -328 38 -376q41 -48 41 -72q0 -47 -49.5 -84.5t-103.5 -37.5q-71 0 -118 151
q-36 124 -36 215q0 72 3 128q2 39 2 130q0 114 26 313q25 192 25 312v312q0 4 -3.5 15.5t-3.5 15.5q0 49 69 84q61 29 112 29q129 0 187 -85q16 -29 28 -118l16 -125q18 -140 161 -584q158 -473 233 -473q28 0 28 71q0 13 -6.5 67t-6.5 71l26 694q7 157 54 307
q66 213 179 213q35 0 100 -46q2 -5 2 -23z" />
    <glyph glyph-name="O" unicode="O" horiz-adv-x="1610" 
d="M1231 891q0 533 -343 637q-32 11 -82 11q-141 0 -286 -128q-228 -208 -228 -740q0 -45 20 -136q42 -195 131 -284q100 -103 292 -103q259 0 394 254q102 197 102 489zM1477 868q0 -364 -182 -625q-205 -289 -555 -289q-102 0 -215 38q-255 80 -366 284q-95 171 -95 466
q0 378 182 669q210 340 568 340q315 0 502 -294q161 -252 161 -589z" />
    <glyph glyph-name="P" unicode="P" horiz-adv-x="1423" 
d="M1068 1101q0 176 -54 302q-73 169 -228 169q-196 0 -338 -241q-125 -210 -125 -422q0 -356 358 -356q193 0 282 166q50 93 97 336zM1298 1060q0 -55 -8 -100q-100 -591 -560 -591q-233 0 -423 120v-54q0 -176 31 -235q49 -88 49 -103q0 -51 -39.5 -89.5t-91.5 -38.5
q-113 0 -156 82q-24 52 -31 182q-5 98 -5 200q0 56 10 130q13 96 13 133v174q0 101 10 226q13 162 13 222v231q0 8 -26 138q65 61 126 61q68 0 109.5 -49t41.5 -122q0 -23 -3 -36q170 223 428 223q240 0 384 -182q125 -164 125 -415v-53q3 -23 3 -54z" />
    <glyph glyph-name="Q" unicode="Q" horiz-adv-x="1607" 
d="M1239 881q0 245 -87 419q-112 228 -333 228q-190 0 -345 -194q-142 -178 -169 -374q-13 -83 -13 -220q0 -255 100 -407q118 -179 361 -179q48 0 105 15l-157 97q-107 68 -107 126q0 50 49 84q44 28 94 28q83 0 323 -210q179 195 179 587zM1475 878q0 -490 -279 -747
q161 -218 212 -364q-22 -107 -113 -107q-63 0 -163 184t-121 184q-8 0 -66 -20q-61 -21 -64 -21q-50 -13 -131 -13q-347 0 -525 228q-161 206 -161 563q0 380 174 663q205 331 563 331q315 0 507 -292q167 -261 167 -589z" />
    <glyph glyph-name="R" unicode="R" horiz-adv-x="1630" 
d="M1147 1190q0 164 -167 249q-135 69 -312 69q-16 0 -110 -8q4 -76 -49 -317q-26 -128 -38 -397q155 -51 184 -51q37 0 90 18q163 48 276 156q126 119 126 281zM1498 44v-13q-39 -57 -95 -57q-44 0 -74 39q-23 92 -341 299q-317 208 -417 208h-46q-23 -3 -49 -3v-100
q0 -44 13 -135q12 -102 28 -126q46 -61 46 -77q0 -45 -35.5 -75t-82.5 -30q-96 0 -151 70q-51 63 -51 506q-56 0 -112 34q-67 43 -67 87q0 93 172 135q13 86 17 218q1 30 3 71.5t2.5 63t2.5 45.5t5 38q2 12 16 96.5t23 148.5h-21q-102 0 -102 90q0 81 61 100l87 25
q54 48 83.5 61.5t90.5 13.5q46 0 46 -41q0 -13 64 -13q296 0 510 -120q258 -145 258 -423q0 -215 -133 -351q-82 -89 -317 -212l361 -230q105 -66 155 -155t50 -188z" />
    <glyph glyph-name="S" unicode="S" horiz-adv-x="1295" 
d="M1213 251q0 -157 -181 -241q-142 -69 -320 -69q-164 0 -379 72q-269 92 -269 215q0 46 33.5 79t79.5 33q64 0 128 -56l107 -92q91 -51 323 -51q207 0 207 95q0 43 -48.5 100.5t-145.5 119.5l-272 174q-162 106 -253 222q-105 140 -105 318q0 225 138 402q148 194 369 194
q190 0 319.5 -104.5t166.5 -289.5q5 -44 31 -212q10 -35 10 -62q0 -88 -31 -156q-38 -87 -120 -87q-46 0 -88.5 42.5t-42.5 88.5q0 22 15.5 98.5t15.5 98.5q0 345 -230 345q-127 0 -215 -110q-87 -106 -87 -238q0 -97 54.5 -191t165.5 -167l407 -272q217 -147 217 -299z" />
    <glyph glyph-name="T" unicode="T" horiz-adv-x="1338" 
d="M1257 1556q0 -45 -27.5 -76t-67.5 -31q-28 0 -87 20q-73 23 -102 23h-177h-7q-27 0 -32 -4t-8 -28q-2 -15 -4 -24l-31 -192q-48 -294 -48 -786q0 -296 69 -407v-69q-48 -26 -77 -26q-163 0 -213 159q-23 78 -23 295q0 263 11 394q10 140 28 294q23 215 20 295l-2 74
l-139 -18q-91 -13 -138 -13q-176 0 -176 105q0 44 25 51q38 56 402 98q281 30 456 30q123 0 215 -30q133 -41 133 -134z" />
    <glyph glyph-name="U" unicode="U" horiz-adv-x="1285" 
d="M1152 1649v-709q0 -205 -51 -451q-62 -297 -169 -407q-134 -141 -328 -141q-172 0 -304 105q-145 121 -198 320q-38 139 -38 384q0 119 15 353q16 254 16 356q0 14 -15.5 60.5t-15.5 60.5q0 63 102 104q80 34 157 34q87 0 87 -54q0 -30 -26 -82t-26 -84q0 -118 -25 -310
q-26 -199 -26 -312v-318q0 -147 57 -258q70 -144 202 -144q256 0 340 471q39 219 39 684q0 165 -52 274q-15 30 -15 48q0 47 35.5 90t79.5 43q51 0 105 -36.5t54 -80.5z" />
    <glyph glyph-name="V" unicode="V" horiz-adv-x="1400" 
d="M1277 1613q0 -224 -66 -563q-46 -245 -182 -610q-176 -471 -305 -471q-126 0 -199 39q-82 44 -154 211.5t-118 448.5l-130 778q-6 37 -23 80q-13 13 -18.5 19t-11.5 19.5t-6 27.5q0 51 64 92q57 39 113 39q64 0 115 -48.5t51 -110.5q0 -39 -8 -141q-5 -107 -5 -140
q0 -218 64 -505q118 -548 192 -548q49 0 95 80q125 215 218 614q94 388 94 650q0 61 -38 87q-36 31 -36 36q0 30 64 75q65 46 95 46q51 0 94 -75q41 -72 41 -130z" />
    <glyph glyph-name="W" unicode="W" horiz-adv-x="1738" 
d="M1572 1165q0 -294 -103 -661q-135 -484 -340 -484q-179 0 -261 228q-46 125 -69 379q-60 -279 -98 -386q-95 -264 -230 -264q-101 0 -182 84q-107 110 -161 692q-38 386 -38 765q0 197 169 197q151 0 151 -69q0 -14 -6.5 -32.5t-13 -31.5t-19.5 -36t-18 -33
q-33 -63 -33 -279q0 -981 151 -981q54 0 131 382q92 452 92 691q0 39 48 72q48 38 87 38q77 0 140 -54t70 -130q-51 -76 -51 -274q0 -719 136 -719q129 0 202 409q49 281 49 522q0 95 -13 149q-15 61 -56 146q-41 79 -41 123q0 61 28 112q33 64 92 64q80 0 141 -271
q46 -209 46 -348z" />
    <glyph glyph-name="X" unicode="X" horiz-adv-x="1356" 
d="M1441 148q0 -52 -46.5 -86t-104.5 -34q-198 0 -640 673l-61 -107l-223 -376l-95 -190q-37 -72 -117 -72q-192 0 -192 85q0 63 122 197q43 46 239 341q202 300 202 320q0 25 -225 330q-226 307 -226 379q0 59 39.5 94.5t101.5 35.5q119 0 207 -123q58 -78 131 -261
q72 -180 110 -235q183 261 297 481q88 169 187 169q50 0 83.5 -39.5t39.5 -96.5l-479 -729q92 -163 243 -382q206 -302 266 -302q10 0 40.5 4t39.5 4q61 0 61 -80z" />
    <glyph glyph-name="Y" unicode="Y" horiz-adv-x="1369" 
d="M1311 1590q-28 -52 -100 -131q-65 -76 -95 -123q-25 -47 -307 -791q-241 -637 -320 -637q-72 0 -120 38q-59 43 -59 108q0 41 46 102q50 66 102 218l82 235q-152 122 -271 377q-205 436 -205 609q0 148 133 148q154 0 154 -176q0 -11 -6.5 -54.5t-6.5 -58.5
q0 -108 100 -338q105 -244 189 -279q37 52 146 295q118 262 192 389q115 192 192 192q57 0 102 -35t52 -88z" />
    <glyph glyph-name="Z" unicode="Z" horiz-adv-x="1623" 
d="M1526 1549q0 -77 -79 -187t-236 -241l-584 -486q-155 -130 -235 -233.5t-80 -168.5q0 -51 118 -51q108 0 348 28q243 28 351 28q87 0 169 -41q100 -49 115 -123q-42 -74 -110 -74q-11 0 -54.5 13t-58.5 13h-15l-353 -31q-236 -21 -356 -21q-192 0 -277 36
q-125 57 -125 228q0 100 79 225.5t238 255.5l594 482q318 257 318 391q0 54 -95 54q-171 0 -374 -56q-228 -60 -350 -136l-134 -82q-103 -61 -130 -61q-115 0 -115 169q0 45 33 71q31 20 74 39q577 269 973 269q133 0 223 -70q50 -40 89 -111t39 -129z" />
    <glyph glyph-name="bracketleft" unicode="[" horiz-adv-x="680" 
d="M589 -136q0 -84 -41 -156q-254 -33 -261 -33q-16 0 -21 2h-18q-164 0 -164 413q0 82 6 722q5 533 5 721q0 16 -15.5 64t-15.5 62q0 45 54 79q48 28 92 28q7 0 28 -5t26 -5h263q39 0 39 -82q0 -89 -18 -100q-12 -10 -105 -10q-75 0 -90 -54q-41 -146 -41 -384v-550
q0 -459 36 -640q8 -51 49 -51q19 0 83.5 12.5t85.5 12.5q23 0 23 -46z" />
    <glyph glyph-name="backslash" unicode="\" horiz-adv-x="1213" 
d="M1096 46q0 -37 -29.5 -62t-68.5 -25q-106 0 -217 187q-47 77 -138 282l-479 1088q-10 20 -56 84q-44 64 -44 82q0 31 45 57.5t86 26.5q54 0 110 -32.5t79 -77.5l28 -135q8 -38 74 -203l241 -588q138 -334 300 -561q7 -10 22 -29.5t23.5 -31.5t16 -29.5t7.5 -32.5z" />
    <glyph glyph-name="bracketright" unicode="]" horiz-adv-x="680" 
d="M589 1659q0 -14 -15.5 -62t-15.5 -64q0 -188 5 -721t5 -722q0 -413 -164 -413h-20q-5 -2 -18 -2l-2 1q-3 0 -9.5 0.5t-15.5 2t-22.5 3t-29 3.5t-35.5 4.5t-42 5t-49.5 6t-55.5 7.5q-41 72 -41 156q0 46 23 46q19 0 84.5 -12.5t84.5 -12.5q41 0 49 51q35 176 35 617v589
q0 200 -10 251q-27 171 -120 171q-32 0 -44 -2h-41q-38 0 -38 112q0 82 38 82h262q7 0 27.5 5t25.5 5q52 0 100.5 -32t48.5 -75z" />
    <glyph glyph-name="asciicircum" unicode="^" horiz-adv-x="903" 
d="M801 1900q0 -15 -32.5 -46t-49.5 -31q-50 0 -123 46q-79 51 -117 66q-3 1 -11 2.5t-17 4t-18 6.5l-93 -38q-140 -87 -194 -87q-17 0 -49.5 31t-32.5 46q0 5 3 15q66 61 176 133q141 95 190 95q48 0 361 -213q7 -18 7 -30z" />
    <glyph glyph-name="underscore" unicode="_" horiz-adv-x="1180" 
d="M1201 -241v-89h-1214v89h1214z" />
    <glyph glyph-name="grave" unicode="`" horiz-adv-x="576" 
d="M527 1843q0 -82 -89 -82q-88 0 -213 110q-33 26 -66 39q-85 31 -108 46l-15 41q6 49 54 98.5t92 49.5q71 0 189 -105q2 -2 16.5 -16t18 -17.5t16.5 -16t18 -17.5t16 -16.5t17 -18.5t14.5 -17.5t15.5 -19.5t14 -19q10 -23 10 -39z" />
    <glyph glyph-name="a" unicode="a" horiz-adv-x="1095" 
d="M724 343q0 51 -76 51q-320 0 -320 -151q0 -82 140 -82q83 0 164 49q92 57 92 133zM983 435q0 -328 -20 -466q-12 -79 -108 -79q-143 0 -128 143q-125 -61 -266 -61q-135 0 -254 66q-143 81 -143 203t164 225q148 95 279 95h217v61q0 269 -158 269q-202 0 -202 -190
q0 -64 -72 -64q-45 0 -91.5 40t-46.5 83q0 146 102 236q104 92 246 92q481 0 481 -653z" />
    <glyph glyph-name="b" unicode="b" horiz-adv-x="1049" 
d="M689 599q0 348 -146 348q-121 0 -187 -176q-49 -134 -49 -285q0 -322 195 -322q187 0 187 435zM927 581q0 -232 -80 -392q-103 -207 -309 -207q-69 0 -210 49q2 -9 2 -34q0 -84 -94 -84q-70 0 -113 51q-21 24 -33 159q-13 120 -13 177v10l38 1446q42 66 97 54q13 5 26 5
q44 0 85 -56q41 -57 41 -103q0 -122 -21 -294q-25 -232 -28 -292q75 90 192 90q143 0 253 -103q112 -101 146 -243q21 -95 21 -233z" />
    <glyph glyph-name="c" unicode="c" horiz-adv-x="1026" 
d="M945 289q0 -77 -121 -187q-97 -91 -180.5 -121t-175.5 -30q-199 0 -314.5 127t-115.5 332q0 195 105 440q126 292 292 292q95 0 223 -72q140 -82 161 -159q21 -74 21 -156q0 -80 -34 -179q-43 -128 -102 -128q-44 0 -82 26q-46 27 -46 69q0 1 23 59q13 29 13 140
q0 94 -8 123q-15 80 -72 80q-125 0 -194 -218q-51 -167 -51 -325q0 -274 174 -274q72 0 159 72q80 65 115 135q43 82 100 82q37 0 73.5 -44t36.5 -84z" />
    <glyph glyph-name="d" unicode="d" horiz-adv-x="1034" 
d="M655 689q0 86 -38 158q-49 87 -128 87q-115 0 -177 -227q-46 -163 -46 -323q0 -238 138 -238q142 0 208 212q43 146 43 331zM952 1556q0 -56 -15 -145q-13 -79 -26 -144q-3 -36 -25 -468q-16 -414 -16 -430q0 -246 54 -369q-41 -72 -100 -72t-104.5 44.5t-51.5 104.5
q-117 -110 -246 -110q-186 0 -289 130q-95 117 -95 310q0 220 93 458q118 295 307 295q112 0 230 -100q13 128 13 614q0 46 69 46q87 0 144.5 -42.5t57.5 -121.5z" />
    <glyph glyph-name="e" unicode="e" horiz-adv-x="972" 
d="M612 709q0 67 -38.5 123t-97.5 56q-83 0 -130 -74q-39 -66 -39 -151q0 -48 33 -79t85 -31q187 0 187 156zM891 225q0 -125 -174 -199q-135 -57 -284 -57q-395 0 -395 448q0 180 90 410q111 276 266 276q141 0 302 -125q164 -125 164 -261q0 -168 -151 -269
q-137 -90 -317 -90q-31 0 -116 44q12 -243 144 -243q115 0 220 64q108 64 141 64q110 0 110 -62z" />
    <glyph glyph-name="f" unicode="f" horiz-adv-x="819" 
d="M922 1531q0 -42 -40.5 -71t-87.5 -29q-32 0 -72 31q-2 51 -20 65t-75 14q-109 0 -159 -276q-23 -134 -28 -366h31q10 2 33 2q108 0 154 -84l-23 -98q-46 -25 -169 -25q-25 0 -33 -3q-8 -90 -8 -184v-233q0 -140 41 -279q-99 -56 -146 -56q-59 0 -97 94q-31 84 -31 149
q0 120 10 491q-26 -2 -59 -5l-20 -2q-45 0 -77.5 28.5t-32.5 73.5q0 80 66 102q32 11 133 11q8 29 8 156q0 259 85 458q115 256 345 256q121 0 190 -51q82 -58 82 -169z" />
    <glyph glyph-name="g" unicode="g" horiz-adv-x="1041" 
d="M689 607q0 36 -36 64q-15 235 -164 235q-84 0 -141 -238q-41 -176 -41 -315q0 -251 131 -251q120 0 194 200q57 153 57 305zM947 760q-3 -46 -33 -225q-26 -137 -26 -225q0 -68 8 -231t8 -230q0 -157 -31 -236q-36 -96 -134.5 -156.5t-208.5 -60.5q-115 0 -279 61
q-200 74 -200 159q0 113 105 113q46 0 67 -29q41 -59 43 -61q11 -11 85 -23q73 -15 100 -15q230 0 230 289q0 82 -8 143q-109 -94 -263 -94q-63 0 -143.5 36t-120.5 84q-79 89 -79 274q0 222 99 479q124 320 300 320q109 0 205 -100l143 -187q18 -25 64 -46q54 -27 69 -39z
" />
    <glyph glyph-name="h" unicode="h" horiz-adv-x="954" 
d="M876 530v-571q-49 -49 -128 -49q-53 0 -111 67q3 151 3 348q0 568 -166 568q-172 0 -172 -458q0 -7 1.5 -31.5t1.5 -42.5v-74q0 -37 12 -118q13 -83 13 -115q0 -31 -38.5 -59t-73.5 -28q-62 0 -108 52.5t-46 116.5l15 1479q0 5 -2.5 20t-2.5 19q0 92 103 92q47 0 112 -46
q64 -41 64 -90q0 -63 -25 -166q-23 -113 -23 -167q0 -52 5 -227q55 33 94 33q101 0 218 -49q154 -68 210 -207q44 -113 44 -297z" />
    <glyph glyph-name="i" unicode="i" horiz-adv-x="417" 
d="M338 986q0 -41 -21 -131q-20 -86 -20 -131v-527q0 -46 28 -153q-40 -59 -84 -59q-162 0 -177 161q-26 289 -26 450q0 239 21 425q-3 8 -3 26q0 46 72 46q55 0 128 -25q82 -30 82 -82zM361 1344q0 -55 -38.5 -91.5t-94.5 -36.5q-70 0 -126 46.5t-56 112.5q0 55 39.5 91.5
t98.5 36.5q71 0 124 -46t53 -113z" />
    <glyph glyph-name="j" unicode="j" horiz-adv-x="552" 
d="M481 983q-56 -155 -56 -241q0 -139 8 -496q7 -308 7 -497q0 -186 -97 -322q-109 -151 -287 -151q-95 0 -276 89q-200 96 -200 174q0 92 105 92q29 0 59 -12q110 -128 259 -128q215 0 215 391q0 95 -18 1091l41 48q90 23 120 23q59 0 120 -61zM489 1219q0 -54 -47 -92.5
t-104 -38.5q-29 0 -85 46q-36 30 -71 69q-5 30 -5 54q0 123 128 123q73 0 128.5 -46.5t55.5 -114.5z" />
    <glyph glyph-name="k" unicode="k" horiz-adv-x="1072" 
d="M1052 3v-82q-94 -72 -153 -72q-72 0 -215 154q-146 157 -198 217q-75 87 -179 187l-7 -5v-225q0 -14 16.5 -60.5t16.5 -62.5q0 -35 -36.5 -62.5t-76.5 -27.5q-67 0 -110 43t-43 111v338q0 20 8.5 93t8.5 94v688q0 153 -23 251q-10 35 -10 67q0 47 59 87q52 36 102 36
q41 0 84.5 -30t43.5 -65q0 -1 -7.5 -31.5t-15 -92t-7.5 -137.5q0 -12 -1 -82t-3 -253t-4 -349l277 254q219 204 258 204q131 0 131 -166v-26q-123 -73 -284 -202q-221 -174 -221 -228q0 -2 139 -161q141 -162 163 -184q155 -164 287 -220z" />
    <glyph glyph-name="l" unicode="l" horiz-adv-x="412" 
d="M343 69q0 -45 -37 -77.5t-86 -32.5q-161 0 -161 422q0 405 2 576q6 512 6 576q0 21 -8 89.5t-8 87.5q83 56 133 56q58 0 108.5 -38.5t50.5 -91.5q0 -25 -13 -67l-10 -34t-7 -24t-3 -8q-34 -155 -34 -451v-476q0 -305 54 -451q13 -37 13 -56z" />
    <glyph glyph-name="m" unicode="m" horiz-adv-x="1466" 
d="M1341 463v-458q-89 -54 -133 -54q-30 0 -102 36q0 96 2 141q3 59 3 141q0 681 -113 681q-85 0 -135 -208q-39 -150 -39 -279v-235q0 -12 11.5 -52.5t11.5 -52.5q0 -39 -43 -72t-85 -33q-44 0 -87 43.5t-43 84.5v476q0 289 -64 289q-11 0 -44 -48q-181 -247 -181 -528
q0 -53 10 -120q10 -64 10 -115q0 -52 -32 -85t-83 -33q-61 0 -95 41q-12 20 -31 120q-15 96 -15 131v558q0 57 31 164q39 123 82 123q53 0 93.5 -40t34.5 -91q73 123 192 123q147 0 238 -195q52 121 87 159q66 74 158 74q97 0 192 -99q169 -172 169 -587z" />
    <glyph glyph-name="n" unicode="n" horiz-adv-x="1090" 
d="M978 389v-371q-40 -59 -95 -59q-39 0 -143 51v31q0 117 2 166q6 148 6 162q0 547 -164 547q-50 0 -105 -71q-182 -221 -182 -530q0 -63 15 -131q18 -101 18 -128q0 -35 -32.5 -58.5t-72.5 -23.5q-153 0 -153 195v535q0 14 5 60t5 60q0 21 -9 89.5t-9 87.5q0 39 46.5 77
t86.5 38q60 0 115 -64l-7 -102q97 151 233 151q88 0 189 -62q106 -65 146 -138q105 -191 105 -512z" />
    <glyph glyph-name="o" unicode="o" horiz-adv-x="1062" 
d="M740 509q0 392 -190 392q-135 0 -204 -166q-52 -132 -52 -284q0 -341 203 -341q129 0 194 141q49 107 49 258zM965 504q0 -230 -115 -394q-135 -187 -353 -187q-225 0 -341 154q-105 137 -105 368q0 233 115 436q136 243 346 243q62 0 166 -59q287 -172 287 -561z" />
    <glyph glyph-name="p" unicode="p" horiz-adv-x="1041" 
d="M707 632q0 277 -118 277q-52 0 -133 -100q-159 -194 -174 -530q24 -13 99 -107q58 -70 113 -70q213 0 213 530zM934 609q0 -262 -92 -443q-116 -235 -348 -235q-128 0 -215 72v-77v-77q0 -257 56 -387q26 -66 26 -71q0 -87 -102 -87q-76 0 -116 28q-30 22 -56 128
q-23 98 -23 148v617q0 110 10 231q5 64 8.5 141t4.5 87q4 65 0 168q-3 90 -3 172q0 218 144 218q37 0 67 -24.5t30 -57.5q0 -42 -13 -205q99 141 241 141q188 0 292 -154q89 -136 89 -333z" />
    <glyph glyph-name="q" unicode="q" horiz-adv-x="1024" 
d="M640 632q0 44 -36 67q13 45 13 66q0 36 -51 87q-49 54 -85 54q-115 0 -169 -225q-36 -138 -36 -320q0 -261 134 -261q230 0 230 532zM929 768q0 -14 -48 -136q-62 -166 -62 -780q0 -360 108 -395v-102q-82 -41 -121 -41q-216 0 -212 660q-91 -43 -202 -43
q-178 0 -267 143q-74 119 -74 313q0 217 92 440q115 279 300 279q105 0 194 -77l146 -153q7 2 21 2q125 0 125 -110z" />
    <glyph glyph-name="r" unicode="r" horiz-adv-x="819" 
d="M722 881q0 -14 -5 -57q-54 -76 -113 -76q-49 0 -87 56q-4 115 -82 115q-46 0 -112 -243q-31 -112 -31 -300q0 -184 18 -220q20 -51 20 -66q0 -43 -39 -70.5t-89 -27.5q-138 0 -138 128q0 10 6.5 36.5t6.5 32.5q0 107 -13 387q-13 279 -13 387q0 115 138 115q83 0 113 -49
q72 79 161 79q63 0 118 -33q41 -20 90 -89q51 -68 51 -105z" />
    <glyph glyph-name="s" unicode="s" horiz-adv-x="1008" 
d="M927 259q0 -122 -103 -210q-108 -93 -302 -98q-81 0 -176 34q-308 116 -308 187q0 112 162 112q36 0 48 -2q8 -76 123 -123q99 -42 192 -34q74 5 74 54q0 6 -5 23q-2 7 -2 23q0 10 -98 41l-122 39q-292 172 -292 419q0 148 84 274q97 139 236 139q101 0 238 -82
q136 -82 166 -177q21 -71 21 -110q0 -44 -13 -77l-31 -77q-47 -33 -97 -33q-32 0 -87 31q-59 31 -59 56q0 8 31 67q18 32 18 56q0 154 -121 154q-70 0 -110 -93q-28 -76 -28 -153q0 -103 146 -184q46 -20 269 -121q146 -66 146 -135z" />
    <glyph glyph-name="t" unicode="t" horiz-adv-x="760" 
d="M689 916q0 -70 -213 -97q-5 -63 -5 -256v-169q0 -50 15 -151q18 -93 18 -148q0 -39 -40.5 -72t-82.5 -33q-65 0 -107 110q-33 80 -33 164v542l-136 23q-67 20 -67 59q0 7 6 23q65 95 148 95h15q5 -2 16 -2q51 0 51 125v187q-15 27 -15 48q0 32 38.5 60t76.5 28
q54 0 102.5 -50.5t48.5 -106.5q0 -41 -18 -122t-18 -123v-11q200 -20 200 -123z" />
    <glyph glyph-name="u" unicode="u" horiz-adv-x="939" 
d="M860 914q0 -75 -20 -241q-18 -145 -18 -240q0 -57 5 -215q8 -152 8 -210q0 -59 -100 -59q-104 0 -131 100q-93 -64 -189 -64q-75 0 -169 38q-95 42 -133 97q-75 110 -75 346q0 124 6 287q6 253 5 284q75 56 128 56q123 0 123 -120q0 -35 -13 -123q-11 -74 -11 -123v-361
q0 -63 34 -128q42 -77 97 -77q111 0 164 141q36 100 36 236v307q0 55 -31 146q68 59 123 59q64 0 112.5 -39t48.5 -97z" />
    <glyph glyph-name="v" unicode="v" horiz-adv-x="998" 
d="M916 980q0 -188 -117 -563q-138 -435 -269 -435q-187 0 -333 366q-88 226 -146 533q-13 80 -13 115q0 40 37.5 72.5t78.5 32.5q47 0 151 -74q-18 -53 -18 -100q0 -139 66 -361q71 -230 149 -336v-7q94 0 143 348q36 249 36 435q0 37 39 66t79 29q117 0 117 -121z" />
    <glyph glyph-name="w" unicode="w" horiz-adv-x="1418" 
d="M1318 794q0 -231 -84 -477q-111 -322 -292 -322q-173 0 -284 212q-76 -225 -243 -225q-214 0 -310 292q-67 203 -67 468q0 162 13 274q34 57 95 57q54 0 105 -34.5t51 -78.5q0 -22 -16.5 -98.5t-16.5 -98.5q0 -563 120 -563q129 0 164 312q13 103 13 412q0 97 112 97
q126 0 126 -140q0 -10 -4 -36.5t-4 -32.5v-290q0 -322 118 -322q101 0 151 235q38 161 38 320q0 133 -12 156l-29 31q-15 20 -15 38q0 45 41 83t87 38q68 0 110 -123q33 -92 33 -184z" />
    <glyph glyph-name="x" unicode="x" horiz-adv-x="1192" 
d="M1103 166v-92q0 -37 -56 -71q-59 -31 -100 -31q-134 0 -238 141l-174 238q-114 -129 -315 -520q-182 39 -182 156q0 82 382 543q-7 32 -128 205q-113 160 -156 207q47 120 164 120q94 0 161 -133l102 -205q311 369 382 369q48 0 84 -36t36 -82q0 -44 -195 -227
q-194 -178 -194 -210q0 -30 153 -210t177 -180q29 0 97 18z" />
    <glyph glyph-name="y" unicode="y" horiz-adv-x="1047" 
d="M963 983q-36 -204 -44 -253q-26 -144 -26 -254v-696q0 -188 -107.5 -288.5t-299.5 -100.5q-126 0 -271 64q-177 74 -177 179q0 36 28.5 60t66.5 24q21 0 110 -69q88 -69 200 -69q142 0 192 105q36 77 36 231q0 71 -3 97q-84 -57 -189 -57q-193 0 -297 139
q-95 125 -95 320q0 43 26 645q73 33 123 33q51 0 151 -61q-62 -154 -62 -615q0 -294 149 -294q112 0 169 184q43 138 43 277v312l-8 84q109 52 157 52q55 0 128 -49z" />
    <glyph glyph-name="z" unicode="z" horiz-adv-x="983" 
d="M901 950q0 -57 -20 -92q-11 -21 -54 -64l-300 -302q-204 -207 -243 -320q15 -3 44 -3q54 0 176 20q128 21 177 21q164 0 220 -133l-43 -54h-70q-100 0 -266 -26q-172 -30 -258 -30q-85 0 -149 41q-77 47 -77 125q0 94 118 251q101 126 243 274q152 156 205 228l-13 2
q-133 0 -256 -79q-127 -77 -133 -77q-47 0 -81 37t-34 86q0 85 264 166q215 64 345 64q205 0 205 -135z" />
    <glyph glyph-name="braceleft" unicode="{" horiz-adv-x="901" 
d="M855 1774q0 -46 -64 -87q-256 -12 -256 -212q0 -37 5 -139q5 -98 5 -133q0 -282 -169 -417q169 -135 169 -417q0 -38 -5 -136t-5 -136q0 -200 253 -212q41 -19 41 -64q0 -43 -41 -77h-97q-269 0 -345 172q-37 77 -49 368q-8 253 -95 348q-35 42 -146 92q-56 27 -56 62
q0 34 56 61q11 4 43 18.5t49 22.5q106 68 128 213q6 15 13 261q12 264 118 363q113 105 371 105q77 0 77 -56z" />
    <glyph glyph-name="bar" unicode="|" horiz-adv-x="437" 
d="M356 69q0 -45 -37 -77.5t-86 -32.5q-161 0 -161 422q0 405 2 576q5 427 5 576q0 21 -7.5 89.5t-7.5 87.5q83 56 133 56q58 0 108.5 -38.5t50.5 -91.5q0 -25 -13 -67l-10 -34t-7 -24t-3 -8q-34 -155 -34 -451v-476q0 -305 54 -451q13 -37 13 -56z" />
    <glyph glyph-name="braceright" unicode="}" horiz-adv-x="901" 
d="M847 804q0 -36 -48 -77q-168 -50 -210 -197q-16 -54 -21 -156q-2 -27 -1 -81t-1 -81q-7 -257 -121 -363q-110 -105 -368 -105h-13q-64 26 -64 69q0 41 64 74q256 12 256 213q0 17 -3.5 65t-4.5 71q-5 61 -5 135q0 265 195 417q-192 153 -192 418q0 37 5 135t5 136
q0 201 -253 213q-54 27 -54 76q0 64 54 64h97q269 0 345 -171q37 -76 49 -369q8 -253 95 -348q42 -50 146 -92q48 -19 48 -46z" />
    <glyph glyph-name="asciitilde" unicode="~" horiz-adv-x="1154" 
d="M945 986q42 0 65.5 -22t23.5 -65q0 -42 -69.5 -101.5t-151.5 -101t-122 -41.5q-53 0 -118.5 27t-116.5 54t-69 27q-27 1 -70 -24.5t-72.5 -50.5t-29.5 -28q-136 0 -136 90q0 38 70.5 96t155 99t125.5 41q44 0 86.5 -18.5t70.5 -40.5t64 -40.5t68 -18.5q29 0 117 59
t109 59z" />
    <glyph glyph-name="nbspace" unicode="&#xa0;" horiz-adv-x="547" 
 />
    <glyph glyph-name="exclamdown" unicode="&#xa1;" horiz-adv-x="704" 
d="M474 576q0 -219 -46 -443q-54 -269 -54 -312q0 -58 23 -144l38 -138q-89 -79 -187 -79q-82 0 -184 97q2 4 9 15.5t15 24.5t17 27q69 109 136 773l12 113v-3q0 29 -46 200l69 58q40 6 62 6q52 0 95 -23q41 -75 41 -172zM609 1047q0 -164 -202 -164q-67 0 -151 28
q-100 34 -100 93q0 215 248 215q38 0 175 -52q30 -66 30 -120z" />
    <glyph glyph-name="cent" unicode="&#xa2;" horiz-adv-x="1367" 
d="M530 620v509q-246 -123 -246 -284q0 -91 80 -159q74 -62 166 -66zM1244 1216q0 -51 -44.5 -82t-103.5 -31q-78 0 -180 67q-100 69 -128 69q-33 0 -33 -26v-568q64 13 202 92q132 72 139 72h92q38 -41 38 -85q0 -110 -182 -192l-279 -94q14 -234 44 -443q-88 -49 -125 -49
q-68 0 -118 77q-41 64 -41 138q0 11 5 55t5 55v154q-202 35 -325 136q-146 123 -146 312q0 144 110 269q92 111 233 184q36 13 125 59l3 90q-23 141 -23 222v28q63 75 141 75q61 0 111 -46.5t50 -102.5q0 -44 -18 -105q-17 -63 -23 -105q55 5 67 5q111 0 245 -61
q159 -74 159 -169z" />
    <glyph glyph-name="sterling" unicode="&#xa3;" horiz-adv-x="1576" 
d="M1446 1254q0 -62 -76 -128q-74 -64 -144 -64q-57 0 -104 34t-47 84q0 41 36.5 74t76.5 26q-66 103 -192 172t-251 69q-153 0 -256 -108q-100 -107 -100 -264q0 -151 59 -227h399q38 0 66.5 -27.5t28.5 -65.5q0 -110 -171 -110q-33 0 -103 8q-88 13 -105 13
q72 -106 72 -220q0 -57 -56 -159l-87 -151l273 -10q184 -8 274 -8q178 0 205 92q54 39 97 39q40 0 70 -34q2 -10 2 -46q0 -112 -86 -181.5t-211 -69.5q-116 0 -402 8q-283 8 -399 8q-50 0 -90.5 30.5t-40.5 74.5q0 27 21 59q75 43 128 156l87 192q-2 22 -9 44t-13 37t-20 37
t-21 31.5t-25.5 34.5t-24.5 33q-126 -15 -133 -15q-110 0 -110 115q0 87 151 87q-31 122 -31 177q0 17 6.5 77t6.5 76q0 170 184 315q174 139 351 139q114 0 284 -52q115 -39 264 -161q166 -143 166 -241z" />
    <glyph glyph-name="currency" unicode="&#xa4;" horiz-adv-x="1377" 
d="M886 794q0 131 -52 212.5t-143 81.5q-110 0 -183 -99t-73 -239q0 -119 52.5 -188.5t152.5 -69.5q112 0 179 86.5t67 215.5zM1088 791q0 -129 -56 -228q29 -27 73.5 -67.5t66.5 -61.5t47 -46t35.5 -40t10.5 -25q0 -50 -42.5 -75t-90.5 -25q-42 0 -244 184
q-113 -72 -248 -72q-150 0 -246 54q-43 -43 -91.5 -100t-71.5 -78.5t-44 -21.5q-43 0 -71.5 51t-28.5 80q0 43 166 223q-41 79 -41 202q0 137 67 274q-37 40 -116.5 121t-116.5 120q18 61 54.5 97t86.5 36q57 0 230 -203q115 85 238 85q136 0 251 -90l213 203
q64 -23 105 -65.5t41 -98.5q0 -31 -39.5 -66t-103 -78t-88.5 -66q54 -104 54 -223z" />
    <glyph glyph-name="yen" unicode="&#xa5;" horiz-adv-x="1728" 
d="M1590 1723q-73 -62 -144 -133q-31 -31 -256 -377q-215 -331 -215 -350v-67h287q95 0 95 -110q0 -38 -28 -64t-67 -26h-287v-79h287q95 0 95 -113q0 -38 -28 -65t-67 -27h-287v-199q0 -56 -64 -108q-68 -51 -120 -51q-44 0 -100 38q-54 39 -54 82q0 11 29 64q9 15 25 174
h-243q-95 0 -95 116q0 37 28.5 63t66.5 26h261l5 79h-258q-95 0 -95 111q0 37 28.5 63t66.5 26h268l3 54q-102 180 -246 389q-202 296 -279 317l-41 -23h-53q-44 57 -44 95q0 52 45.5 85t102.5 33q201 0 643 -673q4 7 23.5 43t35.5 64l187 310q101 166 148 328q68 53 126 53
q79 0 215 -148z" />
    <glyph glyph-name="brokenbar" unicode="&#xa6;" horiz-adv-x="437" 
d="M356 69q0 -45 -37 -77.5t-86 -32.5q-161 0 -161 422v295q0 27 32 43t75 16q46 0 78 -16t32 -43v-100q0 -289 54 -451q13 -42 13 -56zM323 1503q-34 -137 -34 -443q0 -31 -30.5 -47.5t-74.5 -16.5t-77 17.5t-33 46.5q0 114 2.5 272t2.5 201q0 21 -7.5 89.5t-7.5 87.5
q80 56 133 56q58 0 108.5 -38.5t50.5 -91.5q0 -22 -8 -55t-16 -55z" />
    <glyph glyph-name="section" unicode="&#xa7;" horiz-adv-x="1052" 
d="M479 824q-46 -24 -82.5 -76.5t-43.5 -110.5q87 -56 197 -56q45 0 70 45.5t25 82.5q0 11 -27.5 30t-99.5 62q-8 5 -13 7.5t-12.5 7t-13.5 8.5zM886 735q0 -60 -60.5 -137t-152 -132.5t-169.5 -55.5q-72 0 -125 7q45 -109 144 -204.5t219 -166.5q157 -96 157 -166
q0 -63 -60.5 -117t-147 -82.5t-171.5 -28.5q-65 0 -134 29t-174 112q-125 103 -125 153q0 61 30.5 84.5t100.5 23.5h53q4 -43 64 -98t136 -92.5t125 -37.5q62 0 62 28q0 -2 -33 31h2q-183 142 -257 213q-191 185 -229 382q-10 54 -10 111q0 122 49.5 209.5t131.5 136.5
q-164 142 -164 340q0 100 40 195t108 155t144 60q55 0 137 -41t149 -103t80 -115q2 -12 8.5 -46.5t9.5 -59.5t3 -52q0 -99 -41 -226q-40 -33 -85 -33q-27 0 -79 40.5t-61 82.5q26 0 38 28q18 32 18 131q0 210 -115 210q-53 0 -93 -80t-40 -171q0 -93 117 -192
q50 -42 244 -159q74 -43 115 -87.5t41 -78.5z" />
    <glyph glyph-name="dieresis" unicode="&#xa8;" horiz-adv-x="803" 
d="M320 1915q0 -43 -39.5 -74t-88.5 -31t-88.5 31t-39.5 74q0 45 39 76t89 31t89 -31t39 -76zM704 1915q0 -43 -39.5 -74t-88.5 -31t-88.5 31t-39.5 74q0 45 39 76t89 31t89 -31t39 -76z" />
    <glyph glyph-name="copyright" unicode="&#xa9;" horiz-adv-x="2178" 
d="M1559 543q0 -154 -182 -256q-159 -85 -333 -85q-244 0 -384 151t-140 407q0 278 143 505q161 256 407 256q163 0 261 -121q87 -109 87 -294q0 -87 -48 -202q-58 -128 -110 -128q-66 0 -111 79q22 16 75 69q28 36 28 141t-31 189q-47 116 -143 116q-71 0 -154 -75
q-65 -56 -107 -130q-105 -180 -105 -438q0 -381 340 -381q129 0 200 48q59 40 133 149q47 74 92 74q33 0 57.5 -21.5t24.5 -52.5zM1841 847q0 329 -244 558q-236 221 -555 221q-320 0 -556 -221q-243 -228 -243 -558t243 -558q235 -220 556 -220q320 0 555 220
q244 229 244 558zM1994 847q0 -391 -284 -660q-281 -266 -668 -266q-388 0 -666 263q-286 271 -286 663t286 663q279 264 666 264t666 -264q286 -271 286 -663z" />
    <glyph glyph-name="ordfeminine" unicode="&#xaa;" horiz-adv-x="783" 
d="M481 957q0 11 -25 11q-164 0 -164 -67q0 -28 61 -28q48 0 88 26.5t40 57.5zM668 1011q0 -7 1.5 -46.5t1.5 -88.5q0 -107 -19.5 -153.5t-78.5 -46.5q-47 0 -66.5 16t-25.5 56q-57 -26 -133 -26q-94 0 -172.5 54.5t-78.5 122.5q0 56 54 105t124 74t129 25q39 0 77 -5v23
q0 136 -71 136q-100 0 -100 -92q0 -57 -62 -57q-30 0 -63.5 30.5t-33.5 62.5q0 91 64 150.5t156 59.5q297 0 297 -400z" />
    <glyph glyph-name="guillemotleft" unicode="&#xab;" horiz-adv-x="936" 
d="M443 1249q0 -32 -18 -53l-243 -318q18 -22 64.5 -76t70.5 -85q118 -144 118 -249q0 -61 -51 -61q-41 0 -67 33q-64 73 -169 220q-135 185 -135 210q0 26 31 46l281 413q16 10 39 10q35 0 57 -27.5t22 -62.5zM806 397q0 -62 -51 -62q-38 0 -66 31q-44 46 -190 256
q-153 219 -153 248q0 26 30 46l282 413q16 10 38 10q35 0 57.5 -27.5t22.5 -62.5q0 -45 -113 -184l-151 -187l148 -179q74 -88 110 -167t36 -135z" />
    <glyph glyph-name="logicalnot" unicode="&#xac;" horiz-adv-x="1361" 
d="M1149 1011v-28q0 -10 -1 -52.5t-1 -75.5v-653q0 -43 23 -146q-34 -56 -69 -56q-159 0 -159 154v698h-860q-33 55 -33 103q0 42 33 82.5t72 40.5q27 0 128 -10.5t120 -10.5h545q49 0 149 26q31 -21 42 -36t11 -36z" />
    <glyph glyph-name="softhyphen" unicode="&#xad;" horiz-adv-x="852" 
d="M753 717q-16 -5 -16 -18q0 -5 6.5 -20.5t6.5 -20.5q0 -28 -87 -28q-11 0 -48 6.5t-49 6.5q-74 0 -133 -3t-133 -3q-236 0 -236 87q0 75 67 75q14 0 60 -10.5t60 -10.5q41 0 161 5q123 5 164 5q158 0 177 -71z" />
    <glyph glyph-name="registered" unicode="&#xae;" horiz-adv-x="1123" 
d="M947 1262q0 162 -120 274q-118 115 -289 115q-172 0 -290 -115q-120 -112 -120 -274q0 -159 120 -276q121 -113 290 -113q131 0 240 74l-30 10q-5 35 -118 113q-112 77 -149 77q-10 0 -28 -3v-28q0 -75 31 -115q0 -51 -49 -51q-83 0 -79 207h-5q-62 23 -62 51q0 39 62 54
l13 151l12 82q-43 0 -43 41q0 19 33 41l49 33q10 0 41.5 -7.5t40.5 -7.5q104 0 184 -44q97 -58 97 -161q0 -86 -46 -128l-112 -72l130 -84q68 -55 72 -126q125 115 125 282zM681 1395q0 108 -166 108h-18l-31 -113q-10 -32 -15 -136q46 -18 61 -18q62 0 115.5 50t53.5 109z
M1050 1262q0 -200 -151 -343t-361 -143q-213 0 -364 143q-148 141 -148 343t148 343q151 143 364 143q210 0 361 -143t151 -343z" />
    <glyph glyph-name="overscore" unicode="&#xaf;" horiz-adv-x="711" 
d="M617 1892q0 -62 -36 -62h-476q-41 0 -41 67q0 61 41 61h471q41 0 41 -66z" />
    <glyph glyph-name="degree" unicode="&#xb0;" horiz-adv-x="929" 
d="M617 1324q0 87 -38 128q-25 26 -87 48q-66 29 -82 51q-56 -39 -97.5 -117t-41.5 -146q0 -210 144 -210q86 0 148 82q54 76 54 164zM824 1324q0 -185 -100 -300q-104 -123 -289 -123q-171 0 -271 103.5t-100 278.5q0 119 54 235q58 128 158 182q55 33 95 33q50 0 136 -38
l13 -28h7q141 0 221 -103q76 -100 76 -240z" />
    <glyph glyph-name="plusminus" unicode="&#xb1;" horiz-adv-x="1525" 
d="M1395 916q0 -163 -169 -163h-399v-302q0 -47 28 -154q-38 -56 -84 -56q-177 0 -177 158v354h-492q-38 64 -38 107q0 48 36.5 88t81.5 40q61 0 135 -10t136 -10h141v468q72 36 115 36q45 0 100 -33q59 -36 59 -72q0 -38 -21 -128q-20 -83 -20 -125v-146h343q61 0 164 25
q61 -34 61 -77zM1395 74q0 -164 -169 -164h-1124q-38 64 -38 108q0 48 36.5 88t81.5 40q61 0 135 -10q81 -11 136 -11h717q64 0 164 26q61 -34 61 -77z" />
    <glyph glyph-name="twosuperior" unicode="&#xb2;" horiz-adv-x="855" 
d="M755 1006q0 -31 -26 -61.5t-61 -30.5q-8 0 -41.5 9t-45.5 9q-189 0 -366 -56q-42 -13 -51 -13q-47 0 -80 29t-33 76q0 38 19 65t78 73q134 103 228.5 232t94.5 211q0 23 -18 39.5t-43 16.5q-48 0 -79.5 -19t-43.5 -48t-22 -62t-17.5 -62t-28.5 -48t-55 -19
q-29 0 -69.5 34t-40.5 65q0 79 58 156t143 123.5t162 46.5q96 0 173.5 -73t77.5 -171q0 -106 -83.5 -228.5t-203.5 -208.5q105 21 267 30q44 2 75.5 -33.5t31.5 -81.5z" />
    <glyph glyph-name="threesuperior" unicode="&#xb3;" horiz-adv-x="934" 
d="M812 1208q0 -96 -63.5 -173t-156 -115.5t-188.5 -38.5q-54 0 -113 12t-114 35t-90.5 63t-35.5 89q0 37 32.5 66t67.5 29q21 0 39.5 -9t34 -27t26 -33t23.5 -38q25 -18 97 -18q88 0 162 46.5t74 104.5q0 35 -46.5 61t-97.5 26q0 -8 -84.5 -30t-114.5 -22q-77 0 -77 80
q0 22 4 37.5t16.5 33t40 28t69.5 13.5q80 6 139 56t59 106q0 23 -26 23q-24 0 -72.5 -18t-76.5 -36q-14 -47 -68 -83.5t-85 -36.5q-41 0 -75.5 20t-34.5 54q0 46 65.5 112t165 116.5t181.5 50.5q96 0 158 -52t62 -140q0 -87 -66 -174q169 -61 169 -218z" />
    <glyph glyph-name="acute" unicode="&#xb4;" horiz-adv-x="604" 
d="M548 2030l-5 -26q-29 -60 -67 -74q-18 -8 -174 -100q-139 -82 -189 -82q-37 0 -58.5 21t-21.5 61v31q51 61 164 174q135 126 202 126q45 0 92 -42t57 -89z" />
    <glyph glyph-name="mu" unicode="&#xb5;" horiz-adv-x="980" 
d="M113 -540q-35 137 -42 287.5t-7 644.5q0 113 5 347.5t5 297.5q72 56 128 56q123 0 123 -120q0 -29 -7.5 -86.5t-15.5 -187t-8 -333.5q0 -77 37.5 -141t101.5 -64q91 0 145 101t54 276v307q0 28 -12.5 78t-12.5 55q0 25 34 48.5t83 23.5q64 0 113 -39t49 -97
q0 -45 -19.5 -240t-19.5 -241q0 -135 3.5 -229.5t6.5 -138.5t3 -57q0 -59 -100 -59q-103 0 -130 100q-93 -64 -190 -64q-83 0 -151 53q0 -401 72 -576q26 -59 26 -84q0 -74 -111 -74q-31 0 -46 1.5t-35 9t-31.5 24t-25 46t-25.5 75.5z" />
    <glyph glyph-name="paragraph" unicode="&#xb6;" horiz-adv-x="1374" 
d="M673 1521q-12 2 -59 2q-158 0 -245 -92.5t-87 -255.5q0 -185 96 -291t267 -108l21 532q1 20 2.5 91t4.5 122zM955 1124q0 241 -10 356h-100l-18 -674l118 -2q10 113 10 320zM1252 748q0 -78 -118 -105q-2 -12 -2 -54q0 -54 10 -128q10 -70 10 -126q0 -65 -10 -151
q-8 -110 -8 -143q0 -44 -26 -108q-29 -79 -64 -79q-45 0 -84 77q-31 68 -31 107v282q0 3 -5 143q-4 88 0 144q-58 0 -102 -3v-31q0 -135 5 -243q1 -45 4.5 -126t3.5 -109q0 -44 -29 -72t-74 -28q-87 0 -102 87q-25 176 -18 512q-243 15 -394 171q-154 159 -154 397
q0 228 154 371q159 144 396 144h23q-2 3 -2 15q0 42 32 69.5t73 27.5q90 0 110 -128l92 -2v59q0 41 29 69t73 28q109 0 105 -187q95 -19 95 -97q0 -88 -87 -100q15 -246 15 -346q0 -112 -12 -238q40 -2 66 -31t26 -68z" />
    <glyph glyph-name="middot" unicode="&#xb7;" horiz-adv-x="514" 
d="M428 804q0 -55 -67 -85q-55 -23 -115 -23q-58 0 -113 26q-69 30 -69 79q0 60 77 87q53 21 125 21q56 0 109 -31t53 -74z" />
    <glyph glyph-name="cedilla" unicode="&#xb8;" horiz-adv-x="522" 
d="M438 -195q0 -81 -108 -138q-44 -24 -179 -69q-67 12 -67 54q0 22 24 43q17 11 192 95q-13 8 -134 31q-102 19 -102 54q0 27 46 69q13 11 37.5 32.5t29.5 26.5l133 2q-34 -41 -67 -89q99 -16 121 -26q74 -27 74 -85z" />
    <glyph glyph-name="onesuperior" unicode="&#xb9;" horiz-adv-x="412" 
d="M320 1667q0 -37 -13 -90q-33 -133 -33 -251v-230q0 -54 4.5 -82t9.5 -30.5t9.5 -8t4.5 -20.5q0 -36 -26.5 -60.5t-60.5 -24.5q-123 0 -123 116v471q-24 5 -38 23q0 69 25 139.5t62 115t71 44.5q36 0 72 -39t36 -73z" />
    <glyph glyph-name="ordmasculine" unicode="&#xba;" horiz-adv-x="778" 
d="M497 1055q0 207 -90 207q-58 0 -93 -68.5t-35 -172.5q0 -176 95 -176q58 0 90.5 58t32.5 152zM666 1052q0 -155 -82 -255.5t-210 -100.5q-130 0 -203.5 86t-73.5 234q0 100 38.5 195.5t105.5 156t143 60.5q88 0 172 -84q110 -107 110 -292z" />
    <glyph glyph-name="guillemotright" unicode="&#xbb;" horiz-adv-x="911" 
d="M525 883q0 -30 -28 -46l-282 -438q-16 -10 -41 -10q-32 0 -55.5 28t-23.5 62q0 41 112 194q24 33 75.5 100t75.5 100l-153 207q-115 157 -115 203q0 61 74 61q26 0 46 -15q23 -18 174 -226q141 -194 141 -220zM858 883q0 -30 -29 -46l-256 -412q-16 -10 -41 -10
q-32 0 -55.5 27.5t-23.5 61.5q0 35 238 369q-246 338 -246 374q0 61 77 61q24 0 44 -15q36 -32 161 -202q131 -185 131 -208z" />
    <glyph glyph-name="onequarter" unicode="&#xbc;" horiz-adv-x="1502" 
d="M381 1667q0 -41 -12 -90q-34 -137 -34 -251v-230q0 -54 4.5 -82t10 -30.5t10 -8t4.5 -20.5q0 -36 -27 -60.5t-61 -24.5q-122 0 -122 116v471q-25 5 -39 23q0 105 53 202t106 97q36 0 71.5 -39t35.5 -73zM1126 1592q0 -35 -29 -68t-88 -75q-124 -150 -369 -637
q-218 -432 -282 -694q31 -28 31 -57q0 -33 -26 -57t-63 -24q-128 0 -128 110q0 216 317 878q138 286 225 450.5t112 201.5t57 75q29 33 80 33q64 0 113.5 -39.5t49.5 -96.5zM1001 379q5 92 15 171q-14 -11 -47.5 -36.5t-51 -39.5t-43.5 -36t-47 -41.5t-39 -40.5
q79 11 137.5 15.5t75.5 7.5zM1313 184l-25 8l-108 8q5 -87 33 -144q0 -12 -4.5 -26t-14 -30.5t-30.5 -27t-50 -10.5q-123 0 -123 161q0 8 1 32.5t1 36.5q-49 -4 -140.5 -13.5t-117.5 -9.5q-54 0 -120.5 48.5t-66.5 94.5q0 41 34 86t81.5 84.5t149 123.5t185.5 162
q50 61 81 84.5t73 23.5q46 0 79.5 -30.5t33.5 -74.5q0 -37 -23 -87l-49 -300q89 0 142 -27.5t53 -80.5q0 -92 -75 -92z" />
    <glyph glyph-name="onehalf" unicode="&#xbd;" horiz-adv-x="1456" 
d="M381 1667q0 -41 -12 -90q-34 -137 -34 -251v-230q0 -54 4.5 -82t10 -30.5t10 -8t4.5 -20.5q0 -36 -27 -60.5t-61 -24.5q-122 0 -122 116v471q-25 5 -39 23q0 105 53 202t106 97q36 0 71.5 -39t35.5 -73zM1111 1592q0 -34 -29.5 -67.5t-88.5 -75.5q-121 -147 -368 -637
q-218 -432 -282 -694q31 -28 31 -57q0 -33 -26.5 -57t-63.5 -24q-128 0 -128 110q0 214 318 878q138 286 225 450.5t112 201.5t57 75q29 33 79 33q64 0 114 -39.5t50 -96.5zM1341 115q0 -31 -26 -61.5t-61 -30.5q-8 0 -41.5 9t-45.5 9q-189 0 -366 -56q-42 -13 -51 -13
q-47 0 -80 29t-33 76q0 38 19 65t79 73q133 103 227.5 232t94.5 211q0 23 -18 39.5t-43 16.5q-48 0 -79.5 -19t-43.5 -48t-22 -62t-17.5 -62t-28.5 -48t-55 -19q-29 0 -69.5 34.5t-40.5 65.5q0 79 58.5 156t143 123t162.5 46q96 0 173 -73t77 -171q0 -106 -83 -228.5
t-203 -208.5q105 21 266 30q44 2 75.5 -33.5t31.5 -81.5z" />
    <glyph glyph-name="threequarters" unicode="&#xbe;" horiz-adv-x="1866" 
d="M876 1208q0 -96 -63.5 -173t-156 -115.5t-188.5 -38.5q-54 0 -113 12t-114 35t-90.5 63t-35.5 89q0 37 32.5 66t67.5 29q21 0 39.5 -9t34 -27t26 -33t23.5 -38q25 -18 97 -18q88 0 162 46.5t74 104.5q0 35 -46.5 61t-97.5 26q0 -8 -84.5 -30t-114.5 -22q-77 0 -77 80
q0 22 4 37.5t16.5 33t40 28t69.5 13.5q80 6 139 56t59 106q0 23 -26 23q-24 0 -72.5 -18t-76.5 -36q-14 -47 -68 -83.5t-85 -36.5q-41 0 -75.5 20t-34.5 54q0 46 65.5 112t165 116.5t181.5 50.5q96 0 158 -52t62 -140q0 -87 -66 -174q169 -61 169 -218zM1500 1592
q0 -34 -29.5 -67.5t-88.5 -75.5q-121 -147 -368 -637q-218 -432 -282 -694q31 -28 31 -57q0 -33 -26.5 -57t-63.5 -24q-128 0 -128 110q0 214 318 878q138 286 225 450.5t112 201.5t57 75q29 33 79 33q64 0 114 -39.5t50 -96.5zM1364 379q4 80 16 171q-14 -11 -47.5 -36.5
t-51 -39.5t-43.5 -36t-47 -41.5t-39 -40.5q78 11 136.5 15.5t75.5 7.5zM1677 184l-26 8l-107 8q5 -87 33 -144q0 -17 -7 -36.5t-31.5 -38.5t-61.5 -19q-123 0 -123 161q0 8 1.5 32.5t1.5 36.5q-49 -4 -141 -13.5t-118 -9.5q-54 0 -120.5 48.5t-66.5 94.5q0 33 18 65t61 71.5
t90 78t128.5 106.5t153.5 135q50 61 81 84.5t73 23.5q46 0 79 -30.5t33 -74.5q0 -37 -23 -87l-49 -300q89 0 142 -27.5t53 -80.5q0 -92 -74 -92z" />
    <glyph glyph-name="questiondown" unicode="&#xbf;" horiz-adv-x="1487" 
d="M1359 -36q0 -99 -174 -243q-151 -123 -271 -169q-183 -67 -282 -67q-173 0 -363 128q-205 139 -205 308q0 170 200 320q54 41 368 217q200 111 200 187q0 18 -28 69t-28 92l2 18q32 8 64 8q81 0 162 -64q84 -66 84 -141q0 -139 -197 -256q-59 -36 -180.5 -101
t-180.5 -101q-195 -116 -195 -248q0 -101 80 -157q72 -53 171 -53q100 0 261 79q150 73 228 151q-100 27 -100 85q0 47 57 89q56 41 107 41q70 0 144 -64q76 -61 76 -128zM1075 1065q0 -44 -46.5 -78.5t-96.5 -34.5q-58 0 -123 34q-74 42 -74 94q0 39 71 77q59 33 105 33
q52 0 108 -38t56 -87z" />
    <glyph glyph-name="Agrave" unicode="&#xc0;" 
d="M1057 558q-111 901 -202 901q-71 0 -251 -427q-140 -336 -202 -528q101 24 243 44q118 18 412 10zM1416 458q0 -121 -110 -125q10 -51 56 -161q-2 -55 -45.5 -93t-103.5 -38q-43 0 -107 31q-33 63 -33 156q0 16 2.5 68t2.5 68q0 -18 -85 -18q-130 0 -338 -13
q-280 -19 -307 -46q-25 -25 -33 -277q-33 -48 -85 -48q-56 0 -111 45.5t-55 97.5q0 4 5.5 20t17.5 51.5t23 71.5q12 39 38.5 134.5t58.5 203t69 213.5q165 470 310.5 708.5t260.5 238.5q325 0 443 -1190l85 -26q41 -22 41 -72zM1108 1833l3 -21q5 -43 -33 -43q-40 0 -179 82
q-180 104 -192 110q-26 12 -47 56q8 38 42 73t66 35q53 0 182 -121q98 -95 158 -171z" />
    <glyph glyph-name="Aacute" unicode="&#xc1;" 
d="M1057 558q-111 901 -202 901q-71 0 -251 -427q-140 -336 -202 -528q101 24 243 44q118 18 412 10zM1416 458q0 -125 -110 -125q10 -51 56 -161q-2 -55 -45.5 -93t-103.5 -38q-43 0 -107 31q-33 63 -33 156q0 16 2.5 68t2.5 68q0 -18 -85 -18q-130 0 -338 -13
q-280 -19 -307 -46q-25 -25 -33 -277q-33 -48 -85 -48q-56 0 -111 45.5t-55 97.5q0 5 5.5 21t17.5 51t23 71q12 39 38.5 134.5t58.5 203t69 213.5q167 471 311.5 709t259.5 238q225 0 343 -499q53 -223 100 -691l85 -26q41 -22 41 -72zM1055 2017q-21 -45 -46 -56
q-12 -6 -192 -110q-139 -82 -180 -82q-38 0 -33 43l3 21q60 76 158 171q129 121 182 121q33 0 67.5 -35.5t40.5 -72.5z" />
    <glyph glyph-name="Acircumflex" unicode="&#xc2;" 
d="M1057 556q-115 901 -202 901q-71 0 -251 -425q-140 -336 -202 -528q101 24 243 44q133 21 412 8zM1416 458q0 -125 -110 -125q16 -69 56 -161q-2 -55 -45.5 -93t-103.5 -38q-43 0 -107 31q-6 10 -28 158q-20 116 -59 116q-113 0 -359 -16q-290 -19 -314 -48
q-24 -28 -31 -272q-33 -48 -85 -48q-56 0 -111 45.5t-55 97.5q0 18 46 143q27 71 82 277q30 111 84 271q346 950 571 950t343 -502q53 -218 100 -688q126 -27 126 -98zM1221 1792q0 -46 -56 -46q-46 0 -118 56q-86 64 -118 77q-4 1 -53 18q-38 -13 -105 -51
q-134 -100 -182 -100q-64 0 -64 36q0 42 153 161q153 123 198 123q56 0 335 -233q10 -16 10 -41z" />
    <glyph glyph-name="Atilde" unicode="&#xc3;" 
d="M1057 556q-115 901 -202 901q-71 0 -251 -425q-133 -321 -202 -528q101 24 243 44q133 21 412 8zM1416 458q0 -124 -110 -128q10 -48 56 -158q-2 -55 -45.5 -93t-103.5 -38q-43 0 -107 31q-33 63 -33 156q0 17 2.5 68.5t2.5 64.5q0 -15 -85 -15q-127 0 -343 -13
q-277 -19 -304 -46q-24 -28 -31 -277q-33 -48 -85 -48q-56 0 -111 45.5t-55 97.5q0 5 5.5 21t17.5 51t23 71q12 39 38.5 134t58.5 201t69 213q162 468 309 707.5t262 239.5q225 0 343 -499q53 -218 100 -688l85 -26q41 -22 41 -72zM1149 1958q0 -49 -110 -105
q-97 -48 -156 -48q-58 0 -128 33t-95 33q-33 0 -84 -28t-69 -28q-82 0 -82 61q0 54 110 103q98 43 156 43q59 0 126 -35q65 -34 87 -34q33 0 82 34q55 35 82 35q81 0 81 -64z" />
    <glyph glyph-name="Adieresis" unicode="&#xc4;" 
d="M1057 556q-115 901 -202 901q-71 0 -251 -425q-133 -321 -202 -528q101 24 243 44q121 16 412 8zM1416 458q0 -124 -110 -128q10 -48 56 -158q-2 -55 -45.5 -93t-103.5 -38q-43 0 -107 31q-33 63 -33 156q0 17 2.5 68.5t2.5 64.5q0 -18 -85 -18q-177 0 -343 -10
q-277 -19 -304 -46q-24 -28 -31 -277q-33 -48 -85 -48q-56 0 -111 45.5t-55 97.5q0 5 5.5 21t17.5 51t23 71q12 39 38.5 134t58.5 201t69 213q162 468 309 707.5t262 239.5q225 0 343 -499q54 -225 100 -688l85 -26q41 -22 41 -72zM804 1871q0 -61 -46 -104.5t-108 -43.5
t-107.5 43.5t-45.5 104.5q0 62 45.5 106.5t107.5 44.5t108 -44.5t46 -106.5zM1188 1871q0 -61 -46 -104.5t-108 -43.5t-107.5 43.5t-45.5 104.5q0 62 45.5 106.5t107.5 44.5t108 -44.5t46 -106.5z" />
    <glyph glyph-name="Aring" unicode="&#xc5;" 
d="M1057 558q-111 901 -202 901q-71 0 -251 -425q-137 -329 -202 -530q120 29 243 46q121 16 412 8zM916 1953q0 57 -74 57q-77 0 -77 -57q0 -56 77 -56q74 0 74 56zM1416 458q0 -121 -110 -125q10 -51 56 -161q-2 -55 -45.5 -93t-103.5 -38q-43 0 -107 31q-33 63 -33 158
q0 16 2.5 68t2.5 66q0 -18 -85 -18q-127 0 -343 -13q-277 -19 -304 -46q-24 -28 -31 -277q-33 -48 -85 -48q-56 0 -111 45.5t-55 97.5q0 5 5.5 21t17.5 51t23 71q12 39 38.5 134.5t58.5 203t69 213.5q162 468 309 708.5t262 240.5q225 0 343 -501q53 -223 100 -691
q68 -15 85 -26q41 -22 41 -72zM1039 1953q0 -64 -60.5 -105t-136.5 -41q-71 0 -130 36q-67 43 -67 110t67 110q59 36 130 36q72 0 131 -36q66 -42 66 -110z" />
    <glyph glyph-name="AE" unicode="&#xc6;" horiz-adv-x="2424" 
d="M1134 1380l-2 115q-15 23 -44 23q-118 0 -627 -1016q131 27 228 41q128 18 419 10v97q-87 4 -87 105q0 95 93 115q0 44 12 256q10 211 8 254zM2255 172q0 -75 -89 -75q-6 0 -29 4t-30 4q-114 0 -333 -69t-335 -69q-304 0 -331 371q-52 5 -76 5q-144 0 -348 -15
q-279 -20 -313 -49q-27 -22 -69 -274q-35 -43 -84 -43q-56 0 -105 43.5t-49 96.5q0 6 8 22.5t25.5 53t33.5 73.5q3 6 87 204.5t153 340.5q114 234 310 535q265 402 384 402q22 0 94.5 -15.5t94.5 -15.5q205 0 610 72q66 10 84 10q167 0 302 -153q-72 -72 -133 -72
q-10 0 -47.5 4t-47.5 4q-128 0 -322 -21q-230 -23 -305 -64q-19 -196 -31 -560q7 3 182 15q184 13 200 13q94 0 225 -64v-69q0 -47 -89 -113q-54 54 -70 54q-216 0 -458 -69l-2 -139q112 -27 112 -94q0 -52 -35.5 -89t-87.5 -39q12 -156 118 -156q101 0 289 66
q188 69 290 69q161 0 215 -92v-23q2 -7 2 -20z" />
    <glyph glyph-name="Ccedilla" unicode="&#xc7;" horiz-adv-x="1438" 
d="M1313 407q0 -164 -146 -299q-145 -137 -302 -154l-110 -13q197 -42 197 -130q0 -104 -117 -172q-48 -29 -208 -84q-100 19 -100 89q0 33 36 69q22 5 57 5q130 0 130 72q0 32 -100 44q-97 12 -97 48q0 33 23 64q-262 46 -397 277q-115 196 -115 489q0 275 82 512
q96 274 282 430q143 123 296 123q220 0 331 -192q92 -158 92 -389q0 -105 -54 -267q-65 -194 -143 -194q-87 0 -136 110l72 66q51 48 51 215q0 163 -33 269q-49 172 -169 172q-82 0 -179 -105q-83 -91 -126 -179q-125 -247 -125 -617q0 -538 399 -538q171 0 271 100
q41 41 121 182q53 99 115 99q41 0 71.5 -30.5t30.5 -71.5z" />
    <glyph glyph-name="Egrave" unicode="&#xc8;" horiz-adv-x="1384" 
d="M1262 148q-35 -74 -90 -74q-6 0 -29 4t-29 4q-108 0 -320 -69q-210 -67 -318 -67q-412 0 -412 630q0 450 26 788q5 46 5 75q0 21 -8 75.5t-8 62.5q77 61 131 69l346 82q205 49 348 49q167 0 302 -157q-71 -71 -133 -71q-10 0 -47.5 3.5t-47.5 3.5q-120 0 -315 -33
q-223 -40 -299 -79q-21 -201 -47 -568q92 6 218 35q156 34 218 34q76 0 171 -46q26 -78 26 -100q0 -55 -121 -98q-45 29 -87 29q-193 0 -437 -82q-5 -43 -5 -164q0 -152 12 -202q27 -118 133 -118q89 0 272 59q179 61 274 61q194 0 271 -136zM696 1884l3 -20q2 -21 -7 -32.5
t-26 -11.5q-41 0 -180 82q-180 104 -192 110q-25 11 -46 56q6 37 40.5 72.5t67.5 35.5q54 0 182 -120q95 -92 158 -172z" />
    <glyph glyph-name="Eacute" unicode="&#xc9;" horiz-adv-x="1384" 
d="M1262 148q-35 -74 -90 -74q-6 0 -29 4t-29 4q-108 0 -320 -69q-210 -67 -318 -67q-412 0 -412 630q0 513 26 786q15 180 18 187q28 98 135 110q7 1 45.5 4t72.5 8t72 13q191 38 468 75l74 10q45 8 72 8q63 0 110 -54q0 -177 -84 -177q-10 0 -47.5 4t-47.5 4
q-120 0 -315 -33q-220 -39 -299 -80q-22 -207 -47 -565q92 6 218 35q143 31 218 31q76 0 171 -46q26 -78 26 -100q0 -52 -121 -95q-40 26 -87 26q-201 0 -437 -79q-5 -47 -5 -164q0 -152 12 -202q27 -118 133 -118q89 0 272 59q179 61 274 61q194 0 271 -136zM873 2017
q-21 -45 -46 -56q-12 -6 -192 -110q-139 -82 -177 -82q-41 0 -36 43l3 21q56 72 159 171q129 121 181 121q33 0 67.5 -35.5t40.5 -72.5z" />
    <glyph glyph-name="Ecircumflex" unicode="&#xca;" horiz-adv-x="1384" 
d="M1262 148q-49 -99 -90 -99q-6 0 -29 3.5t-29 3.5q-112 0 -320 -56q-207 -54 -318 -54q-412 0 -412 630q0 453 26 786q5 46 5 77q0 11 -10.5 53t-10.5 57q0 35 35 61t101 36l220 33q41 6 87 15.5t103 23t89 20.5q167 31 282 31q91 0 130 -32t49 -117l-41 -46
q-25 -25 -56 -25q-10 0 -47.5 2.5t-47.5 2.5q-120 0 -315 -33q-221 -39 -299 -77q-21 -201 -47 -568q92 6 218 35q143 31 218 31q76 0 171 -46q26 -78 26 -100q0 -52 -121 -95q-45 29 -87 29q-193 0 -437 -82q-5 -47 -5 -164q0 -152 12 -202q27 -118 133 -118q89 0 272 59
q179 61 274 61q194 0 271 -136zM965 1869q0 -46 -59 -46q-46 0 -118 56q-87 65 -117 77q-6 1 -13 4t-18 7t-20 7q-39 -12 -108 -51q-134 -100 -182 -100q-64 0 -64 36q0 42 154 161q153 123 200 123q53 0 332 -233q13 -21 13 -41z" />
    <glyph glyph-name="Edieresis" unicode="&#xcb;" horiz-adv-x="1377" 
d="M1252 192q0 -45 -18 -77q-23 -43 -62 -43q-6 0 -29 3.5t-29 3.5q-108 0 -320 -66q-210 -67 -318 -67q-412 0 -412 625q0 501 26 778q2 17 2 41q0 12 -5 52t-5 50q0 119 128 139q183 32 394 74q255 49 387 49q75 0 130 -26q77 -35 77 -100q0 -95 -125 -95q-10 0 -47.5 4
t-47.5 4q-207 0 -566 -92q-1 0 -8 -0.5t-8.5 -1t-7.5 -1.5t-8 -2t-6.5 -2.5t-6.5 -4t-5.5 -6t-5.5 -7.5t-4.5 -9.5t-3.5 -11.5q-28 -128 -28 -481q0 -54 49 -54q71 0 192 33t192 33q76 0 171 -46q26 -78 26 -100q0 -64 -39 -69l-82 -10q-21 13 -56 13q-108 0 -215 -23
q-32 -6 -103 -21.5t-109 -22.5q-3 0 -11 -1t-11 -2t-8.5 -4t-8.5 -10t-5 -18q-5 -52 -5 -75q0 -193 8 -235q27 -149 140 -149q91 0 285 59q189 62 297 62q175 0 225 -90zM540 1864q0 -43 -39.5 -74t-88.5 -31t-88.5 31t-39.5 74q0 44 39 75.5t89 31.5t89 -31.5t39 -75.5z
M924 1915q0 -43 -39.5 -74t-88.5 -31t-88.5 31t-39.5 74q0 45 39 76t89 31t89 -31t39 -76z" />
    <glyph glyph-name="Igrave" unicode="&#xcc;" horiz-adv-x="604" 
d="M476 1613q0 -11 -23 -59q-13 -21 -20 -115q-54 -580 -54 -947q0 -284 95 -418q-101 -69 -146 -69q-132 0 -162 213q-33 247 -33 962q0 302 5 392q4 55 64 107q62 54 118 54q54 0 105 -37t51 -83zM512 1833l3 -21q2 -21 -7 -32t-27 -11q-40 0 -179 82q-180 104 -192 110
q-25 11 -46 56q6 37 40.5 72.5t67.5 35.5q52 0 181 -121q103 -99 159 -171z" />
    <glyph glyph-name="Iacute" unicode="&#xcd;" horiz-adv-x="604" 
d="M458 1613q0 -8 -23 -59q-12 -23 -20 -115q-54 -598 -54 -947q0 -284 95 -418q-100 -69 -146 -69q-132 0 -162 213q-33 242 -33 706q0 177 3 318q2 95 2 322q0 59 62 113q65 56 123 56q46 0 99 -41q54 -39 54 -79zM515 2017q-21 -44 -47 -56q-12 -6 -192 -110
q-139 -82 -179 -82q-38 0 -33 43v21q61 74 161 171q129 121 182 121q32 0 66 -35t42 -73z" />
    <glyph glyph-name="Icircumflex" unicode="&#xce;" horiz-adv-x="862" 
d="M576 1610q0 -8 -23 -59q-14 -26 -21 -115q-53 -584 -53 -947q0 -283 94 -415q-100 -69 -145 -69q-132 0 -159 213q-36 265 -36 704q0 179 3 320q5 235 5 320q0 58 61 112q62 57 120 57q46 0 100 -39t54 -82zM763 1766q0 -46 -59 -46q-44 0 -118 57q-83 62 -118 76
q-6 1 -13 4t-18 7t-20 7q-37 -11 -107 -51q-134 -100 -179 -100q-67 0 -67 36q0 42 154 161q153 123 199 123q54 0 333 -233q13 -21 13 -41z" />
    <glyph glyph-name="Idieresis" unicode="&#xcf;" horiz-adv-x="775" 
d="M532 1610q0 -13 -25 -59q-14 -26 -21 -115q-53 -554 -53 -947q0 -283 94 -415q-96 -69 -146 -69q-131 0 -158 213q-36 265 -36 704q0 226 2 320q6 282 6 320q0 58 61 112q62 57 123 57q40 0 97 -41q56 -41 56 -80zM371 1848q0 -61 -45.5 -106t-107.5 -45t-108 45t-46 106
t46 105t108 44t107.5 -44t45.5 -105zM678 1871q0 -61 -45.5 -104.5t-107.5 -43.5t-108 43.5t-46 104.5q0 62 46 106.5t108 44.5t107.5 -44.5t45.5 -106.5z" />
    <glyph glyph-name="Eth" unicode="&#xd0;" horiz-adv-x="1530" 
d="M1062 835q0 -67 -18 -85t-81 -18q-15 0 -29 7t-37.5 16t-124.5 16t-270 7q-17 0 -48 -1t-44 -1v-395q0 -240 202 -240q159 0 303 160t196 388q41 168 41 384q0 522 -307 522q-124 0 -249 -128q-103 -109 -144.5 -234t-41.5 -293q90 4 188.5 10.5t158.5 10.5t85 4
q78 0 149 -37t71 -93zM1405 1062q0 -402 -184 -724q-219 -384 -591 -384q-135 0 -231 54q-49 -49 -105 -49q-31 0 -71 33q-51 150 -51 382q0 256 2 353q-25 -10 -51 -10q-36 0 -79.5 39.5t-43.5 78.5q0 29 0.5 42t3 28.5t8.5 21t16 5.5h151q0 9 1.5 28t1.5 28q13 448 13 615
q0 4 -3 18.5t-3 19.5q0 45 33 73.5t80 28.5q60 0 107 -38.5t47 -91.5q0 -18 -3 -23q131 192 371 192q180 0 312 -89.5t200.5 -252t68.5 -378.5z" />
    <glyph glyph-name="Ntilde" unicode="&#xd1;" horiz-adv-x="1446" 
d="M1321 1690q0 -42 -23 -62l-59 -31q-69 -33 -74 -435l-8 -740q0 -111 -51 -233q-65 -148 -159 -148q-140 0 -279 235q-102 179 -202 489q-49 149 -120 402q-54 -438 -54 -588q0 -334 38 -382q41 -48 41 -72q0 -45 -50 -83.5t-103 -38.5q-72 0 -118 153q-36 124 -36 215
q0 72 3 131q2 39 2 130q0 114 26 313q25 196 25 317v315q0 4 -3.5 15.5t-3.5 15.5q0 50 69 84q59 28 112 28q130 0 187 -84q16 -29 28 -118l16 -128q19 -168 164 -617q157 -499 230 -499q28 0 28 72q0 16 -6.5 69t-6.5 69l-7 732q0 136 69 320q84 223 197 223q57 0 125 -46
q3 -8 3 -23zM1037 1958q0 -49 -110 -105q-97 -48 -156 -48q-58 0 -128 33t-95 33q-34 0 -85 -28t-69 -28q-82 0 -82 61q0 54 110 103q98 43 157 43q58 0 125 -35q65 -34 87 -34q33 0 82 34q55 35 82 35q82 0 82 -64z" />
    <glyph glyph-name="Ograve" unicode="&#xd2;" horiz-adv-x="1610" 
d="M1231 899q0 242 -64 376q-82 175 -279 243q-25 10 -56 10q-145 0 -287 -130q-253 -231 -253 -720q0 -47 20 -138q42 -198 131 -287q99 -102 292 -102q265 0 394 256q102 201 102 492zM1477 876q0 -371 -179 -628q-203 -294 -558 -294q-100 0 -215 38q-461 143 -461 758
q0 376 177 671q211 348 558 348q353 0 530 -284q148 -235 148 -609zM1016 1884v-20q2 -21 -7 -32.5t-26 -11.5q-38 0 -177 82q-173 101 -194 110q-25 11 -46 56q8 38 41.5 73t65.5 35q57 0 185 -120q95 -92 158 -172z" />
    <glyph glyph-name="Oacute" unicode="&#xd3;" horiz-adv-x="1610" 
d="M1231 899q0 242 -64 376q-83 176 -279 241q-30 12 -56 12q-145 0 -287 -130q-253 -231 -253 -720q0 -47 20 -138q42 -198 131 -287q99 -102 292 -102q265 0 394 256q102 197 102 492zM1477 876q0 -371 -179 -628q-203 -294 -558 -294q-100 0 -215 38q-461 143 -461 756
q0 395 182 686q213 332 589 332q310 0 489 -302q153 -258 153 -588zM1037 2043q-21 -45 -46 -56q-5 -2 -192 -111q-137 -81 -177 -81q-38 0 -33 43v21q56 72 159 171q128 120 181 120q36 0 69 -34.5t39 -72.5z" />
    <glyph glyph-name="Ocircumflex" unicode="&#xd4;" horiz-adv-x="1610" 
d="M1231 891q0 533 -343 637q-32 11 -82 11q-141 0 -286 -128q-228 -208 -228 -740q0 -45 20 -136q42 -195 131 -284q100 -103 292 -103q259 0 394 254q102 197 102 489zM1477 868q0 -364 -182 -625q-205 -289 -555 -289q-102 0 -215 38q-255 80 -366 284q-95 171 -95 466
q0 378 182 669q210 340 568 340q315 0 502 -294q161 -252 161 -589zM1152 1818q0 -46 -59 -46q-46 0 -118 56q-87 65 -117 77q-1 0 -52 18q-33 -10 -107 -52q-133 -99 -182 -99q-64 0 -64 35q0 43 154 162q153 123 199 123q54 0 333 -233q13 -21 13 -41z" />
    <glyph glyph-name="Otilde" unicode="&#xd5;" horiz-adv-x="1610" 
d="M1231 896q0 242 -64 376q-83 176 -279 241q-32 13 -56 13q-144 0 -287 -131q-253 -231 -253 -719q0 -45 20 -136q42 -198 131 -287q102 -105 292 -105q265 0 394 256q102 201 102 492zM1477 876q0 -373 -179 -630q-204 -292 -558 -292q-100 0 -215 38q-461 143 -461 756
q0 370 174 668q204 350 553 350q353 0 533 -281q153 -239 153 -609zM1134 1984q0 -49 -110 -105q-99 -49 -159 -49q-53 0 -125 34q-70 33 -97 33q-34 0 -85 -28t-69 -28q-82 0 -82 61q0 53 110 102q101 44 156 44q57 0 126 -36q63 -33 87 -33q37 0 84 33q52 36 82 36
q82 0 82 -64z" />
    <glyph glyph-name="Odieresis" unicode="&#xd6;" horiz-adv-x="1610" 
d="M1231 896q0 242 -64 376q-81 173 -279 241q-25 10 -56 10q-142 0 -287 -128q-253 -231 -253 -719q0 -45 20 -136q42 -198 131 -287q102 -105 292 -105q265 0 394 256q102 201 102 492zM1477 873q0 -370 -179 -627q-204 -292 -558 -292q-100 0 -215 38q-253 79 -366 287
q-95 171 -95 469q0 307 125 573q149 309 405 404q-52 10 -87.5 52t-35.5 94q0 62 46 106.5t108 44.5t107.5 -44.5t45.5 -106.5q0 -71 -56 -112q52 5 92 5q47 0 100 -8q-59 48 -59 115q0 62 46 106.5t108 44.5t107.5 -44.5t45.5 -106.5q0 -55 -39.5 -97.5t-95.5 -50.5
q221 -89 343 -353q107 -229 107 -497z" />
    <glyph glyph-name="multiply" unicode="&#xd7;" horiz-adv-x="1525" 
d="M1216 1254q0 -48 -81 -140t-262 -262q81 -98 233 -232q52 -42 128 -90q5 -30 5 -38q0 -59 -55 -93.5t-99 -34.5q-46 0 -107 53q-164 142 -269 272q-132 -110 -348 -349q-79 20 -110 53.5t-31 87.5q0 34 55.5 93t148.5 142t132 124q-203 195 -354 356q25 82 66 120t126 38
q26 0 53 -29t53 -72.5t85 -114t134 -134.5q190 190 253.5 262t87.5 114q29 8 48 8q45 0 76.5 -44.5t31.5 -89.5z" />
    <glyph glyph-name="Oslash" unicode="&#xd8;" horiz-adv-x="1610" 
d="M932 1495q-55 26 -100 26q-144 0 -287 -131q-253 -231 -253 -719q0 -187 97 -354q334 653 543 1178zM1231 891q0 315 -123 473l-261 -601q-130 -298 -279 -591q82 -29 167 -29q263 0 394 259q102 197 102 489zM1477 870q0 -372 -179 -629q-204 -292 -558 -292
q-118 0 -264 54q-100 -157 -194 -157q-41 0 -70.5 24.5t-29.5 62.5q0 25 100 182q-218 196 -218 627q0 378 182 674q212 343 568 343q97 0 192 -31q27 218 218 218q60 0 128 -72q-73 -135 -141 -279q266 -261 266 -725z" />
    <glyph glyph-name="Ugrave" unicode="&#xd9;" horiz-adv-x="1269" 
d="M1152 1661v-711q0 -207 -51 -456q-61 -299 -169 -410q-135 -143 -328 -143q-177 0 -304 105q-143 113 -198 325q-38 139 -38 387q0 118 15 356q16 254 16 358q0 14 -15.5 60.5t-15.5 62.5q0 46 56 84q56 41 108 41q81 0 136.5 -46t55.5 -123q0 -18 -3 -38q-42 4 -53 -21
q-8 -20 -11 -56q-1 -6 -4.5 -46t-9.5 -102t-14 -131q-18 -152 -18 -274v-320q0 -150 54 -261q74 -146 205 -146q259 0 340 479q39 219 39 686q0 163 -52 276q-15 30 -15 49q0 47 35.5 90t79.5 43q52 0 105.5 -36.5t53.5 -81.5zM776 1807l2 -20q5 -44 -36 -44q-37 0 -176 82
q-170 99 -195 110q-21 9 -43 57q6 37 40 72t67 35q54 0 182 -120q99 -96 159 -172z" />
    <glyph glyph-name="Uacute" unicode="&#xda;" horiz-adv-x="1269" 
d="M1152 1661v-711q0 -207 -51 -456q-61 -299 -169 -410q-135 -143 -328 -143q-177 0 -304 105q-143 113 -198 325q-38 139 -38 387q0 118 15 356q16 254 16 358q0 14 -15.5 60.5t-15.5 62.5q0 46 56 84q56 41 108 41q81 0 136.5 -46t55.5 -123q0 -18 -3 -38q-42 4 -53 -21
q-8 -20 -11 -56q-1 -6 -4.5 -46t-9.5 -102t-14 -131q-18 -152 -18 -274v-320q0 -150 54 -261q74 -146 205 -146q259 0 340 479q39 219 39 686q0 163 -52 276q-15 30 -15 49q0 47 35.5 90t79.5 43q52 0 105.5 -36.5t53.5 -81.5zM876 2017q-21 -44 -47 -56q-12 -6 -192 -110
q-139 -82 -179 -82q-38 0 -33 43v21q64 82 161 171q129 121 182 121q32 0 66 -35t42 -73z" />
    <glyph glyph-name="Ucircumflex" unicode="&#xdb;" horiz-adv-x="1269" 
d="M1152 1664v-714q0 -207 -51 -456q-61 -295 -169 -410q-135 -143 -328 -143q-174 0 -304 108q-144 117 -198 322q-38 157 -38 387q0 119 15 358q16 254 16 359q0 14 -15.5 60t-15.5 60q0 49 56 87q56 41 108 41q176 0 176 -103q0 -27 -10 -97l-10 -10l-8.5 -8.5t-6.5 -6
t-5 -6t-3 -5t-2.5 -5.5t-1.5 -5t-1 -6.5v-8v-10.5l-3 -18q-7 -114 -25 -274q-21 -186 -21 -277v-317q0 -155 54 -264q69 -143 205 -143q259 0 340 478q39 219 39 689q0 173 -52 274q-33 63 -33 92q0 38 42 64t91 26q51 0 105 -37t54 -81zM937 1869q0 -46 -59 -46
q-43 0 -115 56q-81 61 -118 77q-7 2 -54 18q-32 -11 -107 -51q-134 -100 -179 -100q-64 0 -64 36q0 42 151 161q153 123 199 123q57 0 336 -233q10 -16 10 -41z" />
    <glyph glyph-name="Udieresis" unicode="&#xdc;" horiz-adv-x="1269" 
d="M1152 1659v-712q0 -206 -51 -455q-62 -298 -169 -408q-135 -143 -328 -143q-177 0 -304 105q-143 113 -198 325q-38 139 -38 384q0 122 15 356q16 254 16 358q0 14 -15.5 60.5t-15.5 62.5q0 47 56 85q56 41 108 41q81 0 136.5 -46t55.5 -123q0 -19 -3 -39q-42 5 -53 -20
q-8 -20 -11 -56q-1 -6 -4.5 -45.5t-9.5 -101t-14 -130.5q-18 -152 -18 -276v-318q0 -150 54 -261q74 -146 205 -146q259 0 340 479q39 219 39 683q0 164 -52 277q-15 30 -15 49q0 47 35.5 90t79.5 43q52 0 105.5 -36.5t53.5 -81.5zM573 1871q0 -61 -45.5 -104.5
t-107.5 -43.5t-108 43.5t-46 104.5q0 62 46 106.5t108 44.5t107.5 -44.5t45.5 -106.5zM957 1871q0 -61 -45.5 -104.5t-107.5 -43.5t-108 43.5t-46 104.5q0 62 46 106.5t108 44.5t107.5 -44.5t45.5 -106.5z" />
    <glyph glyph-name="Yacute" unicode="&#xdd;" horiz-adv-x="1369" 
d="M1311 1590q-28 -52 -100 -131q-65 -76 -95 -123q-25 -47 -307 -791q-241 -637 -320 -637q-72 0 -120 38q-59 43 -59 108q0 41 46 102q50 66 102 218l82 235q-152 122 -271 377q-205 436 -205 609q0 148 133 148q154 0 154 -176q0 -11 -6.5 -54.5t-6.5 -58.5
q0 -108 100 -338q105 -244 189 -279q37 52 146 295q118 262 192 389q115 192 192 192q57 0 102 -35t52 -88zM945 2127l-5 -25q-29 -60 -67 -74q-18 -8 -174 -100q-139 -82 -190 -82q-37 0 -58 21t-21 61v30q51 61 164 174q135 126 202 126q45 0 92 -42t57 -89z" />
    <glyph glyph-name="Thorn" unicode="&#xde;" horiz-adv-x="1313" 
d="M648 371q83 0 148.5 33t106.5 86.5t68 125.5t37.5 144t10.5 149q0 74 -13 138t-42.5 121.5t-84.5 91t-131 33.5q-78 0 -163 -51t-151 -124t-114 -155q-13 -186 -13 -382q55 -82 152 -146t189 -64zM402 1605q0 -23 -29 -135.5t-33 -197.5q76 106 186 158t206 52
q134 0 232 -42.5t154 -119.5t82 -172t26 -211q0 -108 -17.5 -213t-59 -207.5t-102 -179t-154.5 -124t-209 -47.5q-213 0 -367 118q20 -158 80 -238q-20 -33 -63 -49.5t-70 -16.5q-36 0 -64.5 12t-48.5 41.5t-34.5 58t-23 82.5t-14 92t-7.5 110t-2.5 113.5t-0.5 124.5
q0 431 21 948q2 57 53.5 106.5t117.5 49.5q33 0 87 -41t54 -72z" />
    <glyph glyph-name="germandbls" unicode="&#xdf;" horiz-adv-x="1310" 
d="M1190 351q0 -273 -192 -461q-190 -190 -458 -190q-50 0 -86.5 27.5t-36.5 70.5q0 57 90 84q167 52 200 67q133 67 199 197q57 103 57 230q0 153 -98 302q-108 162 -256 174q-10 0 -15 -2h-13q-45 0 -76 27t-31 70q0 34 23 77q107 46 207 164q108 126 108 235
q0 146 -144 146q-381 0 -381 -1008q0 -239 23 -400q7 -50 7 -77q0 -40 -39.5 -75t-80.5 -35q-59 0 -100 64q-33 47 -33 500q0 497 84 770q143 461 520 461q157 0 259 -87q112 -97 112 -248q0 -105 -66 -231q-67 -127 -149 -192l-51 13q195 -76 310 -271q107 -183 107 -402z
" />
    <glyph glyph-name="agrave" unicode="&#xe0;" horiz-adv-x="1095" 
d="M709 1265q0 -82 -89 -82q-88 0 -213 110q-29 23 -67 38q-83 30 -107 46l-15 41q6 49 54 99t92 50q71 0 189 -105q107 -103 146 -159q10 -23 10 -38zM724 343q0 51 -76 51q-320 0 -320 -151q0 -82 140 -82q83 0 164 49q92 57 92 133zM983 435q0 -328 -20 -466
q-12 -79 -108 -79q-143 0 -128 143q-125 -61 -266 -61q-135 0 -254 66q-143 81 -143 203t164 225q148 95 279 95h217v61q0 269 -158 269q-202 0 -202 -190q0 -64 -72 -64q-45 0 -91.5 40t-46.5 83q0 146 102 236q104 92 246 92q481 0 481 -653z" />
    <glyph glyph-name="aacute" unicode="&#xe1;" horiz-adv-x="1095" 
d="M850 1498l-5 -26q-29 -60 -67 -74q-18 -8 -174 -100q-139 -82 -189 -82q-37 0 -58.5 21t-21.5 61v31q51 61 164 174q134 125 202 125q45 0 92 -42t57 -88zM724 343q0 51 -76 51q-320 0 -320 -151q0 -82 140 -82q83 0 164 49q92 57 92 133zM983 435q0 -328 -20 -466
q-12 -79 -108 -79q-143 0 -128 143q-125 -61 -266 -61q-135 0 -254 66q-143 81 -143 203t164 225q148 95 279 95h217v61q0 269 -158 269q-202 0 -202 -190q0 -64 -72 -64q-45 0 -91.5 40t-46.5 83q0 146 102 236q104 92 246 92q481 0 481 -653z" />
    <glyph glyph-name="acircumflex" unicode="&#xe2;" horiz-adv-x="1095" 
d="M724 343q0 51 -76 51q-320 0 -320 -151q0 -82 140 -82q83 0 164 49q92 57 92 133zM983 435q0 -328 -20 -466q-12 -79 -108 -79q-143 0 -128 143q-125 -61 -266 -61q-135 0 -254 66q-143 81 -143 203t164 225q148 95 279 95h217v61q0 269 -158 269q-202 0 -202 -190
q0 -64 -72 -64q-45 0 -91.5 40t-46.5 83q0 146 102 236q104 92 246 92q481 0 481 -653zM824 1165q0 -39 -51 -39q-40 0 -105 49q-89 63 -102 67l-51 18q-24 -8 -98 -47q-116 -87 -161 -87q-59 0 -59 31q0 35 138 143q138 111 180 111q43 0 302 -208q7 -18 7 -38z" />
    <glyph glyph-name="atilde" unicode="&#xe3;" horiz-adv-x="1095" 
d="M724 343q0 51 -76 51q-320 0 -320 -151q0 -82 140 -82q83 0 164 49q92 57 92 133zM983 435q0 -328 -20 -466q-12 -79 -108 -79q-143 0 -128 143q-125 -61 -266 -61q-135 0 -254 66q-143 81 -143 203t164 225q148 95 279 95h217v61q0 269 -158 269q-202 0 -202 -190
q0 -64 -72 -64q-45 0 -91.5 40t-46.5 83q0 146 102 236q104 92 246 92q481 0 481 -653zM855 1329q0 -52 -95 -105q-96 -52 -148 -52q-48 0 -113 34q-63 33 -87 33q-22 0 -74 -28t-64 -28q-74 0 -74 61q0 50 97 100q88 46 143 46q54 0 113 -36q55 -33 79 -33q31 0 75 33
q52 36 74 36q74 0 74 -61z" />
    <glyph glyph-name="adieresis" unicode="&#xe4;" horiz-adv-x="1095" 
d="M724 343q0 51 -76 51q-320 0 -320 -151q0 -82 140 -82q83 0 164 49q92 57 92 133zM983 435q0 -328 -20 -466q-12 -79 -108 -79q-143 0 -128 143q-125 -61 -266 -61q-135 0 -254 66q-143 81 -143 203t164 225q148 95 279 95h217v61q0 269 -158 269q-202 0 -202 -190
q0 -64 -72 -64q-45 0 -91.5 40t-46.5 83q0 146 102 236q104 92 246 92q481 0 481 -653zM466 1249q0 -40 -35 -67t-80 -27t-80 27t-35 67q0 43 34.5 70.5t80.5 27.5t80.5 -27.5t34.5 -70.5zM812 1249q0 -39 -35 -66.5t-81 -27.5q-45 0 -80 27t-35 67q0 43 34.5 70.5
t80.5 27.5t81 -27.5t35 -70.5z" />
    <glyph glyph-name="aring" unicode="&#xe5;" horiz-adv-x="1095" 
d="M724 343q0 51 -76 51q-320 0 -320 -151q0 -82 140 -82q83 0 164 49q92 57 92 133zM589 1303q0 56 -74 56q-75 0 -75 -56t75 -56q74 0 74 56zM983 435q0 -328 -20 -466q-12 -79 -108 -79q-143 0 -128 143q-125 -61 -266 -61q-135 0 -254 66q-143 81 -143 203t164 225
q148 95 279 95h217v61q0 269 -158 269q-202 0 -202 -190q0 -64 -72 -64q-45 0 -91.5 40t-46.5 83q0 146 102 236q104 92 246 92q481 0 481 -653zM712 1303q0 -64 -60.5 -105t-136.5 -41q-72 0 -131 36q-67 43 -67 110t67 110q59 36 131 36q71 0 130 -36q67 -43 67 -110z" />
    <glyph glyph-name="ae" unicode="&#xe6;" horiz-adv-x="1722" 
d="M724 348q0 49 -76 49q-320 0 -320 -149q0 -82 140 -82q84 0 164 49q92 54 92 133zM1306 709q0 67 -38.5 123t-97.5 56q-71 0 -136 -107q-59 -99 -59 -174q0 -44 45 -74.5t99 -30.5q78 0 132.5 61.5t54.5 145.5zM1585 276q0 -126 -172 -222q-152 -85 -287 -85
q-185 0 -302 110q-182 -102 -363 -102q-134 0 -254 67q-143 81 -143 202q0 122 164 225q148 95 279 95h217v59q0 266 -158 266q-87 0 -149 -105q-53 -90 -53 -184q0 -64 -72 -64q-45 0 -91.5 41t-46.5 84q0 146 97 282q108 143 251 143q93 0 197 -40.5t166 -102.5
q96 158 223 158q141 0 302 -125q164 -125 164 -261q0 -171 -151 -295q-142 -115 -318 -115q-14 0 -33.5 5t-32 10t-39.5 16.5t-35 14.5q7 -194 192 -194q103 0 199 115q100 115 139 115q44 0 77 -34t33 -79z" />
    <glyph glyph-name="ccedilla" unicode="&#xe7;" horiz-adv-x="1080" 
d="M970 271q0 -78 -118 -189q-113 -102 -197 -128q-38 -13 -105 -31q172 -34 172 -118q0 -185 -305 -294q-94 29 -94 95q0 31 30 61q78 26 103 39q56 34 51 84q-12 23 -49 23q-10 0 -43.5 -5t-43.5 -5q-36 0 -36 31q0 37 62 99l-108 39q-116 59 -171 179q-54 111 -54 246
q0 195 105 448q127 297 292 297q89 0 225 -77q134 -76 156 -156q23 -90 23 -161q0 -83 -33 -182q-42 -131 -102 -131q-44 0 -82 26q-46 27 -46 71q0 8 23 59q12 27 12 151q0 198 -79 198q-128 0 -197 -223q-49 -150 -49 -328q0 -281 174 -281q72 0 157 71q87 72 117 141
q39 82 100 82q37 0 73.5 -44.5t36.5 -86.5z" />
    <glyph glyph-name="egrave" unicode="&#xe8;" horiz-adv-x="1026" 
d="M658 1265q0 -82 -90 -82q-87 0 -212 110q-29 23 -67 38q-83 30 -107 46l-16 41q6 49 54 99t92 50q72 0 190 -105q107 -103 146 -159q10 -23 10 -38zM637 709q0 67 -38.5 123t-96.5 56q-82 0 -131 -100q-38 -79 -38 -176q0 -48 33 -79t85 -31q78 0 132 61.5t54 145.5z
M916 225q0 -125 -174 -199q-135 -57 -284 -57q-394 0 -394 448q0 180 90 410q111 276 266 276q141 0 302 -125q164 -125 164 -261q0 -171 -151 -295q-142 -115 -318 -115q-30 0 -115 44q8 -192 143 -192q116 0 221 64q108 64 140 64q110 0 110 -62z" />
    <glyph glyph-name="eacute" unicode="&#xe9;" horiz-adv-x="1026" 
d="M771 1485l-6 -26q-29 -61 -66 -74q-18 -8 -174 -100q-139 -82 -190 -82q-37 0 -58 21t-21 61v31q51 61 164 174q134 125 202 125q45 0 92 -42t57 -88zM637 709q0 67 -38.5 123t-96.5 56q-82 0 -131 -100q-38 -79 -38 -176q0 -48 33 -79t85 -31q78 0 132 61.5t54 145.5z
M916 225q0 -125 -174 -199q-135 -57 -284 -57q-394 0 -394 448q0 180 90 410q111 276 266 276q141 0 302 -125q164 -125 164 -261q0 -171 -151 -295q-142 -115 -318 -115q-30 0 -115 44q8 -192 143 -192q116 0 221 64q108 64 140 64q110 0 110 -62z" />
    <glyph glyph-name="ecircumflex" unicode="&#xea;" horiz-adv-x="1026" 
d="M637 709q0 67 -38.5 123t-96.5 56q-82 0 -131 -100q-38 -79 -38 -176q0 -48 33 -79t85 -31q78 0 132 61.5t54 145.5zM916 225q0 -125 -174 -199q-135 -57 -284 -57q-394 0 -394 448q0 180 90 410q111 276 266 276q141 0 302 -125q164 -125 164 -261q0 -171 -151 -295
q-142 -115 -318 -115q-30 0 -115 44q8 -192 143 -192q116 0 221 64q108 64 140 64q110 0 110 -62zM765 1165q0 -39 -51 -39q-40 0 -105 49q-92 65 -107 69l-46 16q-24 -8 -98 -47q-121 -87 -161 -87q-59 0 -59 31q0 35 138 143q138 111 180 111q44 0 299 -208q10 -16 10 -38
z" />
    <glyph glyph-name="edieresis" unicode="&#xeb;" horiz-adv-x="1026" 
d="M637 709q0 67 -38.5 123t-96.5 56q-82 0 -131 -100q-38 -79 -38 -176q0 -48 33 -79t85 -31q78 0 132 61.5t54 145.5zM916 225q0 -125 -174 -199q-135 -57 -284 -57q-394 0 -394 448q0 180 90 410q111 276 266 276q141 0 302 -125q164 -125 164 -261q0 -171 -151 -295
q-142 -115 -318 -115q-30 0 -115 44q8 -192 143 -192q116 0 221 64q108 64 140 64q110 0 110 -62zM407 1249q0 -40 -35 -67t-80 -27t-80 27t-35 67q0 43 34.5 70.5t80.5 27.5t80.5 -27.5t34.5 -70.5zM753 1249q0 -39 -35 -66.5t-81 -27.5q-45 0 -80 27t-35 67
q0 43 34.5 70.5t80.5 27.5t81 -27.5t35 -70.5z" />
    <glyph glyph-name="igrave" unicode="&#xec;" horiz-adv-x="576" 
d="M504 1265q0 -82 -89 -82q-88 0 -213 110q-30 24 -66 38q-85 31 -108 46l-15 41q6 49 54 99t92 50q71 0 189 -105q107 -103 146 -159q10 -23 10 -38zM410 986q0 -41 -21 -131q-20 -86 -20 -131v-527q0 -46 28 -153q-40 -59 -85 -59q-161 0 -176 161q-26 289 -26 450
q0 239 21 425q-3 8 -3 26q0 46 72 46q55 0 128 -25q82 -30 82 -82z" />
    <glyph glyph-name="iacute" unicode="&#xed;" horiz-adv-x="576" 
d="M558 1487l-5 -25q-29 -60 -67 -74q-18 -8 -174 -100q-139 -82 -189 -82q-37 0 -58 21t-21 61v30q56 67 163 174q135 126 203 126q45 0 91.5 -42t56.5 -89zM407 986q0 -45 -20 -131q-21 -90 -21 -131v-527q0 -46 28 -153q-40 -59 -84 -59q-162 0 -177 161q-25 278 -25 450
q0 248 20 425q-3 8 -3 26q0 46 72 46q55 0 128 -25q82 -30 82 -82z" />
    <glyph glyph-name="icircumflex" unicode="&#xee;" horiz-adv-x="683" 
d="M468 986q0 -45 -20 -131t-20 -131v-527q0 -46 28 -153q-40 -59 -85 -59q-164 0 -176 161q-26 289 -26 450q0 248 20 425q-5 13 -5 26q0 46 72 46q71 0 128 -25q84 -27 84 -82zM589 1165q0 -39 -51 -39q-30 0 -110 46q-27 15 -57 32t-42.5 24t-16.5 8q-13 -5 -97 -64
q-65 -46 -92 -46q-59 0 -59 31q0 36 113 146q116 108 153 108q32 0 126 -90l123 -118q10 -16 10 -38z" />
    <glyph glyph-name="idieresis" unicode="&#xef;" horiz-adv-x="442" 
d="M376 986q0 -45 -20 -131q-21 -90 -21 -131v-527q0 -42 29 -153q-40 -59 -85 -59q-165 0 -177 161q-25 278 -25 450q0 248 20 425q-5 13 -5 26q0 46 72 46q71 0 128 -25q84 -27 84 -82zM215 1249q0 -40 -35 -67t-80 -27t-80 27t-35 67q0 43 34.5 70.5t80.5 27.5
t80.5 -27.5t34.5 -70.5zM509 1249q0 -40 -35 -67t-80 -27t-80 27t-35 67q0 43 34.5 70.5t80.5 27.5t80.5 -27.5t34.5 -70.5z" />
    <glyph glyph-name="eth" unicode="&#xf0;" horiz-adv-x="970" 
d="M691 445q0 156 -47.5 251t-131.5 95q-103 0 -173 -117.5t-70 -276.5q0 -140 50.5 -221t141.5 -81q103 0 166.5 101t63.5 249zM865 1487q0 -32 -23.5 -47t-84 -42t-114.5 -67q117 -198 181 -445t64 -443q0 -140 -52.5 -257t-151 -187.5t-223.5 -70.5q-197 0 -301 121
t-104 340q0 107 33 215.5t88 194.5t134 140t165 54q36 0 90 -13q-51 134 -100 213q-33 -24 -62 -63.5t-46 -70t-39 -53.5t-45 -23q-34 0 -86 49.5t-52 68.5t16 44t45.5 53.5t55.5 51.5t61.5 52.5t49.5 41.5q-128 164 -244 164q-23 52 -23 87q0 38 13.5 65t34.5 39t38 16.5
t32 4.5q56 0 120 -40t110.5 -88.5t89.5 -106.5q144 118 207 118q46 0 84.5 -36t38.5 -80z" />
    <glyph glyph-name="ntilde" unicode="&#xf1;" horiz-adv-x="1090" 
d="M978 394v-376q-40 -59 -95 -59q-39 0 -143 51v31q0 120 2 169q6 148 6 166q0 556 -164 556q-48 0 -105 -74q-182 -224 -182 -538q0 -44 15 -133q18 -82 18 -131q0 -35 -32.5 -58.5t-72.5 -23.5q-153 0 -153 198v542q0 14 5 61.5t5 61.5q0 21 -9 90.5t-9 88.5q0 42 48 79
t95 37q53 0 64 -11l41 -51l-7 -105q92 151 315 151q52 0 115 -33q243 -119 243 -689zM796 1364q0 -49 -95 -102q-91 -54 -148 -54q-48 0 -113 34q-63 33 -87 33q-22 0 -74 -28t-64 -28q-74 0 -74 64q0 49 97 99q88 46 143 46t113 -35q59 -36 79 -36q26 0 75 36q50 35 74 35
q74 0 74 -64z" />
    <glyph glyph-name="ograve" unicode="&#xf2;" horiz-adv-x="1090" 
d="M735 1265q0 -82 -90 -82q-87 0 -212 110q-29 23 -67 38q-83 30 -107 46l-16 41q6 49 54 99t92 50q72 0 190 -105q104 -100 145 -159q11 -25 11 -38zM753 509q0 392 -190 392q-136 0 -205 -166q-51 -130 -51 -284q0 -341 202 -341q130 0 195 141q49 107 49 258zM978 504
q0 -230 -115 -394q-135 -187 -354 -187q-224 0 -340 154q-105 137 -105 368q0 233 115 436q136 243 346 243q62 0 166 -59q287 -172 287 -561z" />
    <glyph glyph-name="oacute" unicode="&#xf3;" horiz-adv-x="1090" 
d="M788 1485l-5 -26q-29 -61 -66 -74q-18 -8 -174 -100q-139 -82 -190 -82q-37 0 -58 21t-21 61v31q51 61 164 174q134 125 202 125q45 0 91.5 -41.5t56.5 -88.5zM753 509q0 392 -190 392q-136 0 -205 -166q-51 -130 -51 -284q0 -341 202 -341q130 0 195 141q49 107 49 258z
M978 504q0 -230 -115 -394q-135 -187 -354 -187q-224 0 -340 154q-105 137 -105 368q0 233 115 436q136 243 346 243q62 0 166 -59q287 -172 287 -561z" />
    <glyph glyph-name="ocircumflex" unicode="&#xf4;" horiz-adv-x="1090" 
d="M753 509q0 392 -190 392q-136 0 -205 -166q-51 -130 -51 -284q0 -341 202 -341q130 0 195 141q49 107 49 258zM978 504q0 -230 -115 -394q-135 -187 -354 -187q-224 0 -340 154q-105 137 -105 368q0 233 115 436q136 243 346 243q62 0 166 -59q287 -172 287 -561z
M819 1165q0 -39 -54 -39q-40 0 -105 49q-88 62 -104 69l-49 16q-30 -10 -95 -47q-121 -87 -161 -87q-59 0 -59 31q0 34 136 143q138 111 181 111q45 0 300 -208q10 -16 10 -38z" />
    <glyph glyph-name="otilde" unicode="&#xf5;" horiz-adv-x="1090" 
d="M753 502q0 391 -190 391q-136 0 -205 -166q-51 -130 -51 -284q0 -341 202 -341q130 0 195 141q49 107 49 259zM978 497q0 -231 -115 -395q-134 -186 -354 -186q-225 0 -340 153q-105 137 -105 366q0 230 105 425q126 231 340 231q228 0 356 -190q113 -168 113 -404z
M863 1316q0 -52 -95 -105q-94 -51 -146 -51t-115 33t-87 33q-22 0 -74 -28t-64 -28q-75 0 -75 61q0 49 98 100q88 46 143 46q54 0 113 -36q55 -33 79 -33q30 0 74 33q52 36 74 36q75 0 75 -61z" />
    <glyph glyph-name="odieresis" unicode="&#xf6;" horiz-adv-x="1090" 
d="M753 509q0 392 -190 392q-136 0 -205 -166q-51 -130 -51 -284q0 -341 202 -341q130 0 195 141q49 107 49 258zM978 504q0 -230 -115 -394q-135 -187 -354 -187q-224 0 -340 154q-105 137 -105 368q0 233 115 436q136 243 346 243q62 0 166 -59q287 -172 287 -561z
M456 1249q0 -39 -36.5 -66.5t-79.5 -27.5q-45 0 -80 27t-35 67q0 43 34.5 70.5t80.5 27.5q43 0 79.5 -28t36.5 -70zM801 1249q0 -39 -36 -66.5t-79 -27.5q-45 0 -80 27t-35 67q0 43 34.5 70.5t80.5 27.5q43 0 79 -28t36 -70z" />
    <glyph glyph-name="divide" unicode="&#xf7;" horiz-adv-x="1525" 
d="M901 364q0 -52 -44.5 -95.5t-96.5 -43.5q-59 0 -129 53t-70 109q0 48 46 93t94 45q75 0 137.5 -46.5t62.5 -114.5zM924 1331q0 -65 -54.5 -105.5t-127.5 -40.5q-67 0 -124 43.5t-57 97.5q0 65 58 104t144 39q59 0 110 -42.5t51 -95.5zM1395 916q0 -163 -169 -163h-1124
q-38 64 -38 107q0 48 36.5 88t81.5 40q26 0 135.5 -10t135.5 -10h717q68 0 164 25q61 -34 61 -77z" />
    <glyph glyph-name="oslash" unicode="&#xf8;" horiz-adv-x="1093" 
d="M753 509q0 105 -23 195q-175 -369 -292 -584q34 -15 71 -15q132 0 198 143q46 107 46 261zM604 899q-22 5 -41 5q-135 0 -205 -167q-51 -130 -51 -286q0 -63 8 -121q203 384 289 569zM983 1162q-66 -98 -138 -220q133 -163 133 -438q0 -235 -115 -399
q-130 -187 -354 -187q-95 0 -169 26q-82 -128 -171 -128q-90 0 -90 79q25 60 93 172q-108 135 -108 376q0 229 113 440q135 249 348 249q52 0 148 -52q62 146 192 146q54 0 118 -64z" />
    <glyph glyph-name="ugrave" unicode="&#xf9;" horiz-adv-x="993" 
d="M684 1265q0 -82 -90 -82q-88 0 -213 110q-30 24 -66 38q-85 31 -108 46l-15 41q6 49 54 99t92 50q71 0 189 -105q107 -103 146 -159q11 -25 11 -38zM886 914q0 -67 -21 -241q-18 -145 -18 -240q0 -57 5 -215q8 -152 8 -210q0 -59 -100 -59q-103 0 -130 100
q-93 -64 -190 -64q-75 0 -169 38q-95 42 -133 97q-74 109 -74 346q0 70 8 299q5 219 2 297q76 57 128 57q123 0 123 -121q0 -39 -13 -135q-10 -74 -10 -136v-361q0 -65 33 -128q42 -77 98 -77q110 0 163 141q36 100 36 236v307q0 57 -30 146q68 59 122 59q64 0 113 -39
t49 -97z" />
    <glyph glyph-name="uacute" unicode="&#xfa;" horiz-adv-x="993" 
d="M771 1485l-6 -26q-29 -61 -66 -74q-18 -8 -174 -100q-139 -82 -190 -82q-37 0 -58 21t-21 61v31q51 61 164 174q134 125 202 125q45 0 92 -42t57 -88zM886 991q0 -77 -21 -279q-18 -170 -18 -279q0 -57 5 -215q8 -152 8 -210q0 -59 -100 -59q-103 0 -130 100
q-93 -64 -190 -64q-75 0 -169 38q-95 42 -133 97q-74 109 -74 346q0 151 5 287q6 253 5 284q75 56 128 56q123 0 123 -120q0 -35 -13 -123q-10 -68 -10 -123v-361q0 -65 33 -128q42 -77 98 -77q110 0 163 141q36 100 36 236v384q0 58 -30 146q67 58 122 58q64 0 113 -39
t49 -96z" />
    <glyph glyph-name="ucircumflex" unicode="&#xfb;" horiz-adv-x="993" 
d="M886 914q0 -67 -21 -241q-18 -145 -18 -240q0 -57 5 -215q8 -152 8 -210q0 -59 -100 -59q-103 0 -130 100q-93 -64 -190 -64q-75 0 -169 38q-95 42 -133 97q-74 109 -74 346q0 151 5 287q6 253 5 284q75 56 128 56q123 0 123 -120q0 -35 -13 -123q-10 -68 -10 -123v-361
q0 -65 33 -128q42 -77 98 -77q110 0 163 141q36 100 36 236v307q0 57 -30 146q68 59 122 59q64 0 113 -39t49 -97zM778 1190q0 -38 -54 -38q-40 0 -104 38q-84 50 -103 54l-51 18l-128 -66q-84 -44 -131 -44q-59 0 -59 31q0 34 139 143q137 110 179 110q48 0 302 -207
q10 -16 10 -39z" />
    <glyph glyph-name="udieresis" unicode="&#xfc;" horiz-adv-x="993" 
d="M886 914q0 -67 -21 -241q-18 -145 -18 -240q0 -57 5 -215q8 -152 8 -210q0 -59 -100 -59q-103 0 -130 100q-93 -64 -190 -64q-75 0 -169 38q-95 42 -133 97q-74 109 -74 346q0 151 5 287q6 253 5 284q75 56 128 56q123 0 123 -120q0 -35 -13 -123q-10 -68 -10 -123v-361
q0 -65 33 -128q42 -77 98 -77q110 0 163 141q36 100 36 236v307q0 57 -30 146q68 59 122 59q64 0 113 -39t49 -97zM407 1249q0 -40 -35 -67t-80 -27q-43 0 -79 27.5t-36 66.5q0 42 36 70t79 28q46 0 80.5 -27.5t34.5 -70.5zM753 1249q0 -39 -35 -66.5t-81 -27.5
q-43 0 -79 27.5t-36 66.5q0 42 36 70t79 28q46 0 81 -27.5t35 -70.5z" />
    <glyph glyph-name="yacute" unicode="&#xfd;" horiz-adv-x="1047" 
d="M963 983q-36 -204 -44 -253q-26 -144 -26 -254v-696q0 -188 -107.5 -288.5t-299.5 -100.5q-126 0 -271 64q-177 74 -177 179q0 36 28.5 60t66.5 24q21 0 110 -69q88 -69 200 -69q142 0 192 105q36 77 36 231q0 71 -3 97q-84 -57 -189 -57q-193 0 -297 139
q-95 125 -95 320q0 43 26 645q73 33 123 33q51 0 151 -61q-62 -154 -62 -615q0 -294 149 -294q112 0 169 184q43 138 43 277v312l-8 84q109 52 157 52q55 0 128 -49zM758 1480l-5 -26q-29 -60 -67 -74q-18 -8 -174 -100q-139 -82 -189 -82q-37 0 -58.5 21t-21.5 61v31
q51 61 164 174q134 125 202 125q45 0 92 -42t57 -88z" />
    <glyph glyph-name="thorn" unicode="&#xfe;" horiz-adv-x="1041" 
d="M494 102q202 0 202 441q0 404 -153 404q-70 0 -121.5 -59.5t-80 -161.5t-42.5 -211.5t-17 -235.5q24 -13 99 -107q55 -70 113 -70zM929 543q0 -271 -121.5 -441.5t-313.5 -170.5q-128 0 -215 72q0 -29 -1.5 -87t-1.5 -88q0 -230 59 -366q26 -55 26 -71q0 -47 -26.5 -67
t-83.5 -20q-38 0 -56.5 3t-40.5 17t-37 46.5t-30 89.5q-31 123 -31 348q0 114 2.5 202t10.5 251.5t13 281.5q10 264 33 1213q41 59 97 59q77 0 114.5 -48.5t37.5 -110.5q0 -77 -24.5 -317t-24.5 -269q75 90 192 90q136 0 252 -103t147 -243q23 -104 23 -271z" />
    <glyph glyph-name="ydieresis" unicode="&#xff;" horiz-adv-x="1098" 
d="M988 993q-29 -162 -43 -253q-26 -144 -26 -256v-702q0 -188 -107.5 -289.5t-299.5 -101.5q-126 0 -271 64q-177 77 -177 181q0 36 28.5 60.5t66.5 24.5q21 0 110 -69q88 -69 199 -69q142 0 192 105q36 77 36 233q0 79 -2 94q-82 -53 -190 -53q-194 0 -297 138
q-94 123 -94 322q0 69 25 648q73 33 123 33q51 0 151 -61q-61 -156 -61 -617q0 -297 148 -297q112 0 169 184q44 141 44 279v313l-8 87q107 51 156 51q55 0 128 -49zM494 1283q0 -43 -39.5 -74t-88.5 -31t-88.5 31t-39.5 74q0 45 39 76t89 31t89 -31t39 -76zM878 1283
q0 -43 -39.5 -74t-88.5 -31t-88.5 31t-39.5 74q0 45 39 76t89 31t89 -31t39 -76z" />
    <glyph glyph-name="Amacron" unicode="&#x100;" 
d="M1057 550q-111 894 -202 894q-73 0 -251 -420q-122 -283 -202 -525q101 24 243 44q128 20 412 7zM1416 453q0 -121 -110 -125q11 -50 56 -159q-2 -55 -45.5 -91.5t-103.5 -36.5q-43 0 -107 28q-33 63 -33 159q0 16 2.5 66t2.5 64q0 -18 -85 -18q-143 0 -340 -12
q-278 -15 -307 -44q-24 -28 -31 -274q-33 -48 -85 -48t-110 43q-56 46 -56 97q0 6 5.5 22t17.5 51t23 71q4 11 60 206t106 339q162 464 309 702t262 238q224 0 343 -497q53 -217 100 -684q70 -16 85 -25q41 -22 41 -72zM397 1851q-3 13 -3 46q0 66 18 84q347 41 574 41
q64 0 83 -21.5t19 -77.5q0 -90 -56 -90q-34 0 -144 5t-161 5q-87 0 -151.5 -7t-98 -14t-44.5 -7q-14 0 -24 9.5t-12 26.5z" />
    <glyph glyph-name="amacron" unicode="&#x101;" horiz-adv-x="1095" 
d="M724 343q0 51 -76 51q-320 0 -320 -151q0 -82 140 -82q83 0 164 49q92 57 92 133zM983 435q0 -328 -20 -466q-12 -79 -108 -79q-143 0 -128 143q-125 -61 -266 -61q-135 0 -254 66q-143 81 -143 203t164 225q148 95 279 95h217v61q0 269 -158 269q-202 0 -202 -190
q0 -64 -72 -64q-45 0 -91.5 40t-46.5 83q0 146 102 236q104 92 246 92q481 0 481 -653zM179 1211q-2 9 -2 46q0 66 18 84q347 41 573 41q64 0 83 -21.5t19 -77.5q0 -90 -56 -90q-34 0 -144 5t-161 5q-87 0 -151.5 -7t-98 -14t-44.5 -7q-14 0 -24 9.5t-12 26.5z" />
    <glyph glyph-name="Abreve" unicode="&#x102;" 
d="M1057 550q-111 894 -202 894q-73 0 -251 -420q-122 -283 -202 -525q101 24 243 44q128 20 412 7zM1416 453q0 -121 -110 -125q11 -50 56 -159q-2 -55 -45.5 -91.5t-103.5 -36.5q-43 0 -107 28q-33 63 -33 159q0 16 2.5 66t2.5 64q0 -18 -85 -18q-143 0 -340 -12
q-278 -15 -307 -44q-24 -28 -31 -274q-33 -48 -85 -48t-110 43q-56 46 -56 97q0 6 5.5 22t17.5 51t23 71q4 11 60 206t106 339q162 464 309 702t262 238q224 0 343 -497q53 -217 100 -684q70 -16 85 -25q41 -22 41 -72zM1096 2056q0 -114 -141 -182q-86 -41 -215 -41
q-124 0 -213 41q-143 69 -143 182q0 100 131 100q44 0 72.5 -14t38 -29.5t19.5 -41.5l5 -13q16 -10 82 -10q64 0 97 13l29 43h-3q24 52 110 52q131 0 131 -100z" />
    <glyph glyph-name="abreve" unicode="&#x103;" horiz-adv-x="1095" 
d="M724 343q0 51 -76 51q-320 0 -320 -151q0 -82 140 -82q83 0 164 49q92 57 92 133zM983 435q0 -328 -20 -466q-12 -79 -108 -79q-143 0 -128 143q-125 -61 -266 -61q-135 0 -254 66q-143 81 -143 203t164 225q148 95 279 95h217v61q0 269 -158 269q-202 0 -202 -190
q0 -64 -72 -64q-45 0 -91.5 40t-46.5 83q0 146 102 236q104 92 246 92q481 0 481 -653zM878 1416q0 -114 -141 -182q-86 -41 -215 -41q-123 0 -212 41q-144 70 -144 182q0 100 131 100q44 0 72.5 -14t38.5 -29.5t20 -41.5l5 -13q16 -10 82 -10q65 0 97 13l28 43h-3
q24 52 111 52q130 0 130 -100z" />
    <glyph glyph-name="Aogonek" unicode="&#x104;" 
d="M1057 550q-111 894 -202 894q-73 0 -251 -420q-122 -283 -202 -525q101 24 243 44q128 20 412 7zM1416 453q0 -121 -110 -125q11 -50 56 -159q-2 -55 -45.5 -91.5t-103.5 -36.5q-43 0 -107 28q-33 63 -33 159q0 16 2.5 66t2.5 64q0 -18 -85 -18q-143 0 -340 -12
q-278 -15 -307 -44q-24 -28 -31 -274q-33 -48 -85 -48t-110 43q-56 46 -56 97q0 6 5.5 22t17.5 51t23 71q4 11 60 206t106 339q162 464 309 702t262 238q224 0 343 -497q53 -217 100 -684q70 -16 85 -25q41 -22 41 -72zM1416 -453q0 -66 -103 -105h3q-57 -28 -126 -28
q-109 0 -186 69t-77 171q0 142 158 277q37 33 85 33q102 0 102 -84q0 -34 -59 -118q-41 -60 -41 -95q0 -24 13 -47.5t28 -23.5l16 10q3 2 11 7t10.5 7t9 5.5t10.5 4.5t10.5 3t13 2.5t14.5 0.5q108 0 108 -89z" />
    <glyph glyph-name="aogonek" unicode="&#x105;" horiz-adv-x="1095" 
d="M724 343q0 51 -76 51q-320 0 -320 -151q0 -82 140 -82q83 0 164 49q92 57 92 133zM983 435q0 -328 -20 -466q-12 -79 -108 -79q-143 0 -128 143q-125 -61 -266 -61q-135 0 -254 66q-143 81 -143 203t164 225q148 95 279 95h217v61q0 269 -158 269q-202 0 -202 -190
q0 -64 -72 -64q-45 0 -91.5 40t-46.5 83q0 146 102 236q104 92 246 92q481 0 481 -653zM983 -525q0 -67 -102 -105h2q-57 -28 -125 -28q-109 0 -186.5 69.5t-77.5 171.5q0 140 159 276q37 33 84 33q103 0 103 -84q0 -34 -59 -118q-41 -60 -41 -94q0 -24 13 -48t28 -24l15 10
q4 2 11.5 7l10.5 7t9 5.5t10.5 5t11 3.5t13 2.5t14.5 0.5q107 0 107 -90z" />
    <glyph glyph-name="Cacute" unicode="&#x106;" horiz-adv-x="1438" 
d="M1313 420q0 -54 -25 -118q-67 -172 -241 -266q-159 -87 -353 -87q-315 0 -484 238q-146 208 -146 535q0 270 84 509q96 272 280 425q149 121 296 121q219 0 331 -190q92 -154 92 -386q0 -107 -54 -264q-65 -195 -143 -195q-89 0 -136 113q33 24 72 59q51 59 51 220
q0 163 -33 269q-50 166 -169 166q-82 0 -179 -105q-82 -90 -126 -176q-125 -244 -125 -612q0 -533 399 -533q168 0 271 98q46 46 121 181q57 100 115 100q40 0 71 -31.5t31 -70.5zM947 2161l-5 -26q-29 -61 -66 -74q-22 -10 -175 -100q-139 -82 -189 -82q-37 0 -58 21
t-21 61v31q56 67 163 174q134 125 203 125q45 0 91.5 -41.5t56.5 -88.5z" />
    <glyph glyph-name="cacute" unicode="&#x107;" horiz-adv-x="1026" 
d="M945 289q0 -77 -121 -187q-97 -91 -180.5 -121t-175.5 -30q-199 0 -314.5 127t-115.5 332q0 195 105 440q126 292 292 292q95 0 223 -72q140 -82 161 -159q21 -74 21 -156q0 -80 -34 -179q-43 -128 -102 -128q-44 0 -82 26q-46 27 -46 69q0 1 23 59q13 29 13 140
q0 94 -8 123q-15 80 -72 80q-125 0 -194 -218q-51 -167 -51 -325q0 -274 174 -274q72 0 159 72q80 65 115 135q43 82 100 82q37 0 73.5 -44t36.5 -84zM750 1528l-5 -25q-29 -61 -67 -75q-25 -11 -174 -99q-139 -82 -189 -82q-37 0 -58 21t-21 61v30q56 67 163 174
q135 126 203 126q45 0 91.5 -42t56.5 -89z" />
    <glyph glyph-name="Ccircumflex" unicode="&#x108;" horiz-adv-x="1438" 
d="M1313 420q0 -54 -25 -118q-67 -172 -241 -266q-159 -87 -353 -87q-315 0 -484 238q-146 208 -146 535q0 270 84 509q96 272 280 425q149 121 296 121q219 0 331 -190q92 -154 92 -386q0 -107 -54 -264q-65 -195 -143 -195q-89 0 -136 113q33 24 72 59q51 59 51 220
q0 163 -33 269q-50 166 -169 166q-82 0 -179 -105q-82 -90 -126 -176q-125 -244 -125 -612q0 -533 399 -533q168 0 271 98q46 46 121 181q57 100 115 100q40 0 71 -31.5t31 -70.5zM1060 1961q0 -82 -103 -82q-63 0 -138 61v-2q-72 58 -97 66l-26 11l-5 2q-4 0 -3 0
q-1 0 1 -2l-67 -36q-137 -100 -194 -100q-111 0 -111 74q0 49 162 179q153 123 212 123q77 0 348 -233q21 -37 21 -61zM694 2012l2 3l-5 2l-2 -2q2 0 5 -3zM696 2012h-2h2z" />
    <glyph glyph-name="ccircumflex" unicode="&#x109;" horiz-adv-x="1026" 
d="M945 289q0 -77 -121 -187q-97 -91 -180.5 -121t-175.5 -30q-199 0 -314.5 127t-115.5 332q0 195 105 440q126 292 292 292q95 0 223 -72q140 -82 161 -159q21 -74 21 -156q0 -80 -34 -179q-43 -128 -102 -128q-44 0 -82 26q-46 27 -46 69q0 1 23 59q13 29 13 140
q0 94 -8 123q-15 80 -72 80q-125 0 -194 -218q-51 -167 -51 -325q0 -274 174 -274q72 0 159 72q80 65 115 135q43 82 100 82q37 0 73.5 -44t36.5 -84zM863 1329q0 -82 -103 -82q-63 0 -138 61v-2q-72 58 -97 66l-26 10l-5 3q-5 0 -2 -3l-67 -35q-137 -100 -195 -100
q-110 0 -110 74q0 49 162 179q153 123 212 123q77 0 348 -233q21 -37 21 -61zM497 1380l2 2l-5 3l-2 -3q3 0 5 -2zM499 1380h-2h2z" />
    <glyph glyph-name="Cdotaccent" unicode="&#x10a;" horiz-adv-x="1438" 
d="M1313 420q0 -54 -25 -118q-67 -172 -241 -266q-159 -87 -353 -87q-315 0 -484 238q-146 208 -146 535q0 270 84 509q96 272 280 425q149 121 296 121q219 0 331 -190q92 -154 92 -386q0 -107 -54 -264q-65 -195 -143 -195q-89 0 -136 113q33 24 72 59q51 59 51 220
q0 163 -33 269q-50 166 -169 166q-82 0 -179 -105q-82 -90 -126 -176q-125 -244 -125 -612q0 -533 399 -533q168 0 271 98q46 46 121 181q57 100 115 100q40 0 71 -31.5t31 -70.5zM878 2017q0 -59 -60 -98.5t-132 -39.5q-59 0 -115 31q-74 42 -74 107q0 71 74 113
q59 28 115 28q74 0 133 -38t59 -103z" />
    <glyph glyph-name="cdotaccent" unicode="&#x10b;" horiz-adv-x="1026" 
d="M945 289q0 -77 -121 -187q-97 -91 -180.5 -121t-175.5 -30q-199 0 -314.5 127t-115.5 332q0 195 105 440q126 292 292 292q95 0 223 -72q140 -82 161 -159q21 -74 21 -156q0 -80 -34 -179q-43 -128 -102 -128q-44 0 -82 26q-46 27 -46 69q0 1 23 59q13 29 13 140
q0 94 -8 123q-15 80 -72 80q-125 0 -194 -218q-51 -167 -51 -325q0 -274 174 -274q72 0 159 72q80 65 115 135q43 82 100 82q37 0 73.5 -44t36.5 -84zM681 1385q0 -59 -60 -98.5t-132 -39.5q-61 0 -115 30q-74 42 -74 108q0 71 74 113q59 28 115 28q74 0 133 -38t59 -103z
" />
    <glyph glyph-name="Ccaron" unicode="&#x10c;" horiz-adv-x="1438" 
d="M1313 420q0 -54 -25 -118q-67 -172 -241 -266q-159 -87 -353 -87q-315 0 -484 238q-146 208 -146 535q0 270 84 509q96 272 280 425q149 121 296 121q219 0 331 -190q92 -154 92 -386q0 -107 -54 -264q-65 -195 -143 -195q-89 0 -136 113q33 24 72 59q51 59 51 220
q0 163 -33 269q-50 166 -169 166q-82 0 -179 -105q-82 -90 -126 -176q-125 -244 -125 -612q0 -533 399 -533q168 0 271 98q46 46 121 181q57 100 115 100q40 0 71 -31.5t31 -70.5zM1060 2181q0 -57 -161 -182q-159 -120 -213 -120q-73 0 -351 233q-18 25 -18 61q0 82 103 82
q63 0 138 -61v2q76 -57 97 -66h-7l28 -10h2l8 -3q27 12 69 39q136 99 195 99q110 0 110 -74z" />
    <glyph glyph-name="ccaron" unicode="&#x10d;" horiz-adv-x="1026" 
d="M945 289q0 -77 -121 -187q-97 -91 -180.5 -121t-175.5 -30q-199 0 -314.5 127t-115.5 332q0 195 105 440q126 292 292 292q95 0 223 -72q140 -82 161 -159q21 -74 21 -156q0 -80 -34 -179q-43 -128 -102 -128q-44 0 -82 26q-46 27 -46 69q0 1 23 59q13 29 13 140
q0 94 -8 123q-15 80 -72 80q-125 0 -194 -218q-51 -167 -51 -325q0 -274 174 -274q72 0 159 72q80 65 115 135q43 82 100 82q37 0 73.5 -44t36.5 -84zM863 1549q0 -56 -162 -182q-159 -120 -212 -120q-73 0 -351 233q-18 25 -18 61q0 82 103 82q63 0 138 -61v2
q76 -57 97 -66h-7l28 -11h2l8 -2q32 14 69 38q137 100 195 100q110 0 110 -74z" />
    <glyph glyph-name="Dcaron" unicode="&#x10e;" horiz-adv-x="1423" 
d="M1044 1073q0 522 -307 522q-123 0 -248 -128q-103 -108 -145 -237.5t-42 -297.5v-551q0 -240 202 -240q181 0 331 187q122 157 169 361q40 171 40 384zM1298 1062q0 -402 -184 -724q-219 -384 -592 -384q-134 0 -230 54q-53 -49 -105 -49q-32 0 -72 33q-51 147 -51 382
q0 272 10 614q13 445 13 615q0 4 -2.5 18.5t-2.5 19.5q0 45 33 73.5t80 28.5q66 0 115 -47t36 -106q131 192 371 192q294 0 448 -220q133 -189 133 -500zM1052 2186q0 -57 -161 -182q-159 -120 -213 -120q-72 0 -350 233q-18 25 -18 62q0 81 102 81q63 0 138 -61v3
q78 -58 98 -67h-8l28 -10h3l7 -3q30 13 70 39q136 99 194 99q110 0 110 -74z" />
    <glyph glyph-name="dcaron" unicode="&#x10f;" horiz-adv-x="1510" 
d="M655 689q0 86 -38 158q-49 87 -128 87q-115 0 -177 -227q-46 -163 -46 -323q0 -238 138 -238q142 0 208 212q43 146 43 331zM952 1556q0 -56 -15 -145q-13 -79 -26 -144q-3 -36 -25 -468q-16 -414 -16 -430q0 -246 54 -369q-41 -72 -100 -72t-104.5 44.5t-51.5 104.5
q-117 -110 -246 -110q-186 0 -289 130q-95 117 -95 310q0 220 93 458q118 295 307 295q112 0 230 -100q13 128 13 614q0 46 69 46q87 0 144.5 -42.5t57.5 -121.5zM1070 1551q0 59 52.5 105t121.5 46q76 0 129 -67t53 -166q0 -108 -20.5 -177.5t-71.5 -131.5
q-54 -70 -117.5 -116t-113.5 -46q-43 6 -60 32t9 63q126 69 161 174q37 101 -38 149q-30 19 -42.5 28.5t-30.5 26.5t-25 36t-7 44z" />
    <glyph glyph-name="Uni0110" unicode="&#x110;" horiz-adv-x="1530" 
d="M1062 835q0 -67 -18 -85t-81 -18q-15 0 -29 7t-37.5 16t-124.5 16t-270 7q-17 0 -48 -1t-44 -1v-395q0 -240 202 -240q159 0 303 160t196 388q41 168 41 384q0 522 -307 522q-124 0 -249 -128q-103 -109 -144.5 -234t-41.5 -293q90 4 188.5 10.5t158.5 10.5t85 4
q78 0 149 -37t71 -93zM1405 1062q0 -402 -184 -724q-219 -384 -591 -384q-135 0 -231 54q-49 -49 -105 -49q-31 0 -71 33q-51 150 -51 382q0 256 2 353q-25 -10 -51 -10q-36 0 -79.5 39.5t-43.5 78.5q0 29 0.5 42t3 28.5t8.5 21t16 5.5h151q0 9 1.5 28t1.5 28q13 448 13 615
q0 4 -3 18.5t-3 19.5q0 45 33 73.5t80 28.5q60 0 107 -38.5t47 -91.5q0 -18 -3 -23q131 192 371 192q180 0 312 -89.5t200.5 -252t68.5 -378.5z" />
    <glyph glyph-name="Uni0111" unicode="&#x111;" horiz-adv-x="1100" 
d="M655 689q0 100 -48 172.5t-118 72.5q-63 0 -115 -84t-80 -209.5t-28 -256.5q0 -238 138 -238q116 0 183.5 150t67.5 393zM1137 1354q0 -66 -16 -83t-71 -17q-5 0 -41.5 15.5t-92.5 20.5q-12 -40 -30 -491q-16 -344 -16 -407q0 -264 54 -392q-41 -72 -100 -72t-104.5 44.5
t-51.5 104.5q-117 -110 -246 -110q-177 0 -280.5 119.5t-103.5 320.5q0 220 93 458q118 295 307 295q112 0 230 -100q6 81 10 238h-33q-96 0 -167 -15t-109 -29.5t-54 -14.5q-30 0 -67.5 38t-37.5 77q0 51 4.5 73t18.5 22q214 0 448 15v210q0 46 69 46q87 0 144.5 -42.5
t57.5 -121.5q0 -27 -5 -74q75 -7 132.5 -41.5t57.5 -86.5z" />
    <glyph glyph-name="Emacron" unicode="&#x112;" horiz-adv-x="1377" 
d="M1252 192q0 -45 -18 -77q-23 -43 -62 -43q-6 0 -29 3.5t-29 3.5q-108 0 -320 -66q-210 -67 -318 -67q-412 0 -412 625q0 501 26 778q2 17 2 41q0 12 -5 52t-5 50q0 119 128 139q183 32 394 74q255 49 387 49q75 0 130 -26q77 -35 77 -100q0 -95 -125 -95q-10 0 -47.5 4
t-47.5 4q-207 0 -566 -92q-1 0 -8 -0.5t-8.5 -1t-7.5 -1.5t-8 -2t-6.5 -2.5t-6.5 -4t-5.5 -6t-5.5 -7.5t-4.5 -9.5t-3.5 -11.5q-28 -128 -28 -481q0 -54 49 -54q71 0 192 33t192 33q76 0 171 -46q26 -78 26 -100q0 -64 -39 -69l-82 -10q-21 13 -56 13q-108 0 -215 -23
q-32 -6 -103 -21.5t-109 -22.5q-3 0 -11 -1t-11 -2t-8.5 -4t-8.5 -10t-5 -18q-5 -52 -5 -75q0 -193 8 -235q27 -149 140 -149q91 0 285 59q189 62 297 62q175 0 225 -90zM315 1874q-3 13 -3 46q0 66 18 84q347 41 574 41q64 0 83 -21.5t19 -77.5q0 -90 -56 -90q-34 0 -144 5
t-161 5q-87 0 -151.5 -7t-98 -14t-44.5 -7q-14 0 -24 9.5t-12 26.5z" />
    <glyph glyph-name="emacron" unicode="&#x113;" horiz-adv-x="972" 
d="M612 709q0 67 -38.5 123t-97.5 56q-83 0 -130 -74q-39 -66 -39 -151q0 -48 33 -79t85 -31q187 0 187 156zM891 225q0 -125 -174 -199q-135 -57 -284 -57q-395 0 -395 448q0 180 90 410q111 276 266 276q141 0 302 -125q164 -125 164 -261q0 -168 -151 -269
q-137 -90 -317 -90q-31 0 -116 44q12 -243 144 -243q115 0 220 64q108 64 141 64q110 0 110 -62zM120 1226q-2 9 -2 46q0 67 18 85q347 41 573 41q64 0 83.5 -22t19.5 -78q0 -42 -14.5 -66t-42.5 -24q-34 0 -143.5 5.5t-160.5 5.5q-87 0 -152 -7.5t-98.5 -14.5t-44.5 -7
q-14 0 -24 9.5t-12 26.5z" />
    <glyph glyph-name="Ebreve" unicode="&#x114;" horiz-adv-x="1377" 
d="M1252 192q0 -45 -18 -77q-23 -43 -62 -43q-6 0 -29 3.5t-29 3.5q-108 0 -320 -66q-210 -67 -318 -67q-412 0 -412 625q0 501 26 778q2 17 2 41q0 12 -5 52t-5 50q0 119 128 139q183 32 394 74q255 49 387 49q75 0 130 -26q77 -35 77 -100q0 -95 -125 -95q-10 0 -47.5 4
t-47.5 4q-207 0 -566 -92q-1 0 -8 -0.5t-8.5 -1t-7.5 -1.5t-8 -2t-6.5 -2.5t-6.5 -4t-5.5 -6t-5.5 -7.5t-4.5 -9.5t-3.5 -11.5q-28 -128 -28 -481q0 -54 49 -54q71 0 192 33t192 33q76 0 171 -46q26 -78 26 -100q0 -64 -39 -69l-82 -10q-21 13 -56 13q-108 0 -215 -23
q-32 -6 -103 -21.5t-109 -22.5q-3 0 -11 -1t-11 -2t-8.5 -4t-8.5 -10t-5 -18q-5 -52 -5 -75q0 -193 8 -235q27 -149 140 -149q91 0 285 59q189 62 297 62q175 0 225 -90zM1014 2079q0 -114 -141 -182q-86 -41 -215 -41q-124 0 -213 41q-143 69 -143 182q0 100 131 100
q44 0 72.5 -14t38 -29.5t19.5 -41.5l5 -13q16 -10 82 -10q65 0 98 13l28 43h-3q24 52 110 52q131 0 131 -100z" />
    <glyph glyph-name="ebreve" unicode="&#x115;" horiz-adv-x="972" 
d="M612 709q0 67 -38.5 123t-97.5 56q-83 0 -130 -74q-39 -66 -39 -151q0 -48 33 -79t85 -31q187 0 187 156zM891 225q0 -125 -174 -199q-135 -57 -284 -57q-395 0 -395 448q0 180 90 410q111 276 266 276q141 0 302 -125q164 -125 164 -261q0 -168 -151 -269
q-137 -90 -317 -90q-31 0 -116 44q12 -243 144 -243q115 0 220 64q108 64 141 64q110 0 110 -62zM819 1431q0 -114 -141 -182q-86 -41 -215 -41q-123 0 -212 41q-143 69 -143 182q0 100 130 100q44 0 72.5 -14t38.5 -29.5t20 -41.5l5 -12q18 -11 82 -11t97 13l28 44h-2
q23 51 110 51q130 0 130 -100z" />
    <glyph glyph-name="Edotaccent" unicode="&#x116;" horiz-adv-x="1377" 
d="M1252 192q0 -45 -18 -77q-23 -43 -62 -43q-6 0 -29 3.5t-29 3.5q-108 0 -320 -66q-210 -67 -318 -67q-412 0 -412 625q0 501 26 778q2 17 2 41q0 12 -5 52t-5 50q0 119 128 139q183 32 394 74q255 49 387 49q75 0 130 -26q77 -35 77 -100q0 -95 -125 -95q-10 0 -47.5 4
t-47.5 4q-207 0 -566 -92q-1 0 -8 -0.5t-8.5 -1t-7.5 -1.5t-8 -2t-6.5 -2.5t-6.5 -4t-5.5 -6t-5.5 -7.5t-4.5 -9.5t-3.5 -11.5q-28 -128 -28 -481q0 -54 49 -54q71 0 192 33t192 33q76 0 171 -46q26 -78 26 -100q0 -64 -39 -69l-82 -10q-21 13 -56 13q-108 0 -215 -23
q-32 -6 -103 -21.5t-109 -22.5q-3 0 -11 -1t-11 -2t-8.5 -4t-8.5 -10t-5 -18q-5 -52 -5 -75q0 -193 8 -235q27 -149 140 -149q91 0 285 59q189 62 297 62q175 0 225 -90zM847 1994q0 -59 -60 -98.5t-132 -39.5q-59 0 -115 31q-74 42 -74 107q0 71 74 113q59 28 115 28
q74 0 133 -38t59 -103z" />
    <glyph glyph-name="edotaccent" unicode="&#x117;" horiz-adv-x="972" 
d="M612 709q0 67 -38.5 123t-97.5 56q-83 0 -130 -74q-39 -66 -39 -151q0 -48 33 -79t85 -31q187 0 187 156zM891 225q0 -125 -174 -199q-135 -57 -284 -57q-395 0 -395 448q0 180 90 410q111 276 266 276q141 0 302 -125q164 -125 164 -261q0 -168 -151 -269
q-137 -90 -317 -90q-31 0 -116 44q12 -243 144 -243q115 0 220 64q108 64 141 64q110 0 110 -62zM653 1347q0 -59 -60 -99t-132 -40q-59 0 -115 31q-75 43 -75 108q0 69 75 112q59 28 115 28q74 0 133 -37.5t59 -102.5z" />
    <glyph glyph-name="Eogonek" unicode="&#x118;" horiz-adv-x="1377" 
d="M1252 192q0 -45 -18 -77q-23 -43 -62 -43q-6 0 -29 3.5t-29 3.5q-108 0 -320 -66q-210 -67 -318 -67q-412 0 -412 625q0 501 26 778q2 17 2 41q0 12 -5 52t-5 50q0 119 128 139q183 32 394 74q255 49 387 49q75 0 130 -26q77 -35 77 -100q0 -95 -125 -95q-10 0 -47.5 4
t-47.5 4q-207 0 -566 -92q-1 0 -8 -0.5t-8.5 -1t-7.5 -1.5t-8 -2t-6.5 -2.5t-6.5 -4t-5.5 -6t-5.5 -7.5t-4.5 -9.5t-3.5 -11.5q-28 -128 -28 -481q0 -54 49 -54q71 0 192 33t192 33q76 0 171 -46q26 -78 26 -100q0 -64 -39 -69l-82 -10q-21 13 -56 13q-108 0 -215 -23
q-32 -6 -103 -21.5t-109 -22.5q-3 0 -11 -1t-11 -2t-8.5 -4t-8.5 -10t-5 -18q-5 -52 -5 -75q0 -193 8 -235q27 -149 140 -149q91 0 285 59q189 62 297 62q175 0 225 -90zM901 -468q0 -67 -102 -105h2q-59 -29 -125 -29q-109 0 -186.5 69.5t-77.5 171.5q0 141 159 277
q37 33 84 33q103 0 103 -85q0 -33 -59 -117q-41 -60 -41 -95q0 -24 13 -48t28 -24l15 10q4 2 11.5 7l10.5 7t9 5.5t10.5 5t11 3.5t13 2.5t14.5 0.5q107 0 107 -89z" />
    <glyph glyph-name="eogonek" unicode="&#x119;" horiz-adv-x="972" 
d="M612 709q0 67 -38.5 123t-97.5 56q-83 0 -130 -74q-39 -66 -39 -151q0 -48 33 -79t85 -31q187 0 187 156zM891 225q0 -125 -174 -199q-135 -57 -284 -57q-395 0 -395 448q0 180 90 410q111 276 266 276q141 0 302 -125q164 -125 164 -261q0 -168 -151 -269
q-137 -90 -317 -90q-31 0 -116 44q12 -243 144 -243q115 0 220 64q108 64 141 64q110 0 110 -62zM707 -445q0 -66 -103 -105h3q-59 -29 -126 -29q-109 0 -186 69.5t-77 171.5q0 142 158 277q37 33 85 33q102 0 102 -85q0 -33 -59 -117q-41 -60 -41 -95q0 -24 13 -48t28 -24
l16 10q4 2 12.5 8t12 8t11 6t12.5 5t13.5 2.5t17.5 1.5q108 0 108 -89z" />
    <glyph glyph-name="Ecaron" unicode="&#x11a;" horiz-adv-x="1377" 
d="M1252 192q0 -45 -18 -77q-23 -43 -62 -43q-6 0 -29 3.5t-29 3.5q-108 0 -320 -66q-210 -67 -318 -67q-412 0 -412 625q0 501 26 778q2 17 2 41q0 12 -5 52t-5 50q0 119 128 139q183 32 394 74q255 49 387 49q75 0 130 -26q77 -35 77 -100q0 -95 -125 -95q-10 0 -47.5 4
t-47.5 4q-207 0 -566 -92q-1 0 -8 -0.5t-8.5 -1t-7.5 -1.5t-8 -2t-6.5 -2.5t-6.5 -4t-5.5 -6t-5.5 -7.5t-4.5 -9.5t-3.5 -11.5q-28 -128 -28 -481q0 -54 49 -54q71 0 192 33t192 33q76 0 171 -46q26 -78 26 -100q0 -64 -39 -69l-82 -10q-21 13 -56 13q-108 0 -215 -23
q-32 -6 -103 -21.5t-109 -22.5q-3 0 -11 -1t-11 -2t-8.5 -4t-8.5 -10t-5 -18q-5 -52 -5 -75q0 -193 8 -235q27 -149 140 -149q91 0 285 59q189 62 297 62q175 0 225 -90zM1029 2158q0 -57 -161 -182q-159 -120 -213 -120q-72 0 -350 233q-18 25 -18 61q0 82 102 82
q63 0 138 -61v2q75 -56 98 -66h-8l28 -10h3l7 -3q32 14 69 38q137 100 195 100q110 0 110 -74z" />
    <glyph glyph-name="ecaron" unicode="&#x11b;" horiz-adv-x="972" 
d="M612 709q0 67 -38.5 123t-97.5 56q-83 0 -130 -74q-39 -66 -39 -151q0 -48 33 -79t85 -31q187 0 187 156zM891 225q0 -125 -174 -199q-135 -57 -284 -57q-395 0 -395 448q0 180 90 410q111 276 266 276q141 0 302 -125q164 -125 164 -261q0 -168 -151 -269
q-137 -90 -317 -90q-31 0 -116 44q12 -243 144 -243q115 0 220 64q108 64 141 64q110 0 110 -62zM835 1510q0 -55 -162 -181q-161 -121 -212 -121q-73 0 -351 233q-18 25 -18 62q0 82 103 82q62 0 138 -62v3q79 -59 97 -67h-8l29 -10h2l8 -3q27 12 69 39q137 100 194 100
q111 0 111 -75z" />
    <glyph glyph-name="Gcircumflex" unicode="&#x11c;" horiz-adv-x="1410" 
d="M1285 517q0 -227 -194 -397q-198 -174 -420 -174q-324 0 -482 254q-125 205 -125 555t151 640q181 351 502 351q157 0 276 -74q132 -85 162 -231q3 -13 5.5 -25t5 -21.5t4 -19t3 -16t3 -12.5t2 -10t1 -6.5t1.5 -3.5v-1q0 -338 -153 -338q-47 0 -85 31.5t-38 76.5
q0 28 25 74q28 51 28 77q0 144 -35 199q-47 75 -182 75q-138 0 -256 -172q-99 -147 -128 -299q-31 -170 -31 -308q0 -240 39 -348q62 -174 248 -228q57 -15 92 -15q99 0 195 77q83 63 138 161q29 57 33 136l-10 7q-179 0 -282 -43q-44 -22 -61 -33q-39 -18 -64 -18
q-61 0 -98.5 51.5t-37.5 122.5q0 56 59 92q47 23 241 49q189 23 258 23q210 0 210 -259zM1044 1930q0 -82 -102 -82q-62 0 -138 62v-3q-74 60 -97 67l-26 10l-5 3q-6 0 -3 -3l-66 -36q-137 -100 -195 -100q-110 0 -110 75q0 50 161 179q153 123 213 123q77 0 348 -233
q20 -35 20 -62zM678 1981l3 3l-5 3l-3 -3q2 0 5 -3zM681 1981h-3h3z" />
    <glyph glyph-name="gcircumflex" unicode="&#x11d;" horiz-adv-x="1041" 
d="M689 607q0 36 -36 64q-15 235 -164 235q-84 0 -141 -238q-41 -176 -41 -315q0 -251 131 -251q120 0 194 200q57 153 57 305zM947 760q-3 -46 -33 -225q-26 -137 -26 -225q0 -68 8 -231t8 -230q0 -157 -31 -236q-36 -96 -134.5 -156.5t-208.5 -60.5q-115 0 -279 61
q-200 74 -200 159q0 113 105 113q46 0 67 -29q41 -59 43 -61q11 -11 85 -23q73 -15 100 -15q230 0 230 289q0 82 -8 143q-109 -94 -263 -94q-63 0 -143.5 36t-120.5 84q-79 89 -79 274q0 222 99 479q124 320 300 320q109 0 205 -100l143 -187q18 -25 64 -46q54 -27 69 -39z
M870 1318q0 -82 -102 -82q-62 0 -138 62v-3q-73 60 -98 67l-25 10l-5 3q-6 0 -3 -3l-66 -36q-137 -100 -195 -100q-110 0 -110 75q0 50 161 179q153 123 213 123q77 0 348 -233q20 -35 20 -62zM504 1370l3 2l-5 3l-3 -3q3 0 5 -2zM507 1370h-3h3z" />
    <glyph glyph-name="Gbreve" unicode="&#x11e;" horiz-adv-x="1410" 
d="M1285 517q0 -227 -194 -397q-198 -174 -420 -174q-324 0 -482 254q-125 205 -125 555t151 640q181 351 502 351q157 0 276 -74q132 -85 162 -231q3 -13 5.5 -25t5 -21.5t4 -19t3 -16t3 -12.5t2 -10t1 -6.5t1.5 -3.5v-1q0 -338 -153 -338q-47 0 -85 31.5t-38 76.5
q0 28 25 74q28 51 28 77q0 144 -35 199q-47 75 -182 75q-138 0 -256 -172q-99 -147 -128 -299q-31 -170 -31 -308q0 -240 39 -348q62 -174 248 -228q57 -15 92 -15q99 0 195 77q83 63 138 161q29 57 33 136l-10 7q-179 0 -282 -43q-44 -22 -61 -33q-39 -18 -64 -18
q-61 0 -98.5 51.5t-37.5 122.5q0 56 59 92q47 23 241 49q189 23 258 23q210 0 210 -259zM1029 2071q0 -114 -141 -182q-86 -41 -215 -41q-123 0 -212 41q-144 70 -144 182q0 100 131 100q44 0 72.5 -14t38.5 -29.5t20 -41.5l5 -12q18 -11 82 -11t97 13l28 44h-3
q23 51 111 51q130 0 130 -100z" />
    <glyph glyph-name="gbreve" unicode="&#x11f;" horiz-adv-x="1041" 
d="M689 607q0 36 -36 64q-15 235 -164 235q-84 0 -141 -238q-41 -176 -41 -315q0 -251 131 -251q120 0 194 200q57 153 57 305zM947 760q-3 -46 -33 -225q-26 -137 -26 -225q0 -68 8 -231t8 -230q0 -157 -31 -236q-36 -96 -134.5 -156.5t-208.5 -60.5q-115 0 -279 61
q-200 74 -200 159q0 113 105 113q46 0 67 -29q41 -59 43 -61q11 -11 85 -23q73 -15 100 -15q230 0 230 289q0 82 -8 143q-109 -94 -263 -94q-63 0 -143.5 36t-120.5 84q-79 89 -79 274q0 222 99 479q124 320 300 320q109 0 205 -100l143 -187q18 -25 64 -46q54 -27 69 -39z
M855 1459q0 -114 -141 -182q-86 -41 -215 -41q-123 0 -212 41q-144 70 -144 182q0 100 131 100q34 0 58 -6.5t37.5 -20.5t20.5 -26t14 -31l6 -13q16 -10 82 -10q67 0 97 12l28 44h-3q23 51 110 51q131 0 131 -100z" />
    <glyph glyph-name="Gdotaccent" unicode="&#x120;" horiz-adv-x="1410" 
d="M1285 517q0 -227 -194 -397q-198 -174 -420 -174q-324 0 -482 254q-125 205 -125 555t151 640q181 351 502 351q157 0 276 -74q132 -85 162 -231q3 -13 5.5 -25t5 -21.5t4 -19t3 -16t3 -12.5t2 -10t1 -6.5t1.5 -3.5v-1q0 -338 -153 -338q-47 0 -85 31.5t-38 76.5
q0 28 25 74q28 51 28 77q0 144 -35 199q-47 75 -182 75q-138 0 -256 -172q-99 -147 -128 -299q-31 -170 -31 -308q0 -240 39 -348q62 -174 248 -228q57 -15 92 -15q99 0 195 77q83 63 138 161q29 57 33 136l-10 7q-179 0 -282 -43q-44 -22 -61 -33q-39 -18 -64 -18
q-61 0 -98.5 51.5t-37.5 122.5q0 56 59 92q47 23 241 49q189 23 258 23q210 0 210 -259zM863 1987q0 -59 -60 -99t-132 -40q-59 0 -115 31q-75 43 -75 108q0 69 75 112q59 28 115 28q74 0 133 -37.5t59 -102.5z" />
    <glyph glyph-name="gdotaccent" unicode="&#x121;" horiz-adv-x="1041" 
d="M689 607q0 36 -36 64q-15 235 -164 235q-84 0 -141 -238q-41 -176 -41 -315q0 -251 131 -251q120 0 194 200q57 153 57 305zM947 760q-3 -46 -33 -225q-26 -137 -26 -225q0 -68 8 -231t8 -230q0 -157 -31 -236q-36 -96 -134.5 -156.5t-208.5 -60.5q-115 0 -279 61
q-200 74 -200 159q0 113 105 113q46 0 67 -29q41 -59 43 -61q11 -11 85 -23q73 -15 100 -15q230 0 230 289q0 82 -8 143q-109 -94 -263 -94q-63 0 -143.5 36t-120.5 84q-79 89 -79 274q0 222 99 479q124 320 300 320q109 0 205 -100l143 -187q18 -25 64 -46q54 -27 69 -39z
M689 1375q0 -59 -60 -99t-132 -40q-60 0 -116 31q-74 42 -74 108q0 70 74 112q61 29 116 29q74 0 133 -38t59 -103z" />
    <glyph glyph-name="Gcommaaccent" unicode="&#x122;" horiz-adv-x="1410" 
d="M1285 517q0 -227 -194 -397q-198 -174 -420 -174q-324 0 -482 254q-125 205 -125 555t151 640q181 351 502 351q157 0 276 -74q132 -85 162 -231q3 -13 5.5 -25t5 -21.5t4 -19t3 -16t3 -12.5t2 -10t1 -6.5t1.5 -3.5v-1q0 -338 -153 -338q-47 0 -85 31.5t-38 76.5
q0 28 25 74q28 51 28 77q0 144 -35 199q-47 75 -182 75q-138 0 -256 -172q-99 -147 -128 -299q-31 -170 -31 -308q0 -240 39 -348q62 -174 248 -228q57 -15 92 -15q99 0 195 77q83 63 138 161q29 57 33 136l-10 7q-179 0 -282 -43q-44 -22 -61 -33q-39 -18 -64 -18
q-61 0 -98.5 51.5t-37.5 122.5q0 56 59 92q47 23 241 49q189 23 258 23q210 0 210 -259zM837 -197l-2 -28q-188 -415 -269 -415q-47 0 -164 46l2 64q165 151 216 422q48 26 71 26q32 0 84 -41.5t62 -73.5z" />
    <glyph glyph-name="Uni0123" unicode="&#x123;" horiz-adv-x="1041" 
d="M689 607q0 36 -36 64q-15 235 -164 235q-84 0 -141 -238q-41 -176 -41 -315q0 -251 131 -251q120 0 194 200q57 153 57 305zM947 760q-3 -46 -33 -225q-26 -137 -26 -225q0 -68 8 -231t8 -230q0 -157 -31 -236q-36 -96 -134.5 -156.5t-208.5 -60.5q-115 0 -279 61
q-200 74 -200 159q0 113 105 113q46 0 67 -29q41 -59 43 -61q11 -11 85 -23q73 -15 100 -15q230 0 230 289q0 82 -8 143q-109 -94 -263 -94q-63 0 -143.5 36t-120.5 84q-79 89 -79 274q0 222 99 479q124 320 300 320q109 0 205 -100l143 -187q18 -25 64 -46q54 -27 69 -39z
M801 1638l-2 -28q-187 -414 -269 -414q-47 0 -164 46l3 64q164 150 215 422q48 26 71 26q32 0 84 -42t62 -74z" />
    <glyph glyph-name="Hcircumflex" unicode="&#x124;" horiz-adv-x="1617" 
d="M1485 1577q0 -23 -36 -51t-41 -41q-68 -131 -61 -494l2 -100q3 2 18 2q37 0 72.5 -43t35.5 -85q0 -31 -49 -43l-77 -15l5 -244q4 -149 34 -233q20 -68 20 -84q0 -52 -38.5 -94t-89.5 -42q-98 0 -128 103l-23 179q-5 38 -5 136v104q0 100 -13 172q-146 -4 -353 -44
l-351 -66q10 -29 10 -277q0 -192 59 -256q8 -13 8 -25q0 -67 -103 -67q-92 0 -148 59q-34 34 -64 533q-46 9 -75.5 57t-29.5 104q0 10 5 18.5t10.5 13.5t18 10.5t19.5 8t23 7t21 6.5l11 120q7 69 7 118q0 451 49 573q42 100 141 100q64 0 116.5 -40.5t52.5 -97.5
q0 -27 -21 -77l-31 -71q-69 -215 -69 -512v-59q1 0 42 6t79 14q305 62 568 62q7 369 20 486q42 369 177 369q77 0 129.5 -59.5t52.5 -140.5zM1144 1961q0 -82 -102 -82q-63 0 -138 61v-2q-71 58 -98 66l-25 11l-5 2h-2q-3 0 -1 -2l-66 -36q-137 -100 -195 -100
q-110 0 -110 74q0 50 161 179q153 123 213 123q77 0 348 -233q20 -35 20 -61zM778 2012l3 3l-5 2l-3 -2q2 0 5 -3zM781 2012h-3h3z" />
    <glyph glyph-name="hcircumflex" unicode="&#x125;" horiz-adv-x="954" 
d="M876 530v-571q-49 -49 -128 -49q-53 0 -111 67q3 151 3 348q0 568 -166 568q-172 0 -172 -458q0 -7 1.5 -31.5t1.5 -42.5v-74q0 -37 12 -118q13 -83 13 -115q0 -31 -38.5 -59t-73.5 -28q-62 0 -108 52.5t-46 116.5l15 1479q0 5 -2.5 20t-2.5 19q0 92 103 92q47 0 112 -46
q64 -41 64 -90q0 -63 -25 -166q-23 -113 -23 -167q0 -52 5 -227q55 33 94 33q101 0 218 -49q154 -68 210 -207q44 -113 44 -297zM840 1930q0 -82 -103 -82q-62 0 -138 62v-3q-74 60 -97 67l-26 10l-5 3q-6 0 -3 -3l-66 -36q-137 -100 -195 -100q-110 0 -110 75q0 49 162 179
q153 123 212 123q77 0 348 -233q21 -37 21 -62zM474 1981l2 3l-5 3l-3 -3q3 0 6 -3zM476 1981h-2h2z" />
    <glyph glyph-name="Itilde" unicode="&#x128;" horiz-adv-x="519" 
d="M433 1595q0 -13 -23 -56q-14 -22 -21 -116q-54 -541 -54 -1006q0 -107 21 -181q25 -73 74 -162q3 -3 3 -15q0 -54 -126 -54h-23q-132 0 -159 210q-35 257 -35 699q0 221 2 315q5 235 5 320q0 58 62 112q61 54 120 54q47 0 100 -38q54 -39 54 -82zM645 2002
q0 -71 -128 -133q-102 -51 -169 -51q-63 0 -138 35q-49 26 -69 26q-19 0 -54 -20q-65 -31 -87 -31q-123 0 -123 97q0 76 131 133q101 44 161 44q58 0 141 -39q41 -25 56 -25q16 0 56 23q60 41 100 41q123 0 123 -100z" />
    <glyph glyph-name="itilde" unicode="&#x129;" horiz-adv-x="419" 
d="M338 960q0 -38 -21 -128q-20 -83 -20 -125v-515q0 -44 28 -151q-38 -56 -84 -56q-177 0 -177 156v886q75 35 115 35q45 0 100 -33q59 -36 59 -69zM584 1352q0 -71 -128 -133q-104 -52 -169 -52q-62 0 -139 36q-49 26 -69 26q-16 0 -53 -21q-63 -30 -87 -30
q-123 0 -123 97q0 76 130 133q101 44 162 44q57 0 140 -39q41 -25 57 -25t56 23q60 41 100 41q123 0 123 -100z" />
    <glyph glyph-name="Imacron" unicode="&#x12a;" horiz-adv-x="519" 
d="M433 1595q0 -13 -23 -56q-14 -22 -21 -116q-54 -541 -54 -1006q0 -107 21 -181q25 -73 74 -162q3 -3 3 -15q0 -54 -126 -54h-23q-132 0 -159 210q-35 257 -35 699q0 221 2 315q5 235 5 320q0 58 62 112q61 54 120 54q47 0 100 -38q54 -39 54 -82zM-82 1836q-2 9 -2 46
q0 67 17 84q347 41 574 41q64 0 83 -22t19 -78q0 -89 -56 -89q-34 0 -144 5t-161 5q-87 0 -151.5 -7t-98 -14t-44.5 -7q-14 0 -24 9.5t-12 26.5z" />
    <glyph glyph-name="imacron" unicode="&#x12b;" horiz-adv-x="419" 
d="M338 960q0 -38 -21 -128q-20 -83 -20 -125v-515q0 -44 28 -151q-38 -56 -84 -56q-177 0 -177 156v886q75 35 115 35q45 0 100 -33q59 -36 59 -69zM-143 1185q-3 13 -3 46q0 67 18 85q347 41 573 41q64 0 83.5 -22t19.5 -78q0 -90 -56 -90q-34 0 -144 5.5t-161 5.5
q-87 0 -152 -7t-98.5 -14.5t-44.5 -7.5q-30 0 -35 36z" />
    <glyph glyph-name="Ibreve" unicode="&#x12c;" horiz-adv-x="519" 
d="M433 1595q0 -13 -23 -56q-14 -22 -21 -116q-54 -541 -54 -1006q0 -107 21 -181q25 -73 74 -162q3 -3 3 -15q0 -54 -126 -54h-23q-132 0 -159 210q-35 257 -35 699q0 221 2 315q5 235 5 320q0 58 62 112q61 54 120 54q47 0 100 -38q54 -39 54 -82zM597 2017
q0 -97 -123 -154q-98 -43 -210 -43t-210 43q-123 57 -123 154q0 64 90 64q23 0 39 -4.5t26.5 -16t15 -18.5t12 -25t9.5 -23q36 -28 133 -28q110 0 146 28l31 56q16 31 74 31q90 0 90 -64z" />
    <glyph glyph-name="ibreve" unicode="&#x12d;" horiz-adv-x="419" 
d="M338 960q0 -38 -21 -128q-20 -83 -20 -125v-515q0 -44 28 -151q-38 -56 -84 -56q-177 0 -177 156v886q75 35 115 35q45 0 100 -33q59 -36 59 -69zM535 1364q0 -96 -123 -153q-101 -44 -210 -44t-210 44q-123 57 -123 153q0 64 90 64q23 0 39 -4.5t26.5 -16t15 -18.5
t12 -25t9.5 -23q36 -28 134 -28q109 0 145 28l31 57q15 30 74 30q90 0 90 -64z" />
    <glyph glyph-name="Uni012E" unicode="&#x12e;" horiz-adv-x="519" 
d="M433 1595q0 -13 -23 -56q-14 -22 -21 -116q-54 -541 -54 -1006q0 -107 21 -181q25 -73 74 -162q3 -3 3 -15q0 -54 -126 -54h-23q-132 0 -159 210q-35 257 -35 699q0 221 2 315q5 235 5 320q0 58 62 112q61 54 120 54q47 0 100 -38q54 -39 54 -82zM504 -410
q0 -67 -102 -105h2q-57 -28 -125 -28q-109 0 -186.5 69.5t-77.5 171.5q0 140 159 276q38 34 85 34q102 0 102 -85q0 -34 -59 -118q-41 -60 -41 -94q0 -24 13 -48t28 -24l15 10q4 2 11.5 7l10.5 7t9 5.5t10.5 5t11 3.5t13 2.5t14.5 0.5q107 0 107 -90z" />
    <glyph glyph-name="Uni012F" unicode="&#x12f;" horiz-adv-x="417" 
d="M338 986q0 -41 -21 -131q-20 -86 -20 -131v-527q0 -46 28 -153q-40 -59 -84 -59q-162 0 -177 161q-26 289 -26 450q0 239 21 425q-3 8 -3 26q0 46 72 46q55 0 128 -25q82 -30 82 -82zM361 1344q0 -55 -38.5 -91.5t-94.5 -36.5q-70 0 -126 46.5t-56 112.5q0 55 39.5 91.5
t98.5 36.5q71 0 124 -46t53 -113zM443 -430q0 -66 -103 -105h3q-57 -28 -125 -28q-109 0 -186.5 69t-77.5 171q0 141 159 277q37 33 84 33q103 0 103 -84q0 -34 -59 -118q-41 -60 -41 -95q0 -24 13 -47.5t28 -23.5l15 10q4 2 12.5 8t12 8t11 6t12.5 5t13.5 2.5t17.5 1.5
q108 0 108 -90z" />
    <glyph glyph-name="Idot" unicode="&#x130;" horiz-adv-x="519" 
d="M433 1595q0 -13 -23 -56q-14 -22 -21 -116q-54 -541 -54 -1006q0 -107 21 -181q25 -73 74 -162q3 -3 3 -15q0 -54 -126 -54h-23q-132 0 -159 210q-35 257 -35 699q0 221 2 315q5 235 5 320q0 58 62 112q61 54 120 54q47 0 100 -38q54 -39 54 -82zM415 1925
q0 -46 -47.5 -75t-105.5 -29q-57 0 -100 25q-54 30 -54 79q0 52 54 82q45 26 100 26q59 0 106 -29.5t47 -78.5z" />
    <glyph glyph-name="dotlessi" unicode="&#x131;" horiz-adv-x="419" 
d="M338 960q0 -38 -21 -128q-20 -83 -20 -125v-515q0 -44 28 -151q-38 -56 -84 -56q-177 0 -177 156v886q75 35 115 35q45 0 100 -33q59 -36 59 -69z" />
    <glyph glyph-name="IJ" unicode="&#x132;" horiz-adv-x="1920" 
d="M433 1595q0 -13 -23 -56q-14 -22 -21 -116q-54 -541 -54 -1006q0 -107 21 -181q25 -73 74 -162q3 -3 3 -15q0 -54 -126 -54h-23q-132 0 -159 210q-35 257 -35 699q0 221 2 315q5 235 5 320q0 58 62 112q61 54 120 54q47 0 100 -38q54 -39 54 -82zM1797 1585
q0 -90 -102 -90q-15 0 -65 5t-66 5q-33 0 -33 -25q0 -77 2 -110q6 -98 6 -113q0 -1288 -487 -1288q-193 0 -356 205q-151 193 -151 392q0 64 31 148q39 100 92 100q87 0 128 -79q39 -66 39 -154q0 -20 -3 -84t-3 -80q0 -70 67 -148q69 -77 141 -77q261 0 261 699
q0 92 -21 522q-29 -7 -161 -74q-119 -62 -143 -62q-50 0 -84 42.5t-34 96.5q0 89 177 143l253 77q27 97 115 97q23 0 98 -43q10 1 60 12t68 11q63 0 117 -37.5t54 -90.5z" />
    <glyph glyph-name="ij" unicode="&#x133;" horiz-adv-x="970" 
d="M338 986q0 -41 -21 -131q-20 -86 -20 -131v-527q0 -46 28 -153q-40 -59 -84 -59q-162 0 -177 161q-26 289 -26 450q0 239 21 425q-3 8 -3 26q0 46 72 46q55 0 128 -25q82 -30 82 -82zM361 1344q0 -55 -38.5 -91.5t-94.5 -36.5q-70 0 -126 46.5t-56 112.5q0 55 39.5 91.5
t98.5 36.5q71 0 124 -46t53 -113zM899 983q-57 -158 -57 -241q0 -139 8 -496q8 -352 8 -497q0 -184 -98 -322q-109 -151 -286 -151q-96 0 -277 89q-200 96 -200 174q0 92 105 92q29 0 59 -12q110 -128 259 -128q215 0 215 391q0 95 -18 1091l41 48q90 23 120 23
q60 0 121 -61zM906 1219q0 -54 -47 -92.5t-104 -38.5q-28 0 -84 46q-40 34 -72 69q-5 30 -5 54q0 123 128 123q73 0 128.5 -46.5t55.5 -114.5z" />
    <glyph glyph-name="Jcircumflex" unicode="&#x134;" horiz-adv-x="1400" 
d="M1277 1585q0 -90 -102 -90q-15 0 -65 5t-66 5q-33 0 -33 -25q0 -61 3 -110q5 -82 5 -113q0 -1288 -487 -1288q-192 0 -355 205q-151 193 -151 392q0 67 30 148q39 100 92 100q87 0 128 -79q39 -66 39 -154q0 -20 -2.5 -84t-2.5 -80q0 -71 66 -148q69 -77 141 -77
q261 0 261 699q0 113 -20 522q-31 -8 -162 -74q-119 -62 -143 -62q-50 0 -84 42.5t-34 96.5q0 89 177 143l253 77q27 97 116 97q22 0 97 -43q10 1 60 12t68 11q63 0 117 -37.5t54 -90.5zM1001 1882q0 -46 -59 -46q-46 0 -118 56q-86 64 -118 77q-6 1 -13 4t-18 7t-20 7
q-37 -11 -107 -51q-134 -100 -179 -100q-67 0 -67 36q0 42 154 161q153 123 199 123q54 0 333 -233q13 -21 13 -41z" />
    <glyph glyph-name="Kcommaaccent" unicode="&#x136;" horiz-adv-x="1538" 
d="M1472 205q0 -68 -84 -110q-71 -31 -146 -31q-355 0 -717 666q-215 -250 -215 -338q0 -232 59 -336l7 -71q-55 -64 -112 -64q-88 0 -144 133t-56 950q0 475 33 647q19 108 118 108q62 0 138 -49q77 -50 77 -105q0 -15 -4 -26t-12.5 -18.5t-14.5 -12t-18 -10t-15 -7.5
q-18 -18 -41 -356q-16 -281 -20 -399q686 944 865 944q30 0 64 -15l54 -74q33 -44 33 -82q0 -33 -24.5 -57.5t-57.5 -24.5q-19 0 -54 15l-7 8q-65 -8 -251 -233q-187 -226 -187 -294q0 -151 171 -425q180 -295 315 -295q9 0 67.5 22t83.5 22q95 0 95 -82zM881 -123l-3 -28
q-188 -415 -269 -415q-47 0 -164 46l3 64q164 150 215 423q46 25 72 25q32 0 84 -41.5t62 -73.5z" />
    <glyph glyph-name="kcommaaccent" unicode="&#x137;" horiz-adv-x="1072" 
d="M1052 3v-82q-94 -72 -153 -72q-72 0 -215 154q-146 157 -198 217q-75 87 -179 187l-7 -5v-225q0 -14 16.5 -60.5t16.5 -62.5q0 -35 -36.5 -62.5t-76.5 -27.5q-67 0 -110 43t-43 111v338q0 20 8.5 93t8.5 94v688q0 153 -23 251q-10 35 -10 67q0 47 59 87q52 36 102 36
q41 0 84.5 -30t43.5 -65q0 -1 -7.5 -31.5t-15 -92t-7.5 -137.5q0 -12 -1 -82t-3 -253t-4 -349l277 254q219 204 258 204q131 0 131 -166v-26q-123 -73 -284 -202q-221 -174 -221 -228q0 -2 139 -161q141 -162 163 -184q155 -164 287 -220zM617 -123l-3 -28
q-188 -415 -268 -415q-47 0 -164 46l2 64q164 150 215 423q46 25 72 25q32 0 84 -41.5t62 -73.5z" />
    <glyph glyph-name="Lacute" unicode="&#x139;" horiz-adv-x="1175" 
d="M1060 67q-275 -100 -584 -100q-242 0 -338 169q-74 131 -74 389q0 146 23 448q26 285 26 448q0 21 -5 89q-6 82 -6 93q0 17 6 69q49 61 125 61q71 0 110 -92q31 -76 31 -154q0 -180 -34 -517q-33 -327 -33 -514q0 -302 172 -302q73 0 220 51q143 54 220 54q72 0 110 -64
q31 -51 31 -128zM819 2117l-5 -25q-29 -62 -66 -75q-22 -10 -175 -100q-137 -81 -189 -81q-37 0 -58 20.5t-21 60.5v31q56 67 163 174q135 126 203 126q45 0 91.5 -42t56.5 -89z" />
    <glyph glyph-name="lacute" unicode="&#x13a;" horiz-adv-x="412" 
d="M343 69q0 -45 -37 -77.5t-86 -32.5q-161 0 -161 422q0 405 2 576q6 512 6 576q0 21 -8 89.5t-8 87.5q83 56 133 56q58 0 108.5 -38.5t50.5 -91.5q0 -25 -13 -67l-10 -34t-7 -24t-3 -8q-34 -155 -34 -451v-476q0 -305 54 -451q13 -37 13 -56zM456 2150l-5 -25
q-29 -60 -67 -74q-18 -8 -174 -100q-139 -82 -190 -82q-37 0 -58 21t-21 61v30q56 67 164 175q134 125 202 125q45 0 92 -42t57 -89z" />
    <glyph glyph-name="Lcommaaccent" unicode="&#x13b;" horiz-adv-x="1175" 
d="M1060 67q-275 -100 -584 -100q-242 0 -338 169q-74 131 -74 389q0 146 23 448q26 285 26 448q0 21 -5 89q-6 82 -6 93q0 17 6 69q49 61 125 61q71 0 110 -92q31 -76 31 -154q0 -180 -34 -517q-33 -327 -33 -514q0 -302 172 -302q73 0 220 51q143 54 220 54q72 0 110 -64
q31 -51 31 -128zM727 -174l-3 -28q-188 -415 -268 -415q-47 0 -164 46l2 64q164 150 215 423q46 25 72 25q32 0 84 -41.5t62 -73.5z" />
    <glyph glyph-name="lcommaaccent" unicode="&#x13c;" horiz-adv-x="412" 
d="M343 69q0 -45 -37 -77.5t-86 -32.5q-161 0 -161 422q0 405 2 576q6 512 6 576q0 21 -8 89.5t-8 87.5q83 56 133 56q58 0 108.5 -38.5t50.5 -91.5q0 -25 -13 -67l-10 -34t-7 -24t-3 -8q-34 -155 -34 -451v-476q0 -305 54 -451q13 -37 13 -56zM292 -174l-3 -28
q-188 -415 -269 -415q-46 0 -163 46l2 64q164 150 215 423q46 25 72 25q32 0 84 -41.5t62 -73.5z" />
    <glyph glyph-name="Lcaron" unicode="&#x13d;" horiz-adv-x="1175" 
d="M1060 67q-275 -100 -584 -100q-242 0 -338 169q-74 131 -74 389q0 146 23 448q26 285 26 448q0 21 -5 89q-6 82 -6 93q0 17 6 69q49 61 125 61q71 0 110 -92q31 -76 31 -154q0 -180 -34 -517q-33 -327 -33 -514q0 -302 172 -302q73 0 220 51q143 54 220 54q72 0 110 -64
q31 -51 31 -128zM932 2138q0 -57 -161 -182q-159 -120 -213 -120q-33 0 -123.5 58.5t-227.5 173.5q-18 25 -18 62q0 82 103 82q62 0 138 -62v3q79 -59 97 -67h-7l28 -10h2l8 -2q32 14 69 38q137 100 195 100q110 0 110 -74z" />
    <glyph glyph-name="lcaron" unicode="&#x13e;" horiz-adv-x="435" 
d="M343 69q0 -45 -37 -77.5t-86 -32.5q-161 0 -161 422q0 405 2 576q6 512 6 576q0 21 -8 89.5t-8 87.5q83 56 133 56q58 0 108.5 -38.5t50.5 -91.5q0 -25 -13 -67l-10 -34t-7 -24t-3 -8q-34 -155 -34 -451v-476q0 -305 54 -451q13 -37 13 -56zM648 1800l10 -28
q5 -454 -69 -489q-39 -18 -169 -26l-26 59q86 201 18 473q32 40 56 54q28 11 92.5 -4.5t87.5 -38.5z" />
    <glyph glyph-name="u013F" unicode="&#x13f;" horiz-adv-x="1175" 
d="M1060 67q-275 -100 -584 -100q-242 0 -338 169q-74 131 -74 389q0 146 23 448q26 285 26 448q0 21 -5 89q-6 82 -6 93q0 17 6 69q49 61 125 61q71 0 110 -92q31 -76 31 -154q0 -180 -34 -517q-33 -327 -33 -514q0 -302 172 -302q73 0 220 51q143 54 220 54q72 0 110 -64
q31 -51 31 -128zM799 888q0 -46 -47.5 -75t-105.5 -29q-57 0 -100 25q-54 30 -54 79q0 52 54 82q45 26 100 26q59 0 106 -29.5t47 -78.5z" />
    <glyph glyph-name="u0140" unicode="&#x140;" horiz-adv-x="780" 
d="M343 69q0 -45 -37 -77.5t-86 -32.5q-161 0 -161 422q0 405 2 576q6 512 6 576q0 21 -8 89.5t-8 87.5q83 56 133 56q58 0 108.5 -38.5t50.5 -91.5q0 -25 -13 -67l-10 -34t-7 -24t-3 -8q-34 -155 -34 -451v-476q0 -305 54 -451q13 -37 13 -56zM732 886q0 -46 -47.5 -75.5
t-105.5 -29.5q-57 0 -100 25q-54 30 -54 80q0 52 54 82q43 25 100 25q59 0 106 -29t47 -78z" />
    <glyph glyph-name="Lslash" unicode="&#x141;" horiz-adv-x="1267" 
d="M1034 1001q0 -27 -22.5 -48t-69.5 -21q-7 0 -31 2.5t-41 2.5q-63 0 -453 -131q-18 -209 -18 -350q0 -302 172 -302q43 0 220 52.5t220 52.5q64 0 102.5 -51.5t38.5 -140.5q-275 -100 -584 -100q-217 0 -314.5 132t-97.5 426q0 82 3 141q-70 0 -113 55t-43 116q0 6 6.5 13
t20 13.5t26 11.5t32.5 11t31.5 9.5t31 9t23.5 6.5q0 29 5 62q26 285 26 448q0 13 -5 89t-5 93q0 22 5 69q49 61 125 61q60 0 100.5 -75.5t40.5 -170.5q0 -157 -31 -478q67 25 139.5 53t105.5 41t69 25.5t57.5 16.5t43.5 4q184 0 184 -148z" />
    <glyph glyph-name="lslash" unicode="&#x142;" horiz-adv-x="803" 
d="M561 69q0 -45 -37 -77.5t-86 -32.5q-23 0 -42.5 6.5t-34.5 22.5t-27 35t-21 52t-15.5 64t-11 81t-7 93.5t-3.5 111t-1.5 124t-0.5 140.5q0 31 1 100t1 107q-26 -21 -47.5 -47t-34 -37t-30.5 -11q-64 0 -109 63t-45 106q0 10 59 39.5t129 61t81 37.5q5 307 5 425
q0 21 -7.5 89.5t-7.5 87.5q80 56 133 56q58 0 108.5 -38.5t50.5 -91.5q0 -12 -1.5 -24t-3 -20.5t-6 -22.5t-6.5 -20t-8.5 -23.5t-8.5 -22.5q-22 -108 -30 -282q56 32 81 41.5t57 9.5q83 0 124.5 -45.5t41.5 -105.5q0 -19 -18 -37.5t-51 -18.5q-18 0 -51 5q-42 0 -187 -64
v-430q0 -305 54 -451q13 -42 13 -56z" />
    <glyph glyph-name="Nacute" unicode="&#x143;" horiz-adv-x="1420" 
d="M1295 1677q0 -22 -23 -72l-33 -69q-74 -236 -74 -381l-8 -735q0 -109 -51 -231q-65 -148 -159 -148q-140 0 -279 235q-101 174 -202 482q-21 67 -60 200t-60 199q-54 -433 -54 -584q0 -328 38 -376q41 -48 41 -72q0 -47 -49.5 -84.5t-103.5 -37.5q-71 0 -118 151
q-36 124 -36 215q0 72 3 128q2 39 2 130q0 114 26 313q25 192 25 312v312q0 4 -3.5 15.5t-3.5 15.5q0 49 69 84q61 29 112 29q129 0 187 -85q16 -29 28 -118l16 -125q18 -140 161 -584q158 -473 233 -473q28 0 28 71q0 13 -6.5 67t-6.5 71l26 694q7 157 54 307
q66 213 179 213q35 0 100 -46q2 -5 2 -23zM937 2130l-5 -26q-29 -60 -67 -74q-18 -8 -174 -100q-139 -82 -189 -82q-37 0 -58.5 21t-21.5 61v31q51 61 164 174q134 125 202 125q45 0 92 -42t57 -88z" />
    <glyph glyph-name="nacute" unicode="&#x144;" horiz-adv-x="1090" 
d="M978 389v-371q-40 -59 -95 -59q-39 0 -143 51v31q0 117 2 166q6 148 6 162q0 547 -164 547q-50 0 -105 -71q-182 -221 -182 -530q0 -63 15 -131q18 -101 18 -128q0 -35 -32.5 -58.5t-72.5 -23.5q-153 0 -153 195v535q0 14 5 60t5 60q0 21 -9 89.5t-9 87.5q0 39 46.5 77
t86.5 38q60 0 115 -64l-7 -102q97 151 233 151q88 0 189 -62q106 -65 146 -138q105 -191 105 -512zM778 1503l-5 -26q-29 -61 -66 -74q-22 -10 -175 -100q-139 -82 -189 -82q-37 0 -58 21t-21 61v31q51 61 164 174q134 125 202 125q45 0 91.5 -41.5t56.5 -88.5z" />
    <glyph glyph-name="Ncommaaccent" unicode="&#x145;" horiz-adv-x="1420" 
d="M1295 1677q0 -22 -23 -72l-33 -69q-74 -236 -74 -381l-8 -735q0 -109 -51 -231q-65 -148 -159 -148q-140 0 -279 235q-101 174 -202 482q-21 67 -60 200t-60 199q-54 -433 -54 -584q0 -328 38 -376q41 -48 41 -72q0 -47 -49.5 -84.5t-103.5 -37.5q-71 0 -118 151
q-36 124 -36 215q0 72 3 128q2 39 2 130q0 114 26 313q25 192 25 312v312q0 4 -3.5 15.5t-3.5 15.5q0 49 69 84q61 29 112 29q129 0 187 -85q16 -29 28 -118l16 -125q18 -140 161 -584q158 -473 233 -473q28 0 28 71q0 13 -6.5 67t-6.5 71l26 694q7 157 54 307
q66 213 179 213q35 0 100 -46q2 -5 2 -23zM778 -174l-2 -28q-188 -415 -269 -415q-47 0 -164 46l3 64q164 150 215 423q46 25 71 25q32 0 84 -41.5t62 -73.5z" />
    <glyph glyph-name="ncedilla" unicode="&#x146;" horiz-adv-x="1090" 
d="M978 389v-371q-40 -59 -95 -59q-39 0 -143 51v31q0 117 2 166q6 148 6 162q0 547 -164 547q-50 0 -105 -71q-182 -221 -182 -530q0 -63 15 -131q18 -101 18 -128q0 -35 -32.5 -58.5t-72.5 -23.5q-153 0 -153 195v535q0 14 5 60t5 60q0 21 -9 89.5t-9 87.5q0 39 46.5 77
t86.5 38q60 0 115 -64l-7 -102q97 151 233 151q88 0 189 -62q106 -65 146 -138q105 -191 105 -512zM701 -174l-2 -28q-188 -415 -269 -415q-47 0 -164 46l3 64q164 150 215 423q46 25 72 25q32 0 83.5 -41.5t61.5 -73.5z" />
    <glyph glyph-name="Ncaron" unicode="&#x147;" horiz-adv-x="1420" 
d="M1295 1677q0 -22 -23 -72l-33 -69q-74 -236 -74 -381l-8 -735q0 -109 -51 -231q-65 -148 -159 -148q-140 0 -279 235q-101 174 -202 482q-21 67 -60 200t-60 199q-54 -433 -54 -584q0 -328 38 -376q41 -48 41 -72q0 -47 -49.5 -84.5t-103.5 -37.5q-71 0 -118 151
q-36 124 -36 215q0 72 3 128q2 39 2 130q0 114 26 313q25 192 25 312v312q0 4 -3.5 15.5t-3.5 15.5q0 49 69 84q61 29 112 29q129 0 187 -85q16 -29 28 -118l16 -125q18 -140 161 -584q158 -473 233 -473q28 0 28 71q0 13 -6.5 67t-6.5 71l26 694q7 157 54 307
q66 213 179 213q35 0 100 -46q2 -5 2 -23zM1050 2150q0 -55 -162 -181q-161 -121 -212 -121q-73 0 -351 233q-18 25 -18 62q0 82 103 82q62 0 138 -62v3q79 -59 97 -67h-8l29 -10h2l8 -3q27 12 69 39q137 100 195 100q110 0 110 -75z" />
    <glyph glyph-name="ncaron" unicode="&#x148;" horiz-adv-x="1090" 
d="M978 389v-371q-40 -59 -95 -59q-39 0 -143 51v31q0 117 2 166q6 148 6 162q0 547 -164 547q-50 0 -105 -71q-182 -221 -182 -530q0 -63 15 -131q18 -101 18 -128q0 -35 -32.5 -58.5t-72.5 -23.5q-153 0 -153 195v535q0 14 5 60t5 60q0 21 -9 89.5t-9 87.5q0 39 46.5 77
t86.5 38q60 0 115 -64l-7 -102q97 151 233 151q88 0 189 -62q106 -65 146 -138q105 -191 105 -512zM891 1523q0 -57 -161 -182q-159 -120 -213 -120q-73 0 -351 233q-18 25 -18 62q0 81 103 81q63 0 138 -61v3q79 -59 97 -67h-7l28 -10h2l8 -3q27 12 69 39q136 99 195 99
q110 0 110 -74z" />
    <glyph glyph-name="napostrophe" unicode="&#x149;" horiz-adv-x="1566" 
d="M36 1551q0 59 52.5 105t121.5 46q76 0 129 -67t53 -166q0 -108 -20.5 -177.5t-71.5 -131.5q-54 -70 -117.5 -116t-113.5 -46q-43 6 -60 32t9 63q126 69 161 174q37 101 -38 149q-30 19 -42.5 28.5t-30.5 26.5t-25 36t-7 44zM1454 389v-371q-40 -59 -95 -59q-39 0 -143 51
v31q0 92 3 166q5 123 5 162q0 547 -164 547q-50 0 -105 -71q-182 -221 -182 -530q0 -63 15 -131q18 -101 18 -128q0 -35 -32.5 -58.5t-72.5 -23.5q-153 0 -153 195v535q0 14 5 60t5 60q0 21 -9 89.5t-9 87.5q0 39 46.5 77t86.5 38q60 0 115 -64l-7 -102q97 151 233 151
q88 0 189 -62q106 -65 146 -138q105 -191 105 -512z" />
    <glyph glyph-name="Omacron" unicode="&#x14c;" horiz-adv-x="1610" 
d="M1231 891q0 533 -343 637q-32 11 -82 11q-141 0 -286 -128q-228 -208 -228 -740q0 -45 20 -136q42 -195 131 -284q100 -103 292 -103q259 0 394 254q102 197 102 489zM1477 868q0 -364 -182 -625q-205 -289 -555 -289q-102 0 -215 38q-255 80 -366 284q-95 171 -95 466
q0 378 182 669q210 340 568 340q315 0 502 -294q161 -252 161 -589zM428 1871q-3 13 -3 46q0 67 18 85q347 41 573 41q64 0 83.5 -22t19.5 -78q0 -42 -14.5 -66t-42.5 -24q-34 0 -143.5 5.5t-160.5 5.5q-87 0 -152 -7t-98.5 -14t-44.5 -7q-30 0 -35 35z" />
    <glyph glyph-name="omacron" unicode="&#x14d;" horiz-adv-x="1062" 
d="M740 509q0 392 -190 392q-135 0 -204 -166q-52 -132 -52 -284q0 -341 203 -341q129 0 194 141q49 107 49 258zM965 504q0 -230 -115 -394q-135 -187 -353 -187q-225 0 -341 154q-105 137 -105 368q0 233 115 436q136 243 346 243q62 0 166 -59q287 -172 287 -561z
M164 1247q-3 13 -3 46q0 66 18 84q347 41 574 41q64 0 83 -22t19 -78q0 -89 -56 -89q-34 0 -144 5t-161 5q-87 0 -151.5 -7t-98 -14t-44.5 -7q-14 0 -24 9.5t-12 26.5z" />
    <glyph glyph-name="Obreve" unicode="&#x14e;" horiz-adv-x="1610" 
d="M1231 891q0 533 -343 637q-32 11 -82 11q-141 0 -286 -128q-228 -208 -228 -740q0 -45 20 -136q42 -195 131 -284q100 -103 292 -103q259 0 394 254q102 197 102 489zM1477 868q0 -364 -182 -625q-205 -289 -555 -289q-102 0 -215 38q-255 80 -366 284q-95 171 -95 466
q0 378 182 669q210 340 568 340q315 0 502 -294q161 -252 161 -589zM1126 2076q0 -114 -140 -182q-86 -41 -215 -41q-124 0 -213 41q-143 69 -143 182q0 100 130 100q34 0 58 -7t38 -20.5t21 -25.5t14 -31l5 -13q18 -11 82 -11q65 0 97 13l28 44h-2q23 51 110 51
q130 0 130 -100z" />
    <glyph glyph-name="obreve" unicode="&#x14f;" horiz-adv-x="1062" 
d="M740 509q0 392 -190 392q-135 0 -204 -166q-52 -132 -52 -284q0 -341 203 -341q129 0 194 141q49 107 49 258zM965 504q0 -230 -115 -394q-135 -187 -353 -187q-225 0 -341 154q-105 137 -105 368q0 233 115 436q136 243 346 243q62 0 166 -59q287 -172 287 -561z
M863 1452q0 -114 -141 -182q-86 -41 -215 -41q-124 0 -213 41q-143 69 -143 182q0 99 131 99q34 0 58 -6.5t37.5 -20.5t20.5 -26t14 -31l5 -13q16 -10 82 -10q65 0 97 13l29 43h-3q23 51 110 51q131 0 131 -99z" />
    <glyph glyph-name="Ohungarumlaut" unicode="&#x150;" horiz-adv-x="1610" 
d="M1231 891q0 533 -343 637q-32 11 -82 11q-141 0 -286 -128q-228 -208 -228 -740q0 -45 20 -136q42 -195 131 -284q100 -103 292 -103q259 0 394 254q102 197 102 489zM1477 868q0 -364 -182 -625q-205 -289 -555 -289q-102 0 -215 38q-255 80 -366 284q-95 171 -95 466
q0 378 182 669q210 340 568 340q315 0 502 -294q161 -252 161 -589zM796 2204v-25q0 -42 -43 -82q-6 -1 -26 -16q-103 -184 -182 -184q-58 0 -87 79l44 177q48 138 138 138q100 0 156 -87zM1080 2204v-25q0 -42 -43 -82q-7 -2 -26 -16q-6 -7 -19.5 -26t-32 -43.5
t-40.5 -50.5q-91 -108 -141 -108q-57 0 -87 82q23 117 72 205v-2q69 153 164 153q97 0 153 -87z" />
    <glyph glyph-name="ohungarumlaut" unicode="&#x151;" horiz-adv-x="1062" 
d="M740 509q0 392 -190 392q-135 0 -204 -166q-52 -132 -52 -284q0 -341 203 -341q129 0 194 141q49 107 49 258zM965 504q0 -230 -115 -394q-135 -187 -353 -187q-225 0 -341 154q-105 137 -105 368q0 233 115 436q136 243 346 243q62 0 166 -59q287 -172 287 -561z
M532 1580v-26q0 -42 -43 -82q-8 -2 -26 -15q-104 -185 -181 -185q-57 0 -87 80l43 176q48 139 138 139q100 0 156 -87zM817 1580v-26q0 -41 -44 -82q-7 -2 -25 -15q-5 -7 -19.5 -26.5t-33 -44t-40.5 -50.5q-91 -107 -140 -107q-57 0 -87 82q23 120 71 205v-3q69 154 164 154
q98 0 154 -87z" />
    <glyph glyph-name="OE" unicode="&#x152;" horiz-adv-x="2401" 
d="M1111 1359q-135 180 -279 180q-143 0 -289 -134q-243 -223 -243 -629q0 -261 87 -420q112 -208 348 -208q224 0 297 103q53 79 53 320q0 540 26 788zM2232 148q-34 -76 -87 -76q-7 0 -31 3.5t-30 3.5q-103 0 -295 -66q-190 -67 -291 -67q-212 0 -315 169
q-186 -161 -443 -161q-89 0 -213 36q-256 80 -368 286q-95 171 -95 466q0 378 182 669q210 340 568 340q206 0 369 -136q19 12 48 16q55 7 346 77q218 51 348 51q169 0 305 -154q-72 -72 -133 -72q-10 0 -47.5 4t-47.5 4q-116 0 -330 -41q-230 -41 -318 -87
q-19 -241 -33 -548q91 6 223 36q143 33 230 33q79 0 174 -46l26 -94q0 -19 -42 -50.5t-81 -49.5q-44 28 -85 28q-216 0 -450 -67q0 -80 2 -117q6 -98 6 -118q0 -259 143 -259q83 0 246 59q163 62 248 62q195 0 271 -134z" />
    <glyph glyph-name="oe" unicode="&#x153;" horiz-adv-x="1743" 
d="M753 509q0 392 -190 392q-136 0 -205 -166q-51 -130 -51 -284q0 -341 202 -341q130 0 195 141q49 107 49 258zM922 312v5q-2 -3 0 -5zM1341 722q0 69 -48.5 117.5t-117.5 48.5q-89 0 -143 -75.5t-54 -180.5q0 -57 48.5 -95t110.5 -38q81 0 143 69q61 73 61 154zM1605 274
q0 -130 -171 -225q-152 -82 -290 -82q-194 0 -299 120q-125 -164 -336 -164q-224 0 -340 154q-105 137 -105 368q0 233 115 436q136 243 346 243q204 0 338 -195q103 172 263 172q173 0 305 -105q141 -110 141 -279q0 -174 -146 -300q-146 -123 -323 -123q-4 0 -133 23
q27 -161 164 -161q87 0 164 62q13 9 105 110q56 59 89 59q46 0 79.5 -33.5t33.5 -79.5z" />
    <glyph glyph-name="Uni0154" unicode="&#x154;" horiz-adv-x="1630" 
d="M1147 1190q0 164 -167 249q-135 69 -312 69q-16 0 -110 -8q4 -76 -49 -317q-26 -128 -38 -397q155 -51 184 -51q37 0 90 18q163 48 276 156q126 119 126 281zM1498 44v-13q-39 -57 -95 -57q-44 0 -74 39q-23 92 -341 299q-317 208 -417 208h-46q-23 -3 -49 -3v-100
q0 -44 13 -135q12 -102 28 -126q46 -61 46 -77q0 -45 -35.5 -75t-82.5 -30q-96 0 -151 70q-51 63 -51 506q-56 0 -112 34q-67 43 -67 87q0 93 172 135q13 86 17 218q1 30 3 71.5t2.5 63t2.5 45.5t5 38q2 12 16 96.5t23 148.5h-21q-102 0 -102 90q0 81 61 100l87 25
q54 48 83.5 61.5t90.5 13.5q46 0 46 -41q0 -13 64 -13q296 0 510 -120q258 -145 258 -423q0 -215 -133 -351q-82 -89 -317 -212l361 -230q105 -66 155 -155t50 -188zM1039 2161l-5 -26q-29 -61 -66 -74q-18 -8 -174 -100q-139 -82 -190 -82q-37 0 -58 21t-21 61v31
q51 61 164 174q134 125 202 125q45 0 91.5 -41.5t56.5 -88.5z" />
    <glyph glyph-name="Uni0155" unicode="&#x155;" horiz-adv-x="819" 
d="M722 881q0 -14 -5 -57q-54 -76 -113 -76q-49 0 -87 56q-4 115 -82 115q-46 0 -112 -243q-31 -112 -31 -300q0 -184 18 -220q20 -51 20 -66q0 -43 -39 -70.5t-89 -27.5q-138 0 -138 128q0 10 6.5 36.5t6.5 32.5q0 107 -13 387q-13 279 -13 387q0 115 138 115q83 0 113 -49
q72 79 161 79q63 0 118 -33q41 -20 90 -89q51 -68 51 -105zM645 1495l-5 -26q-29 -60 -67 -74q-18 -8 -174 -100q-139 -82 -189 -82q-37 0 -58 21t-21 61v31q56 67 163 174q135 126 203 126q45 0 91.5 -42t56.5 -89z" />
    <glyph glyph-name="Rcommaaccent" unicode="&#x156;" horiz-adv-x="1630" 
d="M1147 1190q0 164 -167 249q-135 69 -312 69q-16 0 -110 -8q4 -76 -49 -317q-26 -128 -38 -397q155 -51 184 -51q37 0 90 18q163 48 276 156q126 119 126 281zM1498 44v-13q-39 -57 -95 -57q-44 0 -74 39q-23 92 -341 299q-317 208 -417 208h-46q-23 -3 -49 -3v-100
q0 -44 13 -135q12 -102 28 -126q46 -61 46 -77q0 -45 -35.5 -75t-82.5 -30q-96 0 -151 70q-51 63 -51 506q-56 0 -112 34q-67 43 -67 87q0 93 172 135q13 86 17 218q1 30 3 71.5t2.5 63t2.5 45.5t5 38q2 12 16 96.5t23 148.5h-21q-102 0 -102 90q0 81 61 100l87 25
q54 48 83.5 61.5t90.5 13.5q46 0 46 -41q0 -13 64 -13q296 0 510 -120q258 -145 258 -423q0 -215 -133 -351q-82 -89 -317 -212l361 -230q105 -66 155 -155t50 -188zM983 -174l-3 -28q-188 -415 -268 -415q-47 0 -164 46l2 64q164 150 215 423q46 25 72 25q32 0 84 -41.5
t62 -73.5z" />
    <glyph glyph-name="rcommaaccent" unicode="&#x157;" horiz-adv-x="819" 
d="M722 881q0 -14 -5 -57q-54 -76 -113 -76q-49 0 -87 56q-4 115 -82 115q-46 0 -112 -243q-31 -112 -31 -300q0 -184 18 -220q20 -51 20 -66q0 -43 -39 -70.5t-89 -27.5q-138 0 -138 128q0 10 6.5 36.5t6.5 32.5q0 107 -13 387q-13 279 -13 387q0 115 138 115q83 0 113 -49
q72 79 161 79q63 0 118 -33q41 -20 90 -89q51 -68 51 -105zM420 -174l-3 -28q-188 -415 -269 -415q-46 0 -163 46l2 64q164 150 215 423q46 25 72 25q32 0 84 -41.5t62 -73.5z" />
    <glyph glyph-name="Rcaron" unicode="&#x158;" horiz-adv-x="1630" 
d="M1147 1190q0 164 -167 249q-135 69 -312 69q-16 0 -110 -8q4 -76 -49 -317q-26 -128 -38 -397q155 -51 184 -51q37 0 90 18q163 48 276 156q126 119 126 281zM1498 44v-13q-39 -57 -95 -57q-44 0 -74 39q-23 92 -341 299q-317 208 -417 208h-46q-23 -3 -49 -3v-100
q0 -44 13 -135q12 -102 28 -126q46 -61 46 -77q0 -45 -35.5 -75t-82.5 -30q-96 0 -151 70q-51 63 -51 506q-56 0 -112 34q-67 43 -67 87q0 93 172 135q13 86 17 218q1 30 3 71.5t2.5 63t2.5 45.5t5 38q2 12 16 96.5t23 148.5h-21q-102 0 -102 90q0 81 61 100l87 25
q54 48 83.5 61.5t90.5 13.5q46 0 46 -41q0 -13 64 -13q296 0 510 -120q258 -145 258 -423q0 -215 -133 -351q-82 -89 -317 -212l361 -230q105 -66 155 -155t50 -188zM1152 2181q0 -57 -161 -182q-159 -120 -213 -120q-72 0 -350 233q-18 25 -18 61q0 82 102 82q63 0 138 -61
v2q75 -56 98 -66h-8l28 -10h3l7 -3q27 12 69 39q136 99 195 99q110 0 110 -74z" />
    <glyph glyph-name="Uni0159" unicode="&#x159;" horiz-adv-x="819" 
d="M722 881q0 -14 -5 -57q-54 -76 -113 -76q-49 0 -87 56q-4 115 -82 115q-46 0 -112 -243q-31 -112 -31 -300q0 -184 18 -220q20 -51 20 -66q0 -43 -39 -70.5t-89 -27.5q-138 0 -138 128q0 10 6.5 36.5t6.5 32.5q0 107 -13 387q-13 279 -13 387q0 115 138 115q83 0 113 -49
q72 79 161 79q63 0 118 -33q41 -20 90 -89q51 -68 51 -105zM758 1516q0 -56 -162 -182q-161 -121 -212 -121q-73 0 -351 233q-18 25 -18 62q0 82 103 82q62 0 138 -62v3q79 -59 97 -67h-7l28 -10h2l8 -2q32 14 69 38q137 100 195 100q110 0 110 -74z" />
    <glyph glyph-name="Sacute" unicode="&#x15a;" horiz-adv-x="1295" 
d="M1213 251q0 -157 -181 -241q-142 -69 -320 -69q-164 0 -379 72q-269 92 -269 215q0 46 33.5 79t79.5 33q64 0 128 -56l107 -92q91 -51 323 -51q207 0 207 95q0 43 -48.5 100.5t-145.5 119.5l-272 174q-162 106 -253 222q-105 140 -105 318q0 225 138 402q148 194 369 194
q190 0 319.5 -104.5t166.5 -289.5q5 -44 31 -212q10 -35 10 -62q0 -88 -31 -156q-38 -87 -120 -87q-46 0 -88.5 42.5t-42.5 88.5q0 22 15.5 98.5t15.5 98.5q0 345 -230 345q-127 0 -215 -110q-87 -106 -87 -238q0 -97 54.5 -191t165.5 -167l407 -272q217 -147 217 -299z
M896 2150l-5 -25q-29 -60 -67 -74q-18 -8 -174 -100q-139 -82 -189 -82q-37 0 -58.5 21t-21.5 61v30q56 67 164 175q134 125 203 125q45 0 91.5 -42t56.5 -89z" />
    <glyph glyph-name="sacute" unicode="&#x15b;" horiz-adv-x="1008" 
d="M927 259q0 -122 -103 -210q-108 -93 -302 -98q-81 0 -176 34q-308 116 -308 187q0 112 162 112q36 0 48 -2q8 -76 123 -123q99 -42 192 -34q74 5 74 54q0 6 -5 23q-2 7 -2 23q0 10 -98 41l-122 39q-292 172 -292 419q0 148 84 274q97 139 236 139q101 0 238 -82
q136 -82 166 -177q21 -71 21 -110q0 -44 -13 -77l-31 -77q-47 -33 -97 -33q-32 0 -87 31q-59 31 -59 56q0 8 31 67q18 32 18 56q0 154 -121 154q-70 0 -110 -93q-28 -76 -28 -153q0 -103 146 -184q46 -20 269 -121q146 -66 146 -135zM740 1523l-5 -25q-29 -61 -67 -75
q-25 -11 -174 -99q-139 -82 -189 -82q-37 0 -58.5 21t-21.5 61v30q51 61 164 174q135 126 202 126q45 0 92 -42t57 -89z" />
    <glyph glyph-name="Scircumflex" unicode="&#x15c;" horiz-adv-x="1295" 
d="M1213 251q0 -157 -181 -241q-142 -69 -320 -69q-164 0 -379 72q-269 92 -269 215q0 46 33.5 79t79.5 33q64 0 128 -56l107 -92q91 -51 323 -51q207 0 207 95q0 43 -48.5 100.5t-145.5 119.5l-272 174q-162 106 -253 222q-105 140 -105 318q0 225 138 402q148 194 369 194
q190 0 319.5 -104.5t166.5 -289.5q5 -44 31 -212q10 -35 10 -62q0 -88 -31 -156q-38 -87 -120 -87q-46 0 -88.5 42.5t-42.5 88.5q0 22 15.5 98.5t15.5 98.5q0 345 -230 345q-127 0 -215 -110q-87 -106 -87 -238q0 -97 54.5 -191t165.5 -167l407 -272q217 -147 217 -299z
M1009 1951q0 -82 -103 -82q-63 0 -138 61v-2q-72 58 -97 66l-26 10l-5 3q-6 0 -3 -3l-66 -35q-137 -100 -195 -100q-110 0 -110 74q0 49 162 179q153 123 212 123q77 0 348 -233q21 -37 21 -61zM643 2002l2 2l-5 3l-3 -3q4 0 6 -2zM645 2002h-2h2z" />
    <glyph glyph-name="scircumflex" unicode="&#x15d;" horiz-adv-x="1008" 
d="M927 259q0 -122 -103 -210q-108 -93 -302 -98q-81 0 -176 34q-308 116 -308 187q0 112 162 112q36 0 48 -2q8 -76 123 -123q99 -42 192 -34q74 5 74 54q0 6 -5 23q-2 7 -2 23q0 10 -98 41l-122 39q-292 172 -292 419q0 148 84 274q97 139 236 139q101 0 238 -82
q136 -82 166 -177q21 -71 21 -110q0 -44 -13 -77l-31 -77q-47 -33 -97 -33q-32 0 -87 31q-59 31 -59 56q0 8 31 67q18 32 18 56q0 154 -121 154q-70 0 -110 -93q-28 -76 -28 -153q0 -103 146 -184q46 -20 269 -121q146 -66 146 -135zM852 1324q0 -82 -102 -82q-63 0 -138 61
v-3q-74 60 -97 67l-26 10l-5 3q-6 0 -3 -3l-66 -36q-136 -99 -195 -99q-110 0 -110 74q0 50 161 179q153 123 213 123q77 0 348 -233q20 -35 20 -61zM486 1375l3 2l-5 3l-3 -3q3 0 5 -2zM489 1375h-3h3z" />
    <glyph glyph-name="Scedilla" unicode="&#x15e;" horiz-adv-x="1295" 
d="M1213 251q0 -157 -181 -241q-142 -69 -320 -69q-164 0 -379 72q-269 92 -269 215q0 46 33.5 79t79.5 33q64 0 128 -56l107 -92q91 -51 323 -51q207 0 207 95q0 43 -48.5 100.5t-145.5 119.5l-272 174q-162 106 -253 222q-105 140 -105 318q0 225 138 402q148 194 369 194
q190 0 319.5 -104.5t166.5 -289.5q5 -44 31 -212q10 -35 10 -62q0 -88 -31 -156q-38 -87 -120 -87q-46 0 -88.5 42.5t-42.5 88.5q0 22 15.5 98.5t15.5 98.5q0 345 -230 345q-127 0 -215 -110q-87 -106 -87 -238q0 -97 54.5 -191t165.5 -167l407 -272q217 -147 217 -299z
M858 -282q0 -90 -126 -163q-54 -30 -184 -70q-113 15 -113 93q0 37 39 71q3 1 4 2l3 3t21 11t54 25l-6 3q-133 27 -133 89q0 46 57 95v-2l41 35l38 31l241 3q-70 -70 -90 -95q12 -3 30.5 -6t25.5 -7h-2q51 -22 75.5 -49t24.5 -69z" />
    <glyph glyph-name="scedilla" unicode="&#x15f;" horiz-adv-x="1008" 
d="M927 259q0 -122 -103 -210q-108 -93 -302 -98q-81 0 -176 34q-308 116 -308 187q0 112 162 112q36 0 48 -2q8 -76 123 -123q99 -42 192 -34q74 5 74 54q0 6 -5 23q-2 7 -2 23q0 10 -98 41l-122 39q-292 172 -292 419q0 148 84 274q97 139 236 139q101 0 238 -82
q136 -82 166 -177q21 -71 21 -110q0 -44 -13 -77l-31 -77q-47 -33 -97 -33q-32 0 -87 31q-59 31 -59 56q0 8 31 67q18 32 18 56q0 154 -121 154q-70 0 -110 -93q-28 -76 -28 -153q0 -103 146 -184q46 -20 269 -121q146 -66 146 -135zM701 -274q0 -91 -125 -164
q-50 -27 -184 -69q-113 15 -113 92q0 39 38 72q3 1 4 2l3 3t21 11t54 25l-5 2q-133 27 -133 90q0 46 56 95v-3l41 36l39 31l240 2q-69 -69 -89 -94q12 -3 30.5 -6t25.5 -7h-2q51 -22 75 -49t24 -69z" />
    <glyph glyph-name="Scaron" unicode="&#x160;" horiz-adv-x="1295" 
d="M1213 251q0 -157 -181 -241q-142 -69 -320 -69q-164 0 -379 72q-269 92 -269 215q0 46 33.5 79t79.5 33q64 0 128 -56l107 -92q91 -51 323 -51q207 0 207 95q0 43 -48.5 100.5t-145.5 119.5l-272 174q-162 106 -253 222q-105 140 -105 318q0 225 138 402q148 194 369 194
q190 0 319.5 -104.5t166.5 -289.5q5 -44 31 -212q10 -35 10 -62q0 -88 -31 -156q-38 -87 -120 -87q-46 0 -88.5 42.5t-42.5 88.5q0 22 15.5 98.5t15.5 98.5q0 345 -230 345q-127 0 -215 -110q-87 -106 -87 -238q0 -97 54.5 -191t165.5 -167l407 -272q217 -147 217 -299z
M1009 2171q0 -56 -162 -182q-159 -120 -212 -120q-73 0 -351 233q-18 25 -18 61q0 82 103 82q63 0 138 -61v2q76 -57 97 -66h-8l29 -11h2l8 -2q32 14 69 38q137 100 195 100q110 0 110 -74z" />
    <glyph glyph-name="scaron" unicode="&#x161;" horiz-adv-x="1008" 
d="M927 259q0 -122 -103 -210q-108 -93 -302 -98q-81 0 -176 34q-308 116 -308 187q0 112 162 112q36 0 48 -2q8 -76 123 -123q99 -42 192 -34q74 5 74 54q0 6 -5 23q-2 7 -2 23q0 10 -98 41l-122 39q-292 172 -292 419q0 148 84 274q97 139 236 139q101 0 238 -82
q136 -82 166 -177q21 -71 21 -110q0 -44 -13 -77l-31 -77q-47 -33 -97 -33q-32 0 -87 31q-59 31 -59 56q0 8 31 67q18 32 18 56q0 154 -121 154q-70 0 -110 -93q-28 -76 -28 -153q0 -103 146 -184q46 -20 269 -121q146 -66 146 -135zM852 1544q0 -57 -161 -182
q-159 -120 -212 -120q-73 0 -351 233q-18 25 -18 61q0 82 102 82q63 0 139 -62v3q79 -59 97 -67h-8l28 -10h3l8 -2q32 14 69 38q137 100 194 100q110 0 110 -74z" />
    <glyph glyph-name="Tcommaaccent" unicode="&#x162;" horiz-adv-x="1338" 
d="M1257 1556q0 -45 -27.5 -76t-67.5 -31q-28 0 -87 20q-73 23 -102 23h-177h-7q-27 0 -32 -4t-8 -28q-2 -15 -4 -24l-31 -192q-48 -294 -48 -786q0 -296 69 -407v-69q-48 -26 -77 -26q-163 0 -213 159q-23 78 -23 295q0 263 11 394q10 140 28 294q23 215 20 295l-2 74
l-139 -18q-91 -13 -138 -13q-176 0 -176 105q0 44 25 51q38 56 402 98q281 30 456 30q123 0 215 -30q133 -41 133 -134zM707 -174l-3 -28q-188 -415 -269 -415q-47 0 -164 46l3 64q164 150 215 423q46 25 72 25q32 0 84 -41.5t62 -73.5z" />
    <glyph glyph-name="tcommaaccent" unicode="&#x163;" horiz-adv-x="760" 
d="M689 916q0 -70 -213 -97q-5 -63 -5 -256v-169q0 -50 15 -151q18 -93 18 -148q0 -39 -40.5 -72t-82.5 -33q-65 0 -107 110q-33 80 -33 164v542l-136 23q-67 20 -67 59q0 7 6 23q65 95 148 95h15q5 -2 16 -2q51 0 51 125v187q-15 27 -15 48q0 32 38.5 60t76.5 28
q54 0 102.5 -50.5t48.5 -106.5q0 -41 -18 -122t-18 -123v-11q200 -20 200 -123zM504 -174l-2 -28q-188 -415 -269 -415q-47 0 -164 46l3 64q164 150 215 423q46 25 71 25q32 0 84 -41.5t62 -73.5z" />
    <glyph glyph-name="Tcaron" unicode="&#x164;" horiz-adv-x="1338" 
d="M1257 1556q0 -45 -27.5 -76t-67.5 -31q-28 0 -87 20q-73 23 -102 23h-177h-7q-27 0 -32 -4t-8 -28q-2 -15 -4 -24l-31 -192q-48 -294 -48 -786q0 -296 69 -407v-69q-48 -26 -77 -26q-163 0 -213 159q-23 78 -23 295q0 263 11 394q10 140 28 294q23 215 20 295l-2 74
l-139 -18q-91 -13 -138 -13q-176 0 -176 105q0 44 25 51q38 56 402 98q281 30 456 30q123 0 215 -30q133 -41 133 -134zM1011 2125q0 -57 -161 -182q-159 -120 -213 -120q-72 0 -350 233q-18 25 -18 61q0 82 102 82q63 0 138 -61v2q75 -56 98 -66h-8l28 -11h3l7 -2
q35 16 70 38q137 100 194 100q110 0 110 -74z" />
    <glyph glyph-name="tcaron" unicode="&#x165;" horiz-adv-x="783" 
d="M689 916q0 -70 -213 -97q-5 -63 -5 -256v-169q0 -50 15 -151q18 -93 18 -148q0 -39 -40.5 -72t-82.5 -33q-65 0 -107 110q-33 80 -33 164v542l-136 23q-67 20 -67 59q0 7 6 23q65 95 148 95h15q5 -2 16 -2q51 0 51 125v187q-15 27 -15 48q0 32 38.5 60t76.5 28
q54 0 102.5 -50.5t48.5 -106.5q0 -41 -18 -122t-18 -123v-11q200 -20 200 -123zM865 1723l11 -28q5 -454 -70 -489q-39 -18 -169 -26l-25 59q86 201 18 474q31 37 56 53q28 11 92 -4.5t87 -38.5z" />
    <glyph glyph-name="Utilde" unicode="&#x168;" horiz-adv-x="1285" 
d="M1152 1649v-709q0 -205 -51 -451q-62 -297 -169 -407q-134 -141 -328 -141q-172 0 -304 105q-145 121 -198 320q-38 139 -38 384q0 119 15 353q16 254 16 356q0 14 -15.5 60.5t-15.5 60.5q0 63 102 104q80 34 157 34q87 0 87 -54q0 -30 -26 -82t-26 -84q0 -118 -25 -310
q-26 -199 -26 -312v-318q0 -147 57 -258q70 -144 202 -144q256 0 340 471q39 219 39 684q0 165 -52 274q-15 30 -15 48q0 47 35.5 90t79.5 43q51 0 105 -36.5t54 -80.5zM991 2053q0 -71 -128 -133q-102 -51 -169 -51q-61 0 -138 36q-48 25 -70 25q-18 0 -53 -20
q-65 -31 -87 -31q-123 0 -123 97q0 76 130 133q101 44 162 44q59 0 140 -38q43 -26 57 -26q16 0 56 23q60 41 100 41q123 0 123 -100z" />
    <glyph glyph-name="utilde" unicode="&#x169;" horiz-adv-x="939" 
d="M860 914q0 -75 -20 -241q-18 -145 -18 -240q0 -57 5 -215q8 -152 8 -210q0 -59 -100 -59q-104 0 -131 100q-93 -64 -189 -64q-75 0 -169 38q-95 42 -133 97q-75 110 -75 346q0 124 6 287q6 253 5 284q75 56 128 56q123 0 123 -120q0 -35 -13 -123q-11 -74 -11 -123v-361
q0 -63 34 -128q42 -77 97 -77q111 0 164 141q36 100 36 236v307q0 55 -31 146q68 59 123 59q64 0 112.5 -39t48.5 -97zM832 1382q0 -71 -128 -133q-102 -51 -169 -51q-61 0 -138 36q-49 26 -69 26q-17 0 -54 -21q-65 -31 -87 -31q-123 0 -123 98q0 76 131 133q98 43 161 43
q60 0 141 -38q43 -26 56 -26q16 0 56 23q60 41 100 41q123 0 123 -100z" />
    <glyph glyph-name="Umacron" unicode="&#x16a;" horiz-adv-x="1285" 
d="M1152 1649v-709q0 -205 -51 -451q-62 -297 -169 -407q-134 -141 -328 -141q-172 0 -304 105q-145 121 -198 320q-38 139 -38 384q0 119 15 353q16 254 16 356q0 14 -15.5 60.5t-15.5 60.5q0 63 102 104q80 34 157 34q87 0 87 -54q0 -30 -26 -82t-26 -84q0 -118 -25 -310
q-26 -199 -26 -312v-318q0 -147 57 -258q70 -144 202 -144q256 0 340 471q39 219 39 684q0 165 -52 274q-15 30 -15 48q0 47 35.5 90t79.5 43q51 0 105 -36.5t54 -80.5zM264 1887q-3 13 -3 46q0 66 18 84q347 41 573 41q64 0 83.5 -22t19.5 -78q0 -89 -56 -89q-34 0 -144 5
t-161 5q-87 0 -151.5 -7t-98 -14t-44.5 -7q-14 0 -24 9.5t-12 26.5z" />
    <glyph glyph-name="umacron" unicode="&#x16b;" horiz-adv-x="939" 
d="M860 914q0 -75 -20 -241q-18 -145 -18 -240q0 -57 5 -215q8 -152 8 -210q0 -59 -100 -59q-104 0 -131 100q-93 -64 -189 -64q-75 0 -169 38q-95 42 -133 97q-75 110 -75 346q0 124 6 287q6 253 5 284q75 56 128 56q123 0 123 -120q0 -35 -13 -123q-11 -74 -11 -123v-361
q0 -63 34 -128q42 -77 97 -77q111 0 164 141q36 100 36 236v307q0 55 -31 146q68 59 123 59q64 0 112.5 -39t48.5 -97zM105 1216q-3 13 -3 46q0 67 18 85q347 41 574 41q64 0 83 -22t19 -78q0 -90 -56 -90q-34 0 -144 5t-161 5q-87 0 -151.5 -7t-98 -14t-44.5 -7
q-14 0 -24 9.5t-12 26.5z" />
    <glyph glyph-name="Ubreve" unicode="&#x16c;" horiz-adv-x="1285" 
d="M1152 1649v-709q0 -205 -51 -451q-62 -297 -169 -407q-134 -141 -328 -141q-172 0 -304 105q-145 121 -198 320q-38 139 -38 384q0 119 15 353q16 254 16 356q0 14 -15.5 60.5t-15.5 60.5q0 63 102 104q80 34 157 34q87 0 87 -54q0 -30 -26 -82t-26 -84q0 -118 -25 -310
q-26 -199 -26 -312v-318q0 -147 57 -258q70 -144 202 -144q256 0 340 471q39 219 39 684q0 165 -52 274q-15 30 -15 48q0 47 35.5 90t79.5 43q51 0 105 -36.5t54 -80.5zM963 2092q0 -114 -141 -182q-86 -41 -215 -41q-124 0 -213 41q-143 69 -143 182q0 99 130 99
q34 0 58 -7t38 -20.5t21 -25.5t14 -31l5 -13q16 -10 82 -10q65 0 97 13l28 43h-2q23 51 110 51q131 0 131 -99z" />
    <glyph glyph-name="ubreve" unicode="&#x16d;" horiz-adv-x="939" 
d="M860 914q0 -75 -20 -241q-18 -145 -18 -240q0 -57 5 -215q8 -152 8 -210q0 -59 -100 -59q-104 0 -131 100q-93 -64 -189 -64q-75 0 -169 38q-95 42 -133 97q-75 110 -75 346q0 124 6 287q6 253 5 284q75 56 128 56q123 0 123 -120q0 -35 -13 -123q-11 -74 -11 -123v-361
q0 -63 34 -128q42 -77 97 -77q111 0 164 141q36 100 36 236v307q0 55 -31 146q68 59 123 59q64 0 112.5 -39t48.5 -97zM804 1421q0 -114 -141 -182q-86 -41 -215 -41q-123 0 -212 41q-144 70 -144 182q0 100 131 100q44 0 72.5 -14t38 -29.5t19.5 -41.5l5 -13q16 -10 82 -10
t98 13l28 43h-3q24 52 110 52q131 0 131 -100z" />
    <glyph glyph-name="Uring" unicode="&#x16e;" horiz-adv-x="1285" 
d="M1152 1649v-709q0 -205 -51 -451q-62 -297 -169 -407q-134 -141 -328 -141q-172 0 -304 105q-145 121 -198 320q-38 139 -38 384q0 119 15 353q16 254 16 356q0 14 -15.5 60.5t-15.5 60.5q0 63 102 104q80 34 157 34q87 0 87 -54q0 -30 -26 -82t-26 -84q0 -118 -25 -310
q-26 -199 -26 -312v-318q0 -147 57 -258q70 -144 202 -144q256 0 340 471q39 219 39 684q0 165 -52 274q-15 30 -15 48q0 47 35.5 90t79.5 43q51 0 105 -36.5t54 -80.5zM627 2043q0 13 -20 13q-21 0 -21 -13t21 -13q20 0 20 13zM837 2043q0 -78 -69.5 -126t-160.5 -48
q-85 0 -146 36q-85 50 -85 138q0 81 85 136q64 41 146 41q79 0 146 -41q84 -57 84 -136z" />
    <glyph glyph-name="uring" unicode="&#x16f;" horiz-adv-x="939" 
d="M860 914q0 -75 -20 -241q-18 -145 -18 -240q0 -57 5 -215q8 -152 8 -210q0 -59 -100 -59q-104 0 -131 100q-93 -64 -189 -64q-75 0 -169 38q-95 42 -133 97q-75 110 -75 346q0 124 6 287q6 253 5 284q75 56 128 56q123 0 123 -120q0 -35 -13 -123q-11 -74 -11 -123v-361
q0 -63 34 -128q42 -77 97 -77q111 0 164 141q36 100 36 236v307q0 55 -31 146q68 59 123 59q64 0 112.5 -39t48.5 -97zM468 1372q0 13 -20 13t-20 -13t20 -13t20 13zM678 1372q0 -78 -69.5 -126t-160.5 -48q-85 0 -146 36q-84 50 -84 138q0 82 84 136q64 41 146 41
q79 0 146 -41q84 -57 84 -136z" />
    <glyph glyph-name="Uhungarumlaut" unicode="&#x170;" horiz-adv-x="1285" 
d="M1152 1649v-709q0 -205 -51 -451q-62 -297 -169 -407q-134 -141 -328 -141q-172 0 -304 105q-145 121 -198 320q-38 139 -38 384q0 119 15 353q16 254 16 356q0 14 -15.5 60.5t-15.5 60.5q0 63 102 104q80 34 157 34q87 0 87 -54q0 -30 -26 -82t-26 -84q0 -118 -25 -310
q-26 -199 -26 -312v-318q0 -147 57 -258q70 -144 202 -144q256 0 340 471q39 219 39 684q0 165 -52 274q-15 30 -15 48q0 47 35.5 90t79.5 43q51 0 105 -36.5t54 -80.5zM632 2220v-26q0 -42 -43 -82q-8 -2 -26 -15q-104 -185 -182 -185q-57 0 -87 80l44 176q48 139 138 139
q100 0 156 -87zM916 2220v-26q0 -42 -43 -82q-9 -3 -26 -15l-31 -43q-32 -43 -61 -78q-91 -107 -141 -107q-57 0 -87 82q23 117 72 205v-3q69 154 164 154q97 0 153 -87z" />
    <glyph glyph-name="uhungarumlaut" unicode="&#x171;" horiz-adv-x="939" 
d="M860 914q0 -75 -20 -241q-18 -145 -18 -240q0 -57 5 -215q8 -152 8 -210q0 -59 -100 -59q-104 0 -131 100q-93 -64 -189 -64q-75 0 -169 38q-95 42 -133 97q-75 110 -75 346q0 124 6 287q6 253 5 284q75 56 128 56q123 0 123 -120q0 -35 -13 -123q-11 -74 -11 -123v-361
q0 -63 34 -128q42 -77 97 -77q111 0 164 141q36 100 36 236v307q0 55 -31 146q68 59 123 59q64 0 112.5 -39t48.5 -97zM474 1549v-26q0 -41 -44 -82q-8 -2 -26 -15q-103 -184 -181 -184q-58 0 -87 79l43 177q48 138 138 138q101 0 157 -87zM758 1549v-26q0 -41 -44 -82
q-7 -2 -25 -15q-5 -7 -19.5 -26.5t-33 -43.5t-40.5 -50q-92 -108 -140 -108q-57 0 -87 82q23 120 71 205v-3q69 154 164 154q98 0 154 -87z" />
    <glyph glyph-name="Uogonek" unicode="&#x172;" horiz-adv-x="1285" 
d="M1152 1649v-709q0 -205 -51 -451q-62 -297 -169 -407q-134 -141 -328 -141q-172 0 -304 105q-145 121 -198 320q-38 139 -38 384q0 119 15 353q16 254 16 356q0 14 -15.5 60.5t-15.5 60.5q0 63 102 104q80 34 157 34q87 0 87 -54q0 -30 -26 -82t-26 -84q0 -118 -25 -310
q-26 -199 -26 -312v-318q0 -147 57 -258q70 -144 202 -144q256 0 340 471q39 219 39 684q0 165 -52 274q-15 30 -15 48q0 47 35.5 90t79.5 43q51 0 105 -36.5t54 -80.5zM850 -474q0 -67 -102 -105h2q-57 -28 -125 -28q-109 0 -186.5 69.5t-77.5 171.5q0 140 159 276
q38 34 84 34q103 0 103 -85q0 -34 -59 -118q-41 -60 -41 -94q0 -24 13 -48t28 -24l15 10q4 2 12.5 8t12 8t11 6t12.5 5t13.5 2.5t17.5 1.5q108 0 108 -90z" />
    <glyph glyph-name="uogonek" unicode="&#x173;" horiz-adv-x="939" 
d="M860 914q0 -75 -20 -241q-18 -145 -18 -240q0 -57 5 -215q8 -152 8 -210q0 -59 -100 -59q-104 0 -131 100q-93 -64 -189 -64q-75 0 -169 38q-95 42 -133 97q-75 110 -75 346q0 124 6 287q6 253 5 284q75 56 128 56q123 0 123 -120q0 -35 -13 -123q-11 -74 -11 -123v-361
q0 -63 34 -128q42 -77 97 -77q111 0 164 141q36 100 36 236v307q0 55 -31 146q68 59 123 59q64 0 112.5 -39t48.5 -97zM691 -466q0 -67 -102 -105h2q-57 -28 -125 -28q-109 0 -186.5 69.5t-77.5 171.5q0 140 159 276q37 33 84 33q103 0 103 -84q0 -34 -59 -118
q-41 -60 -41 -95q0 -24 13 -47.5t28 -23.5l15 10q4 2 11.5 7l10.5 7t9 5.5t10.5 5t11 3.5t13 2.5t14.5 0.5q107 0 107 -90z" />
    <glyph glyph-name="u0174" unicode="&#x174;" horiz-adv-x="1738" 
d="M1572 1165q0 -294 -103 -661q-135 -484 -340 -484q-179 0 -261 228q-46 125 -69 379q-60 -279 -98 -386q-95 -264 -230 -264q-101 0 -182 84q-107 110 -161 692q-38 386 -38 765q0 197 169 197q151 0 151 -69q0 -14 -6.5 -32.5t-13 -31.5t-19.5 -36t-18 -33
q-33 -63 -33 -279q0 -981 151 -981q54 0 131 382q92 452 92 691q0 39 48 72q48 38 87 38q77 0 140 -54t70 -130q-51 -76 -51 -274q0 -719 136 -719q129 0 202 409q49 281 49 522q0 95 -13 149q-15 61 -56 146q-41 79 -41 123q0 61 28 112q33 64 92 64q80 0 141 -271
q46 -209 46 -348zM1201 1969q0 -82 -103 -82q-63 0 -138 61v-2q-72 58 -97 66l-26 10l-5 3q-6 0 -3 -3l-66 -35q-137 -100 -195 -100q-110 0 -110 74q0 49 162 179q153 123 212 123q77 0 348 -233q21 -37 21 -61zM835 2020l2 2l-5 3l-3 -3q4 0 6 -2zM837 2020h-2h2z" />
    <glyph glyph-name="u0175" unicode="&#x175;" horiz-adv-x="1418" 
d="M1318 794q0 -231 -84 -477q-111 -322 -292 -322q-173 0 -284 212q-76 -225 -243 -225q-214 0 -310 292q-67 203 -67 468q0 162 13 274q34 57 95 57q54 0 105 -34.5t51 -78.5q0 -22 -16.5 -98.5t-16.5 -98.5q0 -563 120 -563q129 0 164 312q13 103 13 412q0 97 112 97
q126 0 126 -140q0 -10 -4 -36.5t-4 -32.5v-290q0 -322 118 -322q101 0 151 235q38 161 38 320q0 133 -12 156l-29 31q-15 20 -15 38q0 45 41 83t87 38q68 0 110 -123q33 -92 33 -184zM1050 1288q0 -82 -103 -82q-63 0 -138 61v-2q-72 58 -97 66l-26 10l-5 3q-6 0 -3 -3
l-66 -35q-137 -100 -195 -100q-110 0 -110 74q0 50 161 179q153 123 213 123q77 0 348 -233q21 -37 21 -61zM684 1339l2 2l-5 3l-3 -3q4 0 6 -2zM686 1339h-2h2z" />
    <glyph glyph-name="u0176" unicode="&#x176;" horiz-adv-x="1369" 
d="M1311 1590q-28 -52 -100 -131q-65 -76 -95 -123q-25 -47 -307 -791q-241 -637 -320 -637q-72 0 -120 38q-59 43 -59 108q0 41 46 102q50 66 102 218l82 235q-152 122 -271 377q-205 436 -205 609q0 148 133 148q154 0 154 -176q0 -11 -6.5 -54.5t-6.5 -58.5
q0 -108 100 -338q105 -244 189 -279q37 52 146 295q118 262 192 389q115 192 192 192q57 0 102 -35t52 -88zM1019 1969q0 -82 -103 -82q-63 0 -138 61v-2q-72 58 -97 66l-26 10l-5 3q-5 0 -2 -3l-67 -35q-137 -100 -194 -100q-111 0 -111 74q0 49 162 179q153 123 212 123
q77 0 348 -233q21 -37 21 -61zM653 2020l2 2l-5 3l-2 -3q3 0 5 -2zM655 2020h-2h2z" />
    <glyph glyph-name="u0177" unicode="&#x177;" horiz-adv-x="1047" 
d="M963 983q-36 -204 -44 -253q-26 -144 -26 -254v-696q0 -188 -107.5 -288.5t-299.5 -100.5q-126 0 -271 64q-177 74 -177 179q0 36 28.5 60t66.5 24q21 0 110 -69q88 -69 200 -69q142 0 192 105q36 77 36 231q0 71 -3 97q-84 -57 -189 -57q-193 0 -297 139
q-95 125 -95 320q0 43 26 645q73 33 123 33q51 0 151 -61q-62 -154 -62 -615q0 -294 149 -294q112 0 169 184q43 138 43 277v312l-8 84q109 52 157 52q55 0 128 -49zM904 1288q0 -82 -103 -82q-63 0 -138 61v-2q-72 58 -97 66l-26 10l-5 3q-6 0 -3 -3l-66 -35
q-137 -100 -195 -100q-110 0 -110 74q0 49 162 179q153 123 212 123q77 0 348 -233q21 -37 21 -61zM538 1339l2 2l-5 3l-3 -3q4 0 6 -2zM540 1339h-2h2z" />
    <glyph glyph-name="Ydieresis" unicode="&#x178;" horiz-adv-x="1436" 
d="M1311 1600q-28 -52 -100 -131q-65 -76 -95 -128q-177 -309 -325 -681q-194 -488 -174 -704q-82 -58 -141 -58q-79 0 -128 61q-25 36 -61 136l69 61q9 7 18.5 22.5t24 50t23.5 58.5t31 84l87 243q-153 126 -271 379q-205 440 -205 612q0 151 133 151q77 0 123 -69
q41 -56 41 -138q0 -10 -11.5 -42.5t-11.5 -42.5q0 -107 100 -340q107 -247 189 -282q38 54 146 297q118 262 192 389q110 195 192 195q59 0 103 -34.5t51 -88.5zM602 1915q0 -43 -39.5 -74t-88.5 -31t-88.5 31t-39.5 74q0 45 39 76t89 31t89 -31t39 -76zM986 1915
q0 -43 -39.5 -74t-88.5 -31t-88.5 31t-39.5 74q0 45 39 76t89 31t89 -31t39 -76z" />
    <glyph glyph-name="Zacute" unicode="&#x179;" horiz-adv-x="1623" 
d="M1526 1549q0 -77 -79 -187t-236 -241l-584 -486q-155 -130 -235 -233.5t-80 -168.5q0 -51 118 -51q108 0 348 28q243 28 351 28q87 0 169 -41q100 -49 115 -123q-42 -74 -110 -74q-11 0 -54.5 13t-58.5 13h-15l-353 -31q-236 -21 -356 -21q-192 0 -277 36
q-125 57 -125 228q0 100 79 225.5t238 255.5l594 482q318 257 318 391q0 54 -95 54q-171 0 -374 -56q-228 -60 -350 -136l-134 -82q-103 -61 -130 -61q-115 0 -115 169q0 45 33 71q31 20 74 39q577 269 973 269q133 0 223 -70q50 -40 89 -111t39 -129zM1052 2243l-5 -26
q-29 -60 -67 -74q-18 -8 -174 -100q-139 -82 -189 -82q-37 0 -58 21t-21 61v31q56 67 163 174q134 125 203 125q45 0 91.5 -41.5t56.5 -88.5z" />
    <glyph glyph-name="zacute" unicode="&#x17a;" horiz-adv-x="983" 
d="M901 950q0 -57 -20 -92q-11 -21 -54 -64l-300 -302q-204 -207 -243 -320q15 -3 44 -3q54 0 176 20q128 21 177 21q164 0 220 -133l-43 -54h-70q-100 0 -266 -26q-172 -30 -258 -30q-85 0 -149 41q-77 47 -77 125q0 94 118 251q101 126 243 274q152 156 205 228l-13 2
q-133 0 -256 -79q-127 -77 -133 -77q-47 0 -81 37t-34 86q0 85 264 166q215 64 345 64q205 0 205 -135zM727 1472l-5 -26q-29 -60 -67 -74q-18 -8 -174 -100q-139 -82 -189 -82q-37 0 -58.5 21t-21.5 61v31q51 61 164 174q135 126 203 126q45 0 91.5 -42t56.5 -89z" />
    <glyph glyph-name="Zdotabove" unicode="&#x17b;" horiz-adv-x="1623" 
d="M1526 1549q0 -77 -79 -187t-236 -241l-584 -486q-155 -130 -235 -233.5t-80 -168.5q0 -51 118 -51q108 0 348 28q243 28 351 28q87 0 169 -41q100 -49 115 -123q-42 -74 -110 -74q-11 0 -54.5 13t-58.5 13h-15l-353 -31q-236 -21 -356 -21q-192 0 -277 36
q-125 57 -125 228q0 100 79 225.5t238 255.5l594 482q318 257 318 391q0 54 -95 54q-171 0 -374 -56q-228 -60 -350 -136l-134 -82q-103 -61 -130 -61q-115 0 -115 169q0 45 33 71q31 20 74 39q577 269 973 269q133 0 223 -70q50 -40 89 -111t39 -129zM1011 2140
q0 -46 -47.5 -75t-105.5 -29q-57 0 -100 25q-54 30 -54 79q0 52 54 82q45 26 100 26q59 0 106 -29.5t47 -78.5z" />
    <glyph glyph-name="zdotabove" unicode="&#x17c;" horiz-adv-x="983" 
d="M901 950q0 -57 -20 -92q-11 -21 -54 -64l-300 -302q-204 -207 -243 -320q15 -3 44 -3q54 0 176 20q128 21 177 21q164 0 220 -133l-43 -54h-70q-100 0 -266 -26q-172 -30 -258 -30q-85 0 -149 41q-77 47 -77 125q0 94 118 251q101 126 243 274q152 156 205 228l-13 2
q-133 0 -256 -79q-127 -77 -133 -77q-47 0 -81 37t-34 86q0 85 264 166q215 64 345 64q205 0 205 -135zM676 1344q0 -46 -48 -75.5t-106 -29.5q-55 0 -100 26q-53 29 -53 79q0 53 53 82q45 26 100 26q59 0 106.5 -29.5t47.5 -78.5z" />
    <glyph glyph-name="Zcaron" unicode="&#x17d;" horiz-adv-x="1623" 
d="M1526 1549q0 -77 -79 -187t-236 -241l-584 -486q-155 -130 -235 -233.5t-80 -168.5q0 -51 118 -51q108 0 348 28q243 28 351 28q87 0 169 -41q100 -49 115 -123q-42 -74 -110 -74q-11 0 -54.5 13t-58.5 13h-15l-353 -31q-236 -21 -356 -21q-192 0 -277 36
q-125 57 -125 228q0 100 79 225.5t238 255.5l594 482q318 257 318 391q0 54 -95 54q-171 0 -374 -56q-228 -60 -350 -136l-134 -82q-103 -61 -130 -61q-115 0 -115 169q0 45 33 71q31 20 74 39q577 269 973 269q133 0 223 -70q50 -40 89 -111t39 -129zM1165 2263
q0 -57 -161 -182q-159 -120 -213 -120q-73 0 -351 233q-18 25 -18 61q0 82 103 82q63 0 138 -61v2q76 -57 97 -66h-7l28 -10h2l8 -3q32 14 69 38q137 100 195 100q110 0 110 -74z" />
    <glyph glyph-name="zcaron" unicode="&#x17e;" horiz-adv-x="983" 
d="M901 950q0 -57 -20 -92q-11 -21 -54 -64l-300 -302q-204 -207 -243 -320q15 -3 44 -3q54 0 176 20q128 21 177 21q164 0 220 -133l-43 -54h-70q-100 0 -266 -26q-172 -30 -258 -30q-85 0 -149 41q-77 47 -77 125q0 94 118 251q101 126 243 274q152 156 205 228l-13 2
q-133 0 -256 -79q-127 -77 -133 -77q-47 0 -81 37t-34 86q0 85 264 166q215 64 345 64q205 0 205 -135zM840 1492q0 -55 -162 -181q-161 -121 -212 -121q-73 0 -351 233q-18 25 -18 62q0 82 103 82q62 0 138 -62v3q79 -59 97 -67h-7l28 -10h2l8 -3q27 12 69 39
q137 100 195 100q110 0 110 -75z" />
    <glyph glyph-name="Schwa" unicode="&#x18f;" horiz-adv-x="1479" 
d="M742 172q83 0 151 42t114 115t74.5 165.5t39.5 199.5q0 56 -63 100.5t-156 66.5t-193 22q-89 0 -152.5 -12t-104 -33t-64 -56.5t-32 -77t-8.5 -100.5q0 -203 96 -317.5t298 -114.5zM1390 883q0 -21 -14.5 -53.5t-16.5 -64.5q-11 -384 -261 -634q-94 -91 -183.5 -144.5
t-187.5 -53.5q-123 0 -223 35.5t-167.5 96.5t-113.5 145t-66.5 178t-20.5 198q0 78 17.5 149.5t58 138t100.5 115.5t151.5 78t204.5 29q193 0 410 -141q3 -3 10 -3q23 0 23 46q-33 250 -154 394t-304 144q-189 0 -297 -123q-19 -21 -35 -56.5t-25.5 -61t-35 -45t-65.5 -19.5
q-95 0 -95 105q0 50 24.5 106.5t73.5 111.5t114 100t155 72.5t188 27.5q138 0 255.5 -54t204.5 -151.5t145.5 -231.5t83.5 -296q4 -29 25 -62t21 -76z" />
    <glyph glyph-name="florin" unicode="&#x192;" horiz-adv-x="1128" 
d="M978 768q0 -68 -16 -86.5t-69 -18.5q-38 0 -102 9.5t-133 13.5q-6 -77 -11.5 -133.5t-15.5 -139.5t-21 -145.5t-28 -138t-36.5 -130t-47.5 -109.5t-59.5 -89t-73.5 -55.5t-89 -21.5q-114 0 -168 59t-54 156t79 97q11 0 20.5 -17.5t17.5 -39t30.5 -39t57.5 -17.5
q120 0 189 745q-107 -28 -138 -28q-32 0 -54 16t-32.5 41.5t-14.5 48.5t-4 45q0 28 89 53t172 32q18 195 45 336t59 227t76 136.5t88 68t103 17.5q78 0 148 -56.5t70 -142.5q0 -98 -80 -98q-8 0 -16.5 15.5t-17.5 33.5t-31.5 33.5t-54.5 15.5q-70 0 -106.5 -133t-70.5 -446
q64 0 106.5 -2t82.5 -9t62.5 -19.5t35.5 -33.5t13 -51z" />
    <glyph glyph-name="u01A0" unicode="&#x1a0;" horiz-adv-x="1640" 
d="M1231 891q0 533 -343 637q-25 11 -82 11q-141 0 -286 -128q-228 -208 -228 -740q0 -112 48 -238.5t103 -181.5q100 -103 292 -103q228 0 362 204t134 539zM1531 1751q37 0 68.5 -64t31.5 -128q0 -82 -48.5 -146.5t-123.5 -81.5q-32 -7 -44 -13.5t-12 -22.5
q0 -17 18.5 -69.5t37 -146.5t18.5 -211q0 -258 -91 -465.5t-260 -328t-386 -120.5q-184 0 -342.5 92t-238.5 230q-95 163 -95 466q0 378 182 669q210 340 568 340q197 0 402 -174q37 -31 97 -59t90 -28q41 0 80.5 29t39.5 66q0 14 -23 51t-23 51q0 64 54 64z" />
    <glyph glyph-name="u01A1" unicode="&#x1a1;" horiz-adv-x="1200" 
d="M740 509q0 392 -190 392q-114 0 -185 -130t-71 -320q0 -341 203 -341q114 0 178.5 109.5t64.5 289.5zM1088 1175q37 0 68.5 -64t31.5 -128q0 -95 -62 -164t-153 -69q-46 0 -46 -33q0 -17 19 -83.5t19 -129.5q0 -166 -59.5 -298.5t-166.5 -207.5t-242 -75
q-214 0 -330 136.5t-116 385.5q0 233 115 436q136 243 346 243q78 0 166 -59q6 -4 52 -37t63.5 -44t53.5 -32.5t62.5 -29.5t50.5 -8q41 0 80.5 29t39.5 66q0 14 -23 51t-23 51q0 64 54 64z" />
    <glyph glyph-name="OI" unicode="&#x1a2;" horiz-adv-x="2073" 
d="M1175 891q0 140 -13 241t-45 184t-88.5 135t-140.5 77q-25 11 -82 11q-141 0 -286 -128q-228 -208 -228 -740q0 -112 48 -238.5t103 -181.5q100 -103 292 -103q150 0 250 95t145 258t45 390zM1421 868q0 -195 -44.5 -361t-129 -289.5t-215 -193.5t-292.5 -70
q-184 0 -342.5 92t-238.5 230q-95 163 -95 466q0 378 182 669q210 340 568 340q275 0 435 -241q45 -38 81 -53.5t81 -15.5q127 0 184 77v31q0 57 62 111.5t120 54.5q48 0 100.5 -38.5t52.5 -81.5q0 -10 -4.5 -17.5t-10.5 -16t-14 -44.5t-14 -94q-29 -247 -41.5 -726.5
t-12.5 -819.5q0 -110 16.5 -169.5t78.5 -173.5q2 -2 2 -15q0 -54 -125 -54h-23q-132 0 -159 210q-14 116 -25 547t-11 692q0 23 2.5 173.5t2.5 241.5q-45 -41 -133 -41q-73 0 -110 20q72 -195 72 -440z" />
    <glyph glyph-name="oi" unicode="&#x1a3;" horiz-adv-x="1487" 
d="M727 509q0 207 -35 299.5t-126 92.5q-114 0 -185 -130t-71 -320q0 -341 202 -341q111 0 163 106t52 293zM952 504q0 -255 -120 -418t-320 -163q-214 0 -329.5 136.5t-115.5 385.5q0 164 60 320t167.5 257.5t232.5 101.5q68 0 167 -59q28 -17 56.5 -44t51 -51.5t46 -47
t51.5 -36t58 -13.5q54 0 85 20t59 75q-10 38 -10 107q81 57 133 57q58 0 108 -39t50 -92q0 -22 -18 -85l-15 -48q-33 -151 -33 -451v-476q0 -288 54 -450q12 -34 12 -57q0 -45 -36.5 -77.5t-85.5 -32.5q-162 0 -162 423q0 82 4 495t4 562q-14 -39 -33.5 -55.5t-58.5 -16.5
q-53 0 -92 33q30 -115 30 -261z" />
    <glyph glyph-name="u01AF" unicode="&#x1af;" horiz-adv-x="1556" 
d="M1434 1751q37 0 68 -64t31 -128q0 -95 -62 -164t-153 -69q-47 0 -87.5 14t-50.5 14q-28 0 -28 -25v-389q0 -238 -67 -502t-153 -356q-134 -141 -328 -141q-183 0 -316 115t-186 310q-38 139 -38 384q0 66 15.5 355t15.5 354q0 14 -15.5 60.5t-15.5 60.5q0 53 82.5 95.5
t176.5 42.5q87 0 87 -54q0 -15 -26 -82t-26 -84q0 -57 -25.5 -312t-25.5 -310v-318q0 -169 71.5 -285.5t187.5 -116.5q256 0 340 471q39 219 39 684q0 157 -52 274q-15 30 -15 48q0 47 35.5 90t79.5 43q51 0 105 -36.5t54 -80.5q0 -35 13 -63.5t31.5 -45.5t41 -29t40 -16.5
t28.5 -4.5q41 0 80.5 29t39.5 66q0 14 -23 51t-23 51q0 64 54 64z" />
    <glyph glyph-name="u01B0" unicode="&#x1b0;" horiz-adv-x="1190" 
d="M1073 1175q37 0 68 -64t31 -128q0 -95 -62 -164t-153 -69q-15 0 -45 4t-39 4q-14 0 -20 -7t-8 -27q-23 -260 -23 -291q0 -40 6.5 -213.5t6.5 -211.5q0 -59 -100 -59q-104 0 -131 100q-93 -64 -189 -64q-75 0 -171 41t-131 94q-75 113 -75 346q0 24 5.5 225t5.5 284v62
q72 56 128 56q123 0 123 -120q0 -23 -12 -123t-12 -123v-361q0 -73 39.5 -139t91.5 -66q91 0 145.5 101t54.5 276v307q0 55 -31 146q68 59 123 59q36 0 65 -14t48 -34t37 -40t42 -34t54 -14q41 0 80.5 29t39.5 66q0 14 -23 51t-23 51q0 64 54 64z" />
    <glyph glyph-name="Zstroke" unicode="&#x1b5;" horiz-adv-x="1597" 
d="M1480 852q0 -66 -24.5 -84t-108.5 -18q-20 0 -39 7t-47.5 15t-148 15t-316.5 7q-138 -116 -222 -191.5t-153.5 -148t-99 -125t-29.5 -96.5q0 -51 118 -51q66 0 349 28t349 28q95 0 182.5 -49t102.5 -115q-42 -74 -110 -74q-10 0 -54 14t-59 12l-369 -31
q-236 -21 -356 -21q-159 0 -245.5 26t-121 81.5t-34.5 156.5q0 204 317 481l61 54q-44 -7 -88.5 -17t-70.5 -15.5t-45 -5.5q-48 0 -106 39t-58 78q0 50 7.5 72.5t30.5 22.5q350 0 558 10q133 105 217 174t169.5 144.5t131.5 127t75 101t29 88.5q0 54 -94 54q-174 0 -402 -68
t-456 -206q-109 -65 -131 -61q-115 0 -115 169q0 38 17 56t91 54q577 269 973 269q138 0 222 -70q50 -44 89 -113t39 -127q5 -158 -315 -428l-176 -148q69 7 169 7q109 0 203 -37.5t94 -90.5z" />
    <glyph glyph-name="zstroke" unicode="&#x1b6;" horiz-adv-x="1052" 
d="M998 517q0 -60 -16.5 -76t-72.5 -16q-15 0 -26.5 5t-30 11t-98.5 12.5t-214 9.5q-188 -208 -215 -291q18 -3 44 -3q32 0 176.5 20.5t176.5 20.5q164 0 220 -133l-43 -54h-70q-43 0 -261 -28t-263 -28q-91 0 -158.5 46t-67.5 120q0 99 118 251l39 49q-78 -23 -90 -23
q-32 0 -71 36t-39 71q0 45 4.5 66t18.5 21q172 0 335 8q182 182 251 274q-142 0 -269 -77t-133 -77q-47 0 -81 37t-34 86q0 85 264 166q208 64 345 64q205 0 205 -135q0 -54 -13 -81t-61 -75l-164 -167q68 5 92 5q74 0 138 -34.5t64 -80.5z" />
    <glyph glyph-name="clickdental" unicode="&#x1c0;" horiz-adv-x="437" 
d="M356 69q0 -45 -37 -77.5t-86 -32.5q-161 0 -161 422q0 405 2 576q5 427 5 576q0 21 -7.5 89.5t-7.5 87.5q83 56 133 56q58 0 108.5 -38.5t50.5 -91.5q0 -25 -13 -67l-10 -34t-7 -24t-3 -8q-34 -155 -34 -451v-476q0 -305 54 -451q13 -37 13 -56z" />
    <glyph glyph-name="clicklateral" unicode="&#x1c1;" horiz-adv-x="875" 
d="M356 69q0 -45 -37 -77.5t-86 -32.5q-161 0 -161 422q0 405 2 576q5 427 5 576q0 21 -7.5 89.5t-7.5 87.5q83 56 133 56q58 0 108.5 -38.5t50.5 -91.5q0 -25 -13 -67l-10 -34t-7 -24t-3 -8q-34 -155 -34 -451v-476q0 -305 54 -451q13 -37 13 -56zM794 69q0 -45 -37 -77.5
t-86 -32.5q-162 0 -162 422q0 320 3 576q5 427 5 576q0 21 -7.5 89.5t-7.5 87.5q83 56 133 56q58 0 108.5 -38.5t50.5 -91.5q0 -25 -13 -67l-21 -66q-33 -151 -33 -451v-476q0 -305 54 -451q13 -37 13 -56z" />
    <glyph glyph-name="clickretroflex" unicode="&#x1c3;" horiz-adv-x="688" 
d="M520 166q0 -194 -223 -194q-44 0 -156 48q-31 59 -31 108q0 148 182 148q72 0 136 -25q92 -35 92 -85zM594 1623q0 -17 -13 -38l-23 -36q-61 -157 -87 -371q-9 -64 -38 -384q0 -8 -6.5 -50.5t-6.5 -57.5q0 -62 28 -177q-17 -22 -51 -56q-29 -8 -62 -8q-54 0 -94 26
q-39 73 -39 184q0 120 46 349q49 232 49 350q0 28 -18 138q-15 74 -15 141q0 22 5 44q66 54 156 54q55 0 107 -26q62 -35 62 -82z" />
    <glyph glyph-name="DZcaron" unicode="&#x1c4;" horiz-adv-x="3046" 
d="M1044 1073q0 522 -307 522q-123 0 -248 -128q-103 -108 -145 -237.5t-42 -297.5v-551q0 -240 202 -240q181 0 331 187q122 157 169 361q40 171 40 384zM1298 1062q0 -402 -184 -724q-219 -384 -592 -384q-134 0 -230 54q-53 -49 -105 -49q-32 0 -72 33q-51 147 -51 382
q0 272 10 614q13 445 13 615q0 4 -2.5 18.5t-2.5 19.5q0 45 33 73.5t80 28.5q66 0 115 -47t36 -106q131 192 371 192q294 0 448 -220q133 -189 133 -500zM2949 1549q0 -77 -79 -187t-236 -241l-583 -486q-155 -130 -235 -233.5t-80 -168.5q0 -51 117 -51q109 0 349 28
q243 28 350 28q87 0 169 -41q100 -49 115 -123q-42 -74 -110 -74q-11 0 -54 13t-58 13h-16l-353 -31q-236 -21 -356 -21q-191 0 -276 36q-126 57 -126 228q0 100 79 225.5t239 255.5l594 482q317 257 317 391q0 54 -95 54q-170 0 -373 -56q-230 -61 -351 -136l-133 -82
q-103 -61 -131 -61q-115 0 -115 169q0 45 33 71q29 18 75 39q577 269 972 269q133 0 223 -70q50 -40 89 -111t39 -129zM2568 2245q0 -40 -154 -164q-155 -120 -200 -120q-53 0 -335 233q-10 16 -10 41q0 46 59 46q45 0 117 -56q84 -63 116 -77q4 -1 53 -18q39 12 108 51
q134 100 179 100q67 0 67 -36z" />
    <glyph glyph-name="Dzcaron" unicode="&#x1c5;" horiz-adv-x="2406" 
d="M1044 1073q0 522 -307 522q-123 0 -248 -128q-103 -108 -145 -237.5t-42 -297.5v-551q0 -240 202 -240q181 0 331 187q122 157 169 361q40 171 40 384zM1298 1062q0 -402 -184 -724q-219 -384 -592 -384q-134 0 -230 54q-53 -49 -105 -49q-32 0 -72 33q-51 147 -51 382
q0 272 10 614q13 445 13 615q0 4 -2.5 18.5t-2.5 19.5q0 45 33 73.5t80 28.5q66 0 115 -47t36 -106q131 192 371 192q294 0 448 -220q133 -189 133 -500zM2324 950q0 -57 -20 -92q-11 -21 -54 -64l-299 -302q-204 -207 -243 -320q15 -3 43 -3q55 0 177 20q128 21 176 21
q164 0 220 -133l-43 -54h-69q-100 0 -266 -26q-172 -30 -259 -30q-84 0 -148 41q-77 47 -77 125q0 94 118 251q101 126 243 274q152 156 205 228l-13 2q-133 0 -256 -79q-127 -77 -133 -77q-47 0 -81.5 37t-34.5 86q0 85 264 166q215 64 346 64q204 0 204 -135zM2243 1475
q0 -40 -154 -164q-156 -121 -200 -121q-53 0 -335 233q-10 16 -10 41q0 46 59 46q45 0 117 -56q84 -63 116 -77q4 -1 53 -18q35 11 108 52q133 99 179 99q67 0 67 -35z" />
    <glyph glyph-name="dzcaron" unicode="&#x1c6;" horiz-adv-x="2017" 
d="M655 689q0 86 -38 158q-49 87 -128 87q-115 0 -177 -227q-46 -163 -46 -323q0 -238 138 -238q142 0 208 212q43 146 43 331zM952 1556q0 -56 -15 -145q-13 -79 -26 -144q-3 -36 -25 -468q-16 -414 -16 -430q0 -246 54 -369q-41 -72 -100 -72t-104.5 44.5t-51.5 104.5
q-117 -110 -246 -110q-186 0 -289 130q-95 117 -95 310q0 220 93 458q118 295 307 295q112 0 230 -100q13 128 13 614q0 46 69 46q87 0 144.5 -42.5t57.5 -121.5zM1935 950q0 -57 -20 -92q-11 -21 -54 -64l-299 -302q-206 -209 -244 -320q15 -3 44 -3q55 0 177 20
q128 21 176 21q164 0 220 -133l-43 -54h-69q-101 0 -267 -26q-173 -30 -258 -30t-149 41q-76 46 -76 125q0 95 117 251q96 120 244 274q148 152 204 228l-12 2q-133 0 -256 -79q-127 -77 -134 -77q-47 0 -81 37t-34 86q0 85 264 166q215 64 346 64q204 0 204 -135z
M1853 1475q0 -41 -153 -164q-156 -121 -200 -121q-53 0 -335 233q-10 16 -10 41q0 46 58 46q46 0 118 -56q86 -64 115 -77q7 -2 54 -18q35 11 108 52q133 99 179 99q66 0 66 -35z" />
    <glyph glyph-name="LJ" unicode="&#x1c7;" horiz-adv-x="2575" 
d="M1060 67q-275 -100 -584 -100q-242 0 -338 169q-74 131 -74 389q0 146 23 448q26 285 26 448q0 21 -5 89q-6 82 -6 93q0 17 6 69q49 61 125 61q71 0 110 -92q31 -76 31 -154q0 -180 -34 -517q-33 -327 -33 -514q0 -302 172 -302q73 0 220 51q143 54 220 54q72 0 110 -64
q31 -51 31 -128zM2452 1585q0 -90 -102 -90q-16 0 -65 5t-65 5q-34 0 -34 -25q0 -61 3 -110q5 -82 5 -113q0 -1288 -486 -1288q-193 0 -356 205q-151 193 -151 392q0 67 30 148q39 100 93 100q87 0 128 -79q38 -64 38 -154q0 -20 -2.5 -84t-2.5 -80q0 -71 66 -148
q69 -77 141 -77q261 0 261 699q0 113 -20 522q-29 -7 -161 -74q-119 -62 -144 -62q-50 0 -84 42.5t-34 96.5q0 89 177 143l253 77q27 97 116 97q22 0 97 -43q10 1 60 12t68 11q63 0 117 -37.5t54 -90.5z" />
    <glyph glyph-name="Lj" unicode="&#x1c8;" horiz-adv-x="1728" 
d="M1060 67q-275 -100 -584 -100q-242 0 -338 169q-74 131 -74 389q0 146 23 448q26 285 26 448q0 21 -5 89q-6 82 -6 93q0 17 6 69q49 61 125 61q71 0 110 -92q31 -76 31 -154q0 -180 -34 -517q-33 -327 -33 -514q0 -302 172 -302q73 0 220 51q143 54 220 54q72 0 110 -64
q31 -51 31 -128zM1656 983q-56 -155 -56 -241q0 -139 8 -496q7 -308 7 -497q0 -186 -97 -322q-109 -151 -287 -151q-95 0 -276 89q-200 96 -200 174q0 92 105 92q29 0 59 -12q110 -128 259 -128q215 0 215 391q0 95 -18 1091l41 48q90 23 120 23q59 0 120 -61zM1664 1219
q0 -54 -47 -92.5t-104 -38.5q-29 0 -85 46q-36 30 -71 69q-5 30 -5 54q0 123 128 123q73 0 128.5 -46.5t55.5 -114.5z" />
    <glyph glyph-name="lj" unicode="&#x1c9;" horiz-adv-x="965" 
d="M343 69q0 -45 -37 -77.5t-86 -32.5q-161 0 -161 422q0 405 2 576q6 512 6 576q0 21 -8 89.5t-8 87.5q83 56 133 56q58 0 108.5 -38.5t50.5 -91.5q0 -25 -13 -67l-10 -34t-7 -24t-3 -8q-34 -155 -34 -451v-476q0 -305 54 -451q13 -37 13 -56zM893 983q-56 -155 -56 -241
q0 -139 8 -496q7 -308 7 -497q0 -186 -97 -322q-109 -151 -287 -151q-95 0 -276 89q-200 96 -200 174q0 92 105 92q29 0 59 -12q110 -128 259 -128q215 0 215 391q0 95 -18 1091l41 48q90 23 120 23q59 0 120 -61zM901 1219q0 -54 -47 -92.5t-104 -38.5q-28 0 -84 46
q-40 34 -72 69q-5 30 -5 54q0 123 128 123q73 0 128.5 -46.5t55.5 -114.5z" />
    <glyph glyph-name="NJ" unicode="&#x1ca;" horiz-adv-x="2821" 
d="M1295 1677q0 -22 -23 -72l-33 -69q-74 -236 -74 -381l-8 -735q0 -109 -51 -231q-65 -148 -159 -148q-140 0 -279 235q-101 174 -202 482q-21 67 -60 200t-60 199q-54 -433 -54 -584q0 -328 38 -376q41 -48 41 -72q0 -47 -49.5 -84.5t-103.5 -37.5q-71 0 -118 151
q-36 124 -36 215q0 72 3 128q2 39 2 130q0 114 26 313q25 192 25 312v312q0 4 -3.5 15.5t-3.5 15.5q0 49 69 84q61 29 112 29q129 0 187 -85q16 -29 28 -118l16 -125q18 -140 161 -584q158 -473 233 -473q28 0 28 71q0 13 -6.5 67t-6.5 71l26 694q7 157 54 307
q66 213 179 213q35 0 100 -46q2 -5 2 -23zM2698 1585q0 -90 -102 -90q-16 0 -66 5t-65 5q-33 0 -33 -25q0 -61 3 -110q5 -82 5 -113q0 -1288 -487 -1288q-193 0 -356 205q-151 193 -151 392q0 64 31 148q39 100 92 100q87 0 128 -79q39 -66 39 -154q0 -20 -2.5 -84t-2.5 -80
q0 -71 66 -148q69 -77 141 -77q261 0 261 699q0 113 -20 522q-31 -8 -162 -74q-119 -62 -143 -62q-50 0 -84 42.5t-34 96.5q0 89 177 143l253 77q27 97 115 97q23 0 98 -43q10 1 60 12t68 11q63 0 117 -37.5t54 -90.5z" />
    <glyph glyph-name="Nj" unicode="&#x1cb;" horiz-adv-x="1973" 
d="M1295 1677q0 -22 -23 -72l-33 -69q-74 -236 -74 -381l-8 -735q0 -109 -51 -231q-65 -148 -159 -148q-140 0 -279 235q-101 174 -202 482q-21 67 -60 200t-60 199q-54 -433 -54 -584q0 -328 38 -376q41 -48 41 -72q0 -47 -49.5 -84.5t-103.5 -37.5q-71 0 -118 151
q-36 124 -36 215q0 72 3 128q2 39 2 130q0 114 26 313q25 192 25 312v312q0 4 -3.5 15.5t-3.5 15.5q0 49 69 84q61 29 112 29q129 0 187 -85q16 -29 28 -118l16 -125q18 -140 161 -584q158 -473 233 -473q28 0 28 71q0 13 -6.5 67t-6.5 71l26 694q7 157 54 307
q66 213 179 213q35 0 100 -46q2 -5 2 -23zM1902 983q-56 -155 -56 -241q0 -184 7 -496q8 -352 8 -497q0 -186 -97 -322q-109 -151 -287 -151q-95 0 -276 89q-200 96 -200 174q0 92 105 92q29 0 59 -12q110 -128 258 -128q215 0 215 391q0 95 -18 1091l41 48q90 23 121 23
q59 0 120 -61zM1910 1219q0 -54 -47 -92.5t-104 -38.5q-29 0 -85 46q-36 30 -71 69q-6 36 -6 54q0 123 128 123q73 0 129 -47t56 -114z" />
    <glyph glyph-name="nj" unicode="&#x1cc;" horiz-adv-x="1643" 
d="M978 389v-371q-40 -59 -95 -59q-39 0 -143 51v31q0 117 2 166q6 148 6 162q0 547 -164 547q-50 0 -105 -71q-182 -221 -182 -530q0 -63 15 -131q18 -101 18 -128q0 -35 -32.5 -58.5t-72.5 -23.5q-153 0 -153 195v535q0 14 5 60t5 60q0 21 -9 89.5t-9 87.5q0 39 46.5 77
t86.5 38q60 0 115 -64l-7 -102q97 151 233 151q88 0 189 -62q106 -65 146 -138q105 -191 105 -512zM1572 983q-56 -155 -56 -241q0 -184 7 -496q8 -352 8 -497q0 -186 -97 -322q-109 -151 -287 -151q-96 0 -277 89q-199 96 -199 174q0 92 105 92q29 0 59 -12
q110 -128 258 -128q215 0 215 391q0 95 -18 1091l41 48q90 23 121 23q59 0 120 -61zM1580 1219q0 -54 -47 -92.5t-105 -38.5q-28 0 -84 46q-40 34 -72 69q-5 30 -5 54q0 123 128 123q73 0 129 -47t56 -114z" />
    <glyph glyph-name="u01CD" unicode="&#x1cd;" 
d="M1057 550q-111 894 -202 894q-73 0 -251 -420q-122 -283 -202 -525q101 24 243 44q128 20 412 7zM1416 453q0 -121 -110 -125q11 -50 56 -159q-2 -55 -45.5 -91.5t-103.5 -36.5q-43 0 -107 28q-33 63 -33 159q0 16 2.5 66t2.5 64q0 -18 -85 -18q-143 0 -340 -12
q-278 -15 -307 -44q-24 -28 -31 -274q-33 -48 -85 -48t-110 43q-56 46 -56 97q0 6 5.5 22t17.5 51t23 71q4 11 60 206t106 339q162 464 309 702t262 238q224 0 343 -497q53 -217 100 -684q70 -16 85 -25q41 -22 41 -72zM1206 2117q0 -40 -154 -164q-155 -120 -199 -120
q-54 0 -336 233q-10 16 -10 41q0 46 59 46q45 0 118 -57q83 -62 115 -76q7 -2 54 -18q37 11 107 51q134 100 179 100q67 0 67 -36z" />
    <glyph glyph-name="u01CE" unicode="&#x1ce;" horiz-adv-x="1095" 
d="M724 343q0 51 -76 51q-320 0 -320 -151q0 -82 140 -82q83 0 164 49q92 57 92 133zM983 435q0 -328 -20 -466q-12 -79 -108 -79q-143 0 -128 143q-125 -61 -266 -61q-135 0 -254 66q-143 81 -143 203t164 225q148 95 279 95h217v61q0 269 -158 269q-202 0 -202 -190
q0 -64 -72 -64q-45 0 -91.5 40t-46.5 83q0 146 102 236q104 92 246 92q481 0 481 -653zM909 1477q0 -40 -154 -164q-155 -120 -199 -120q-54 0 -336 233q-10 16 -10 41q0 46 59 46q46 0 118 -56q86 -64 115 -77q7 -2 54 -18q37 11 107 51q134 100 179 100q67 0 67 -36z" />
    <glyph glyph-name="u01CF" unicode="&#x1cf;" horiz-adv-x="519" 
d="M433 1595q0 -13 -23 -56q-14 -22 -21 -116q-54 -541 -54 -1006q0 -107 21 -181q25 -73 74 -162q3 -3 3 -15q0 -54 -126 -54h-23q-132 0 -159 210q-35 257 -35 699q0 221 2 315q5 235 5 320q0 58 62 112q61 54 120 54q47 0 100 -38q54 -39 54 -82zM615 2104
q0 -40 -154 -164q-155 -120 -199 -120q-54 0 -336 233q-10 16 -10 41q0 46 59 46q45 0 118 -57q83 -62 115 -76q7 -2 54 -18q37 11 107 51q134 100 179 100q67 0 67 -36z" />
    <glyph glyph-name="u01D0" unicode="&#x1d0;" horiz-adv-x="501" 
d="M379 960q0 -38 -21 -128q-20 -83 -20 -125v-515q0 -44 28 -151q-38 -56 -84 -56q-177 0 -177 156v886q75 35 115 35q45 0 100 -33q59 -36 59 -69zM594 1452q0 -40 -154 -164q-156 -121 -199 -121q-54 0 -336 233q-10 16 -10 41q0 46 59 46q46 0 118 -56q86 -64 115 -77
q7 -2 54 -18q33 10 107 52q133 99 179 99q67 0 67 -35z" />
    <glyph glyph-name="u01D1" unicode="&#x1d1;" horiz-adv-x="1610" 
d="M1231 891q0 533 -343 637q-32 11 -82 11q-141 0 -286 -128q-228 -208 -228 -740q0 -45 20 -136q42 -195 131 -284q100 -103 292 -103q259 0 394 254q102 197 102 489zM1477 868q0 -364 -182 -625q-205 -289 -555 -289q-102 0 -215 38q-255 80 -366 284q-95 171 -95 466
q0 378 182 669q210 340 568 340q315 0 502 -294q161 -252 161 -589zM1121 2138q0 -41 -153 -164q-156 -121 -200 -121q-53 0 -335 233q-11 18 -11 41q0 46 59 46q46 0 118 -56q86 -64 115 -77q7 -2 54 -18q35 11 108 52q133 99 179 99q66 0 66 -35z" />
    <glyph glyph-name="u01D2" unicode="&#x1d2;" horiz-adv-x="1062" 
d="M740 509q0 392 -190 392q-135 0 -204 -166q-52 -132 -52 -284q0 -341 203 -341q129 0 194 141q49 107 49 258zM965 504q0 -230 -115 -394q-135 -187 -353 -187q-225 0 -341 154q-105 137 -105 368q0 233 115 436q136 243 346 243q62 0 166 -59q287 -172 287 -561z
M858 1513q0 -40 -154 -164q-155 -120 -199 -120q-54 0 -336 233q-10 16 -10 41q0 46 59 46q45 0 118 -57q83 -62 115 -76q7 -2 54 -18q37 11 107 51q134 100 179 100q67 0 67 -36z" />
    <glyph glyph-name="u01D3" unicode="&#x1d3;" horiz-adv-x="1285" 
d="M1152 1649v-709q0 -205 -51 -451q-62 -297 -169 -407q-134 -141 -328 -141q-172 0 -304 105q-145 121 -198 320q-38 139 -38 384q0 119 15 353q16 254 16 356q0 14 -15.5 60.5t-15.5 60.5q0 63 102 104q80 34 157 34q87 0 87 -54q0 -30 -26 -82t-26 -84q0 -118 -25 -310
q-26 -199 -26 -312v-318q0 -147 57 -258q70 -144 202 -144q256 0 340 471q39 219 39 684q0 165 -52 274q-15 30 -15 48q0 47 35.5 90t79.5 43q51 0 105 -36.5t54 -80.5zM957 2153q0 -41 -153 -164q-155 -120 -200 -120q-53 0 -335 233q-10 16 -10 41q0 46 58 46
q45 0 118 -57q83 -62 115 -76q7 -2 54 -18q39 12 108 51q134 100 179 100q66 0 66 -36z" />
    <glyph glyph-name="u01D4" unicode="&#x1d4;" horiz-adv-x="939" 
d="M860 914q0 -75 -20 -241q-18 -145 -18 -240q0 -57 5 -215q8 -152 8 -210q0 -59 -100 -59q-104 0 -131 100q-93 -64 -189 -64q-75 0 -169 38q-95 42 -133 97q-75 110 -75 346q0 124 6 287q6 253 5 284q75 56 128 56q123 0 123 -120q0 -35 -13 -123q-11 -74 -11 -123v-361
q0 -63 34 -128q42 -77 97 -77q111 0 164 141q36 100 36 236v307q0 55 -31 146q68 59 123 59q64 0 112.5 -39t48.5 -97zM799 1482q0 -40 -154 -164q-155 -120 -199 -120q-54 0 -336 233q-10 16 -10 41q0 46 59 46q45 0 118 -57q83 -62 115 -76q7 -2 54 -18q37 11 107 51
q134 100 179 100q67 0 67 -36z" />
    <glyph glyph-name="Udieresismacron" unicode="&#x1d5;" horiz-adv-x="1285" 
d="M1152 1649v-709q0 -205 -51 -451q-62 -297 -169 -407q-134 -141 -328 -141q-172 0 -304 105q-145 121 -198 320q-38 139 -38 384q0 119 15 353q16 254 16 356q0 14 -15.5 60.5t-15.5 60.5q0 63 102 104q80 34 157 34q87 0 87 -54q0 -30 -26 -82t-26 -84q0 -118 -25 -310
q-26 -199 -26 -312v-318q0 -147 57 -258q70 -144 202 -144q256 0 340 471q39 219 39 684q0 165 -52 274q-15 30 -15 48q0 47 35.5 90t79.5 43q51 0 105 -36.5t54 -80.5zM571 2010q0 -59 -41 -100t-100 -41q-62 0 -102.5 40.5t-40.5 100.5q0 56 41 97t102 41q58 0 99.5 -41.5
t41.5 -96.5zM927 2010q0 -59 -41 -100t-100 -41q-62 0 -102.5 40.5t-40.5 100.5q0 56 41 97t102 41q58 0 99.5 -41.5t41.5 -96.5zM883 2312q0 -62 -36 -62h-476q-41 0 -41 67q0 61 41 61h471q41 0 41 -66z" />
    <glyph glyph-name="udieresismacron" unicode="&#x1d6;" horiz-adv-x="939" 
d="M860 914q0 -75 -20 -241q-18 -145 -18 -240q0 -57 5 -215q8 -152 8 -210q0 -59 -100 -59q-104 0 -131 100q-93 -64 -189 -64q-75 0 -169 38q-95 42 -133 97q-75 110 -75 346q0 124 6 287q6 253 5 284q75 56 128 56q123 0 123 -120q0 -35 -13 -123q-11 -74 -11 -123v-361
q0 -63 34 -128q42 -77 97 -77q111 0 164 141q36 100 36 236v307q0 55 -31 146q68 59 123 59q64 0 112.5 -39t48.5 -97zM412 1339q0 -59 -41 -100t-100 -41q-62 0 -102.5 40.5t-40.5 100.5q0 56 41 97t102 41q58 0 99.5 -41.5t41.5 -96.5zM768 1339q0 -59 -41 -100t-100 -41
q-62 0 -102.5 40.5t-40.5 100.5q0 56 41 97t102 41q58 0 99.5 -41.5t41.5 -96.5zM724 1641q0 -61 -35 -61h-477q-40 0 -40 66q0 62 40 62h472q40 0 40 -67z" />
    <glyph glyph-name="Udieresisacute" unicode="&#x1d7;" horiz-adv-x="1285" 
d="M1152 1649v-709q0 -205 -51 -451q-62 -297 -169 -407q-134 -141 -328 -141q-172 0 -304 105q-145 121 -198 320q-38 139 -38 384q0 119 15 353q16 254 16 356q0 14 -15.5 60.5t-15.5 60.5q0 63 102 104q80 34 157 34q87 0 87 -54q0 -30 -26 -82t-26 -84q0 -118 -25 -310
q-26 -199 -26 -312v-318q0 -147 57 -258q70 -144 202 -144q256 0 340 471q39 219 39 684q0 165 -52 274q-15 30 -15 48q0 47 35.5 90t79.5 43q51 0 105 -36.5t54 -80.5zM571 2010q0 -59 -41 -100t-100 -41q-62 0 -102.5 40.5t-40.5 100.5q0 56 41 97t102 41q58 0 99.5 -41.5
t41.5 -96.5zM927 2010q0 -59 -41 -100t-100 -41q-62 0 -102.5 40.5t-40.5 100.5q0 56 41 97t102 41q58 0 99.5 -41.5t41.5 -96.5zM868 2511l-5 -25q-29 -60 -67 -74q-18 -8 -174 -100q-139 -82 -189 -82q-37 0 -58.5 21t-21.5 61v30q51 61 164 174q135 126 202 126
q45 0 92 -42t57 -89z" />
    <glyph glyph-name="udieresisacute" unicode="&#x1d8;" horiz-adv-x="939" 
d="M860 914q0 -75 -20 -241q-18 -145 -18 -240q0 -57 5 -215q8 -152 8 -210q0 -59 -100 -59q-104 0 -131 100q-93 -64 -189 -64q-75 0 -169 38q-95 42 -133 97q-75 110 -75 346q0 124 6 287q6 253 5 284q75 56 128 56q123 0 123 -120q0 -35 -13 -123q-11 -74 -11 -123v-361
q0 -63 34 -128q42 -77 97 -77q111 0 164 141q36 100 36 236v307q0 55 -31 146q68 59 123 59q64 0 112.5 -39t48.5 -97zM412 1339q0 -59 -41 -100t-100 -41q-62 0 -102.5 40.5t-40.5 100.5q0 56 41 97t102 41q58 0 99.5 -41.5t41.5 -96.5zM768 1339q0 -59 -41 -100t-100 -41
q-62 0 -102.5 40.5t-40.5 100.5q0 56 41 97t102 41q58 0 99.5 -41.5t41.5 -96.5zM709 1841l-5 -26q-29 -60 -67 -74q-18 -8 -174 -100q-139 -82 -189 -82q-37 0 -58 21t-21 61v31q56 67 163 174q134 125 203 125q45 0 91.5 -41.5t56.5 -88.5z" />
    <glyph glyph-name="Udieresiscaron" unicode="&#x1d9;" horiz-adv-x="1285" 
d="M1152 1649v-709q0 -205 -51 -451q-62 -297 -169 -407q-134 -141 -328 -141q-172 0 -304 105q-145 121 -198 320q-38 139 -38 384q0 119 15 353q16 254 16 356q0 14 -15.5 60.5t-15.5 60.5q0 63 102 104q80 34 157 34q87 0 87 -54q0 -30 -26 -82t-26 -84q0 -118 -25 -310
q-26 -199 -26 -312v-318q0 -147 57 -258q70 -144 202 -144q256 0 340 471q39 219 39 684q0 165 -52 274q-15 30 -15 48q0 47 35.5 90t79.5 43q51 0 105 -36.5t54 -80.5zM571 2010q0 -59 -41 -100t-100 -41q-62 0 -102.5 40.5t-40.5 100.5q0 56 41 97t102 41q58 0 99.5 -41.5
t41.5 -96.5zM927 2010q0 -59 -41 -100t-100 -41q-62 0 -102.5 40.5t-40.5 100.5q0 56 41 97t102 41q58 0 99.5 -41.5t41.5 -96.5zM957 2534q0 -40 -153 -163q-156 -121 -200 -121q-53 0 -335 233q-10 16 -10 41q0 46 58 46q46 0 118 -56q86 -64 115 -77q7 -2 54 -18
q39 12 108 51q134 100 179 100q66 0 66 -36z" />
    </font>
</defs>
</svg>
