<svg width="185" height="93" fill="none" xmlns="http://www.w3.org/2000/svg"><path d="M41.712 35.862c.412-.017.82.087 1.174.3a1.011 1.011 0 01.473.874V51.42h-3.045v-9.992l-3.646 7.068h-2.8l-3.7-7.068v9.99h-3.014v-14.36a.999.999 0 01.473-.9c.364-.21.78-.314 1.2-.3a2.05 2.05 0 011.25.3c.347.326.626.716.824 1.149l4.372 8.368 4.372-8.394c.188-.438.47-.83.824-1.149a2.17 2.17 0 011.243-.27zm9.438 13.459a5.4 5.4 0 003.271-1.149l1.2 1.9a7.241 7.241 0 01-4.647 1.6 5.3 5.3 0 01-3.971-1.55 5.526 5.526 0 01-1.474-3.971 5.937 5.937 0 011.525-4.144 5.3 5.3 0 014.144-1.7 5.123 5.123 0 013.223 1 3.317 3.317 0 011.325 2.765 3.14 3.14 0 01-.824 2.222 3.444 3.444 0 01-2.573.874h-4.047a2.567 2.567 0 002.848 2.153zm0-6.793a2.757 2.757 0 00-1.872.7 3.233 3.233 0 00-1.048 1.948h3.472a1.372 1.372 0 001-.325 1.08 1.08 0 00.35-.874 1.26 1.26 0 00-.524-1.023 2.159 2.159 0 00-1.378-.426zm13.61-6.569h2.923V51.42h-2.746v-.95a4.775 4.775 0 01-3.223 1.225 4.217 4.217 0 01-3.321-1.525 5.772 5.772 0 01-1.348-4 6.11 6.11 0 011.474-4.271 4.854 4.854 0 013.747-1.6 4.714 4.714 0 012.5.676v-5.016h-.006zm-2.374 13.315a3.2 3.2 0 002.349-1.048v-4.647a3.17 3.17 0 00-2.146-.849 2.282 2.282 0 00-1.85.874 4.752 4.752 0 00-.1 4.795 2.06 2.06 0 001.75.875h-.003zm10.646-10.468a1.917 1.917 0 01-2.55.025 1.834 1.834 0 01-.474-1.3 1.724 1.724 0 01.473-1.3 1.636 1.636 0 011.276-.473 1.82 1.82 0 011.276 3.042l-.001.006zm-2.75 12.614V40.58h2.923v10.814h-2.923v.026zm10.316.246a5.2 5.2 0 01-3.8-1.5 5.51 5.51 0 01-1.525-4.144 5.628 5.628 0 011.525-4.17 5.39 5.39 0 014.047-1.55 5.744 5.744 0 012.721.65 4.423 4.423 0 011.872 1.948l-2.222 1.25a2.614 2.614 0 00-4.22-.575 4.443 4.443 0 00-.025 4.9 2.399 2.399 0 001.85.8 3.074 3.074 0 002.623-1.7L85.59 48.8a4.868 4.868 0 01-1.948 2.125 6.155 6.155 0 01-3.044.741zm10.942-11.36a5.11 5.11 0 013.5 1.174 4.252 4.252 0 011.3 3.32v6.595h-2.6v-1.4a4.082 4.082 0 01-3.5 1.673 3.853 3.853 0 01-2.7-.925 3.16 3.16 0 01-1.023-2.446 2.9 2.9 0 011.5-2.721 7.49 7.49 0 013.8-.85c.619.002 1.237.045 1.85.127v-.126a1.89 1.89 0 00-.625-1.55 2.533 2.533 0 00-1.673-.524 5.351 5.351 0 00-3.3 1.225l-1.25-1.85a6.45 6.45 0 014.721-1.722zm-.625 9.192a2.412 2.412 0 001.872-.8 3.31 3.31 0 00.8-2.074c-.575-.051-1.1-.076-1.622-.076-1.724 0-2.573.524-2.573 1.572a1.253 1.253 0 00.4.976c.314.264.712.406 1.122.402h.001zm7.865 1.922V35.959h2.974V51.42H98.78zm10.84 0V37.209a1.092 1.092 0 01.4-.9c.262-.232.601-.357.95-.35h4.57a7.619 7.619 0 014.022 1.048 6.82 6.82 0 012.6 2.8 8.444 8.444 0 01.874 3.823 8.085 8.085 0 01-2.023 5.546 7.03 7.03 0 01-5.5 2.273h-5.893v-.029zm3.125-2.6h2.547a4.245 4.245 0 003.348-1.471 5.5 5.5 0 001.275-3.747 5.366 5.366 0 00-1.225-3.6 4.102 4.102 0 00-3.3-1.474h-2.67v10.291l.025.001zm16.734-8.514a5.11 5.11 0 013.5 1.174 4.248 4.248 0 011.3 3.321v6.594h-2.6v-1.4a4.084 4.084 0 01-3.5 1.673 3.853 3.853 0 01-2.7-.925 3.158 3.158 0 01-1.023-2.446 2.895 2.895 0 011.5-2.721 7.493 7.493 0 013.8-.849c.619.002 1.237.044 1.85.126v-.126a1.89 1.89 0 00-.625-1.55 2.533 2.533 0 00-1.673-.524 5.35 5.35 0 00-3.3 1.225l-1.25-1.85a6.53 6.53 0 014.721-1.722zm-.6 9.192a2.418 2.418 0 001.872-.8 3.305 3.305 0 00.8-2.074c-.575-.051-1.1-.076-1.622-.076-1.724 0-2.573.524-2.573 1.572a1.258 1.258 0 00.4.976 1.72 1.72 0 001.123.402zm10.641-10.692a1.916 1.916 0 01-2.551.025 1.836 1.836 0 01-.473-1.3 1.734 1.734 0 01.473-1.3 1.628 1.628 0 011.276-.473 1.67 1.67 0 011.749 1.8c.004.46-.165.906-.474 1.248zm-2.75 12.614V40.58h2.923v10.814h-2.923v.026zm5.521 0V35.959h2.974V51.42h-2.974zm12.539-10.839h3.021l-4.444 11.114c-.224.524-.448 1-.676 1.424-.247.453-.54.88-.874 1.275-.344.415-.77.755-1.25 1a3.513 3.513 0 01-1.622.35 3.8 3.8 0 01-2.623-.976l1.048-2.049c.397.34.902.525 1.424.524.773 0 1.373-.524 1.825-1.55l.275-.7-4.144-10.439h3.021l2.547 7.27 2.472-7.243z" fill="#000"/></svg>