<svg width="185" height="93" fill="none" xmlns="http://www.w3.org/2000/svg"><path d="M98.736 18.778L79.387 32.154h2.2l-3.385 3.964v3.931l1.738-1.507.325-3.353 4.18-4.278v1.337M55.15 60.558l12.533-10.945h-3.917v-2.482l-1.926 2.482h-3.667v-2.474l-2.916 2.013V32.993H37.285a48.3 48.3 0 0110.67 11.183c4.072 6.32 6.6 13.008 7.075 15.436l.12.946zm10.945-33.889a4.262 4.262 0 11-4.282-4.285 4.24 4.24 0 014.282 4.285zm-2.323 16.6l-1.225.849v1.3h1.225v-2.15.001zm8.744 2.15l.5-.434v-7.133l-4.82 5.673v1.9l4.322-.007-.002.001zm75.213 6.088H74.394v-1.012h73.335v1.012z" fill="#E41E29"/><path d="M147.729 51.507H74.394v-1.012h73.335v1.012zm-5.027-2.737h3.44l2.327-2.9h-2.63v-9.648l2.833-3.274h-2.833v-5.831l-3.136 3.035-.001 18.619zm-20.978.002h3.14V36.664l1.413-1.319 1.117 1.351v12.076h2.663l2.291-2.9h-1.922V34.908l-2.092-2.663-3.47 3.57v-3.57l-3.14 3.27v13.257z" fill="#E41E29"/><path d="M103.242 35.522l3.144-3.324v2.851l2.793-2.851 2.316 2.909 3.086-2.909 2.262 2.732v10.927h1.893l-2.312 2.909h-2.612V36.83l-1.366-1.724-.889.892v12.766h-2.912V36.653l-1.366-1.6-.893.889v12.827h-3.144V35.522zm-2.793 10.334V35.584l-3.266-3.386-5.283 4.394v.535h3.382v-2.436l2.14 2.316-5.345 4.863v6.891h2.555l2.79-2.435v2.435h2.727l2.32-2.909h-2.02v.004zm-3.024 0H95.17v-5.879l2.255-2.078v7.957zM80.796 35.522l3.147-3.324v3.621l3.5-3.621 2.078 2.674v10.984h1.9l-2.258 2.909h-2.67V36.653l-1.13-1.308-1.425 1.308v12.112h-3.147l.005-13.243zm-6.471-5.4l3.147-3.028v5.821h2.789l-2.79 3.263v9.68h2.613l-2.316 2.909h-3.443V30.122zm-6.471 12.763l5.048-5.937-3.324-4.748-4.867 5.048v11.516h4.809l2.731-2.91h-4.394l-.003-2.969zm0-7.956l2.551 3.92-2.551 3.024v-6.944zm-8.969.593l3.09-3.324v13.658h1.899l-2.258 2.909h-2.732l.001-13.243z" fill="#273889"/><path d="M136.227 42.904l5.059-5.937-3.306-4.723-4.893 4.99v11.537h4.788l2.735-2.9h-4.387v-2.966l.004-.001zm0-7.928l2.562 3.877-2.562 3.035v-6.912z" fill="#E41E29"/><path d="M80.406 53.361l-2.078 5.648H76.68l-2.08-5.648h1.545l1.377 3.967 1.376-3.967h1.508zm3.902 5.648H80.97v-1h.932v-3.646h-.932v-1h3.34v1h-.937v3.646h.936v1zm5.322 0h-4.123v-5.648h4.123v1.091h-2.659v.976h2.468v1.095h-2.468v1.395h2.66v1.091zm5.692-4.557h-1.78v4.556h-1.47v-4.556H90.29v-1.091h5.03v1.091h.002zm6.069 4.557h-1.417l-2.421-3.877v3.877h-1.348v-5.648h1.756l2.081 3.238v-3.238h1.348v5.648h.001zm6.725 0h-1.518l-.4-1.142h-2.11l-.4 1.142h-1.481l2.107-5.648h1.691l2.111 5.648zm-2.269-2.179l-.7-2.023-.7 2.023h1.4zm9.066 2.179h-1.46v-3.783l-1.059 2.453h-1.016l-1.055-2.453v3.783h-1.387v-5.648h1.706l1.283 2.833 1.279-2.833h1.705v5.648h.004zm6.636 0h-1.416l-2.417-3.877v3.877h-1.348v-5.648h1.76l2.081 3.238v-3.238h1.348l-.007 5.648h-.001zm5.58 0h-4.123v-5.648h4.123v1.091h-2.659v.976h2.468v1.095h-2.468v1.395h2.659v1.091zm5.691-4.557h-1.781v4.556h-1.471v-4.556h-1.781v-1.091h5.03v1.091h.003zm2.29 4.556h-1.434v-1.492h1.434v1.492zm6.598-5.647l-2.081 5.648h-1.648l-2.081-5.648h1.543l1.376 3.967 1.377-3.967h1.514zm6.006 5.648h-1.416l-2.417-3.877v3.877h-1.348v-5.648h1.76l2.081 3.238v-3.238h1.348l-.007 5.648h-.001z" fill="#273889"/></svg>