<svg width="185" height="93" fill="none" xmlns="http://www.w3.org/2000/svg"><path d="M135.798 30.103H49.206V61.9h86.592V30.103z" fill="#00803E"/><path d="M73.661 53.687V43.1c0-1.463-.965-2.4-2.732-2.4a2.48 2.48 0 00-2.764 2.432v10.554h-2.764V43.1c0-1.463-.932-2.4-2.732-2.4a2.48 2.48 0 00-2.764 2.432v10.554h-2.732V38.605h2.432l.1 1.4a4.452 4.452 0 013.9-1.731 4.255 4.255 0 013.628 2 5.363 5.363 0 014.563-2 4.42 4.42 0 014.593 4.6v10.822h-2.724l-.004-.009zm17.275-8.99a5.81 5.81 0 00-5.561-6.428c-3.162 0-6.392 2.9-6.392 7.891 0 4.694 3.13 7.859 6.894 7.859a7.114 7.114 0 003.83-.932l.6-2.963a5.888 5.888 0 01-4.029 1.467c-3 0-4.394-2.63-4.462-4.795h7.093l2.027-2.1v.001zm-5.459-4.062c1.666 0 2.731 1.8 2.731 3.4.006.167-.005.335-.032.5H81.95c.33-2.164 1.93-3.9 3.527-3.9zm16.542-2.031h-4.527v-4.3l-2.7 1.431v2.862h-2.529v2.229h2.53v8.755a4.053 4.053 0 004.299 4.3 3.2 3.2 0 001.3-.2l.466-2.464c-.45.199-.94.29-1.431.267a1.8 1.8 0 01-1.93-1.864v-8.787h4.13l.392-2.229zm9.647 2.2l-.434-2.4c-2.031 0-3.761.733-4.462 2.464l-.1-2.266h-2.6v15.082h2.764v-7.693c0-3.729 2.4-5.192 4.56-5.192l.272.005zm14.968-4.558a1.172 1.172 0 00-.23 2.323 1.172 1.172 0 10.23-2.323zm0 2.143a.967.967 0 11-.006-1.935.967.967 0 01.006 1.935zm.452-.7c-.022-.148-.043-.235-.235-.271v-.007a.316.316 0 00.282-.322c0-.311-.264-.379-.517-.379h-.444v1.38h.213v-.6h.181c.076.007.145 0 .2.058.054.088.082.19.08.293.007.079.032.17.047.246h.275a1.913 1.913 0 01-.082-.396v-.002zm-.473-.412h-.228v-.354h.26c.17 0 .217.054.217.155s-.043.194-.249.201v-.002z" fill="#fff"/><path d="M119.614 37.771a8.232 8.232 0 00-5.82 14.051 8.231 8.231 0 0014.051-5.82 8.166 8.166 0 00-2.394-5.837 8.173 8.173 0 00-5.837-2.394zm-2.273 1.554a10.996 10.996 0 00-1.113 2.063 9.213 9.213 0 01-1.3-.7 6.357 6.357 0 012.413-1.363zm-3.061 2.016a11.88 11.88 0 001.648.882 12.361 12.361 0 00-.766 3.317h-2.576a6.83 6.83 0 011.695-4.199h-.001zm-1.695 5.127h2.576c.08 1.139.338 2.258.766 3.317a12.34 12.34 0 00-1.648.882 6.848 6.848 0 01-1.693-4.199h-.001zm2.342 4.845a7.829 7.829 0 011.322-.719c.28.736.646 1.437 1.091 2.088a6.462 6.462 0 01-2.417-1.368l.004-.001zm4.22 1.738a2.237 2.237 0 01-.535-.069 12.638 12.638 0 01-1.532-2.735 9.677 9.677 0 012.063-.441v3.245h.004zm0-4.2a8.752 8.752 0 00-2.388.6 11.214 11.214 0 01-.672-2.992h3.061l-.001 2.392zm0-3.313h-3.061c.078-1.025.305-2.032.672-2.992a8.76 8.76 0 002.388.6l.001 2.392zm0-3.339a9.638 9.638 0 01-2.088-.463c.406-.965.927-1.876 1.554-2.714.175-.045.354-.068.535-.069l-.001 3.246zm7.49 3.339h-2.573a12.202 12.202 0 00-.766-3.317c.572-.25 1.123-.545 1.648-.882a6.84 6.84 0 011.692 4.2l-.001-.001zm-2.341-4.849c-.415.265-.85.499-1.3.7a10.996 10.996 0 00-1.113-2.063c.895.274 1.719.74 2.414 1.365l-.001-.002zm-4.22-1.738c.18.001.36.024.535.069a13.02 13.02 0 011.554 2.714 9.63 9.63 0 01-2.088.462l-.001-3.245zm0 4.2a8.726 8.726 0 002.388-.6c.367.96.594 1.967.672 2.992h-3.061l.001-2.392zm0 3.317h3.06a11.377 11.377 0 01-.672 2.992 8.788 8.788 0 00-2.388-.6v-2.392zm0 6.583v-3.245a9.615 9.615 0 012.063.441 12.65 12.65 0 01-1.528 2.735 2.246 2.246 0 01-.534.069h-.001zm1.807-.372a9.862 9.862 0 001.091-2.088c.463.197.906.437 1.323.719a6.36 6.36 0 01-2.414 1.369zm3.064-2.016a11.87 11.87 0 00-1.648-.882c.426-1.06.685-2.178.766-3.317h2.573a6.842 6.842 0 01-1.691 4.199z" fill="#fff"/></svg>