<svg width="185" height="93" fill="none" xmlns="http://www.w3.org/2000/svg"><path d="M26.04 36.194l4.661-1.294v17.608h-4.66V36.194zm19.067 16.314h-4.26v-6.41c0-1.6.07-3.454-2.009-3.454-1.633 0-2.428 1.185-2.428 2.775v7.089h-4.26V40.193l4.134-1.145v2.331a4.877 4.877 0 014.134-2.255c3.407 0 4.687 1.919 4.687 5.037v8.347h.002zm4.086 0L44.857 39.5h4.437l2.406 8.686 2.432-8.686h4.336l-4.36 13.008h-4.915zm17.778-8.35a2.57 2.57 0 00-2.482-2.157c-1.912 0-2.862 1.771-2.8 3.621l5.282-1.464zm-2.074 5.875a5.984 5.984 0 004.726-2.276l1.142 3.1a10.042 10.042 0 01-6.106 2.027c-4.126 0-7.169-2.439-7.169-6.923a6.8 6.8 0 017.017-6.844c4.061 0 6.58 2.688 6.544 6.764l-9.022 2.5a2.863 2.863 0 002.87 1.651l-.002.001zm14.44-5.569a8.082 8.082 0 012.88.86 3.532 3.532 0 011.677 2.92c0 3.454-3.252 4.636-6.345 4.636-2.775 0-5.77-.929-6.269-3.924l3.65-1.012a2.406 2.406 0 002.546 2.208c.947 0 2.154-.4 2.154-1.409 0-1.026-1.319-1.232-2.08-1.409-.547-.126-1.096-.253-1.659-.369-2.2-.448-4.322-1.113-4.322-3.863 0-3.147 3.4-3.985 5.94-3.985 2.4 0 5.536.77 5.973 3.321l-3.725 1.03c-.192-1.182-1-1.612-2.323-1.612-.715 0-1.6.242-1.6 1 0 .853 1.532 1.21 2.211 1.355.426.1.856.181 1.3.257l-.008-.004zm9.508-2.204v5.915a1.055 1.055 0 00.72 1.156 5.498 5.498 0 002.355-.087l-.882 3.256a15.09 15.09 0 01-1.89.137c-3.62.007-4.56-1.051-4.56-4.585V37.1l4.26-1.182v3.581h3.075l-.762 2.757-2.316.004zm3.667-2.027l4.26-1.182V52.51h-4.26V40.233zm14.4 5.868c0-1.6.069-3.454-2.009-3.454-1.633 0-2.428 1.185-2.428 2.775v7.089h-4.26V40.193l4.134-1.145v2.331a4.881 4.881 0 014.137-2.255c3.407 0 4.687 1.919 4.687 5.037v8.347h-4.26l-.001-6.407zm11.946-3.714c-1.875 0-2.482 1.651-2.482 3.259 0 1.539.712 3.06 2.457 3.057 1.8 0 2.573-1.395 2.58-3.032.007-1.637-.65-3.281-2.554-3.284h-.001zm-.191 14.7c-2.536 0-5.221-.679-6.085-3.462l3.826-1.059a2.426 2.426 0 002.439 1.767c1.763 0 2.49-1.409 2.49-3.046v-1.308a4.111 4.111 0 01-3.509 1.984c-3.946-.011-5.716-2.8-5.716-6.468 0-3.462 2.031-6.367 5.716-6.367a3.938 3.938 0 013.534 2.005v-.95l4.086-1.131v11.88c0 4.144-3.013 6.153-6.782 6.153l.001.002zm8.718-6.325h1.377v1.752h-1.392l.015-1.752zm6.414 1.124a2.536 2.536 0 002.338-2.432l.987.275a3.336 3.336 0 01-3.324 3.035c-2.486-.007-3.877-2.081-3.877-4.517 0-2.436 1.38-4.5 3.877-4.513a3.08 3.08 0 013.263 2.652l-.99.275a2.282 2.282 0 00-2.273-2.049c-1.908 0-2.847 1.843-2.847 3.639 0 1.796.965 3.635 2.847 3.635h-.001zm8.236-7.277c-1.9 0-2.847 1.843-2.847 3.639 0 1.796.961 3.635 2.847 3.639 1.886.004 2.844-1.846 2.844-3.639 0-1.793-.95-3.639-2.844-3.639zm0 8.155c-2.486-.007-3.877-2.081-3.877-4.517 0-2.436 1.373-4.513 3.877-4.513 2.504 0 3.877 2.078 3.877 4.513s-1.391 4.52-3.877 4.517zm15.7-.249V46.77c0-1.373-.527-2.168-1.94-2.164-1.752 0-2.24 1.593-2.233 3.075v4.827h-1.033V46.72c.011-1.153-.463-2.11-1.709-2.117-1.8 0-2.461 1.55-2.464 3.144v4.762h-1.033v-8.4l.95-.264v1.666a2.95 2.95 0 012.761-1.781 2.325 2.325 0 012.367 1.669 2.815 2.815 0 012.627-1.669c1.875 0 2.742 1.07 2.742 2.992v5.788l-1.035.005z" fill="#000"/><path fill-rule="evenodd" clip-rule="evenodd" d="M92.398 35.282l4.542-1.257v3.8l-4.542 1.257v-3.8z" fill="#F9A31A"/></svg>