<svg width="185" height="93" fill="none" xmlns="http://www.w3.org/2000/svg"><path d="M26.72 40.715h3.87v5.745c0 1.06.047 1.348.242 1.658a1.264 1.264 0 001.106.578 1.185 1.185 0 001.178-.744 4.323 4.323 0 00.17-1.612v-5.625h3.844v5.41c0 2.38-.311 3.414-1.2 4.494a5.199 5.199 0 01-4.04 1.9 5.59 5.59 0 01-3.245-1.08 5.444 5.444 0 01-3.219 1.08 5.185 5.185 0 01-4.04-1.9c-.889-1.08-1.2-2.114-1.2-4.495v-5.409h3.844v5.626c0 1.06.047 1.442.264 1.756a1.301 1.301 0 002.258-.123c.16-.487.219-1.003.17-1.514l-.002-5.745zm22.836 5.889a6.025 6.025 0 01-6.01 5.915 6.022 6.022 0 010-12.043 6.049 6.049 0 016.01 6.128zm-8.03 0a2.033 2.033 0 104.062.022 2.108 2.108 0 00-2.04-2.19 2.066 2.066 0 00-2.021 2.168zm14.931-5.889h3.87v5.745c0 1.06.047 1.348.242 1.658a1.263 1.263 0 001.106.578 1.185 1.185 0 001.178-.744 4.327 4.327 0 00.17-1.612v-5.625h3.844v5.41c0 2.38-.31 3.414-1.2 4.494a5.2 5.2 0 01-4.04 1.9 5.59 5.59 0 01-3.245-1.08 5.444 5.444 0 01-3.219 1.08 5.186 5.186 0 01-4.04-1.9c-.889-1.08-1.2-2.114-1.2-4.495v-5.409h3.845v5.626c0 1.06.047 1.442.264 1.756a1.3 1.3 0 002.258-.123c.16-.487.219-1.003.17-1.514v-5.745h-.003zm11.418-4.47h3.845v7.14a2.373 2.373 0 002.547-2.67h3.823v.336a4.28 4.28 0 01-2.284 3.508c2.045 1.348 2.62 2.6 2.62 5.7v2.02h-3.9v-1.9c0-1.633-.264-2.526-1.008-3.172a2.589 2.589 0 00-1.8-.65v5.723h-3.843V36.245z" fill="#000"/><path d="M88.814 51.605a7.88 7.88 0 01-3.9.914c-3.772 0-6.659-2.62-6.659-6.056a6.047 6.047 0 016.106-6.009 5.7 5.7 0 015.12 2.956l-4.856 5.24c.231.04.465.065.7.071.92-.084 1.8-.416 2.547-.96l.942 3.844zm-3.58-7.046a1.879 1.879 0 00-.962-.264 2.143 2.143 0 00-1.753 3.22l2.714-2.956zm4.158 2.861c0-2.428.1-3.028.481-3.942a5.193 5.193 0 014.831-3.028c.162-.018.326-.002.481.047v3.942a1.91 1.91 0 00-.553-.119 1.3 1.3 0 00-1.033.455 2.48 2.48 0 00-.36 1.66v5.842h-3.847V47.42z" fill="#000"/><path d="M104.944 51.605a7.88 7.88 0 01-3.9.914c-3.772 0-6.659-2.62-6.659-6.056a6.047 6.047 0 016.106-6.009 5.7 5.7 0 015.12 2.956l-4.856 5.24c.231.04.465.065.7.071.92-.084 1.8-.416 2.547-.96l.942 3.844zm-3.581-7.046a1.88 1.88 0 00-.961-.264 2.143 2.143 0 00-1.753 3.22l2.714-2.956zm4.134 1.784a6.005 6.005 0 011.225-4.04 5.346 5.346 0 016.238-1.35 5.346 5.346 0 011.816 1.35 6.005 6.005 0 011.225 4.04v5.937h-3.845v-5.867a2.238 2.238 0 00-.408-1.612 1.431 1.431 0 00-.986-.434 1.388 1.388 0 00-1.131.578c-.233.452-.333.96-.289 1.467v5.864h-3.845v-5.933z" fill="#000"/><path d="M168.075 34.182h-49.466V56.27h49.466V34.182z" fill="#C00"/><path d="M125.883 50.091a2.49 2.49 0 01-.75 1.761 2.502 2.502 0 01-1.776.714 2.361 2.361 0 01-2.381-2.4 2.468 2.468 0 01.712-1.77 2.465 2.465 0 011.763-.73 2.42 2.42 0 012.432 2.425zm9.687 1.344a5.675 5.675 0 01-3.534 1.08 5.852 5.852 0 01-4.24-1.733 5.868 5.868 0 01-1.697-4.254 5.942 5.942 0 011.703-4.31 5.937 5.937 0 014.284-1.77 5.585 5.585 0 013.487 1.105l-1.9 3.415a1.914 1.914 0 00-1.514-.744 2.254 2.254 0 00-2.11 2.248 2.251 2.251 0 002.11 2.247 1.913 1.913 0 001.514-.744l1.897 3.46z" fill="#fff"/><path d="M146.896 46.604a6.027 6.027 0 01-6.009 5.915 5.958 5.958 0 01-6.009-5.987 6.014 6.014 0 013.719-5.624 6.013 6.013 0 017.886 3.362c.291.743.432 1.536.413 2.334zm-8.029 0a2.027 2.027 0 001.225 1.954 2.03 2.03 0 002.836-1.932 2.1 2.1 0 00-.566-1.518 2.112 2.112 0 00-1.476-.668 2.07 2.07 0 00-2.021 2.164h.002zm8.363.264c0-2.38.311-3.415 1.2-4.495a5.198 5.198 0 014.04-1.9 5.461 5.461 0 013.219 1.08 5.562 5.562 0 013.245-1.08 5.187 5.187 0 014.04 1.9c.889 1.08 1.2 2.114 1.2 4.495v5.41h-3.845v-5.6c0-1.08-.047-1.468-.264-1.779a1.296 1.296 0 00-1.165-.596 1.3 1.3 0 00-1.093.72 3.358 3.358 0 00-.17 1.513v5.742h-3.87v-5.745c0-1.033-.047-1.322-.242-1.658a1.265 1.265 0 00-1.106-.578 1.185 1.185 0 00-1.178.744 4.484 4.484 0 00-.17 1.633v5.6h-3.845v-5.409l.004.003z" fill="#fff"/></svg>