<svg width="185" height="93" fill="none" xmlns="http://www.w3.org/2000/svg"><path d="M44.794 39.587h-1.922V56.15h-3.534L30.73 44.833v7.581h1.922v3.7H24.66v-3.671h1.922V39.587H24.66v-3.7h6.038l8.025 10.529v-6.829H36.8v-3.7h7.956l.036 3.7zm12.726 9.329c.005.309-.005.617-.032.925h-8.712c-.24 2.811.824 3.635 2.435 3.635a2.225 2.225 0 002.367-2.262h3.772c-.1 2.468-1.373 5.283-6.345 5.283-4.972 0-7.306-3.6-7.306-7.581 0-3.6 2.4-7.407 7.2-7.407 4.6-.036 6.62 3.154 6.62 7.407zm21.672-3.671h-1.268l-3.223 10.9h-4.285l-2.023-5.969-1.818 5.969h-4.39L58.55 45.273h-1.268v-3.7h7.58v3.671h-1.921l1.99 5.8 2.606-9.467h2.33l3.19 9.467 1.717-5.8h-1.922v-3.671h6.345v3.671l-.005.001zm5.315.173c0 .513.412.856 1.854 1.337l2.056.687c1.886.618 4.148 2.023 4.148 4.6 0 3.017-2.262 4.459-5.041 4.459a6.876 6.876 0 01-4.423-1.579v1.2h-3.7v-5.008h3.635a2.78 2.78 0 002.916 2.5c1.1 0 1.61-.481 1.61-1.03 0-.687-.411-1.062-2.228-1.648l-1.818-.618c-1.854-.582-3.91-1.955-3.91-4.39a4.648 4.648 0 014.9-4.491c2.332 0 3.466.65 4.048 1.3l.032-1.131h3.635v4.56H88.38c-.07-1.236-1.268-1.785-2.468-1.785-.958 0-1.406.448-1.406 1.033v.004zm30.282-.177h-1.268l-3.223 10.9h-4.287l-2.023-5.969-1.818 5.969h-4.39l-3.635-10.872h-1.268v-3.7h7.581v3.671h-1.922l1.991 5.8 2.605-9.467h2.331l3.191 9.5 1.716-5.8h-1.922v-3.7h6.345v3.671l-.004-.003zm13.447 3.646c.005.309-.005.617-.032.925h-8.712c-.239 2.811.824 3.635 2.435 3.635a2.227 2.227 0 002.367-2.262h3.772c-.1 2.468-1.373 5.283-6.345 5.283-4.972 0-7.31-3.606-7.31-7.581 0-3.6 2.4-7.407 7.2-7.407 4.6-.033 6.62 3.154 6.62 7.407h.005zm14.365-.033c.005.309-.006.617-.033.925h-8.712c-.239 2.811.824 3.635 2.435 3.635a2.227 2.227 0 002.367-2.262h3.772c-.1 2.468-1.373 5.283-6.345 5.283-4.972 0-7.306-3.6-7.306-7.581 0-3.6 2.4-7.407 7.2-7.407 4.6-.036 6.62 3.154 6.62 7.407h.002zm15.773 7.27h-4.39l-4.56-5.933-1.474 1.1v1.167h1.3v3.667h-6.721v-3.671h1.268V39.522h-1.922v-3.635h6.1v11.628l3.053-2.229h-1.922v-3.7h8.195v3.7h-1.268l-3.191 2.4 3.671 4.766h1.854v3.671l.007.001zm-24.52-8.744h4.766c0-2.056-1.337-2.88-2.331-2.88-1.167.033-2.367.958-2.435 2.88zm-14.37.033h4.766c0-2.056-1.337-2.88-2.331-2.88-1.131 0-2.334.961-2.435 2.88zm-70.72.036h4.767c0-2.056-1.337-2.88-2.331-2.88-1.131 0-2.33.958-2.435 2.88zm111.565 7.848a.88.88 0 01-.525.827.876.876 0 11-.349-1.68.86.86 0 01.811.518.86.86 0 01.07.332l-.007.003zm-1.532 0a.658.658 0 00.665.679.655.655 0 00.608-.42.66.66 0 00.042-.256.658.658 0 10-1.315 0v-.003zm.528.444h-.2v-.854c.109-.018.219-.026.329-.025a.529.529 0 01.3.061.246.246 0 01.063.084.245.245 0 01.02.104.223.223 0 01-.177.2v.011c.043.017.08.046.107.083a.246.246 0 01.049.127.635.635 0 00.061.213h-.213a.865.865 0 01-.069-.21c-.014-.094-.069-.134-.177-.134h-.094v.34h.001zm0-.481h.094c.109 0 .2-.036.2-.123s-.058-.13-.181-.13a.378.378 0 00-.109.011v.242h-.004z" fill="#F72210"/></svg>