<svg width="185" height="93" fill="none" xmlns="http://www.w3.org/2000/svg"><path d="M45.07 36.61l1.59 4.535-.626.285c-2.11-2.475-3.57-4.09-5.629-4.09-.835 0-1.225.39-1.225 1.174v14.569c0 1.64 1.46 1.615 2.84 1.59v.726h-8.025v-.73c1.275.025 2.894.079 2.894-1.85V38.435c0-1.07-1.12-1.095-1.3-1.095-1.955 0-3.649 1.695-5.55 4.09l-.65-.285 1.59-4.535h14.09z" fill="#EE2F25"/><path d="M53.124 36.61v.73c-1.145.025-2.294.155-2.294 1.745v6.2h8.1v-6.1c0-1.85-1.3-1.85-2.37-1.85v-.725h6.956v.73c-1.095.025-2.29.13-2.29 1.745v13.864c0 1.669 1.274 1.695 2.29 1.72v.73h-6.952v-.73c.965 0 2.37-.025 2.37-1.72v-6.724h-8.1v6.88c0 1.46 1.3 1.51 2.294 1.565v.73h-6.88v-.73c.911 0 2.294-.079 2.294-1.72V39.085a1.55 1.55 0 00-1.72-1.745h-.574v-.73h6.876zm25.044 0l1.615 4.509-.676.235c-2.345-3.024-3.545-4.014-7.14-4.014-1.8 0-2.735.235-2.735 1.745v6.28h1.67c3.254 0 3.724-1.539 3.984-3.256h.7v7.27h-.7c-.079-.99-.26-3.284-3.985-3.284h-1.669v7.035c0 1.38 1.12 1.536 2.345 1.536 3.335 0 4.69-.235 7.895-4.275l.625.235-1.615 4.77h-14.02v-.7c1.565-.025 2.475-.079 2.475-2.266V39.031c0-1.669-1.276-1.669-2.475-1.669v-.752h13.706zm11.736 0v.73c-.939.025-2.164.051-2.164 1.12.007.177.041.353.1.52l3.415 12.354h.05l3.283-11.519c-.574-1.825-1.225-2.425-3.024-2.475v-.73h7.191v.73c-.73.025-2.24.051-2.24 1.2.01.133.037.264.08.39l3.489 12.455h.051l2.97-10.97c.158-.56.245-1.138.26-1.72 0-1.3-1.25-1.33-2.005-1.355v-.73h5.705v.73c-1.669.079-2.32.549-3.18 3.7l-4.011 14.879h-.755L95.054 41.48h-.05l-4.04 14.439h-.731l-4.56-16.469a2.646 2.646 0 00-2.685-2.11v-.73h6.916z" fill="#EE2F25"/><path d="M120.023 36.61l1.615 4.509-.676.235c-2.345-3.024-3.545-4.014-7.14-4.014-1.8 0-2.735.235-2.735 1.745v6.28h1.669c3.256 0 3.725-1.539 3.985-3.256h.7v7.27h-.7c-.079-.99-.26-3.284-3.985-3.284h-1.669v7.035c0 1.38 1.12 1.536 2.345 1.536 3.335 0 4.69-.235 7.9-4.275l.625.235-1.615 4.77h-14.02v-.7c1.564-.025 2.475-.079 2.475-2.266V39.031c0-1.669-1.276-1.669-2.475-1.669v-.752h13.701z" fill="#EE2F25"/><path d="M135.267 36.61l1.615 4.509-.676.235c-2.345-3.024-3.545-4.014-7.14-4.014-1.8 0-2.735.235-2.735 1.745v6.28H128c3.255 0 3.725-1.539 3.985-3.256h.7v7.27h-.7c-.079-.99-.26-3.284-3.985-3.284h-1.668v7.035c0 1.38 1.12 1.536 2.345 1.536 3.335 0 4.69-.235 7.9-4.275l.625.235-1.615 4.77h-14.02v-.7c1.565-.025 2.475-.079 2.475-2.266V39.031c0-1.669-1.276-1.669-2.475-1.669v-.752h13.7z" fill="#EE2F25"/><path d="M143.607 36.61v.73c-1.406.025-2.265.1-2.265 1.929v7.454l6.229-6.464a3.603 3.603 0 001.12-1.929c0-.809-.86-.939-1.72-.99v-.73h6.28v.73a4.847 4.847 0 00-3.465 1.695l-4.535 4.639 5.969 9.275a2.93 2.93 0 002.815 1.72v.73h-7.06v-.73c.65-.025 1.98-.051 1.98-.809a1.354 1.354 0 00-.209-.625l-5.135-7.87-2.266 2.425v4.92c0 1.8 1.069 1.929 2.266 1.955v.73h-6.9v-.73c1.485-.025 2.345-.181 2.345-2.529V39.345c0-1.929-1.015-1.98-2.266-2.005v-.73h6.817z" fill="#EE2F25"/></svg>