<svg width="185" height="93" fill="none" xmlns="http://www.w3.org/2000/svg"><path d="M94.967 64.392h-5.536l-1.066 6.049h5.532l1.07-6.049z" fill="#79CE00"/><path d="M29.412 34.626h6.706v-2.32h-.654c-.2 0-.506-.354-.506-.553v-7.31c0-.2.3-.553.506-.553h.654v-2.42h-6.706v2.421h.6a.7.7 0 01.553.553v7.314a.7.7 0 01-.553.553h-.6v2.32-.005zm7.158 0h6.1v-2.32h-1.11v-4.635c.25-.039.502-.056.755-.051.806 0 1.21.152 1.21.856v6.1h4.842v-2.318h-.3a.65.65 0 01-.506-.506v-4.887c0-1.814-1.261-2.37-2.573-2.37a4.834 4.834 0 00-3.584 1.563c-.1-1.059-.354-1.362-.7-1.362h-4.292v2.472h.553a.65.65 0 01.506.506v4.184c0 .152-.3.506-.506.506h-.503c.09.75.126 1.506.108 2.262zm11.9-7.36h.958v4.741c0 2.32 1.463 2.873 3.631 2.873a7.673 7.673 0 002.168-.3v-2.222h-.506c-.907 0-1.16-.253-1.16-1.109v-3.983h1.615v-2.472h-1.615v-2.572h-4.083v2.573h-.958l-.051 2.471h.001zm17.344 2.37c0-3.48-1.615-4.99-4.889-4.99-3.328 0-5.344 2.016-5.344 5.142 0 3.126 1.565 5.041 5.395 5.041a8.948 8.948 0 004.488-.907v-2.37h-2.168a2.058 2.058 0 01-1.864.806c-1.109 0-1.615-.553-1.713-1.763h6.049c-.006-.153.044-.503.044-.959h.002zm-6.15-1.008c.2-1.21.506-1.713 1.261-1.713.7 0 1.008.506 1.109 1.713h-2.37zm6.706 6h6v-2.32h-1.008v-4.186a10.12 10.12 0 012.674-.3h.455v-3.028a1.552 1.552 0 00-.553-.1 2.987 2.987 0 00-2.576 1.464c-.1-1.059-.354-1.362-.7-1.362h-4.29v2.471h.553a.65.65 0 01.506.506v4.185a.65.65 0 01-.506.506h-.506l-.051 2.164h.002zm8.672 0h6.1v-2.32h-1.109v-4.637c.25-.039.502-.056.755-.051.806 0 1.21.152 1.21.856v6.1h4.842v-2.318h-.3a.65.65 0 01-.506-.506v-4.887c0-1.814-1.261-2.37-2.573-2.37a4.637 4.637 0 00-3.53 1.565c-.1-1.059-.354-1.362-.7-1.362h-4.282v2.47h.553a.65.65 0 01.506.506v4.184c0 .152-.3.506-.506.506h-.506c.045-.006.045 2.262.045 2.262l.001.002zm22.334-2.32a.594.594 0 01-.455-.506v-3.929c0-2.32-1.362-3.328-4.437-3.328-1.57 0-3.131.22-4.639.654v2.771h1.662a2.605 2.605 0 011.915-.654c.958 0 1.362.354 1.362 1.008v.553a9.167 9.167 0 00-1.763-.152c-2.32 0-3.783.907-3.783 3.075a2.865 2.865 0 003.125 2.974 3.48 3.48 0 002.822-1.16 2.162 2.162 0 002.219 1.16 4.54 4.54 0 002.32-.553v-1.915l-.348.002zm-4.488-.1a1.564 1.564 0 01-.856.253.799.799 0 01-.907-.907c0-.7.354-.958 1.008-.958.255.005.508.039.755.1v1.512zm4.994-4.943h.958v4.741c0 2.32 1.463 2.873 3.631 2.873a7.676 7.676 0 002.168-.3v-2.221h-.553c-.907 0-1.16-.253-1.16-1.109v-3.983h1.615v-2.472h-1.615v-2.572h-4.083v2.573h-.958v2.471l-.003-.001zm7.208 7.36h5.951v-2.32h-.506a.65.65 0 01-.506-.506v-6.1c0-.6-.2-.958-.553-.958h-4.488v2.468h.553a.59.59 0 01.455.506v4.184a.59.59 0 01-.455.506h-.506v2.219h.054l.001.001zm2.922-10.181a1.682 1.682 0 001.864-1.713 1.868 1.868 0 00-3.729 0 1.77 1.77 0 001.865 1.713zm8.874.2c-3.227 0-5.546 2.016-5.546 5.142.051 3.125 2.37 5.041 5.546 5.041 3.227 0 5.546-1.864 5.546-5.041 0-3.128-2.32-5.14-5.546-5.14v-.002zm0 7.711c-.856 0-1.413-.806-1.413-2.623 0-1.817.553-2.573 1.413-2.573s1.413.755 1.413 2.573c.05 1.87-.557 2.626-1.413 2.626v-.003zm5.951 2.269h6.1v-2.32h-1.109v-4.633c.25-.039.502-.056.755-.051.806 0 1.21.152 1.21.856v6.1h4.842v-2.318h-.3a.65.65 0 01-.506-.506v-4.887c0-1.814-1.261-2.37-2.573-2.37a4.834 4.834 0 00-3.584 1.563c-.1-1.059-.354-1.362-.7-1.362h-4.29v2.472h.553a.649.649 0 01.506.506v4.184c0 .152-.3.506-.506.506h-.506c.09.75.126 1.506.108 2.262v-.002zm22.334-2.32a.59.59 0 01-.455-.506v-3.925c0-2.32-1.362-3.328-4.437-3.328-1.569 0-3.131.22-4.639.654v2.771h1.662a2.608 2.608 0 011.915-.654c.958 0 1.362.354 1.362 1.008v.553a9.15 9.15 0 00-1.763-.152c-2.32 0-3.783.907-3.783 3.075a2.916 2.916 0 003.125 2.974 3.481 3.481 0 002.822-1.16 2.165 2.165 0 002.219 1.16 4.54 4.54 0 002.32-.553v-1.915l-.348-.002zm-4.437-.1a1.85 1.85 0 01-.856.253c-.553 0-.907-.2-.907-.907 0-.707.354-.958 1.008-.958.255.005.508.039.755.1v1.512zm5.293 2.417h6.049v-2.32h-.553a.59.59 0 01-.455-.506v-9.468c0-.506-.253-.806-.553-.806h-4.538v2.421h.553a.59.59 0 01.455.506v7.41a.59.59 0 01-.455.506h-.553v2.269h.051l-.001-.012zM38.438 45.751v-.1c1.615-.4 2.623-1.16 2.623-2.771 0-2.269-1.864-3.378-5.344-3.378h-6.305v2.37h.553a.7.7 0 01.553.553v7.31a.7.7 0 01-.553.553h-.553v2.269h6.3c3.53 0 5.7-1.261 5.7-3.783 0-1.762-1.059-2.719-2.974-3.023zm-3.733-3.784h.654c1.059 0 1.463.506 1.463 1.413a1.273 1.273 0 01-1.463 1.413h-.654v-2.826zm.7 8.267h-.7v-3.167h.7c1.16 0 1.615.506 1.615 1.565s-.45 1.607-1.608 1.607l-.007-.005zm9.731 2.522a4.416 4.416 0 003.48-1.514c.1 1.059.4 1.362.7 1.362h4.196v-2.32h-.455a.594.594 0 01-.455-.506v-7.051h-5.044v2.471h.958v4.538a5.777 5.777 0 01-.7.1c-.806 0-1.21-.152-1.21-.907v-6.1h-4.894V45.3h.4a.667.667 0 01.455.506v4.69c-.051 1.756 1.261 2.262 2.569 2.262v-.002zm12.957 0c3.277 0 4.69-1.261 4.69-3.53 0-2.32-1.261-2.873-3.733-3.176-1.16-.152-1.514-.253-1.514-.553 0-.354.3-.553 1.109-.553a2.018 2.018 0 011.615.654h2.117v-2.573a12.052 12.052 0 00-3.83-.506c-2.721 0-4.538 1.059-4.538 3.328 0 2.219 1.261 2.974 3.378 3.227 1.261.152 1.615.253 1.615.654 0 .455-.455.553-1.109.553a2.053 2.053 0 01-1.713-.856h-2.168v2.721a11.54 11.54 0 004.079.611l.002-.001zm5.246-.2h5.951v-2.32h-.506a.65.65 0 01-.506-.506v-6.1c0-.6-.2-.958-.553-.958h-4.488v2.471h.553a.594.594 0 01.455.506v4.184a.594.594 0 01-.455.506h-.506l.054 2.215.001.002zm2.923-10.186a1.743 1.743 0 10-1.864-1.713 1.769 1.769 0 001.869 1.716l-.005-.003zm3.53 10.186h6.049v-2.32h-1.109v-4.639c.25-.039.502-.056.755-.051.806 0 1.21.152 1.21.856v6.1h4.842v-2.32h-.3a.65.65 0 01-.506-.506v-4.889c0-1.814-1.261-2.37-2.573-2.37a4.833 4.833 0 00-3.581 1.565c-.1-1.059-.354-1.362-.7-1.362h-4.287v2.471h.553a.65.65 0 01.506.506v4.184c0 .152-.3.506-.506.506h-.506c.133.75.186 1.511.159 2.272l-.006-.003zm22.339-4.989c0-3.48-1.565-4.99-4.889-4.99-3.324 0-5.344 2.016-5.344 5.142 0 3.126 1.565 5.041 5.395 5.041a8.583 8.583 0 004.437-.907v-2.37h-2.168a2.057 2.057 0 01-1.864.806c-1.109 0-1.615-.553-1.713-1.763h6.1c-.004-.151.046-.505.046-.959zm-6.15-1.012c.152-1.21.506-1.713 1.261-1.713.7 0 1.008.506 1.109 1.713h-2.37zm10.789 6.2c3.277 0 4.69-1.261 4.69-3.53 0-2.32-1.261-2.873-3.733-3.176-1.16-.152-1.463-.253-1.463-.553 0-.354.3-.553 1.109-.553a1.841 1.841 0 011.565.654h2.117v-2.573a12.055 12.055 0 00-3.83-.506c-2.721 0-4.538 1.059-4.538 3.328 0 2.219 1.261 2.974 3.378 3.227 1.261.152 1.615.253 1.615.654 0 .455-.455.553-1.109.553a1.988 1.988 0 01-1.713-.856H92.69v2.721a11.54 11.54 0 004.079.611l.001-.001zm9.225 0c3.277 0 4.69-1.261 4.69-3.53 0-2.32-1.261-2.873-3.733-3.176-1.16-.152-1.514-.253-1.514-.553 0-.354.3-.553 1.109-.553a2.021 2.021 0 011.615.654h2.117v-2.573a12.053 12.053 0 00-3.83-.506c-2.721 0-4.538 1.059-4.538 3.328 0 2.219 1.261 2.974 3.378 3.227 1.261.152 1.615.253 1.615.654 0 .455-.455.553-1.109.553a2.05 2.05 0 01-1.713-.856h-2.17v2.721c1.315.44 2.697.648 4.083.616v-.006zM32.133 70.441h6.656v-2.32h-.6a.7.7 0 01-.553-.553v-7.714h1.059l.3 2.421h2.623v-4.889H29.412v4.889h2.623l.3-2.421h1.059v7.714a.7.7 0 01-.553.553h-.6l-.108 2.32zm9.983 0h5.951v-2.32h-.505a.65.65 0 01-.506-.506v-6.1c0-.6-.2-.958-.553-.958h-4.491v2.471h.553a.594.594 0 01.455.506v4.184a.594.594 0 01-.455.506h-.503c.05-.052.05 2.217.05 2.217h.004zm2.974-10.182a1.742 1.742 0 10-1.864-1.713 1.726 1.726 0 001.864 1.713zm3.48 10.186h5.9v-2.32h-.858v-4.639c.231-.037.466-.054.7-.051.856 0 1.008.152 1.008.856v6.1h4.892v-2.32h-.856v-4.639c.231-.037.466-.054.7-.051.856 0 .958.152.958.856v6.1h4.842v-2.32h-.3a.65.65 0 01-.506-.506v-4.882a2.21 2.21 0 00-2.522-2.37 4.16 4.16 0 00-3.328 1.615 2.222 2.222 0 00-2.471-1.615 4.24 4.24 0 00-3.328 1.615c-.1-1.16-.354-1.463-.7-1.463h-4.282v2.471h.553a.65.65 0 01.506.506v4.184c0 .152-.3.506-.506.506h-.506v2.37h.1l.004-.003zm27.88-4.994c0-3.48-1.565-4.99-4.889-4.99-3.277 0-5.344 2.016-5.344 5.142 0 3.126 1.565 5.041 5.395 5.041a8.582 8.582 0 004.437-.907v-2.378h-2.168a2.058 2.058 0 01-1.864.806c-1.109 0-1.615-.553-1.713-1.763h6.1c-.005-.149.046-.499.046-.955v.004zm-6.2-1.008c.152-1.21.553-1.713 1.261-1.713.708 0 1.008.506 1.109 1.713h-2.37zm10.84 6.2c3.277 0 4.69-1.261 4.69-3.53 0-2.32-1.261-2.873-3.733-3.176-1.16-.152-1.463-.253-1.463-.553 0-.354.3-.553 1.109-.553a1.84 1.84 0 011.565.654h2.117v-2.576a12.055 12.055 0 00-3.83-.506c-2.721 0-4.538 1.059-4.538 3.328 0 2.219 1.261 2.974 3.378 3.227 1.261.152 1.615.253 1.615.654 0 .455-.455.553-1.109.553a1.985 1.985 0 01-1.713-.856h-2.166v2.721c1.311.449 2.694.656 4.079.611l-.001.002z" fill="#000"/><path d="M48.57 70.441h5.9v-2.32h-.852v-4.639c.231-.037.466-.054.7-.051.856 0 1.008.152 1.008.856v6.1h4.892v-2.32h-.856v-4.639c.231-.037.466-.054.7-.051.856 0 .958.152.958.856v6.1h4.842v-2.318h-.3a.65.65 0 01-.506-.506v-4.884a2.21 2.21 0 00-2.522-2.37 4.162 4.162 0 00-3.328 1.615 2.222 2.222 0 00-2.471-1.615 4.24 4.24 0 00-3.328 1.615c-.1-1.16-.354-1.463-.7-1.463h-4.289v2.471h.553a.65.65 0 01.506.506v4.184c0 .152-.3.506-.506.506h-.506v2.37h.1l.005-.003z" fill="#000"/></svg>