<svg width="185" height="93" fill="none" xmlns="http://www.w3.org/2000/svg"><path d="M34.052 53.108h2.63a1.878 1.878 0 110 3.743h-1.347v2.092h-1.283v-5.835zm1.283 2.746h1c.59 0 1.127-.13 1.127-.874s-.538-.874-1.127-.874h-1v1.748zm8.91.884a2.175 2.175 0 01-2.49 2.345c-1.575 0-2.482-.752-2.482-2.345v-3.63h1.283v3.63c0 .636.163 1.265 1.2 1.265.914 0 1.207-.39 1.207-1.265v-3.63h1.283v3.63zm.571-3.63h2.742c1.11 0 1.861.358 1.861 1.445a1.27 1.27 0 01-.79 1.218 1.416 1.416 0 011.07 1.478c0 1.185-1 1.691-2.06 1.691h-2.827v-5.832h.004zm2.583 2.359c.46 0 .784-.206.784-.694 0-.546-.426-.668-.882-.668h-1.2v1.362H47.4zm.072 2.475c.5 0 .947-.163.947-.766s-.369-.835-.92-.835h-1.396v1.6l1.37.001zm2.729-4.834h1.283v4.751h2.84v1.079H50.2v-5.83zm4.802 0h1.28v5.83h-1.28v-5.83zm3.249 3.895c0 .777.6 1.077 1.29 1.077.448 0 1.135-.13 1.135-.726 0-.636-.882-.726-1.73-.965-.868-.213-1.739-.578-1.739-1.659 0-1.2 1.127-1.763 2.18-1.763 1.217 0 2.333.531 2.333 1.879h-1.243c-.04-.694-.53-.882-1.153-.882-.408 0-.882.17-.882.661 0 .448.278.513 1.738.882.434.1 1.731.383 1.731 1.7 0 1.07-.835 1.872-2.425 1.872-1.29 0-2.508-.636-2.482-2.074h1.247v-.002zm4.053-3.895h1.283v2.237h2.36v-2.237h1.282v5.83h-1.283v-2.515h-2.359v2.515h-1.283v-5.83zm6.013 0h4.361v1.077H69.6v1.253h2.826v1H69.6v1.427h3.148v1.073h-4.43v-5.83zm5.25 0h3.144a1.6 1.6 0 011.705 1.608 1.431 1.431 0 01-.92 1.463v.018c.628.17.808.766.848 1.362-.027.473.058.946.246 1.38h-1.283a7.18 7.18 0 01-.206-1.4c-.09-.61-.325-.882-.972-.882h-1.283v2.28h-1.283v-5.829h.004zm1.283 2.638h1.406c.582 0 .882-.246.882-.835 0-.564-.3-.809-.882-.809H74.85v1.644zm5.448 1.257c0 .777.6 1.077 1.29 1.077.448 0 1.135-.13 1.135-.726 0-.636-.882-.726-1.73-.965-.868-.213-1.739-.578-1.739-1.659 0-1.2 1.127-1.763 2.18-1.763 1.217 0 2.333.531 2.333 1.879h-1.243c-.04-.694-.53-.882-1.153-.882-.408 0-.882.17-.882.661 0 .448.278.513 1.738.882.434.1 1.731.383 1.731 1.7 0 1.07-.835 1.872-2.425 1.872-1.29 0-2.508-.636-2.482-2.074h1.247v-.002zm9.375-4.032a2.37 2.37 0 012.515 2.1h-1.243a1.278 1.278 0 00-1.275-1.023c-1.153 0-1.583.98-1.583 2 0 .972.434 1.951 1.583 1.951a1.309 1.309 0 001.322-1.308h1.243a2.451 2.451 0 01-2.562 2.39 3.06 3.06 0 010-6.106v-.004zm3.07.137h1.283v4.751h2.84v1.08h-4.123v-5.83zm4.802 0h4.361v1.077h-3.079v1.253h2.826v1h-2.826v1.427h3.144v1.073h-4.426v-5.83zm6.843 0h1.315l2.179 5.832h-1.33l-.441-1.3h-2.179l-.459 1.3h-1.3l2.215-5.832zm1.388 3.577l-.733-2.139h-.014l-.759 2.14h1.506zm2.248-3.577h3.146a1.596 1.596 0 011.576.968c.087.202.131.42.129.64a1.427 1.427 0 01-.921 1.463v.018c.629.17.809.766.849 1.362-.027.473.057.946.246 1.38h-1.283a7.12 7.12 0 01-.206-1.4c-.09-.61-.325-.882-.972-.882h-1.283v2.28h-1.285v-5.829h.004zm1.283 2.638h1.406c.582 0 .882-.246.882-.835 0-.564-.3-.809-.882-.809h-1.406v1.644zm4.408-2.638h1.283v5.83h-1.283v-5.83zm2.041 0h1.276l2.435 3.913h.018v-3.913h1.2v5.83h-1.283l-2.424-3.9h-.014v3.9h-1.2v-5.83h-.008zm8.3-.137a2.33 2.33 0 012.457 2.06h-1.222a1.184 1.184 0 00-1.232-.979c-1.153 0-1.583.98-1.583 2 0 .972.434 1.951 1.583 1.951a1.25 1.25 0 001.388-1.257h-1.29v-.954h2.45v3.151h-.816l-.13-.66a1.96 1.96 0 01-1.6.8 3.064 3.064 0 010-6.115l-.005.003zm5.882.137h1.283v2.237h2.359v-2.237h1.283v5.83h-1.283v-2.515h-2.359v2.515h-1.283v-5.83zm8.296-.137a3.061 3.061 0 11-2.865 3.08 2.823 2.823 0 01.748-2.177 2.83 2.83 0 012.117-.903zm0 5.03c1.153 0 1.583-.979 1.583-1.95 0-1.024-.434-2-1.583-2s-1.583.978-1.583 2c.001.97.434 1.95 1.583 1.95z" fill="#638235"/><path d="M146.559 56.738a2.179 2.179 0 01-1.517 2.27 2.18 2.18 0 01-.973.075c-1.575 0-2.482-.752-2.482-2.345v-3.63h1.283v3.63c0 .636.163 1.265 1.2 1.265.914 0 1.207-.39 1.207-1.265v-3.63h1.283l-.001 3.63zm1.608.265c0 .777.6 1.077 1.29 1.077.448 0 1.135-.13 1.135-.726 0-.636-.882-.726-1.731-.965-.867-.213-1.738-.578-1.738-1.659 0-1.2 1.127-1.763 2.179-1.763 1.218 0 2.334.531 2.334 1.88h-1.243c-.04-.695-.531-.883-1.153-.883-.408 0-.882.17-.882.661 0 .448.278.513 1.738.882.434.1 1.731.383 1.731 1.7 0 1.07-.835 1.872-2.424 1.872-1.29 0-2.508-.636-2.482-2.074h1.247l-.001-.002zm4.224-3.895h4.361v1.077h-3.079v1.253h2.826v1h-2.826v1.427h3.144v1.073h-4.426v-5.83z" fill="#638235"/><path d="M124.052 37.315a3.113 3.113 0 00-3.328-2.677c-3.2 0-4.184 2.547-4.184 5.25 0 2.493 1.117 4.91 3.924 4.91a3.441 3.441 0 003.689-3.27h2.262c-.5 3.3-2.522 5.224-5.926 5.224-4.1 0-6.287-2.833-6.287-6.862s2.078-7.2 6.341-7.2c3.068 0 5.456 1.431 5.8 4.625h-2.291zm8.918-4.625c3.877 0 5.937 3.093 5.937 7.042 0 3.924-2.056 7.017-5.937 7.017-3.881 0-5.937-3.093-5.937-7.017 0-3.949 2.06-7.042 5.936-7.042h.001zm0 12.108c2.1 0 3.808-1.817 3.808-5.066 0-3.249-1.7-5.095-3.808-5.095-2.108 0-3.808 1.846-3.808 5.095 0 3.25 1.704 5.066 3.807 5.066h.001zm6.645-11.8h1.893v1.98h.047a4.338 4.338 0 013.949-2.288 3.19 3.19 0 013.357 2.287 4.358 4.358 0 013.83-2.287c2.435 0 4.069 1.117 4.069 3.9v9.85h-2.009v-8.813c0-1.662-.4-2.988-2.363-2.988a3.097 3.097 0 00-3.053 2.119 3.11 3.11 0 00-.141 1.31v8.368h-2.009v-8.809c0-1.742-.5-2.988-2.294-2.988-2.363 0-3.263 2.392-3.263 3.43v8.367h-2.009V33l-.004-.002zm-48.729 4.68a2.483 2.483 0 00-2.742-2.328c-2.378 0-3.162 2.4-3.162 4.39 0 1.958.76 4.26 3.086 4.26a2.823 2.823 0 002.952-2.746h3.581c-.5 3.581-2.927 5.54-6.508 5.54a6.56 6.56 0 01-6.822-6.928c0-4.209 2.508-7.317 6.9-7.317 3.187 0 6.143 1.673 6.352 5.124h-3.639l.002.004zm19.425 5.921h2.891v2.836h-2.891V43.6zm-6.934-11.042a4.686 4.686 0 00-3.946 2.247h-.079v-5.677h-3.71v17.308h3.71v-7.082c0-2.742.864-3.866 2.876-3.866 1.752 0 2.378 1.1 2.378 3.321v7.631h3.711v-8.312c-.001-3.349-.991-5.567-4.941-5.567l.001-.003zm-29.01 0a4.469 4.469 0 00-4.026 2.092h-.048v-1.722h-3.53v16.917h3.711v-5.08h.051a4.792 4.792 0 004.05 2.038c3.971 0 5.933-3.37 5.933-6.977 0-3.844-1.908-7.265-6.143-7.265l.001-.003zm-.218 11.447c-2.4 0-3.24-2.092-3.24-4.285s.783-4.365 3.215-4.365c2.378 0 3.241 2.2 3.241 4.365-.004 2.195-.788 4.287-3.216 4.287v-.002z" fill="#8CB440"/><path d="M31.47 42.857a1.51 1.51 0 11-1.515 1.507 1.5 1.5 0 011.514-1.507zm0 2.764a1.254 1.254 0 10-1.237-1.257 1.217 1.217 0 001.236 1.257zm-.362-.513h-.2v-1.442h.665c.242 0 .473.079.473.387a.337.337 0 01-.2.343.289.289 0 01.184.271v.217c0 .126.025.177.072.191v.033h-.23a1.435 1.435 0 01-.04-.361c0-.119-.026-.257-.258-.257h-.466v.618zm0-.784h.447c.145 0 .29-.04.29-.249s-.16-.242-.258-.242h-.48l.001.491zm28.827 2.32h-23.8a1.972 1.972 0 01-1.969-1.969V30.511a2.413 2.413 0 011.202-2.087l8.932-5.156a2.733 2.733 0 012.67-.025l8.535 4.73a2.415 2.415 0 011.243 2.11v1.03a1.225 1.225 0 11-2.45 0v-1l-8.517-4.719a.26.26 0 00-.257 0l-8.91 5.145v13.655h22.84v-9.156H40.821l9.011 4.786a.564.564 0 00.546-.01l6.865-4.044a1.224 1.224 0 111.243 2.11l-6.865 4.044a3.025 3.025 0 01-2.938.065l-9.98-5.308a2.176 2.176 0 011.019-4.1h20.213a1.972 1.972 0 011.969 1.97v10.124a1.972 1.972 0 01-1.969 1.97z" fill="#638235"/></svg>