<svg width="185" height="93" fill="none" xmlns="http://www.w3.org/2000/svg"><path d="M55.023 48.393l-8.155-10.7h-3.472v16.621h3.711V43.898l7.917 10.417h3.711V37.694h-3.712v10.7-.001zM37.38 54.315h3.711V37.694h-3.71v16.621zm57.614 0h3.711V37.694h-3.71v16.621zm-5.778-7.443a4.931 4.931 0 01-.914 3.151 3.268 3.268 0 01-4.982 0 4.892 4.892 0 01-.929-3.151v-9.178h-3.707v9.3a7.351 7.351 0 002.01 5.539 7.71 7.71 0 0010.235.014 7.379 7.379 0 002-5.554v-9.3h-3.705v9.178l-.008.001zm18.822-2.533a11.85 11.85 0 01-3.021-1.012 1.317 1.317 0 01-.654-1.153 1.44 1.44 0 01.535-1.167 2.24 2.24 0 011.463-.441 7.313 7.313 0 014.47 1.64l1.879-2.71a9.056 9.056 0 00-2.9-1.619 10.226 10.226 0 00-3.328-.571 6.83 6.83 0 00-4.242 1.283 4.292 4.292 0 00-1.303 1.613 4.29 4.29 0 00-.397 2.036 4.237 4.237 0 001.344 3.472 10.66 10.66 0 004.242 1.8 8.03 8.03 0 012.45.892 1.386 1.386 0 01.618 1.189 1.413 1.413 0 01-.582 1.189 2.601 2.601 0 01-1.6.441c-1.521 0-3.176-.784-4.968-2.352l-2.211 2.71a10.215 10.215 0 007.111 2.927 6.673 6.673 0 004.412-1.391 4.502 4.502 0 001.676-3.628 4.316 4.316 0 00-1.308-3.4 8.663 8.663 0 00-3.682-1.749l-.004.001zm6.363 9.976h3.711V37.694H114.4v16.621zm29.007-5.944c2.107-.777 3.161-2.497 3.162-5.16a5.042 5.042 0 00-1.651-4.209c-1.102-.87-2.945-1.307-5.528-1.308h-6.3v16.621h3.707v-5.3h2.569l3.686 5.3h4.567l-4.212-5.944zm-1.308-3.187a4.01 4.01 0 01-2.591.614h-2.71v-4.921h2.782c.864-.074 1.731.1 2.5.5a2.1 2.1 0 01.716 1.843 2.544 2.544 0 01-.693 1.964h-.004zm-22.774-4.282h4.419v13.412h3.711V40.902h4.419v-3.209H119.33v3.209h-.004zM68.807 51.138a4.534 4.534 0 01-2.515-.687l-2.244 2.475a8.936 8.936 0 002.2.958c1.69.514 3.498.5 5.181-.04l-2.352-2.7c.103-.02.009-.005-.266-.005l-.004-.001z" fill="#58585A"/><path d="M81.44 56.2l2.515 2.516-2.623 2.623-2.515-2.515L81.44 56.2zm-5.539-5.5h-.007l-.018-.017c.036-.054.076-.1.112-.155.036-.055.08-.13.12-.2a.824.824 0 00.046-.08c.054-.093.112-.183.163-.274.087-.155.163-.318.24-.477l.017-.036a7.98 7.98 0 00.531-1.63l.014-.072c.036-.181.07-.361.094-.55 0-.028.007-.06.011-.093.021-.145.032-.293.047-.441 0-.061.011-.126.011-.188a9.93 9.93 0 00.018-.491v-.116a9.91 9.91 0 00-.015-.491l-.01-.188a5.614 5.614 0 00-.048-.441 8.981 8.981 0 00-.105-.643l-.014-.072a7.901 7.901 0 00-.784-2.147 3.993 3.993 0 00-.159-.275.582.582 0 00-.047-.08 6.023 6.023 0 00-.116-.2 7.991 7.991 0 00-2.956-2.77c-.01 0-.036-.014-.072-.025a8.64 8.64 0 00-4.267-1.044c-.188 0-.372.007-.557.014a.742.742 0 00-.145-.014 8.308 8.308 0 00-5.413 2.4 8.09 8.09 0 00-2.482 6.03v.023a8.08 8.08 0 002.276 5.82l2.533-2.532a5.624 5.624 0 01.343-7.01 4.632 4.632 0 016.91 0 5.634 5.634 0 01.541 6.72l.018.019a5.575 5.575 0 01-.556.73 4.805 4.805 0 01-1.384 1.066l2.471 2.47 4.21 4.12 2.579-2.587-4.15-4.072z" fill="#ED1C24"/></svg>