<svg width="185" height="93" fill="none" xmlns="http://www.w3.org/2000/svg"><path d="M52.353 31.548v28.906h80.294V31.548H52.353zm23.39 25.434h-4.901v-9.46h-9.008v9.46h-4.9V35.048h4.9v8.415h9.012v-8.415h4.9v21.933l-.004.001zm9.199 0h-4.9V35.048h4.9v21.934zm20.794-17.879h-6.673v17.879h-4.892V39.103h-6.674v-4.055h18.24l-.001 4.055zm21.354 13.149c-2.031 4.325-6.909 5.886-11.385 4.979a10.58 10.58 0 01-8.274-9.369c-.542-4.408.958-9.293 4.878-11.729 3.837-2.385 9.561-2.222 12.939.925a8.6 8.6 0 012.623 5.366h-4.737c-.5-3.292-4.481-4.589-7.27-3.4-3.035 1.286-3.844 5.03-3.606 8 .246 3.06 1.9 6.045 5.218 6.388a5.2 5.2 0 003.989-1.015 6.048 6.048 0 001.854-3.863h4.741a11.035 11.035 0 01-.97 3.714v.004z" fill="#555"/></svg>