<svg width="64" height="29" fill="none" xmlns="http://www.w3.org/2000/svg"><path d="M20.602 17.98a2.512 2.512 0 01-2.532-2.496v-.022a2.512 2.512 0 012.51-2.518h.022a2.45 2.45 0 012.3 1.487l-.928.399a1.426 1.426 0 00-1.36-.91c-.83 0-1.505.677-1.516 1.509v.033a1.525 1.525 0 001.504 1.553h.033c.609 0 1.15-.377 1.36-.954l.94.4a2.48 2.48 0 01-2.333 1.52zm16.677-.078h-1.05v-2.85c0-.721-.4-1.198-1.129-1.198-.652 0-1.15.444-1.15 1.309v2.74h-1.04v-2.895a1.043 1.043 0 00-.906-1.154.535.535 0 00-.188 0c-.675 0-1.184.455-1.184 1.353v2.706h-1.04v-4.858h1.03v.577a1.686 1.686 0 011.437-.676 1.666 1.666 0 011.592.876 1.887 1.887 0 011.626-.866c1.316 0 2.002.8 2.002 2.042v2.895zm3.019.067a2.249 2.249 0 01-2.113-1.12h-.01l.01-.011.918-.477c.244.454.72.732 1.239.72.575 0 .885-.299.885-.643 0-.343-.564-.488-1.173-.62-.83-.178-1.67-.444-1.67-1.432 0-.765.72-1.475 1.87-1.464a2.222 2.222 0 011.946.943l-.863.477a1.259 1.259 0 00-1.073-.555c-.553 0-.829.278-.829.577 0 .3.442.444 1.14.6.795.177 1.691.432 1.691 1.43-.022.677-.597 1.586-1.968 1.575zm5.22.011a2.512 2.512 0 01-2.533-2.496v-.022a2.512 2.512 0 012.51-2.518h.022a2.45 2.45 0 012.3 1.487l-.928.399a1.426 1.426 0 00-1.36-.91c-.83 0-1.505.677-1.516 1.509v.033a1.532 1.532 0 001.504 1.553h.033c.609 0 1.15-.377 1.36-.954l.94.4a2.48 2.48 0 01-2.333 1.52zm11.71-3.96h-.718c-.84 0-1.173.444-1.173 1.431v2.407h-1.04v-4.836h1.04v.743a1.378 1.378 0 011.327-.743h.575v.998h-.01zm-6.259-1.076a2.52 2.52 0 00-2.51 2.518 2.512 2.512 0 002.51 2.518c1.383 0 2.51-1.12 2.51-2.518a2.512 2.512 0 00-2.51-2.518zm.011 4.004a1.484 1.484 0 01-1.482-1.486c0-.82.664-1.486 1.482-1.486.819 0 1.482.665 1.482 1.486s-.663 1.486-1.482 1.486zm9.345-4.004h-.033c-1.383.011-2.489 1.154-2.477 2.54v-.022c.022.92.53 1.753 1.327 2.207a2.57 2.57 0 003.494-1.009l-.852-.477c-.254.555-.818.91-1.437.888a1.486 1.486 0 01-1.56-1.243h4.026v-.565a2.41 2.41 0 00-2.488-2.319zm-1.46 1.997a1.507 1.507 0 011.47-1.076 1.36 1.36 0 011.438 1.076h-2.908zm-32.612-1.997a2.52 2.52 0 00-2.51 2.518 2.512 2.512 0 002.51 2.518c1.383 0 2.51-1.12 2.51-2.518a2.52 2.52 0 00-2.51-2.518zm0 4.004a1.484 1.484 0 01-1.482-1.486c0-.82.664-1.486 1.482-1.486.819 0 1.482.665 1.482 1.486s-.652 1.486-1.482 1.486z" fill="#577E8F"/><path d="M3.55 13.61l9.665-.954v7.443l-9.665-.965V13.61z" fill="#BCCBD2"/><path d="M.885 9.983l9.676.954v5.501l-9.676.965v-7.42z" fill="#BFCED4"/><path d="M10.561 16.438v-3.516l-7.011.688v3.527l7.011-.699z" fill="#8EA9B4"/></svg>