<svg width="60" height="27" fill="none" xmlns="http://www.w3.org/2000/svg"><path d="M16.825 16.494c-.451.357-.995.546-1.641.546-.667 0-1.211-.137-1.632-.42-.42-.283-.738-.682-.954-1.207a4.434 4.434 0 01-.328-1.7c0-.66.123-1.237.37-1.73a2.563 2.563 0 011.056-1.123 3.042 3.042 0 011.508-.378c.616 0 1.139.157 1.56.483.42.325.718.776.882 1.364l-.81.199c-.144-.462-.35-.798-.627-1.007-.277-.21-.615-.315-1.036-.315-.472 0-.872.115-1.19.346a1.868 1.868 0 00-.677.944 3.776 3.776 0 00-.195 1.218c0 .535.082 1.007.236 1.416.154.399.39.703.718.902.329.2.678.294 1.057.294.462 0 .852-.136 1.17-.409.318-.273.533-.671.646-1.207l.82.21c-.174.682-.482 1.207-.933 1.574zm5.591.43h-.759v-2.906c0-.388-.082-.672-.246-.85-.164-.178-.4-.262-.698-.262a1.24 1.24 0 00-.636.178 1 1 0 00-.42.483c-.082.21-.123.482-.123.85v2.507h-.76v-6.337h.76v2.277c.359-.42.8-.63 1.344-.63.328 0 .625.063.861.2.246.136.42.314.523.556.103.24.165.577.165 1.028v2.906h-.01zm6.936 0h-.76V12.33h.76v4.595zm4.298-.346a1.83 1.83 0 01-1.241.451c-.616 0-1.108-.21-1.477-.619-.37-.41-.565-.997-.565-1.763 0-.493.082-.933.246-1.3.165-.378.4-.651.729-.84a2.112 2.112 0 011.067-.283c.492 0 .882.126 1.2.377.308.252.513.609.595 1.081l-.739.115c-.071-.304-.194-.545-.369-.692a.961.961 0 00-.646-.23c-.38 0-.698.136-.934.419-.236.283-.359.724-.359 1.332 0 .62.113 1.06.349 1.343.236.284.533.42.903.42.297 0 .544-.094.749-.283.205-.189.328-.472.38-.871l.748.094c-.082.546-.297.955-.636 1.249zm9.49-.273c-.144.231-.36.41-.646.535a2.268 2.268 0 01-.944.19c-.585 0-1.026-.127-1.334-.368-.308-.252-.503-.62-.585-1.102l.75-.115c.04.304.163.545.348.713.195.168.462.252.81.252.35 0 .606-.073.78-.22.164-.147.257-.315.257-.514a.476.476 0 00-.226-.42c-.103-.063-.36-.157-.78-.262-.564-.147-.944-.273-1.159-.378a1.135 1.135 0 01-.657-1.06c0-.2.052-.398.134-.566a1.15 1.15 0 01.37-.43c.122-.095.276-.168.481-.231a2.21 2.21 0 01.657-.095c.349 0 .667.053.923.158.267.104.462.24.595.42.123.178.216.408.267.713l-.749.105a.824.824 0 00-.297-.557c-.165-.136-.39-.199-.688-.199-.349 0-.595.063-.749.179-.154.115-.225.251-.225.409 0 .105.03.189.092.273a.631.631 0 00.287.21c.072.03.298.094.667.199.544.147.913.262 1.129.357.215.094.38.23.502.409.123.178.185.398.185.671a1.04 1.04 0 01-.195.724zm-32.768-5.718v2.277a1.691 1.691 0 00-.513-.462 1.49 1.49 0 00-.718-.178c-.37 0-.708.094-1.005.293a1.83 1.83 0 00-.678.86 3.254 3.254 0 00-.225 1.25c0 .472.082.88.246 1.248.164.357.4.64.698.85.297.2.625.304.984.304.554 0 .975-.23 1.252-.682v.577h.708v-6.337h-.749zm-.287 5.382c-.236.284-.513.42-.852.42-.328 0-.615-.147-.861-.43-.247-.294-.36-.734-.36-1.322 0-.609.113-1.06.339-1.333.226-.283.513-.42.852-.42.348 0 .636.148.872.441.236.294.359.756.359 1.385 0 .556-.123.987-.35 1.26zm28.828-1.343c0-.755-.195-1.343-.574-1.762-.38-.42-.872-.63-1.467-.63-.616 0-1.129.21-1.519.64-.39.43-.585 1.028-.585 1.794 0 .745.195 1.322.575 1.742.39.41.903.62 1.56.62.523 0 .953-.127 1.282-.39.328-.261.564-.618.687-1.09l-.79-.095c-.113.326-.267.567-.472.714a1.17 1.17 0 01-.718.22 1.24 1.24 0 01-.934-.399c-.246-.272-.39-.65-.42-1.154h3.344c.031-.105.031-.168.031-.21zm-3.314-.44c.031-.399.154-.724.4-.966a1.19 1.19 0 01.883-.356c.39 0 .698.147.944.45.154.19.256.483.287.872h-2.514zm-6.247-2.707h-.76v-.892h.76v.892zm-25.033-.892h-.882l-2.38 6.337h.872l.677-1.92H5.2l.719 1.92h.933L4.32 10.587zm-1.477 3.735l.677-1.857c.144-.399.256-.808.338-1.207.093.347.247.777.442 1.312l.646 1.752H2.842zm24.17-1.469c-.39-.409-.892-.619-1.518-.619-.554 0-1.026.168-1.416.514-.461.41-.697 1.039-.697 1.889 0 .776.195 1.374.584 1.784.39.409.893.619 1.53.619.389 0 .758-.095 1.087-.284.328-.189.584-.45.759-.787.174-.335.256-.807.256-1.395 0-.735-.195-1.312-.585-1.72zm-.574 3.095c-.246.294-.564.441-.944.441s-.697-.147-.944-.44c-.246-.294-.38-.735-.38-1.323 0-.587.124-1.028.38-1.322.247-.293.564-.44.944-.44.37 0 .688.147.944.44.257.294.38.724.38 1.29 0 .61-.123 1.06-.38 1.354z" fill="#577E8F"/><path d="M51.49 17.575a.885.885 0 01-.584.042c-.318-.116-.626-.367-.626-.724V13.66c0-.346.277-.64.626-.64.339 0 .626.283.626.64v2.287l3.632-1.93c.584-.325.584-.86.01-1.196L49.285 9.38c-.574-.336-1.046-.052-1.046.609v6.683c0 .672.37.997.954.672.39-.116.739.02.83.43.103.44-.266.766-.43.871l-.975.556c-1.046.577-1.836.43-1.836-1.112v-9.39c0-1.207.852-1.7 1.888-1.102l8.525 4.763c1.21.735 1.026 1.48-.02 2.056l-5.684 3.159zm.093-5.624a.669.669 0 00-.656-.672.662.662 0 00-.657.672.656.656 0 101.313 0z" fill="#A9BDC6"/></svg>