<svg width="30" height="30" fill="none" xmlns="http://www.w3.org/2000/svg"><g clip-path="url(#clip0)"><path d="M14.965 14.1H20.8c-.42-2.841-2.864-5.04-5.834-5.04a5.903 5.903 0 00-5.904 5.905 5.903 5.903 0 005.904 5.904V14.1z" fill="#7C9AA8"/><path d="M15.947 19.454c-.105 0-.865-.362-1.707-.584-.841-.222-1.075-.35-1.601-.573-.527-.222-.55-.468-.784-.468-.222 0-.69-.117-.935-.49a.543.543 0 01.07-.726c.094-.093.105-.07.035-.268-.07-.21-.14-.585.035-.737.175-.152.35-.199.292-.374-.058-.199 0-.514.117-.643s.258-.14.21-.503c-.058-.362.27-.655.69-.783.41-.117.679.023 1.006.117.328.105.889.397 1.146.117.257-.27.292-.807.222-1.158-.07-.35.023-.9.21-1.227.2-.328.527-.667.796-.725.257-.059.362-.024.35.152-.023.175-.327.725-.327.994 0 .268.105.724.093.97-.023.234.024.55.176.783.152.222.163.725.07 1.275-.082.55-.514 2.034-.514 2.034l.35 2.817z" fill="#fff"/><path d="M14.965 27.346c-6.828 0-12.381-5.553-12.381-12.38 0-6.829 5.553-12.382 12.381-12.382 6.536 0 11.89 5.097 12.346 11.516h1.649C28.504 6.77 22.413.935 14.965.935c-7.74 0-14.03 6.29-14.03 14.03 0 7.74 6.29 14.03 14.03 14.03v-1.649z" fill="#99B0BB"/><path d="M14.965 8.242a6.731 6.731 0 00-6.723 6.723 6.731 6.731 0 006.723 6.723v-1.649a5.085 5.085 0 01-5.074-5.074 5.084 5.084 0 015.074-5.074c2.502 0 4.583 1.824 5.004 4.209h1.66c-.432-3.297-3.25-5.858-6.664-5.858z" fill="#99B0BB"/><path d="M14.965 4.595c-5.717 0-10.382 4.653-10.382 10.382s4.653 10.382 10.382 10.382V23.71c-4.817 0-8.733-3.916-8.733-8.733s3.916-8.745 8.733-8.745c4.525 0 8.254 3.46 8.687 7.868H25.3c-.444-5.32-4.91-9.505-10.335-9.505z" fill="#99B0BB"/><path d="M16.707 27.487v.374h-.187v-.176h-.468v.515h.538v.187h-.538v.503h.21v.175h-.63v-.187h.198v-1.216h-.198v-.164l1.075-.011zm.14 1.391h.2v-1.216h-.2v-.164h.679c.105 0 .198 0 .292.035.163.059.269.188.269.41 0 .222-.129.385-.328.432 0 0 .035.024.07.07l.223.386c.023.047.058.047.105.047h.047v.175h-.129c-.128 0-.164-.023-.222-.117l-.246-.42c-.035-.07-.07-.082-.163-.082h-.187v.456h.187v.175h-.608l.012-.187zm.737-.631c.164 0 .28-.106.28-.293 0-.117-.046-.21-.151-.245a.445.445 0 00-.187-.035h-.258v.573h.316zm.678.631h.152l.503-1.391h.245l.503 1.391h.152v.175h-.538v-.175h.164l-.117-.35h-.55l-.116.35h.163v.175h-.538l-.023-.175zm.994-.526l-.187-.538c-.023-.07-.023-.117-.023-.117h-.012l-.024.117-.187.538h.433zm.795.117c0 .152.035.28.105.386.105.14.292.222.515.222.21 0 .397-.082.502-.222a.654.654 0 00.106-.386v-.807h.198v-.164h-.608v.164h.2v.807a.475.475 0 01-.06.245c-.07.106-.186.164-.338.164-.152 0-.27-.058-.34-.164a.523.523 0 01-.058-.257v-.807h.199v-.163h-.608v.163h.199l-.012.819zm1.567.409h.198v-1.216h-.198v-.164h.666c.129 0 .222.012.327.035.293.094.491.363.491.749 0 .374-.187.643-.49.736a1.017 1.017 0 01-.328.047h-.666v-.187zm.654-.012a.937.937 0 00.27-.035c.21-.07.338-.269.338-.561 0-.292-.128-.491-.339-.561-.082-.035-.163-.035-.269-.035h-.233v1.192h.233zm-6.746-1.929h.538v-.175H15.9l.117-.35h.55l.117.35h-.164v.175h.538v-.175h-.152l-.503-1.392h-.245l-.503 1.392h-.152l.023.175zm.55-.69l.187-.537c.023-.07.023-.117.023-.117h.012s0 .058.023.117l.187.537h-.432zm1.087-.093c0-.456.328-.807.819-.807.268 0 .596.105.596.304v.187h-.199v-.117c0-.128-.21-.198-.386-.198-.362 0-.596.245-.596.608 0 .362.234.63.596.63.14 0 .421-.046.421-.198v-.21h-.304v-.176h.503v.433c0 .245-.398.327-.631.327-.491.024-.819-.316-.819-.783zm1.567.783h.538v-.175h-.164l.117-.35h.55l.116.35h-.163v.175h.537v-.175h-.152l-.502-1.392h-.246l-.503 1.392h-.152l.024.175zm.55-.69l.186-.537c.024-.07.024-.117.024-.117h.011s0 .058.024.117l.187.537h-.433zm1.694-.865v.164h-.198v1.216h.198v.175h-.607v-.175h.198v-1.216h-.198v-.164h.607zm.188 1.38h.198v-1.216h-.198v-.164h.409l.771 1.123.059.117h.012s-.012-.082-.012-.13v-.934h-.199v-.164h.62v.164h-.199v1.39h-.222l-.772-1.122a.488.488 0 01-.058-.116h-.012s.012.081.012.128v.935h.199v.176h-.608v-.187zm2.01-.293v.117c0 .117.152.188.316.188.176 0 .304-.082.304-.246 0-.187-.187-.245-.374-.316-.21-.081-.42-.163-.42-.444 0-.292.233-.42.502-.42.234 0 .468.093.468.256v.187h-.21v-.105c0-.093-.141-.14-.27-.14-.152 0-.28.07-.28.21 0 .164.152.223.327.28.234.083.456.176.456.469 0 .292-.246.456-.538.456-.245 0-.514-.106-.514-.328v-.163h.234zm1.345.293h.199v-1.204h-.363v.245h-.187v-.42h1.322v.42H25.3v-.245h-.362v1.215h.199v.176h-.62v-.187zm-8.909-2.724a.78.78 0 01.795-.795c.187 0 .596.07.596.304v.187h-.21v-.117c0-.14-.234-.187-.386-.187-.339 0-.573.245-.573.596 0 .374.257.631.597.631.105 0 .385-.035.385-.187v-.117h.21v.187c0 .234-.385.304-.607.304-.468.012-.807-.35-.807-.806zm1.614.795h1.169v-.374h-.187v.187h-.562v-.515h.55v-.187h-.55v-.503h.527v.188h.187v-.363h-1.123v.164h.199v1.216h-.199l-.011.187zm1.356-.176h.198v-1.216h-.198v-.175h.678c.105 0 .199 0 .292.035.164.059.27.187.27.41 0 .222-.13.385-.328.432 0 0 .035.023.07.07l.222.386c.023.047.058.047.105.047h.047v.175h-.129c-.128 0-.163-.023-.222-.117l-.245-.42c-.035-.07-.07-.083-.164-.083h-.187v.456h.187v.176h-.608l.012-.176zm.725-.643c.163 0 .28-.105.28-.292 0-.117-.046-.21-.152-.245a.445.445 0 00-.187-.036h-.257v.573h.316zm1.087.819h.62v-.176h-.2v-1.204h.363v.246h.187v-.433h-1.332v.421h.187v-.246h.362v1.205h-.199l.012.187zm1.11-1.567v.164h.2v1.216h-.2v.175h.609v-.175h-.2V23.43h.2v-.164H21.5zm.796 1.567h.631v-.176h-.21v-.502h.537v-.188h-.537v-.514h.467v.175h.187v-.362h-1.075v.164h.198v1.216h-.198v.187zm1.239-1.567v.164h.199v1.216h-.199v.175h.608v-.175h-.199V23.43h.199v-.164h-.608zm.795 1.567h1.17v-.374h-.188v.187h-.561v-.515h.55v-.187h-.55v-.503h.526v.188h.187v-.363h-1.122v.164h.199v1.216h-.2l-.011.187zm1.345-.176h.198v-1.216h-.199v-.175h.667c.129 0 .222.012.327.035.293.094.491.363.491.748 0 .375-.187.643-.49.737a1.01 1.01 0 01-.328.047h-.667v-.176zm.654-.011a.937.937 0 00.27-.035c.21-.07.338-.27.338-.562 0-.292-.128-.49-.339-.56-.082-.036-.163-.036-.269-.036h-.234v1.193h.234z" fill="#7C9AA8"/><path d="M14.603 15.748H13.9v-1.075h.737v-1.485h1.32v1.485h1.24v1.075h-1.24v2.198c0 .9.702 1.03 1.077 1.03.151 0 .245-.024.245-.024v1.18s-.175.036-.41.036c-.76 0-2.256-.222-2.256-2.046v-2.374h-.011zm7.926 3.227c-.151 0-.233-.082-.233-.234V16.72c0-1.216-.538-2.163-2.35-2.163-.562 0-1.988.093-1.988 1.11v.585h1.263v-.292c0-.292.48-.363.725-.363.69 0 1.005.281 1.005 1.064v.047h-.175c-.889 0-3.227.129-3.227 1.836 0 1.099.877 1.695 1.847 1.695 1.24 0 1.649-.959 1.649-.959h.023s-.012.094-.012.234c0 .316.2.596.69.596h1.216v-1.134h-.433zm-1.566-1.227c0 .654-.515 1.426-1.24 1.426-.56 0-.818-.339-.818-.701 0-.76 1.11-.854 1.824-.854h.234v.129zm6.804-3.075c-.42 0-.596.245-.596.502v.14h-.023s-.421-.77-1.684-.77c-1.555 0-2.408 1.203-2.408 2.7 0 1.496.888 2.747 2.443 2.747.725 0 1.193-.245 1.52-.701h.023s-.011.164-.011.292v.257c0 .983-.713 1.333-1.532 1.333-.83 0-1.508-.362-1.508-.362l-.41 1.064a4.39 4.39 0 001.93.467c1.415 0 2.876-.701 2.876-2.56v-3.741c0-.14.093-.222.234-.222h.409v-1.146h-1.263zm-1.964 4.185c-.877 0-1.356-.701-1.356-1.66 0-.924.444-1.52 1.263-1.52.736 0 1.356.34 1.356 1.567 0 1.24-.62 1.602-1.263 1.613z" fill="#577E8F"/></g><defs><clipPath id="clip0"><path fill="#fff" d="M0 0h29.93v29.93H0z"/></clipPath></defs></svg>