<svg width="57" height="29" fill="none" xmlns="http://www.w3.org/2000/svg"><path d="M54.972 3.006H1.819a.937.937 0 00-.932.932v20.509c0 .51.422.931.932.931h53.153c.51 0 .931-.421.931-.931V3.937a.937.937 0 00-.931-.931zm.465 21.452c0 .255-.21.466-.465.466H1.819a.469.469 0 01-.466-.466V3.938c0-.256.21-.466.466-.466h53.153c.255 0 .465.21.465.466v20.52z" fill="#8EA9B4"/><path d="M11.147 6.744l-7.465 4.193v8.385l7.465 4.204 7.454-4.204v-8.385l-7.454-4.193z" fill="#93ACB7"/><path d="M14.874 16.527h-3.727v6.999l3.727-2.108v-4.891zm0-1.398v-2.096l-3.727 2.096h3.727zm1.864-3.15v8.397l1.863-1.054v-8.385l-1.863 1.042z" fill="#577E8F"/><path d="M11.147 15.13l3.727-2.097-3.727-2.096v4.192zm0-8.386V8.84l5.59 3.14 1.864-1.043-7.454-4.193z" fill="#6F909F"/><path d="M11.147 8.84V6.744l-7.465 4.193 1.864 1.042 5.601-3.139zm0 6.29v-4.193L7.41 13.033l3.738 2.096z" fill="#93ACB7"/><path d="M7.41 16.527v4.891l3.737 2.108v-7H7.41zm0-3.494v2.096h3.737L7.41 13.033zm-1.864-1.054l-1.864-1.042v8.385l1.864 1.054v-8.397z" fill="#B7C8CF"/><path d="M11.147 8.84l-5.601 3.14v8.396l1.863 1.042v-4.891h2.496L7.41 15.129v-2.096l3.738-2.096 5.59 3.139v-2.097l-5.59-3.139z" fill="#fff"/><path d="M14.874 13.033v2.096H7.41l2.496 1.398h4.97v4.892l1.863-1.043v-6.3l-1.864-1.043z" fill="#DAE3E6"/><path d="M27.575 19.322h-.7a.346.346 0 01-.343-.344V12.59c0-.377-.244-.521-.666-.521-.732 0-2.296 1.12-3.072 1.864v5.035a.37.37 0 01-.366.366h-.71a.322.322 0 01-.322-.321V11.27c0-.177.145-.321.322-.321h.721c.189 0 .344.155.344.355v1.43c.82-.842 2.285-1.84 3.505-1.84a1.63 1.63 0 011.62.953v7.143c.021.178-.134.333-.333.333zm9.217-1.819V11.28a.363.363 0 00-.344-.354h-.699a.348.348 0 00-.343.354v6.179a6.197 6.197 0 01-3.073.965c-.421 0-.665-.189-.665-.81V11.28a.363.363 0 00-.344-.354h-.7a.348.348 0 00-.343.354v7.432c.322.666.976.788 1.72.788a7.523 7.523 0 003.693-1.143l.288.51c.255.466.522.466.888.466h.865l-.943-1.83zm7.52-6.633c-1.076 0-2.773 1.32-3.327 2.23v-1.82a.363.363 0 00-.344-.354h-.71a.348.348 0 00-.344.354v7.698c0 .189.155.344.344.344h.699a.346.346 0 00.344-.344V14.32c.61-.577 2.296-1.864 3.372-1.82a.343.343 0 00.332-.343v-.865a.363.363 0 00-.332-.4c0-.022-.023-.022-.034-.022zm7.864 6.633v-4.98c0-1.287-.465-1.642-1.752-1.642a12.001 12.001 0 00-3.982.888c-.233.088-.322.144-.277.432l.088.566c.045.188.278.288.61.144a13.867 13.867 0 013.128-.91c.555 0 .788.145.788.855v1.286a10.512 10.512 0 00-4.947 2.052c-.078.3-.133.6-.144.899 0 1.808.931 2.362 2.373 2.362a5.402 5.402 0 002.94-1.175l.344.587c.255.466.52.466.887.466h.865l-.92-1.83zm-1.308-.189a7.232 7.232 0 01-2.418 1.099 1.14 1.14 0 01-1.254-1.032.67.67 0 010-.21c0-.178.011-.356.045-.522.277-.599 2.84-1.43 3.638-1.53-.067.177-.1.377-.089.576v.932a1.21 1.21 0 00.078.688zM44.013 6.1h-.533v2.33h.533a.826.826 0 00.654-.277c.167-.2.255-.444.244-.7v-.387c.011-.256-.077-.5-.244-.7a.783.783 0 00-.654-.265zm-14.93-.033a.664.664 0 00-.566.266 1.036 1.036 0 00-.21.666v.532a1.07 1.07 0 00.21.677.655.655 0 00.566.255.743.743 0 00.588-.255.997.997 0 00.222-.677V7a.968.968 0 00-.222-.666.72.72 0 00-.588-.266zm-5.257.034h-.744v1.153h.744a.594.594 0 00.465-.166c.2-.244.2-.588 0-.821a.526.526 0 00-.465-.166zm2.994.133a.642.642 0 00-.465-.133h-.61v1.053h.576a.79.79 0 00.5-.133.54.54 0 00.177-.4.513.513 0 00-.178-.387zm21.563.687c.1-.088.144-.21.144-.344a.418.418 0 00-.155-.366.624.624 0 00-.444-.11h-.565v.931h.654a.533.533 0 00.366-.11z" fill="#8EA9B4"/><path d="M52.176 4.87H21.862a.469.469 0 00-.466.465v3.727a.47.47 0 00.466.466h30.303c.255 0 .466-.21.466-.466V5.335a.452.452 0 00-.455-.466zM24.57 7.32a1.024 1.024 0 01-.743.245h-.744v1.198h-.399V5.779h1.143c.266-.022.532.066.743.244a.83.83 0 01.266.643.854.854 0 01-.266.655zm2.939 1.432h-.41c-.056-.056-.1-.122-.1-.2a1.159 1.159 0 010-.277v-.278a.516.516 0 00-.144-.388.477.477 0 00-.377-.144h-.721v1.287h-.4V5.779h1.02c.267-.022.533.055.744.222a.792.792 0 01.266.632.735.735 0 01-.122.4.805.805 0 01-.344.266.685.685 0 01.355.255.88.88 0 01.111.443v.289c0 .088.011.166.033.244a.372.372 0 00.111.177l-.022.045zm2.795-1.22c.011.332-.11.665-.344.909a1.133 1.133 0 01-.876.366 1.102 1.102 0 01-.854-.366 1.292 1.292 0 01-.322-.91V7c-.01-.333.111-.654.322-.91.222-.244.532-.377.854-.366.333-.01.655.122.876.367.233.255.355.587.344.931v.51zm1.63-1.431v2.662h-.41V6.1h-.976v-.322H32.9V6.1c.01-.011-.965-.011-.965 0zm1.387 2.65V5.78h1.82v.32h-1.398v.965h1.22v.321h-1.22v1.065h1.442v.31l-1.864-.01zm4.17-.243c-.221.2-.51.299-.798.288a1.033 1.033 0 01-.832-.355 1.364 1.364 0 01-.321-.91V7a1.35 1.35 0 01.321-.932 1.06 1.06 0 01.821-.355c.288-.01.577.078.81.267.21.188.321.465.288.754h-.388a.677.677 0 00-.177-.5.708.708 0 00-.522-.188.63.63 0 00-.532.277c-.144.2-.211.433-.2.677v.521c-.011.244.056.477.2.677a.643.643 0 00.532.277.747.747 0 00.522-.177.677.677 0 00.177-.5h.388a.851.851 0 01-.288.71zM39.355 6.1v2.662h-.41V6.1h-.965v-.322h2.362l.011.322c0-.011-.998-.011-.998 0zm1.409 2.65V5.78h1.819v.32h-1.398v.965h1.21v.321h-1.22v1.065h1.441l.011.31-1.863-.01zm4.548-1.164a1.228 1.228 0 01-1.287 1.165h-.932V5.779h.932a1.228 1.228 0 011.287 1.165v.643zm3.56.954c-.21.155-.466.233-.72.21h-1.199V5.78h.976c.255-.011.522.055.732.2a.748.748 0 01.267.61.565.565 0 01-.123.343.72.72 0 01-.31.233.705.705 0 01.466.256.83.83 0 01.177.499.77.77 0 01-.266.62s-.011 0 0 0zm1.82-.832v1.054h-.4V7.676L49.26 5.768h.466l.777 1.52.776-1.52h.466l-1.054 1.94z" fill="#8EA9B4"/><path d="M48.15 7.354h-.787v1.087h.776a.62.62 0 00.433-.144c.11-.1.166-.233.155-.377a.535.535 0 00-.155-.4.615.615 0 00-.422-.166z" fill="#8EA9B4"/></svg>