<svg width="31" height="30" fill="none" xmlns="http://www.w3.org/2000/svg"><g clip-path="url(#clip0)"><path d="M15.349 14.1h5.983c-.431-2.841-2.937-5.04-5.983-5.04-3.346 0-6.056 2.643-6.056 5.905 0 3.262 2.71 5.904 6.056 5.904V14.1zm1.427 12.03c.18 0 .288-.105.288-.292 0-.117-.048-.21-.144-.245a.528.528 0 00-.204-.035h-.264v.56l.324.012zm-.744.632h.204v-1.216h-.204v-.176h.684c.108 0 .216 0 .3.035a.399.399 0 01.275.398c0 .222-.12.386-.335.433 0 0 .048.023.072.07l.227.374c.024.047.06.058.108.058h.048v.176h-.132c-.131 0-.168-.024-.227-.117l-.24-.421c-.048-.07-.072-.094-.168-.094h-.192v.456h.204v.176h-.624v-.152zm1.583 0h.204v-1.216h-.204v-.176h1.151v.363h-.203v-.187h-.528v.503h.563v.187h-.563v.514h.575v-.187h.204v.362h-1.199v-.163zm2.255-1.403c.275 0 .611.105.611.304v.198h-.204v-.116c0-.129-.216-.2-.396-.2-.371 0-.611.246-.611.609 0 .362.24.631.611.631.144 0 .432-.047.432-.199v-.21h-.312V26.2h.528v.432c0 .234-.408.328-.66.328-.491 0-.827-.351-.827-.807-.012-.456.336-.795.827-.795zm1.534.023v.175h-.203v1.216h.203v.176h-.623v-.176h.204v-1.215h-.204v-.176h.623zm.456 1.087v.117c0 .117.156.187.324.187.192 0 .324-.081.324-.233 0-.188-.192-.234-.396-.316-.216-.07-.42-.164-.42-.444 0-.293.24-.421.516-.421.24 0 .492.093.492.257v.187h-.216v-.105c0-.082-.144-.14-.276-.14-.156 0-.276.07-.276.222 0 .163.156.222.348.28.228.082.467.176.467.468 0 .304-.24.456-.54.456-.239 0-.527-.105-.527-.34v-.163l.18-.012zm1.403.293h.204v-1.204h-.372v.233h-.204v-.42h1.38v.42h-.204v-.233h-.372v1.204h.204v.175h-.636v-.175zm1.187 0h.204v-1.216h-.204v-.176h1.151v.363h-.203v-.187h-.528v.503h.563v.187h-.563v.514h.575v-.187h.204v.362H24.45v-.163zm2.183-.632c.18 0 .287-.105.287-.292 0-.117-.048-.21-.144-.245a.528.528 0 00-.203-.035h-.264v.56l.324.012zm-.744.632h.204v-1.216h-.204v-.176h.684c.108 0 .215 0 .3.035a.399.399 0 01.275.398c0 .222-.12.386-.335.433 0 0 .047.023.071.07l.228.374c.024.047.06.058.108.058h.048v.176h-.132c-.132 0-.168-.024-.228-.117l-.24-.421c-.047-.07-.071-.094-.167-.094h-.192v.456h.204v.176h-.624v-.152zm1.571 0h.204v-1.216h-.204v-.176h1.151v.363h-.192v-.187h-.527v.503h.563v.187h-.563v.514h.575v-.187h.204v.362h-1.199l-.012-.163zm2.098-.012a.625.625 0 00.264-.047c.216-.07.348-.269.348-.56 0-.293-.132-.492-.348-.562-.084-.035-.168-.035-.275-.035h-.24v1.192l.252.012zm-.659.012h.204v-1.216h-.204v-.176h.671c.132 0 .228.012.348.035.312.094.504.363.504.737s-.192.643-.504.737a1.011 1.011 0 01-.335.046h-.684v-.163z" fill="#577E8F"/><path d="M16.356 19.455c-.108 0-.887-.363-1.75-.585-.864-.222-1.104-.35-1.643-.573-.54-.222-.564-.467-.804-.467-.228 0-.707-.117-.96-.491a.533.533 0 01.073-.725c.096-.094.108-.07.036-.27-.072-.21-.144-.584.036-.736.18-.152.36-.199.3-.374-.06-.199 0-.514.12-.643.12-.128.263-.14.215-.503-.06-.362.276-.654.708-.783.42-.117.695.023 1.031.117.336.105.911.397 1.175.117.264-.269.3-.807.228-1.158-.072-.35.024-.9.216-1.227.204-.328.54-.667.815-.725.264-.059.372-.023.36.152-.024.175-.336.725-.336.994s.108.725.096.97c-.024.234.024.55.18.783.156.223.168.725.072 1.275-.084.55-.528 2.034-.528 2.034l.36 2.818z" fill="#fff"/><path d="M14.977 15.748h-.72v-1.075h.756v-1.485h1.355v1.485h1.271v1.075h-1.27v2.198c0 .9.719 1.03 1.102 1.03.156 0 .252-.024.252-.024v1.18s-.18.036-.42.036c-.779 0-2.314-.222-2.314-2.046l-.012-2.374zm5.252 3.426c-.575 0-.84-.339-.84-.701 0-.76 1.14-.854 1.872-.854h.24v.129c0 .654-.528 1.426-1.272 1.426zm1.068-2.479c-.912 0-3.31.129-3.31 1.836 0 1.099.9 1.695 1.895 1.695 1.27 0 1.69-.958 1.69-.958h.024s-.012.093-.012.233c0 .316.204.597.708.597h1.247v-1.134h-.432c-.156 0-.24-.094-.24-.234v-2.023c0-1.216-.551-2.163-2.41-2.163-.576 0-2.038.094-2.038 1.11v.585h1.283v-.292c0-.292.491-.362.743-.362.708 0 1.031.28 1.031 1.064v.046h-.18zm6.463.562c0 1.227-.636 1.59-1.295 1.601-.9 0-1.391-.701-1.391-1.66 0-.924.455-1.52 1.295-1.52.755.012 1.39.351 1.39 1.579zm-1.631-2.713c-1.595 0-2.47 1.204-2.47 2.7 0 1.497.911 2.748 2.506 2.748.743 0 1.223-.245 1.559-.701h.024s-.012.164-.012.292v.257c0 .983-.732 1.333-1.571 1.333a3.725 3.725 0 01-1.547-.362l-.42 1.064a4.595 4.595 0 001.979.467c1.45 0 2.938-.701 2.938-2.56v-3.73c0-.14.096-.222.24-.222h.42v-1.146H28.49c-.431 0-.611.246-.611.503v.14h-.024c0-.011-.444-.783-1.727-.783z" fill="#6B8D9C"/><path d="M15.349 27.346c-7.003 0-12.699-5.553-12.699-12.38 0-6.829 5.696-12.382 12.699-12.382 6.703 0 12.195 5.097 12.663 11.516h1.69C29.235 6.77 22.987.935 15.35.935 7.41.935.959 7.225.959 14.965c0 7.74 6.452 14.03 14.39 14.03v-1.649z" fill="#A6BBC4"/><path d="M15.349 8.242c-3.801 0-6.895 3.017-6.895 6.723s3.094 6.723 6.895 6.723v-1.649c-2.866 0-5.204-2.28-5.204-5.074s2.338-5.074 5.204-5.074c2.566 0 4.7 1.824 5.132 4.209h1.703c-.444-3.297-3.334-5.858-6.835-5.858z" fill="#A6BBC4"/><path d="M15.349 4.595C9.485 4.595 4.7 9.248 4.7 14.977s4.772 10.382 10.648 10.382V23.71c-4.94 0-8.958-3.916-8.958-8.733s4.017-8.745 8.958-8.745c4.64 0 8.466 3.46 8.91 7.868h1.69c-.456-5.32-5.036-9.505-10.6-9.505z" fill="#A6BBC4"/></g><defs><clipPath id="clip0"><path fill="#fff" d="M0 0h30.698v29.93H0z"/></clipPath></defs></svg>