<svg width="30" height="30" fill="none" xmlns="http://www.w3.org/2000/svg"><path d="M26.867 25.488c-.97 0-1.754.783-1.754 1.753 0 .97.784 1.754 1.754 1.754s1.754-.783 1.754-1.754c0-.959-.784-1.753-1.754-1.753zM3.051 15.526c-.97 0-1.753.784-1.753 1.754s.783 1.754 1.753 1.754c.97 0 1.754-.784 1.754-1.754s-.783-1.754-1.754-1.754z" fill="#7998A5"/><path d="M1.719 20.238h2.689v8.686h-2.69v-8.686zm21.208 1.274c-.737-.783-1.765-1.274-2.888-1.274-.842 0-1.625.269-2.28.736V15.28H15.07v13.644h2.69v-.748a3.901 3.901 0 002.28.737c1.122 0 2.15-.491 2.887-1.275a4.475 4.475 0 001.192-3.074c0-1.205-.455-2.28-1.192-3.052zm-3.426 4.805a1.75 1.75 0 01-1.753-1.753c0-.97.783-1.754 1.753-1.754.97 0 1.754.783 1.754 1.754a1.75 1.75 0 01-1.754 1.753zm-7.997-6.08v.749a3.92 3.92 0 00-2.291-.748c-1.122 0-2.151.49-2.888 1.274a4.476 4.476 0 00-1.192 3.075 4.48 4.48 0 001.192 3.075c.737.783 1.766 1.274 2.888 1.274.842 0 1.637-.28 2.291-.748v.76h2.69V20.26l-2.69-.023zm-1.753 6.08c-.97 0-1.754-.783-1.754-1.753 0-.97.783-1.754 1.754-1.754.97 0 1.753.783 1.753 1.754a1.75 1.75 0 01-1.753 1.753z" fill="#577E8F"/><path d="M25.265.935l.515.27c-.094.14-.117.21-.117.338 0 .21.117.433.292.526.164.094.41.129.807.129h1.754v.573h-3.32v-.573h.362c-.363-.292-.445-.433-.445-.748a.967.967 0 01.152-.515zm3.262 19.49h-2.022c-.608 0-.865.175-.865.596 0 .48.338.713 1.04.713h1.847v.573h-1.976c-.62 0-.911.2-.911.62 0 .245.14.491.35.596.164.082.398.117.725.117h1.812v.573h-3.32v-.573h.362c-.315-.245-.444-.468-.444-.83a.99.99 0 01.538-.912c-.35-.199-.538-.538-.538-.97 0-.386.164-.725.444-.9.21-.13.445-.188.854-.188h2.104v.585zm-3.402-8.254c0-.386.164-.725.444-.9.21-.129.445-.188.854-.188h2.104v.573h-2.022c-.608 0-.865.176-.865.597 0 .479.338.713 1.04.713h1.847v.573h-1.976c-.62 0-.911.199-.911.62 0 .245.14.49.35.596.164.081.398.117.725.117h1.812v.572h-3.32v-.572h.362c-.315-.246-.444-.468-.444-.83a.99.99 0 01.538-.912c-.363-.188-.538-.527-.538-.96zm2.549 3.916l-.27.48c.515.316.702.573.702 1.029 0 .608-.444 1.029-1.122 1.052v-2.596h-.094c-1.052 0-1.753.632-1.753 1.59 0 .948.713 1.614 1.753 1.614 1.03 0 1.742-.678 1.742-1.637-.011-.678-.304-1.17-.958-1.532zm-1.17 2.514c-.49-.093-.853-.503-.853-.982 0-.491.34-.877.854-.982v1.964zm2.117-10.066c0-.924-.748-1.59-1.766-1.59-1.005 0-1.73.666-1.73 1.59 0 .48.164.83.55 1.157H22.68v.573h5.846v-.573h-.456c.374-.315.55-.69.55-1.157zm-1.754 1.192c-.725 0-1.216-.444-1.216-1.122 0-.643.503-1.087 1.24-1.087.7 0 1.215.456 1.215 1.099 0 .654-.514 1.11-1.239 1.11zm.807-6.336l-.27.479c.515.316.702.573.702 1.029 0 .608-.444 1.029-1.122 1.052V3.367h-.094c-1.052 0-1.753.62-1.753 1.59 0 .959.713 1.614 1.753 1.614 1.03 0 1.742-.678 1.742-1.637-.011-.678-.304-1.17-.958-1.543zm-1.17 2.525c-.49-.094-.853-.491-.853-.982s.34-.877.854-.982v1.964z" fill="#7998A5"/></svg>