<svg width="53" height="27" fill="none" xmlns="http://www.w3.org/2000/svg"><g clip-path="url(#clip0)"><path d="M3.258 9.328c-.807 0-1.241.44-1.241 1.28v1.658c0 .808.445 1.227 1.293 1.227h1.592V9.328H3.258zm.672 5.257c-2.41 0-3.103-.588-3.103-2.634v-1.144c0-1.836.807-2.58 2.793-2.58h2.46v6.357c0 .976-.217 1.658-.662 2.057-.413.378-1.034.535-2.058.535H1.138v-1.06h2.1c.247.063.94-.052 1.189-.21.34-.21.486-.587.486-1.311v-.01H3.93zm7.116-3.662c-.01-1.207-.424-1.7-1.386-1.7-1.014 0-1.438.504-1.458 1.7h2.844zm-1.52 3.662c-1.697 0-2.514-.83-2.514-2.54v-1.217c0-1.836.88-2.707 2.762-2.707 1.861 0 2.554.83 2.554 3.106v.755H8.202c0 1.144.372 1.543 1.396 1.543h2.73v1.06H9.525zm23.043-3.662c-.01-1.207-.425-1.7-1.397-1.7-1.013 0-1.448.504-1.458 1.7h2.855zm-1.52 3.662c-1.697 0-2.514-.83-2.514-2.54v-1.217c0-1.836.879-2.707 2.761-2.707 1.862 0 2.555.83 2.555 3.106v.755h-4.127c0 1.144.373 1.543 1.396 1.543h2.73v1.06h-2.802zm7.704-5.257H37.16c-.837 0-1.303.44-1.303 1.227v1.658c0 .84.424 1.28 1.242 1.28h1.654V9.328zm-.01-3.295h1.179v8.552h-2.461c-1.997 0-2.793-.735-2.793-2.582V10.86c0-2.046.693-2.634 3.103-2.634h.972V6.033zM43.2 9.328c-.806 0-1.24.44-1.24 1.28v1.658c0 .808.444 1.227 1.292 1.227h1.593V9.328H43.2zm.683 5.257c-2.41 0-3.103-.588-3.103-2.634v-1.144c0-1.836.807-2.58 2.793-2.58h2.461v6.357c0 .976-.217 1.658-.661 2.057-.414.378-1.035.535-2.059.535H41.08v-1.06h2.1c.248.063.941-.052 1.19-.21.34-.21.485-.587.485-1.311v-.01h-.972zm6.971-3.662c-.01-1.207-.424-1.7-1.396-1.7-1.014 0-1.448.504-1.459 1.7h2.855zm-1.52 3.662c-1.697 0-2.514-.83-2.514-2.54v-1.217c0-1.836.88-2.707 2.762-2.707 1.861 0 2.554.83 2.554 3.106v.755H48.01c0 1.144.372 1.543 1.396 1.543h2.72v1.06h-2.792z" fill="#577E8F"/><path d="M18.927 8.73l-1.903-3.704-1.686.87 3.216 3.096h.01a.214.214 0 00.104.063c.124.042.248-.032.29-.157a.44.44 0 00-.031-.168zm1.923-3.62l-1.737-.168.786 3.42a.33.33 0 00.217.252.311.311 0 00.393-.22c.01-.021.01-.042.01-.074l.331-3.21zm3.786 1.616l-1.2-1.291-1.717 3.232-.01.02a.304.304 0 00.196.378c.114.032.218 0 .29-.073l.01.01 2.43-2.276zm-4.023 7.428a.317.317 0 00-.207-.283.291.291 0 00-.362.2c-.01.02-.01.052-.01.073h-.011l-.755 3.704 1.851.409-.506-4.103zm-1.904-.934a.353.353 0 00-.361.105l-.01-.01-2.07 2.077 1.242 1.249 1.396-2.875h-.01c.01-.031.03-.053.041-.084a.35.35 0 00-.228-.462zm-.94-3.21l-2.462-1.616-.931 1.5 3.061.756c.01 0 .021.01.031.02.021.011.042 0 .063.011l.02.01a.358.358 0 00.373-.251c.04-.178-.021-.346-.156-.43zm-.187 1.658c-.052-.021-.103-.011-.155 0l-3.35.199.113 1.773 3.454-1.437v-.01a.291.291 0 00-.062-.525zm8.522-1.438l-.217-1.763-2.937 1.427-.02.01a.364.364 0 00.072.661.302.302 0 00.165.011v.01l2.937-.356zm-2.947 1.763c-.145-.01-.28.063-.32.21a.286.286 0 00.123.325v.01l2.886 1.753.89-1.532-3.58-.766zm1.096 3.525l-1.872-2.13a.372.372 0 00-.217-.157.417.417 0 00-.527.283.455.455 0 00.051.367l.972 2.34 1.593-.703z" fill="#9AB2BC"/><path d="M20.571 5.666a.876.876 0 01-1.251-.095.92.92 0 01.113-1.27.876.876 0 011.252.095c.32.378.259.945-.114 1.27zm3.496 1.28a.88.88 0 01-.869-.913.893.893 0 01.91-.87c.497.01.89.419.87.912a.893.893 0 01-.911.871zm1.448 3.116a.903.903 0 01-.176-1.259.878.878 0 011.241-.157c.393.304.476.87.176 1.259-.29.399-.848.462-1.241.157zm-9.857-1.164a.9.9 0 01-.651 1.09c-.476.116-.941-.188-1.065-.681a.906.906 0 01.651-1.091c.476-.116.952.188 1.066.682zm6.982 6.704c.175-.462.693-.703 1.137-.524.455.178.673.703.497 1.164a.883.883 0 01-1.148.525c-.445-.178-.662-.703-.486-1.165zm-5.803-.451c.497-.01.9.388.91.881a.894.894 0 01-1.789.021.887.887 0 01.88-.902zm-2.182-3.095a.909.909 0 01.104 1.27.876.876 0 01-1.252.083.909.909 0 01-.103-1.27.885.885 0 011.251-.083zm2.43-6.37a.961.961 0 01-1.199.651.98.98 0 01-.641-1.217.961.961 0 011.2-.65.985.985 0 01.64 1.217zm8.471 8.143a.913.913 0 01.61-1.112.88.88 0 011.076.64c.124.482-.145.976-.61 1.112-.455.126-.941-.157-1.076-.64zm-5.895 3.525a.957.957 0 011.334.273.988.988 0 01-.269 1.354.957.957 0 01-1.334-.273c-.28-.451-.165-1.06.269-1.354z" fill="#577E8F"/><path d="M26.311 18.918c.155-.514.3-.682.57-.682.268 0 .413.157.547.598.01.02.01.042.02.052l.011.053.87 2.801h-.508l-.238-.787h-1.385l-.238.787h-.518l.87-2.822zm1.148 1.605l-.527-1.72c-.01-.053-.02-.053-.041-.053s-.032.01-.032.042l-.527 1.731h1.127zm2.782-2.214h.476v3.431h-.982c-.797 0-1.128-.293-1.128-1.038v-.452c0-.818.28-1.06 1.241-1.06h.393v-.88zm0 1.322h-.64c-.342 0-.518.179-.518.494v.66c0 .336.166.515.497.515h.661v-1.67z" fill="#9AB2BC"/><path d="M32.879 18.31h.476v3.43h-.993c-.797 0-1.117-.294-1.117-1.039v-.45c0-.82.279-1.06 1.24-1.06h.394v-.882zm0 1.321h-.642c-.34 0-.517.178-.517.493v.661c0 .336.166.514.497.514h.662v-1.668zm2.048-1.322h.475v3.431h-.475v-3.43zm2.668 1.815c0-.335-.166-.503-.517-.503h-.652v2.109h-.476v-2.55h.88s.01 0 .03-.01c.094-.032.394.01.632.052.403.084.579.399.579.986v1.511h-.476v-1.595zm1.5-1.374v.45h.848v.442h-.848V20.9c0 .157.03.252.103.314.083.074.331.126.434.105.01-.01.021-.01.031-.01h.29v.44h-.32s-.021 0-.042.011a1.21 1.21 0 01-.559-.084c-.3-.126-.423-.41-.423-.997v-1.92l.486-.01zm2.182 2.99c-.683 0-1.014-.336-1.014-1.018v-.493c0-.734.352-1.091 1.107-1.091.745 0 1.024.336 1.024 1.249v.304h-1.655c0 .462.145.619.559.619h1.096v.43h-1.117zm.61-1.469c0-.483-.165-.682-.559-.682-.403 0-.579.2-.579.682h1.138zm2.275 1.47c-.972 0-1.24-.232-1.24-1.06v-.462c0-.735.32-1.04 1.127-1.04h.982v2.55c0 .389-.083.662-.269.83-.165.146-.413.21-.827.21h-.9v-.42h.838c.093.031.383-.021.476-.084.134-.084.196-.231.196-.525v-.01l-.383.01zm-.279-2.11c-.32 0-.496.178-.496.514v.661c0 .325.175.493.517.493h.641v-1.668h-.662zm1.738.588c0-.452.072-.703.248-.86.145-.127.393-.19.693-.18.062.011.114.011.114.011h.124v.43h-.145c-.486 0-.569.064-.569.452v1.668h-.476l.01-1.521zm1.572-1.91h.476v.44h-.476v-.44zm0 .881h.476v2.55h-.476v-2.55zm1.5-.44v.45h.848v.442h-.859V20.9c0 .157.031.252.103.314.083.074.331.126.435.105.01-.01.02-.01.03-.01h.29v.44h-.31s-.02 0-.041.011a1.21 1.21 0 01-.559-.084c-.3-.126-.413-.41-.413-.997v-1.92l.475-.01zm2.44 3.546c-.093.305-.403.483-.838.483h-.279v-.43h.28c.279 0 .34-.063.465-.42.01-.031.02-.073.041-.136h-.041c-.093 0-.166-.063-.197-.158l-.775-2.445h.496l.61 1.92c.01.064.042.085.073.085.01 0 .051-.043.062-.074l.61-1.941h.496l-1.003 3.116z" fill="#577E8F"/></g><defs><clipPath id="clip0"><path fill="#fff" d="M0 0h52.953v26.86H0z"/></clipPath></defs></svg>