<svg width="24" height="24" fill="none" xmlns="http://www.w3.org/2000/svg"><path d="M12 8.876A3.13 3.13 0 008.876 12 3.13 3.13 0 0012 15.124 3.13 3.13 0 0015.124 12 3.13 3.13 0 0012 8.876zM21.37 12c0-1.293.012-2.576-.06-3.867-.073-1.5-.415-2.831-1.512-3.928-1.1-1.1-2.428-1.44-3.928-1.512-1.294-.072-2.576-.06-3.868-.06-1.293 0-2.575-.012-3.867.06-1.5.073-2.831.415-3.928 1.512-1.1 1.1-1.44 2.428-1.512 3.928-.072 1.294-.06 2.576-.06 3.867 0 1.292-.012 2.576.06 3.867.073 1.5.415 2.832 1.512 3.929 1.1 1.099 2.428 1.439 3.928 1.511 1.294.073 2.576.061 3.867.061 1.294 0 2.576.012 3.867-.06 1.5-.073 2.832-.416 3.929-1.512 1.099-1.1 1.439-2.429 1.511-3.929.075-1.291.061-2.573.061-3.867zM12 16.807A4.8 4.8 0 017.193 12 4.8 4.8 0 0112 7.193 4.8 4.8 0 0116.807 12 4.8 4.8 0 0112 16.807zm5.004-8.688a1.121 1.121 0 01-1.123-1.123c0-.62.502-1.122 1.123-1.122a1.121 1.121 0 01.794 1.917 1.121 1.121 0 01-.794.328z" fill="#95B3BE"/></svg>