<svg width="181" height="33" fill="none" xmlns="http://www.w3.org/2000/svg"><path fill-rule="evenodd" clip-rule="evenodd" d="M173.465 15.591h-13.272c.164-1.717 1.338-3.434 3.458-3.434h15.651v-3.3h-16.369c-6.521 0-9.197 5.119-9.197 10.034h18.263c.618 0 2.086.135 2.086 1.683 0 1.55-1.272 1.685-3.456 1.752h-19.045V8.857h-5.609v13.469H135.28c-3.229 0-3.586-2.458-3.586-3.77v-9.7h-10.208l-8.316 5.724-7.5-5.724H83.791c-6.521 0-10.435 4.68-10.99 8.754h4.511c-1.803 1.256-3.08 2.957-3.774 4.709l-12.735.006c-3.229 0-3.588-2.458-3.588-3.77V8.856h-5.608v9.193c0 6.33 4.304 7.576 6.39 7.576h44.839l8.38-5.792 7.598 5.792h8.838L115.88 16.67l9.684-6.701v8.856c0 5.723 5.414 6.802 6.913 6.802h40.925c2.022 0 7.598-.27 7.598-4.849 0-4.58-4.111-5.186-7.535-5.186zm-71.542 6.735H80.824c.163-1.718 1.99-3.435 4.109-3.435H97.39v-3.3H80.367c.163-1.717 1.99-3.434 4.11-3.434h14.217v-1.92l9.849 7.543-6.62 4.546zM22.243 33c7.365 0 13.896-2.654 17.945-6.745l-3.648.018c-3.45 2.995-8.492 4.88-14.206 4.88-10.66 0-18.983-6.56-18.983-14.652 0-9.334 8.322-14.653 18.983-14.653.678.002 1.22.325.813.932-2.214 2.753-8.521 11.615-9.671 13.535-2.27 3.785-2.216 8.446 3.344 8.773H40.2c1.194 0 1.497-.579 1.929-1.182a12.596 12.596 0 002.357-7.405C44.483 9.544 39.743 4.332 32.77 1.767l-1.08 1.666c5.795 2.207 9.627 6.669 9.627 13.066 0 1.111-.158 2.193-.456 3.233-.259.903-.765 1.668-1.724 1.668H20.474c-2.39 0-1.466-2.547-.581-3.78 1.284-2.377 8.316-12.274 10.01-14.119.43-.676 1.64-2.076-.027-2.613C27.496.306 24.924 0 22.243 0 9.959 0 .007 6.513 0 16.5-.006 26.58 9.959 33 22.244 33z" fill="#fff"/></svg>