<svg width="84" height="41" fill="none" xmlns="http://www.w3.org/2000/svg"><g clip-path="url(#clip0)"><path d="M56.942 31.903h3.736V17.92l-3.736-2.13v16.114zM79.361 7.274v7.575c-1.737-1.572-4.02-2.54-6.538-2.54-5.417 0-9.807 4.44-9.807 9.912 0 5.473 4.39 9.913 9.807 9.913 2.517 0 4.8-.964 6.538-2.54v2.31h3.736V5.143l-3.736 2.13zM73.173 28.56c-3.544 0-6.42-2.84-6.42-6.34s2.876-6.34 6.42-6.34c3.545 0 6.421 2.84 6.421 6.34 0 3.504-2.876 6.34-6.42 6.34zM23.319 12.308a7.486 7.486 0 00-6.538 3.808 7.486 7.486 0 00-6.538-3.808 7.481 7.481 0 00-5.604 2.508v-2.079H.903v19.166h3.736V20.377c0-2.545 2.092-4.61 4.67-4.61s4.67 2.065 4.67 4.61v11.526h3.736V20.377c0-2.545 2.092-4.61 4.67-4.61 2.577 0 4.67 2.065 4.67 4.61v11.526h3.736V19.685c0-4.071-3.344-7.377-7.472-7.377zm26.151-.778v3.319c-1.737-1.572-4.02-2.54-6.538-2.54-5.417 0-9.806 4.44-9.806 9.912 0 5.473 4.39 9.913 9.806 9.913a9.687 9.687 0 006.538-2.54v1.511c0 3.44-2.82 6.225-6.304 6.225a6.317 6.317 0 01-5.398-3.02l-3.232 1.844a10.052 10.052 0 008.63 4.864c5.543 0 10.04-4.44 10.04-9.913V13.66l-3.736-2.13zm-6.187 17.03c-3.545 0-6.421-2.835-6.421-6.34 0-3.498 2.876-6.339 6.42-6.339 3.545 0 6.422 2.84 6.422 6.34 0 3.504-2.877 6.34-6.421 6.34z" fill="#fff"/><path d="M53.83 4.576l-4.357 1.775 11.208 6.386 3.736-2.13-10.587-6.03z" fill="red"/><path d="M56.945 10.607l3.736 2.13L83.097-.039 56.945 10.607z" fill="#FF6D70"/></g><defs><clipPath id="clip0"><path fill="#fff" d="M0 0h84v41H0z"/></clipPath></defs></svg>