<svg width="160" height="160" fill="none" xmlns="http://www.w3.org/2000/svg"><path d="M80 160c44.183 0 80-35.817 80-80S124.183 0 80 0 0 35.817 0 80s35.817 80 80 80z" fill="#fff"/><path d="M80 140c33.137 0 60-26.863 60-60s-26.863-60-60-60-60 26.863-60 60 26.863 60 60 60z" fill="#EFC4C6"/><path d="M80 120c22.091 0 40-17.909 40-40s-17.909-40-40-40-40 17.909-40 40 17.909 40 40 40z" fill="#F7989B"/><path d="M80 98c9.941 0 18-8.059 18-18s-8.059-18-18-18-18 8.059-18 18 8.059 18 18 18z" fill="#00C"/><path d="M100 98a3.997 3.997 0 014-4 3.998 3.998 0 014 4v14a16.002 16.002 0 01-19.122 15.691 15.994 15.994 0 01-8.192-4.379L65.13 107.758a3.99 3.99 0 01-1.172-2.828 3.998 3.998 0 014-4.001 4 4 0 012.828 1.171L76 107.314V80a4 4 0 118 0v22" stroke="#fff" stroke-width="2.5" stroke-miterlimit="10"/><path d="M84 102v-8a4 4 0 118 0v8m8 0v-8a4 4 0 10-8 0v8" stroke="#fff" stroke-width="2.5" stroke-miterlimit="10"/></svg>