<svg width="720" height="525" fill="none" xmlns="http://www.w3.org/2000/svg"><g opacity=".3" filter="url(#filter0_d)"><path d="M119.547 480.561h480.906c14.249 0 27.837-1.187 40.234-3.339 0 0-166.785-35.238-279.873-34.897-113.089.342-281.5 34.897-281.5 34.897 12.395 2.152 25.984 3.339 40.233 3.339z" fill="#C4C4C4" fill-opacity=".01"/></g><g opacity=".3" filter="url(#filter1_d)"><path d="M126.645 481h465.709c13.8 0 26.959-1.147 38.963-3.225 0 0-161.514-34.033-271.029-33.703-109.515.33-272.605 33.703-272.605 33.703 12.004 2.078 25.163 3.225 38.962 3.225z" fill="#C4C4C4" fill-opacity=".01"/></g><path d="M41.5 74.941h636V466.59a5.5 5.5 0 01-5.5 5.5H47a5.5 5.5 0 01-5.5-5.5V74.941z" fill="#FDFDFD" stroke="#EEE"/><path d="M434.575 74.441h136.501v86.46H434.575v-86.46zm0 280.301h94.64v8.191h-94.64v-8.191zm0-156.529h65.975v37.312h-65.975v-37.312zm0 42.772h42.77v4.55h-42.77v-4.55zm0 74.624h42.316v4.55h-42.316v-4.55zm0 8.191h51.415v4.55h-51.415v-4.55zm0 8.191h12.741v4.55h-12.741v-4.55zm70.525-91.006h63.246v4.55H505.1v-4.55zm0 74.624h52.324v4.55H505.1v-4.55zm-70.525-66.433h51.415v4.55h-51.415v-4.55zm70.525 0h64.61v4.55H505.1v-4.55zm0 74.624h35.945v4.55H505.1v-4.55zm-70.525-66.435h13.195v4.55h-13.195v-4.55zm70.525 0h20.474v4.55H505.1v-4.55zm0 74.626h20.474v4.55H505.1v-4.55zm0-133.778h65.976v37.312H505.1v-37.312zm0 74.624h65.976v37.312H505.1v-37.312zm-70.525-93.735h80.99v8.191h-80.99v-8.191zm0 194.751h45.501v45.503h-45.501v-45.503zm0 49.596h45.501v45.503h-45.501v-45.503z" fill="#E7EFF1"/><g filter="url(#filter2_d)"><path d="M147.926 117.217h247.065v5.46H147.926v-5.46z" fill="#E7EFF1"/></g><g filter="url(#filter3_d)"><path d="M147.926 129.958h255.71v5.46h-255.71v-5.46z" fill="#E7EFF1"/></g><g filter="url(#filter4_d)"><path d="M147.926 142.698H398.63v5.461H147.926v-5.461z" fill="#E7EFF1"/></g><path d="M147.926 78.995H252.12v5.46H147.926v-5.46z" fill="#E7EFF1"/><g filter="url(#filter5_d)"><path d="M147.926 155.439H252.12v5.46H147.926v-5.46z" fill="#E7EFF1"/></g><g filter="url(#filter6_d)"><path d="M147.926 104.476h256.62v5.46h-256.62v-5.46z" fill="#E7EFF1"/></g><path d="M484.623 379.313h81.446v5.46h-81.446v-5.46zm0 9.099h59.605v5.46h-59.605v-5.46zm0 13.653h25.48v3.64h-25.48v-3.64zm0 27.3h73.255v5.461h-73.255v-5.461zm0 9.102h59.605v5.46h-59.605v-5.46zm0 13.649h25.48v3.639h-25.48v-3.639zM505.1 198.213h65.976v37.312H505.1v-37.312zm-70.525 74.624h65.975v37.312h-65.975v-37.312zm-64.156 27.302h29.575v3.64h-29.575v-3.64zm0 12.285h25.934v3.639h-25.934v-3.639zm0-6.371h35.946v3.64h-35.946v-3.64zm0 14.108h8.645v3.639h-8.645v-3.639zm0 26.844h25.934v3.639h-25.934v-3.639zm0-12.741h29.575v3.639h-29.575v-3.639zm0 6.371h35.946v3.639h-35.946v-3.639zm0 14.107h8.645v3.639h-8.645v-3.639zm0 26.846h25.934v3.639h-25.934v-3.639zm0-12.741h29.575v3.639h-29.575v-3.639zm0 6.37h35.946v3.64h-35.946v-3.64zm0 14.108h8.645v3.639h-8.645v-3.639zm-45.954-91.463h41.405v27.757h-41.405v-27.757zm0 34.584h41.405v27.756h-41.405v-27.756zm0 34.582h41.405v27.756h-41.405v-27.756zm-176.539-69.166h171.079v96.921H147.926v-96.921zm0 111.028h124.215v63.7H147.926v-63.7zm135.134 0h124.215v63.7H283.06v-63.7z" fill="#E7EFF1"/><path d="M41 49a6 6 0 016-6h625a6 6 0 016 6v25.44H41V49z" fill="#00C"/><path opacity=".65" d="M252.802 54.278h213.395v8.885H252.802v-8.885z" fill="#fff"/><path d="M57.094 63.212a4.118 4.118 0 100-8.236 4.118 4.118 0 000 8.236z" fill="#FF6B46"/><path d="M72.065 63.212a4.118 4.118 0 100-8.236 4.118 4.118 0 000 8.236z" fill="#F8E71D"/><path d="M87.036 63.212a4.118 4.118 0 100-8.236 4.118 4.118 0 000 8.236z" fill="#B8E985"/><path d="M147.928 182.741h75.529v4.55h-75.529v-4.55z" fill="#FF6D70"/><path d="M383.159 182.741h24.116v4.55h-24.116v-4.55z" fill="#00C"/><path d="M147.926 280.116h16.987v3.639h-16.987v-3.639zm0-20.93h69.615v5.46h-69.615v-5.46zm0 10.012h50.049v5.46h-50.049v-5.46zm88.267 10.918h16.987v3.639h-16.987v-3.639zm0-20.93h69.616v5.46h-69.616v-5.46zm0 10.012h50.05v5.46h-50.05v-5.46zm88.272 10.918h16.987v3.639h-16.987v-3.639zm0-20.93h69.616v5.46h-69.616v-5.46zm0 10.012h50.05v5.46h-50.05v-5.46z" fill="#95B3BE"/><path d="M147.928 198.213h82.81v55.513h-82.81v-55.513zm88.265 0h82.81v55.513h-82.81v-55.513zm88.27 0h82.81v55.513h-82.81v-55.513z" fill="#FF6D70"/><g filter="url(#filter7_d)"><path d="M528.553 498.228h114.185c3.383 0 6.61-1.311 9.553-3.687 0 0-39.601-38.915-66.452-38.538-26.852.377-66.839 38.538-66.839 38.538 2.943 2.376 6.17 3.687 9.553 3.687z" fill="#C4C4C4" fill-opacity=".01"/></g><g filter="url(#filter8_i)"><path d="M635.579 211.828a19.072 19.072 0 0113.468 5.593 19.101 19.101 0 015.588 13.478v245a19.104 19.104 0 01-5.585 13.484 19.072 19.072 0 01-13.471 5.596h-99.697a19.067 19.067 0 01-13.469-5.592 19.098 19.098 0 01-5.586-13.479v-245a19.097 19.097 0 015.584-13.485 19.07 19.07 0 0113.471-5.595h99.697z" fill="#F9FAFA"/></g><path d="M635.579 218.476H622.35a2.17 2.17 0 00-2.169 2.17v.783a7.101 7.101 0 01-2.077 5.019 7.087 7.087 0 01-5.016 2.08h-54.72a7.102 7.102 0 01-7.093-7.099v-.783a2.17 2.17 0 00-2.164-2.17h-13.229a12.419 12.419 0 00-12.417 12.415V475.91a12.423 12.423 0 007.659 11.476 12.41 12.41 0 004.749.947h99.706a12.409 12.409 0 0011.467-7.666c.624-1.507.946-3.122.946-4.753V230.899c0-1.631-.321-3.246-.944-4.753a12.398 12.398 0 00-2.69-4.03 12.396 12.396 0 00-8.775-3.64" fill="#fff"/><path d="M578.424 222.378h14.943a1.081 1.081 0 000-2.16h-14.943a1.078 1.078 0 00-1.04.656 1.065 1.065 0 000 .849 1.082 1.082 0 001.04.655zm22.497 1.497c.661 0 1.294-.263 1.761-.731a2.489 2.489 0 00.31-3.148 2.49 2.49 0 00-4.514.899 2.49 2.49 0 002.443 2.98z" fill="#E7EFF1"/><path d="M565.145 299.234h-29.222v3.323h29.222v-3.323z" fill="#FF6D70"/><path d="M635.539 299.234H617.94v3.323h17.599v-3.323z" fill="#00C"/><path d="M584.737 310.533h-48.814v36.89h48.814v-36.89zm50.802-.001h-48.813v36.89h48.813v-36.89z" fill="#FF6D70"/><path d="M545.775 363.375h-9.852v2.658h9.852v-2.658zm33.076-13.294h-42.928v3.988h42.928v-3.988zm-23.574 6.646h-19.354v3.988h19.354v-3.988zm41.3 6.648h-9.851v2.657h9.851v-2.657zm33.077-13.294h-42.928v3.987h42.928v-3.987zm-23.575 6.646h-19.353v3.987h19.353v-3.987z" fill="#95B3BE"/><path d="M635.542 376.003h-99.619v66.799h99.619v-66.799z" fill="#FF6D70"/><path d="M628.237 238.747h-92.314v3.988h92.314v-3.988zm5.645 9.306h-97.959v3.988h97.959v-3.988zm0 9.306h-97.959v3.988h97.959v-3.988zm1.66 9.306h-99.619v3.988h99.619v-3.988zm0 9.304h-99.619v3.988h99.619v-3.988zm-59.772 9.306h-39.847v3.988h39.847v-3.988zm51.969 167.493h-84.011v22.596h84.011v-22.596z" fill="#E7EFF1"/><path d="M621.922 427.515h-82.02v3.988h82.02v-3.988zm-45.16 7.311h-36.86v3.988h36.86v-3.988z" fill="#fff"/><defs><filter id="filter0_d" x="70.313" y="433.323" width="579.373" height="56.238" filterUnits="userSpaceOnUse" color-interpolation-filters="sRGB"><feFlood flood-opacity="0" result="BackgroundImageFix"/><feColorMatrix in="SourceAlpha" values="0 0 0 0 0 0 0 0 0 0 0 0 0 0 0 0 0 0 127 0"/><feOffset/><feGaussianBlur stdDeviation="4.5"/><feColorMatrix values="0 0 0 0 0 0 0 0 0 0 0 0 0 0 0 0 0 0 0.33 0"/><feBlend in2="BackgroundImageFix" result="effect1_dropShadow"/><feBlend in="SourceGraphic" in2="effect1_dropShadow" result="shape"/></filter><filter id="filter1_d" x="78.683" y="435.069" width="561.634" height="54.931" filterUnits="userSpaceOnUse" color-interpolation-filters="sRGB"><feFlood flood-opacity="0" result="BackgroundImageFix"/><feColorMatrix in="SourceAlpha" values="0 0 0 0 0 0 0 0 0 0 0 0 0 0 0 0 0 0 127 0"/><feOffset/><feGaussianBlur stdDeviation="4.5"/><feColorMatrix values="0 0 0 0 0 0 0 0 0 0 0 0 0 0 0 0 0 0 0.2 0"/><feBlend in2="BackgroundImageFix" result="effect1_dropShadow"/><feBlend in="SourceGraphic" in2="effect1_dropShadow" result="shape"/></filter><filter id="filter2_d" x="147.926" y="117.217" width="247.066" height="6.46" filterUnits="userSpaceOnUse" color-interpolation-filters="sRGB"><feFlood flood-opacity="0" result="BackgroundImageFix"/><feColorMatrix in="SourceAlpha" values="0 0 0 0 0 0 0 0 0 0 0 0 0 0 0 0 0 0 127 0"/><feOffset dy="1"/><feColorMatrix values="0 0 0 0 0.0833333 0 0 0 0 0.0833333 0 0 0 0 0.0833333 0 0 0 0.17 0"/><feBlend in2="BackgroundImageFix" result="effect1_dropShadow"/><feBlend in="SourceGraphic" in2="effect1_dropShadow" result="shape"/></filter><filter id="filter3_d" x="147.926" y="129.958" width="255.71" height="6.46" filterUnits="userSpaceOnUse" color-interpolation-filters="sRGB"><feFlood flood-opacity="0" result="BackgroundImageFix"/><feColorMatrix in="SourceAlpha" values="0 0 0 0 0 0 0 0 0 0 0 0 0 0 0 0 0 0 127 0"/><feOffset dy="1"/><feColorMatrix values="0 0 0 0 0.0833333 0 0 0 0 0.0833333 0 0 0 0 0.0833333 0 0 0 0.17 0"/><feBlend in2="BackgroundImageFix" result="effect1_dropShadow"/><feBlend in="SourceGraphic" in2="effect1_dropShadow" result="shape"/></filter><filter id="filter4_d" x="147.926" y="142.698" width="250.705" height="6.46" filterUnits="userSpaceOnUse" color-interpolation-filters="sRGB"><feFlood flood-opacity="0" result="BackgroundImageFix"/><feColorMatrix in="SourceAlpha" values="0 0 0 0 0 0 0 0 0 0 0 0 0 0 0 0 0 0 127 0"/><feOffset dy="1"/><feColorMatrix values="0 0 0 0 0.0833333 0 0 0 0 0.0833333 0 0 0 0 0.0833333 0 0 0 0.17 0"/><feBlend in2="BackgroundImageFix" result="effect1_dropShadow"/><feBlend in="SourceGraphic" in2="effect1_dropShadow" result="shape"/></filter><filter id="filter5_d" x="147.926" y="155.439" width="104.195" height="6.46" filterUnits="userSpaceOnUse" color-interpolation-filters="sRGB"><feFlood flood-opacity="0" result="BackgroundImageFix"/><feColorMatrix in="SourceAlpha" values="0 0 0 0 0 0 0 0 0 0 0 0 0 0 0 0 0 0 127 0"/><feOffset dy="1"/><feColorMatrix values="0 0 0 0 0.0833333 0 0 0 0 0.0833333 0 0 0 0 0.0833333 0 0 0 0.17 0"/><feBlend in2="BackgroundImageFix" result="effect1_dropShadow"/><feBlend in="SourceGraphic" in2="effect1_dropShadow" result="shape"/></filter><filter id="filter6_d" x="147.926" y="104.476" width="256.621" height="6.46" filterUnits="userSpaceOnUse" color-interpolation-filters="sRGB"><feFlood flood-opacity="0" result="BackgroundImageFix"/><feColorMatrix in="SourceAlpha" values="0 0 0 0 0 0 0 0 0 0 0 0 0 0 0 0 0 0 127 0"/><feOffset dy="1"/><feColorMatrix values="0 0 0 0 0.0833333 0 0 0 0 0.0833333 0 0 0 0 0.0833333 0 0 0 0.17 0"/><feBlend in2="BackgroundImageFix" result="effect1_dropShadow"/><feBlend in="SourceGraphic" in2="effect1_dropShadow" result="shape"/></filter><filter id="filter7_d" x="510" y="447" width="151.291" height="60.228" filterUnits="userSpaceOnUse" color-interpolation-filters="sRGB"><feFlood flood-opacity="0" result="BackgroundImageFix"/><feColorMatrix in="SourceAlpha" values="0 0 0 0 0 0 0 0 0 0 0 0 0 0 0 0 0 0 127 0"/><feOffset/><feGaussianBlur stdDeviation="4.5"/><feColorMatrix values="0 0 0 0 0 0 0 0 0 0 0 0 0 0 0 0 0 0 0.2 0"/><feBlend in2="BackgroundImageFix" result="effect1_dropShadow"/><feBlend in="SourceGraphic" in2="effect1_dropShadow" result="shape"/></filter><filter id="filter8_i" x="516.827" y="206.565" width="137.808" height="288.414" filterUnits="userSpaceOnUse" color-interpolation-filters="sRGB"><feFlood flood-opacity="0" result="BackgroundImageFix"/><feBlend in="SourceGraphic" in2="BackgroundImageFix" result="shape"/><feColorMatrix in="SourceAlpha" values="0 0 0 0 0 0 0 0 0 0 0 0 0 0 0 0 0 0 127 0" result="hardAlpha"/><feOffset dy="-5.264"/><feGaussianBlur stdDeviation="8.845"/><feComposite in2="hardAlpha" operator="arithmetic" k2="-1" k3="1"/><feColorMatrix values="0 0 0 0 0 0 0 0 0 0 0 0 0 0 0 0 0 0 0.12 0"/><feBlend in2="shape" result="effect1_innerShadow"/></filter></defs></svg>