<svg width="720" height="525" fill="none" xmlns="http://www.w3.org/2000/svg"><g opacity=".3" filter="url(#filter0_d)"><path d="M119.547 480.561h480.906c14.249 0 27.837-1.187 40.234-3.339 0 0-166.785-35.238-279.873-34.897-113.089.342-281.5 34.897-281.5 34.897 12.395 2.152 25.984 3.339 40.233 3.339z" fill="#C4C4C4" fill-opacity=".01"/></g><g opacity=".3" filter="url(#filter1_d)"><path d="M126.645 481h465.709c13.8 0 26.959-1.147 38.963-3.225 0 0-161.514-34.033-271.029-33.703-109.515.33-272.605 33.703-272.605 33.703 12.004 2.078 25.163 3.225 38.962 3.225z" fill="#C4C4C4" fill-opacity=".01"/></g><path d="M41.5 74.97h636V467a5.5 5.5 0 01-5.5 5.501H47a5.5 5.5 0 01-5.5-5.5V74.97z" fill="#fff" stroke="#EEE"/><path d="M571.071 74.471H434.57v86.543h136.501V74.471zM529.21 355.04h-94.64v8.199h94.64v-8.199zm-28.665-156.679H434.57v37.348h65.975v-37.348zm-23.206 42.813H434.57v4.554h42.769v-4.554zm-.454 74.696H434.57v4.554h42.315v-4.554zm9.099 8.198H434.57v4.554h51.414v-4.554zm-38.674 8.199h-12.74v4.554h12.74v-4.554zm121.033-91.092h-63.246v4.554h63.246v-4.554zm-10.922 74.695h-52.324v4.554h52.324v-4.554zm-71.437-66.496H434.57v4.554h51.414v-4.554zm83.723-.001h-64.61v4.554h64.61v-4.554zm-28.665 74.695h-35.945v4.554h35.945v-4.554zm-93.278-66.498H434.57v4.554h13.194v-4.554zm77.807 0h-20.474v4.554h20.474v-4.554zm0 74.697h-20.474v4.554h20.474v-4.554zm45.502-133.905h-65.976v37.347h65.976v-37.347zm0 74.695h-65.976v37.348h65.976v-37.348zm-55.514-93.824H434.57v8.199h80.989v-8.199zM480.07 374.17h-45.5v45.546h45.5V374.17zm0 49.643h-45.5v45.546h45.5v-45.546zm-85.08-306.525H147.924v5.465H394.99v-5.465zm8.644 12.753h-255.71v5.465h255.71v-5.465zm-5.005 12.753H147.924v5.465h250.705v-5.465zM252.119 79.03H147.924v5.465h104.195V79.03zm0 76.517H147.924v5.465h104.195v-5.465zm152.426-51.012H147.924v5.466h256.621v-5.466zm161.521 275.099H484.62v5.466h81.446v-5.466zm-21.841 9.108H484.62v5.466h59.605v-5.466zM510.1 402.409h-25.48v3.642h25.48v-3.642zm47.775 27.326H484.62v5.465h73.255v-5.465zm-13.65 9.11H484.62v5.465h59.605v-5.465zM510.1 452.507h-25.48v3.643h25.48v-3.643z" fill="#E7EFF1"/><path d="M571.073 198.362h-65.976v37.347h65.976v-37.347zm-70.528 74.695H434.57v37.348h65.975v-37.348z" fill="#E7EFF1"/><path d="M399.993 300.385h-29.575v3.643h29.575v-3.643zm-3.641 12.297h-25.934v3.642h25.934v-3.642zm10.011-6.377h-35.945v3.643h35.945v-3.643zm-27.3 14.121h-8.645v3.643h8.645v-3.643zm17.289 26.869h-25.934v3.643h25.934v-3.643zm3.641-12.753h-29.575v3.643h29.575v-3.643zm6.37 6.377h-35.945v3.643h35.945v-3.643zm-27.3 14.121h-8.645v3.642h8.645v-3.642zm17.289 26.871h-25.934v3.643h25.934v-3.643zm3.641-12.753h-29.575v3.643h29.575v-3.643zm6.37 6.377h-35.945v3.643h35.945v-3.643zm-27.3 14.121h-8.645v3.642h8.645v-3.642z" fill="#95B3BE"/><path d="M365.872 298.106h-41.405v27.783h41.405v-27.783zm0 34.616h-41.405v27.783h41.405v-27.783zm0 34.616h-41.405v27.783h41.405v-27.783zm-46.868-69.232h-171.08v97.013h171.08v-97.013zM272.139 409.24H147.924V473h124.215v-63.76zm135.134 0H283.058V473h124.215v-63.76z" fill="#FF6D70"/><path d="M672 43H47a6 6 0 00-6 6v25.47h637V49a6 6 0 00-6-6z" fill="#00C"/><path opacity=".65" d="M466.197 54.288H252.802v8.895h213.395v-8.895z" fill="#fff"/><path d="M57.094 63.232a4.12 4.12 0 004.118-4.123 4.12 4.12 0 00-4.118-4.122 4.12 4.12 0 00-4.118 4.122 4.12 4.12 0 004.118 4.123z" fill="#FF6B46"/><path d="M72.065 63.232a4.12 4.12 0 004.118-4.123 4.12 4.12 0 00-4.118-4.122 4.12 4.12 0 00-4.118 4.122 4.12 4.12 0 004.118 4.123z" fill="#F8E71D"/><path d="M87.037 63.232a4.12 4.12 0 004.118-4.122 4.12 4.12 0 00-4.118-4.122 4.12 4.12 0 00-4.118 4.122 4.12 4.12 0 004.118 4.122z" fill="#B8E985"/><path d="M223.454 182.875h-75.53v4.554h75.53v-4.554z" fill="#FF6D70"/><path d="M407.274 182.875h-24.116v4.554h24.116v-4.554z" fill="#00C"/><path d="M164.911 280.342h-16.987v3.643h16.987v-3.643zm52.629-20.95h-69.616v5.466h69.616v-5.466zm-19.566 10.022h-50.05v5.466h50.05v-5.466zm55.205 10.928h-16.987v3.643h16.987v-3.643zm52.629-20.95h-69.616v5.466h69.616v-5.466zm-19.567 10.022h-50.049v5.466h50.049v-5.466zm55.213 10.928h-16.987v3.643h16.987v-3.643zm52.629-20.95h-69.616v5.466h69.616v-5.466zm-19.566 10.022h-50.05v5.465h50.05v-5.465z" fill="#95B3BE"/><path d="M230.734 198.361h-82.81v55.566h82.81v-55.566zm88.267 0h-82.81v55.566h82.81v-55.566zm88.272 0h-82.81v55.566h82.81v-55.566z" fill="#FF6D70"/><g filter="url(#filter2_d)"><path d="M528.553 498.228h114.185c3.383 0 6.61-1.311 9.553-3.687 0 0-39.601-38.915-66.452-38.538-26.852.377-66.839 38.538-66.839 38.538 2.943 2.376 6.17 3.687 9.553 3.687z" fill="#C4C4C4" fill-opacity=".01"/></g><g filter="url(#filter3_i)"><path d="M635.579 211.828a19.072 19.072 0 0113.468 5.593 19.101 19.101 0 015.588 13.478v245a19.104 19.104 0 01-5.585 13.484 19.072 19.072 0 01-13.471 5.596h-99.697a19.067 19.067 0 01-13.469-5.592 19.098 19.098 0 01-5.586-13.479v-245a19.097 19.097 0 015.584-13.485 19.07 19.07 0 0113.471-5.595h99.697z" fill="#F9FAFA"/></g><path d="M635.579 218.476H622.35a2.17 2.17 0 00-2.169 2.17v.783a7.101 7.101 0 01-2.077 5.019 7.087 7.087 0 01-5.016 2.08h-54.72a7.102 7.102 0 01-7.093-7.099v-.783a2.17 2.17 0 00-2.164-2.17h-13.229a12.419 12.419 0 00-12.417 12.415V475.91a12.423 12.423 0 007.659 11.476 12.41 12.41 0 004.749.947h99.706a12.409 12.409 0 0011.467-7.666c.624-1.507.946-3.122.946-4.753V230.899c0-1.631-.321-3.246-.944-4.753a12.398 12.398 0 00-2.69-4.03 12.396 12.396 0 00-8.775-3.64" fill="#fff"/><path d="M578.424 222.378h14.943a1.081 1.081 0 000-2.16h-14.943a1.078 1.078 0 00-1.04.656 1.065 1.065 0 000 .849 1.082 1.082 0 001.04.655zm22.497 1.497c.661 0 1.294-.263 1.761-.731a2.489 2.489 0 00.31-3.148 2.49 2.49 0 00-4.514.899 2.49 2.49 0 002.443 2.98z" fill="#E7EFF1"/><path d="M565.145 299.234h-29.222v3.323h29.222v-3.323z" fill="#FF6D70"/><path d="M635.539 299.234H617.94v3.323h17.599v-3.323z" fill="#00C"/><path d="M584.737 310.533h-48.814v36.89h48.814v-36.89zm50.802-.001h-48.813v36.89h48.813v-36.89z" fill="#FF6D70"/><path d="M545.775 363.375h-9.852v2.658h9.852v-2.658zm33.076-13.294h-42.928v3.988h42.928v-3.988zm-23.574 6.646h-19.354v3.988h19.354v-3.988zm41.3 6.648h-9.851v2.657h9.851v-2.657zm33.077-13.294h-42.928v3.987h42.928v-3.987zm-23.575 6.646h-19.353v3.987h19.353v-3.987z" fill="#95B3BE"/><path d="M635.542 376.003h-99.619v66.799h99.619v-66.799z" fill="#FF6D70"/><path d="M628.237 238.747h-92.314v3.988h92.314v-3.988zm5.645 9.306h-97.959v3.988h97.959v-3.988zm0 9.306h-97.959v3.988h97.959v-3.988zm1.66 9.306h-99.619v3.988h99.619v-3.988zm0 9.304h-99.619v3.988h99.619v-3.988zm-59.772 9.306h-39.847v3.988h39.847v-3.988zm51.969 167.493h-84.011v22.596h84.011v-22.596z" fill="#E7EFF1"/><path d="M621.922 427.515h-82.02v3.988h82.02v-3.988zm-45.16 7.311h-36.86v3.988h36.86v-3.988z" fill="#fff"/><defs><filter id="filter0_d" x="70.313" y="433.323" width="579.373" height="56.238" filterUnits="userSpaceOnUse" color-interpolation-filters="sRGB"><feFlood flood-opacity="0" result="BackgroundImageFix"/><feColorMatrix in="SourceAlpha" values="0 0 0 0 0 0 0 0 0 0 0 0 0 0 0 0 0 0 127 0"/><feOffset/><feGaussianBlur stdDeviation="4.5"/><feColorMatrix values="0 0 0 0 0 0 0 0 0 0 0 0 0 0 0 0 0 0 0.33 0"/><feBlend in2="BackgroundImageFix" result="effect1_dropShadow"/><feBlend in="SourceGraphic" in2="effect1_dropShadow" result="shape"/></filter><filter id="filter1_d" x="78.683" y="435.069" width="561.634" height="54.931" filterUnits="userSpaceOnUse" color-interpolation-filters="sRGB"><feFlood flood-opacity="0" result="BackgroundImageFix"/><feColorMatrix in="SourceAlpha" values="0 0 0 0 0 0 0 0 0 0 0 0 0 0 0 0 0 0 127 0"/><feOffset/><feGaussianBlur stdDeviation="4.5"/><feColorMatrix values="0 0 0 0 0 0 0 0 0 0 0 0 0 0 0 0 0 0 0.2 0"/><feBlend in2="BackgroundImageFix" result="effect1_dropShadow"/><feBlend in="SourceGraphic" in2="effect1_dropShadow" result="shape"/></filter><filter id="filter2_d" x="510" y="447" width="151.291" height="60.228" filterUnits="userSpaceOnUse" color-interpolation-filters="sRGB"><feFlood flood-opacity="0" result="BackgroundImageFix"/><feColorMatrix in="SourceAlpha" values="0 0 0 0 0 0 0 0 0 0 0 0 0 0 0 0 0 0 127 0"/><feOffset/><feGaussianBlur stdDeviation="4.5"/><feColorMatrix values="0 0 0 0 0 0 0 0 0 0 0 0 0 0 0 0 0 0 0.2 0"/><feBlend in2="BackgroundImageFix" result="effect1_dropShadow"/><feBlend in="SourceGraphic" in2="effect1_dropShadow" result="shape"/></filter><filter id="filter3_i" x="516.827" y="206.565" width="137.808" height="288.414" filterUnits="userSpaceOnUse" color-interpolation-filters="sRGB"><feFlood flood-opacity="0" result="BackgroundImageFix"/><feBlend in="SourceGraphic" in2="BackgroundImageFix" result="shape"/><feColorMatrix in="SourceAlpha" values="0 0 0 0 0 0 0 0 0 0 0 0 0 0 0 0 0 0 127 0" result="hardAlpha"/><feOffset dy="-5.264"/><feGaussianBlur stdDeviation="8.845"/><feComposite in2="hardAlpha" operator="arithmetic" k2="-1" k3="1"/><feColorMatrix values="0 0 0 0 0 0 0 0 0 0 0 0 0 0 0 0 0 0 0.12 0"/><feBlend in2="shape" result="effect1_innerShadow"/></filter></defs></svg>