<svg xmlns="http://www.w3.org/2000/svg" width="933.333" height="933.333" viewBox="0 0 700 700"><path d="M117.7 117.2c-.9.4-1.2 7.9-1 28 0 15 .2 27.9.2 28.5.1 1 29.9 1.3 145.6 1.3 80 0 145.5-.3 145.6-.8.4-2.9.3-56.5-.1-57-.7-.9-288.8-.9-290.3 0zm336-.4c-1.5.3-1.6 3.2-1.7 29.3V175h131.5l-.2-28.7c0-15.9-.2-29-.2-29.3-.1-.5-126.6-.7-129.4-.2zM252 273.8c-6.5.5-23 4.3-29.5 6.8-15.1 5.6-29 14.3-40.6 25.3-3.5 3.4-6.5 6.1-6.6 6.1-.2 0-.3-7.9-.3-17.5V277h-58l-.1 2.7c-.3 8-.4 301-.1 302.3.3 1.3 4.2 1.5 28.7 1.4 15.7 0 28.7-.3 29-.6.3-.2.5-43.4.6-95.9.1-90.6.2-95.8 2-102.9 3.7-14.2 10.1-25.4 20.3-35.3 30.7-29.9 80.7-26.5 107.7 7.3 8.3 10.3 14.4 25.9 15.4 39 .2 2.5.4 45.9.4 96.5l.1 92 28.5-.1c15.7 0 28.7-.3 29-.6.2-.2.5-42.9.5-94.9.1-81.8.3-95.3 1.6-101.4 8.9-39.8 45.4-64.1 85.4-56.8 8.4 1.6 23.5 7.6 26.6 10.7.8.9 1.9 1.6 2.3 1.6 1.2 0 11.7 10.3 15.5 15.4 4.7 6.2 8.7 14.1 11.7 23.1l2.4 7 .3 97.7.3 97.8h7.7c34.6.3 49.1.2 49.8-.3 1-.6 1-196.2 0-205.2-1.7-15.6-6.4-30.3-14.3-44.4-11.1-19.9-29.4-37.3-50.3-47.7-26.8-13.4-60.3-15.5-89-5.7-24.4 8.4-48 26.8-60 46.8-4.3 7.1-4.2 7.1-9.9-1.6-4.8-7.3-16.6-20.2-23.6-25.9-8.8-7.2-25.2-16-37-19.9-12.6-4.1-33.2-6.5-46.5-5.3z"/></svg>